<svg width="288" height="33" viewBox="0 0 288 33" fill="none" xmlns="http://www.w3.org/2000/svg">
<path fill-rule="evenodd" clip-rule="evenodd" d="M19.5 20.5H0V19.5H19.5V20.5Z" fill="#828FA1"/>
<path fill-rule="evenodd" clip-rule="evenodd" d="M26.1494 19.5H19.5V20.5H26.1494C30.0629 20.5 33.8947 19.3798 37.192 17.2717L57.8395 4.07082C60.9759 2.06557 64.6208 1 68.3434 1H75.5V0H68.3434C64.4299 0 60.5981 1.12022 57.3008 3.2283L36.6533 16.4292C33.5169 18.4344 29.872 19.5 26.1494 19.5Z" fill="#828FA1"/>
<path fill-rule="evenodd" clip-rule="evenodd" d="M212.5 1H75.5V0H212.5V1Z" fill="#828FA1"/>
<path d="M97.8906 18L95.5586 9.41602H97.1406L98.8047 16.0957L100.762 9.45703H102.279L104.137 16.1191L105.836 9.41602H107.418L105.016 18H103.369L101.535 11.7129L99.5254 18H97.8906ZM108.812 18V9.41602H114.015L113.951 10.6758H110.4V12.8906H113.775V14.1504H110.4V16.7344H114.08L114.027 18H108.812ZM121.292 16.7285H122.428C123.409 16.7285 124.155 16.4727 124.667 15.9609C125.178 15.4453 125.434 14.6953 125.434 13.7109C125.434 12.6562 125.17 11.8906 124.643 11.4141C124.116 10.9336 123.321 10.6934 122.258 10.6934H121.292V16.7285ZM119.704 18V9.41602H122.188C122.938 9.41602 123.61 9.50195 124.204 9.67383C124.797 9.8457 125.307 10.1055 125.733 10.4531C126.163 10.7969 126.491 11.2422 126.717 11.7891C126.948 12.332 127.063 12.9609 127.063 13.6758C127.063 15.0625 126.645 16.1309 125.809 16.8809C124.973 17.627 123.815 18 122.335 18H119.704ZM131.006 16.0137C131.432 16.5566 132.061 16.8281 132.893 16.8281C133.725 16.8281 134.352 16.5586 134.774 16.0195C135.199 15.4766 135.412 14.7109 135.412 13.7227C135.412 12.7227 135.199 11.9473 134.774 11.3965C134.352 10.8457 133.727 10.5703 132.899 10.5703C132.066 10.5703 131.436 10.8477 131.006 11.4023C130.58 11.9531 130.367 12.7266 130.367 13.7227C130.367 14.707 130.58 15.4707 131.006 16.0137ZM132.887 18.123C131.594 18.123 130.572 17.7324 129.822 16.9512C129.076 16.166 128.703 15.084 128.703 13.7051C128.703 12.3184 129.078 11.2363 129.828 10.459C130.578 9.68164 131.6 9.29297 132.893 9.29297C134.186 9.29297 135.205 9.68359 135.951 10.4648C136.697 11.2422 137.07 12.3242 137.07 13.7109C137.07 15.082 136.695 16.1602 135.945 16.9453C135.195 17.7305 134.176 18.123 132.887 18.123ZM139.056 18V9.41602H140.744C141.048 9.89258 141.668 10.8535 142.601 12.2988C143.535 13.7441 144.103 14.623 144.306 14.9355C144.365 15.0254 144.464 15.1777 144.605 15.3926C144.75 15.6035 144.851 15.7539 144.91 15.8438C144.882 14.5039 144.869 13.8086 144.869 13.7578V9.41602H146.316V18H144.605L140.732 11.9648L140.451 11.502C140.482 12.5332 140.498 13.2578 140.498 13.6758V18H139.056ZM148.536 12.5566L148.331 9.42188H149.585L149.427 12.5566H148.536ZM153.358 18V10.6875H150.856V9.41602H157.442V10.6875H154.952V18H153.358ZM161.232 19.8809L161.168 18.6328C161.355 18.6641 161.56 18.6797 161.783 18.6797C162.216 18.6797 162.509 18.5684 162.662 18.3457C162.814 18.123 162.89 17.7559 162.89 17.2441V9.39258H164.484V17.1387C164.484 17.6309 164.439 18.0449 164.349 18.3809C164.263 18.7207 164.115 19.0078 163.904 19.2422C163.697 19.4805 163.42 19.6543 163.072 19.7637C162.728 19.873 162.3 19.9277 161.789 19.9277C161.574 19.9277 161.388 19.9121 161.232 19.8809ZM170.132 18.123C169.007 18.123 168.154 17.8438 167.571 17.2852C166.989 16.7227 166.698 15.9316 166.698 14.9121V9.41602H168.292V14.7773C168.292 15.4922 168.437 16.0137 168.726 16.3418C169.019 16.6699 169.497 16.834 170.161 16.834C170.814 16.834 171.286 16.6699 171.579 16.3418C171.872 16.0098 172.019 15.4863 172.019 14.7715V9.41602H173.607V14.9238C173.607 15.9355 173.31 16.7227 172.716 17.2852C172.122 17.8438 171.261 18.123 170.132 18.123ZM178.27 18.1172C177.235 18.1172 176.307 17.8789 175.487 17.4023L175.874 16.1426C176.241 16.3457 176.639 16.5098 177.069 16.6348C177.503 16.7598 177.925 16.8223 178.335 16.8223C178.839 16.8223 179.219 16.7148 179.477 16.5C179.735 16.2812 179.864 15.9688 179.864 15.5625C179.864 15.0234 179.505 14.6504 178.786 14.4434C178.735 14.4277 178.592 14.3867 178.358 14.3203C178.124 14.25 177.903 14.1836 177.696 14.1211C177.493 14.0547 177.346 14.0039 177.257 13.9688C176.104 13.5625 175.528 12.8047 175.528 11.6953C175.528 10.918 175.803 10.3184 176.354 9.89648C176.909 9.47461 177.643 9.26367 178.557 9.26367C179.592 9.26367 180.485 9.47656 181.235 9.90234L180.755 11.0625C179.989 10.7188 179.278 10.5469 178.622 10.5469C178.149 10.5469 177.792 10.6309 177.55 10.7988C177.311 10.9629 177.184 11.2383 177.169 11.625C177.169 12.1016 177.405 12.4121 177.878 12.5566C177.971 12.5918 178.202 12.668 178.569 12.7852C178.936 12.9023 179.175 12.9785 179.284 13.0137C180.069 13.2715 180.63 13.5918 180.966 13.9746C181.305 14.3574 181.475 14.8906 181.475 15.5742C181.475 16.3906 181.186 17.0195 180.608 17.4609C180.03 17.8984 179.251 18.1172 178.27 18.1172ZM184.973 18V10.6875H182.471V9.41602H189.057V10.6875H186.567V18H184.973ZM100.123 31V22.416H101.71V31H100.123ZM104.089 31V22.416H105.776C106.081 22.8926 106.7 23.8535 107.634 25.2988C108.567 26.7441 109.136 27.623 109.339 27.9355C109.398 28.0254 109.497 28.1777 109.638 28.3926C109.782 28.6035 109.884 28.7539 109.942 28.8438C109.915 27.5039 109.901 26.8086 109.901 26.7578V22.416H111.349V31H109.638L105.765 24.9648L105.483 24.502C105.515 25.5332 105.53 26.2578 105.53 26.6758V31H104.089ZM115.836 31L112.713 22.416H114.348L116.165 27.7188C116.235 27.9023 116.397 28.4395 116.651 29.3301C116.667 29.2676 116.739 29.0117 116.868 28.5625C116.997 28.1094 117.081 27.832 117.12 27.7305C117.167 27.5977 117.463 26.7168 118.01 25.0879C118.557 23.4551 118.856 22.5645 118.907 22.416H120.524L117.442 31H115.836ZM121.83 31V22.416H127.033L126.969 23.6758H123.418V25.8906H126.793V27.1504H123.418V29.7344H127.098L127.045 31H121.83ZM131.468 31.1172C130.433 31.1172 129.505 30.8789 128.685 30.4023L129.072 29.1426C129.439 29.3457 129.838 29.5098 130.267 29.6348C130.701 29.7598 131.123 29.8223 131.533 29.8223C132.037 29.8223 132.418 29.7148 132.675 29.5C132.933 29.2812 133.062 28.9688 133.062 28.5625C133.062 28.0234 132.703 27.6504 131.984 27.4434C131.933 27.4277 131.791 27.3867 131.556 27.3203C131.322 27.25 131.101 27.1836 130.894 27.1211C130.691 27.0547 130.545 27.0039 130.455 26.9688C129.302 26.5625 128.726 25.8047 128.726 24.6953C128.726 23.918 129.002 23.3184 129.552 22.8965C130.107 22.4746 130.841 22.2637 131.755 22.2637C132.791 22.2637 133.683 22.4766 134.433 22.9023L133.953 24.0625C133.187 23.7188 132.476 23.5469 131.82 23.5469C131.347 23.5469 130.99 23.6309 130.748 23.7988C130.509 23.9629 130.382 24.2383 130.367 24.625C130.367 25.1016 130.603 25.4121 131.076 25.5566C131.17 25.5918 131.4 25.668 131.767 25.7852C132.134 25.9023 132.373 25.9785 132.482 26.0137C133.267 26.2715 133.828 26.5918 134.164 26.9746C134.504 27.3574 134.673 27.8906 134.673 28.5742C134.673 29.3906 134.384 30.0195 133.806 30.4609C133.228 30.8984 132.449 31.1172 131.468 31.1172ZM138.171 31V23.6875H135.669V22.416H142.255V23.6875H139.765V31H138.171ZM147.399 31V22.416H149.274L151.869 28.6152L154.483 22.416H156.334V31H154.869V26.7578L154.916 24.3262L154.699 24.9707L152.502 30.4141H151.143L148.992 24.9414L148.776 24.2969L148.828 26.7812V31H147.399ZM160.629 29.0137C161.054 29.5566 161.683 29.8281 162.515 29.8281C163.347 29.8281 163.974 29.5586 164.396 29.0195C164.822 28.4766 165.035 27.7109 165.035 26.7227C165.035 25.7227 164.822 24.9473 164.396 24.3965C163.974 23.8457 163.349 23.5703 162.521 23.5703C161.689 23.5703 161.058 23.8477 160.629 24.4023C160.203 24.9531 159.99 25.7266 159.99 26.7227C159.99 27.707 160.203 28.4707 160.629 29.0137ZM162.509 31.123C161.216 31.123 160.195 30.7324 159.445 29.9512C158.699 29.166 158.326 28.084 158.326 26.7051C158.326 25.3184 158.701 24.2363 159.451 23.459C160.201 22.6816 161.222 22.293 162.515 22.293C163.808 22.293 164.828 22.6836 165.574 23.4648C166.32 24.2422 166.693 25.3242 166.693 26.7109C166.693 28.082 166.318 29.1602 165.568 29.9453C164.818 30.7305 163.799 31.123 162.509 31.123ZM168.679 31V22.416H170.366C170.671 22.8926 171.29 23.8535 172.224 25.2988C173.157 26.7441 173.726 27.623 173.929 27.9355C173.988 28.0254 174.087 28.1777 174.228 28.3926C174.372 28.6035 174.474 28.7539 174.532 28.8438C174.505 27.5039 174.491 26.8086 174.491 26.7578V22.416H175.939V31H174.228L170.355 24.9648L170.073 24.502C170.105 25.5332 170.12 26.2578 170.12 26.6758V31H168.679ZM178.264 31V22.416H183.467L183.403 23.6758H179.852V25.8906H183.227V27.1504H179.852V29.7344H183.532L183.479 31H178.264ZM187.451 31V27.5957L184.481 22.416H186.203L188.248 26.1309L190.305 22.416H192.004L189.045 27.5664V31H187.451Z" fill="#00FFFF"/>
<path fill-rule="evenodd" clip-rule="evenodd" d="M219.149 1H212.5V0H219.149C223.063 0 226.895 1.12022 230.192 3.2283L250.84 16.4292C253.976 18.4344 257.621 19.5 261.343 19.5H268.5V20.5H261.343C257.43 20.5 253.598 19.3798 250.301 17.2717L229.653 4.07082C226.517 2.06557 222.872 1 219.149 1Z" fill="#828FA1"/>
<path fill-rule="evenodd" clip-rule="evenodd" d="M288 20.5H268.5V19.5H288V20.5Z" fill="#828FA1"/>
</svg>
