<svg width="1390" height="29" viewBox="0 0 1390 29" fill="none" xmlns="http://www.w3.org/2000/svg">
<path fill-rule="evenodd" clip-rule="evenodd" d="M471.5 20.5H0V19.5H471.5V20.5Z" fill="#828FA1"/>
<path fill-rule="evenodd" clip-rule="evenodd" d="M478.149 19.5H471.5V20.5H478.149C482.063 20.5 485.895 19.3798 489.192 17.2717L509.84 4.07082C512.976 2.06557 516.621 1 520.343 1H527.5V0H520.343C516.43 0 512.598 1.12022 509.301 3.2283L488.653 16.4292C485.517 18.4344 481.872 19.5 478.149 19.5Z" fill="#828FA1"/>
<path fill-rule="evenodd" clip-rule="evenodd" d="M862.5 1H527.5V0H862.5V1Z" fill="#828FA1"/>
<path d="M570.688 22L567.578 10.5547H569.688L571.906 19.4609L574.516 10.6094H576.539L579.016 19.4922L581.281 10.5547H583.391L580.188 22H577.992L575.547 13.6172L572.867 22H570.688ZM585.249 22V10.5547H592.187L592.101 12.2344H587.367V15.1875H591.867V16.8672H587.367V20.3125H592.273L592.202 22H585.249ZM601.889 20.3047H603.404C604.712 20.3047 605.706 19.9635 606.389 19.2812C607.071 18.5938 607.412 17.5938 607.412 16.2812C607.412 14.875 607.061 13.8542 606.358 13.2188C605.654 12.5781 604.594 12.2578 603.178 12.2578H601.889V20.3047ZM599.772 22V10.5547H603.084C604.084 10.5547 604.98 10.6693 605.772 10.8984C606.563 11.1276 607.243 11.474 607.811 11.9375C608.384 12.3958 608.821 12.9896 609.123 13.7188C609.43 14.4427 609.584 15.2812 609.584 16.2344C609.584 18.0833 609.027 19.5078 607.912 20.5078C606.798 21.5026 605.253 22 603.279 22H599.772ZM614.841 19.3516C615.409 20.0755 616.248 20.4375 617.357 20.4375C618.466 20.4375 619.302 20.0781 619.865 19.3594C620.432 18.6354 620.716 17.6146 620.716 16.2969C620.716 14.9635 620.432 13.9297 619.865 13.1953C619.302 12.4609 618.469 12.0938 617.365 12.0938C616.255 12.0938 615.414 12.4635 614.841 13.2031C614.274 13.9375 613.99 14.9688 613.99 16.2969C613.99 17.6094 614.274 18.6276 614.841 19.3516ZM617.349 22.1641C615.625 22.1641 614.263 21.6432 613.263 20.6016C612.268 19.5547 611.771 18.112 611.771 16.2734C611.771 14.4245 612.271 12.9818 613.271 11.9453C614.271 10.9089 615.633 10.3906 617.357 10.3906C619.081 10.3906 620.44 10.9115 621.435 11.9531C622.43 12.9896 622.927 14.4323 622.927 16.2812C622.927 18.1094 622.427 19.5469 621.427 20.5938C620.427 21.6406 619.068 22.1641 617.349 22.1641ZM625.575 22V10.5547H627.825C628.231 11.1901 629.057 12.4714 630.302 14.3984C631.546 16.3255 632.304 17.4974 632.575 17.9141C632.653 18.0339 632.786 18.237 632.973 18.5234C633.166 18.8047 633.302 19.0052 633.38 19.125C633.343 17.3385 633.325 16.4115 633.325 16.3438V10.5547H635.255V22H632.973L627.809 13.9531L627.434 13.3359C627.476 14.7109 627.497 15.6771 627.497 16.2344V22H625.575ZM638.215 14.7422L637.942 10.5625H639.613L639.402 14.7422H638.215ZM644.644 22V12.25H641.308V10.5547H650.089V12.25H646.769V22H644.644ZM655.143 24.5078L655.057 22.8438C655.307 22.8854 655.58 22.9062 655.877 22.9062C656.455 22.9062 656.846 22.7578 657.049 22.4609C657.252 22.1641 657.354 21.6745 657.354 20.9922V10.5234H659.479V20.8516C659.479 21.5078 659.419 22.0599 659.299 22.5078C659.184 22.9609 658.987 23.3438 658.705 23.6562C658.429 23.974 658.059 24.2057 657.596 24.3516C657.138 24.4974 656.567 24.5703 655.885 24.5703C655.599 24.5703 655.351 24.5495 655.143 24.5078ZM667.009 22.1641C665.509 22.1641 664.371 21.7917 663.595 21.0469C662.819 20.2969 662.431 19.2422 662.431 17.8828V10.5547H664.556V17.7031C664.556 18.6562 664.749 19.3516 665.134 19.7891C665.525 20.2266 666.163 20.4453 667.048 20.4453C667.918 20.4453 668.548 20.2266 668.939 19.7891C669.33 19.3464 669.525 18.6484 669.525 17.6953V10.5547H671.642V17.8984C671.642 19.2474 671.246 20.2969 670.455 21.0469C669.663 21.7917 668.515 22.1641 667.009 22.1641ZM677.86 22.1562C676.48 22.1562 675.243 21.8385 674.149 21.2031L674.665 19.5234C675.155 19.7943 675.686 20.013 676.259 20.1797C676.837 20.3464 677.399 20.4297 677.946 20.4297C678.618 20.4297 679.126 20.2865 679.47 20C679.813 19.7083 679.985 19.2917 679.985 18.75C679.985 18.0312 679.506 17.5339 678.548 17.2578C678.48 17.237 678.29 17.1823 677.978 17.0938C677.665 17 677.371 16.9115 677.095 16.8281C676.824 16.7396 676.629 16.6719 676.509 16.625C674.972 16.0833 674.204 15.0729 674.204 13.5938C674.204 12.5573 674.571 11.7578 675.306 11.1953C676.045 10.6328 677.024 10.3516 678.243 10.3516C679.623 10.3516 680.813 10.6354 681.813 11.2031L681.173 12.75C680.152 12.2917 679.204 12.0625 678.329 12.0625C677.699 12.0625 677.222 12.1745 676.899 12.3984C676.582 12.6172 676.412 12.9844 676.392 13.5C676.392 14.1354 676.707 14.5495 677.337 14.7422C677.462 14.7891 677.769 14.8906 678.259 15.0469C678.748 15.2031 679.066 15.3047 679.212 15.3516C680.259 15.6953 681.006 16.1224 681.454 16.6328C681.907 17.1432 682.134 17.8542 682.134 18.7656C682.134 19.8542 681.748 20.6927 680.978 21.2812C680.207 21.8646 679.168 22.1562 677.86 22.1562ZM686.797 22V12.25H683.461V10.5547H692.243V12.25H688.922V22H686.797ZM699.155 22V10.5547H701.273V22H699.155ZM704.444 22V10.5547H706.694C707.1 11.1901 707.926 12.4714 709.17 14.3984C710.415 16.3255 711.173 17.4974 711.444 17.9141C711.522 18.0339 711.655 18.237 711.842 18.5234C712.035 18.8047 712.17 19.0052 712.248 19.125C712.212 17.3385 712.194 16.4115 712.194 16.3438V10.5547H714.123V22H711.842L706.678 13.9531L706.303 13.3359C706.345 14.7109 706.366 15.6771 706.366 16.2344V22H704.444ZM720.107 22L715.943 10.5547H718.123L720.545 17.625C720.638 17.8698 720.855 18.5859 721.193 19.7734C721.214 19.6901 721.31 19.349 721.482 18.75C721.654 18.1458 721.766 17.776 721.818 17.6406C721.881 17.4635 722.276 16.2891 723.006 14.1172C723.735 11.9401 724.133 10.7526 724.201 10.5547H726.357L722.248 22H720.107ZM728.099 22V10.5547H735.036L734.95 12.2344H730.216V15.1875H734.716V16.8672H730.216V20.3125H735.122L735.052 22H728.099ZM740.95 22.1562C739.569 22.1562 738.333 21.8385 737.239 21.2031L737.754 19.5234C738.244 19.7943 738.775 20.013 739.348 20.1797C739.926 20.3464 740.489 20.4297 741.036 20.4297C741.708 20.4297 742.215 20.2865 742.559 20C742.903 19.7083 743.075 19.2917 743.075 18.75C743.075 18.0312 742.596 17.5339 741.637 17.2578C741.569 17.237 741.379 17.1823 741.067 17.0938C740.754 17 740.46 16.9115 740.184 16.8281C739.913 16.7396 739.718 16.6719 739.598 16.625C738.062 16.0833 737.293 15.0729 737.293 13.5938C737.293 12.5573 737.661 11.7578 738.395 11.1953C739.135 10.6328 740.114 10.3516 741.333 10.3516C742.713 10.3516 743.903 10.6354 744.903 11.2031L744.262 12.75C743.241 12.2917 742.293 12.0625 741.418 12.0625C740.788 12.0625 740.312 12.1745 739.989 12.3984C739.671 12.6172 739.502 12.9844 739.481 13.5C739.481 14.1354 739.796 14.5495 740.426 14.7422C740.551 14.7891 740.859 14.8906 741.348 15.0469C741.838 15.2031 742.155 15.3047 742.301 15.3516C743.348 15.6953 744.096 16.1224 744.543 16.6328C744.997 17.1432 745.223 17.8542 745.223 18.7656C745.223 19.8542 744.838 20.6927 744.067 21.2812C743.296 21.8646 742.257 22.1562 740.95 22.1562ZM749.887 22V12.25H746.551V10.5547H755.332V12.25H752.012V22H749.887ZM762.19 22V10.5547H764.69L768.151 18.8203L771.635 10.5547H774.104V22H772.151V16.3438L772.213 13.1016L771.924 13.9609L768.995 21.2188H767.182L764.315 13.9219L764.026 13.0625L764.096 16.375V22H762.19ZM779.83 19.3516C780.398 20.0755 781.236 20.4375 782.346 20.4375C783.455 20.4375 784.291 20.0781 784.853 19.3594C785.421 18.6354 785.705 17.6146 785.705 16.2969C785.705 14.9635 785.421 13.9297 784.853 13.1953C784.291 12.4609 783.458 12.0938 782.353 12.0938C781.244 12.0938 780.403 12.4635 779.83 13.2031C779.262 13.9375 778.978 14.9688 778.978 16.2969C778.978 17.6094 779.262 18.6276 779.83 19.3516ZM782.338 22.1641C780.614 22.1641 779.252 21.6432 778.252 20.6016C777.257 19.5547 776.76 18.112 776.76 16.2734C776.76 14.4245 777.26 12.9818 778.26 11.9453C779.26 10.9089 780.622 10.3906 782.346 10.3906C784.07 10.3906 785.429 10.9115 786.424 11.9531C787.419 12.9896 787.916 14.4323 787.916 16.2812C787.916 18.1094 787.416 19.5469 786.416 20.5938C785.416 21.6406 784.057 22.1641 782.338 22.1641ZM790.564 22V10.5547H792.814C793.22 11.1901 794.046 12.4714 795.29 14.3984C796.535 16.3255 797.293 17.4974 797.564 17.9141C797.642 18.0339 797.775 18.237 797.962 18.5234C798.155 18.8047 798.29 19.0052 798.368 19.125C798.332 17.3385 798.314 16.4115 798.314 16.3438V10.5547H800.243V22H797.962L792.798 13.9531L792.423 13.3359C792.465 14.7109 792.486 15.6771 792.486 16.2344V22H790.564ZM803.344 22V10.5547H810.282L810.196 12.2344H805.462V15.1875H809.962V16.8672H805.462V20.3125H810.368L810.298 22H803.344ZM815.594 22V17.4609L811.633 10.5547H813.93L816.656 15.5078L819.398 10.5547H821.664L817.719 17.4219V22H815.594Z" fill="#00FFFF"/>
<path fill-rule="evenodd" clip-rule="evenodd" d="M869.149 1H862.5V0H869.149C873.063 0 876.895 1.12022 880.192 3.2283L900.84 16.4292C903.976 18.4344 907.621 19.5 911.343 19.5H918.5V20.5H911.343C907.43 20.5 903.598 19.3798 900.301 17.2717L879.653 4.07082C876.517 2.06557 872.872 1 869.149 1Z" fill="#828FA1"/>
<path fill-rule="evenodd" clip-rule="evenodd" d="M1390 20.5H918.5V19.5H1390V20.5Z" fill="#828FA1"/>
</svg>
