<svg width="1390" height="29" viewBox="0 0 1390 29" fill="none" xmlns="http://www.w3.org/2000/svg">
<path fill-rule="evenodd" clip-rule="evenodd" d="M555 20.5H0V19.5H555V20.5Z" fill="#828FA1"/>
<path fill-rule="evenodd" clip-rule="evenodd" d="M561.649 19.5H555V20.5H561.649C565.563 20.5 569.395 19.3798 572.692 17.2717L593.34 4.07082C596.476 2.06557 600.121 1 603.843 1H611V0H603.843C599.93 0 596.098 1.12022 592.801 3.2283L572.153 16.4292C569.017 18.4344 565.372 19.5 561.649 19.5Z" fill="#828FA1"/>
<path fill-rule="evenodd" clip-rule="evenodd" d="M779 1H611V0H779V1Z" fill="#828FA1"/>
<path d="M657.227 22.1641C655.555 22.1641 654.229 21.638 653.25 20.5859C652.271 19.5339 651.781 18.0807 651.781 16.2266C651.781 14.4661 652.292 13.0547 653.312 11.9922C654.339 10.9245 655.68 10.3906 657.336 10.3906C658.674 10.3906 659.807 10.7005 660.734 11.3203L660.07 12.9219C659.18 12.375 658.284 12.1016 657.383 12.1016C656.331 12.1016 655.497 12.4818 654.883 13.2422C654.273 13.9974 653.969 15.013 653.969 16.2891C653.969 17.612 654.263 18.6354 654.852 19.3594C655.445 20.0833 656.289 20.4453 657.383 20.4453C658.341 20.4453 659.292 20.2057 660.234 19.7266L660.516 21.3828C659.641 21.9036 658.544 22.1641 657.227 22.1641ZM665.656 19.3516C666.223 20.0755 667.062 20.4375 668.171 20.4375C669.281 20.4375 670.117 20.0781 670.679 19.3594C671.247 18.6354 671.531 17.6146 671.531 16.2969C671.531 14.9635 671.247 13.9297 670.679 13.1953C670.117 12.4609 669.283 12.0938 668.179 12.0938C667.07 12.0938 666.229 12.4635 665.656 13.2031C665.088 13.9375 664.804 14.9688 664.804 16.2969C664.804 17.6094 665.088 18.6276 665.656 19.3516ZM668.163 22.1641C666.439 22.1641 665.078 21.6432 664.078 20.6016C663.083 19.5547 662.585 18.112 662.585 16.2734C662.585 14.4245 663.085 12.9818 664.085 11.9453C665.085 10.9089 666.447 10.3906 668.171 10.3906C669.895 10.3906 671.255 10.9115 672.249 11.9531C673.244 12.9896 673.742 14.4323 673.742 16.2812C673.742 18.1094 673.242 19.5469 672.242 20.5938C671.242 21.6406 669.882 22.1641 668.163 22.1641ZM676.389 22V10.5547H678.639C679.046 11.1901 679.871 12.4714 681.116 14.3984C682.361 16.3255 683.119 17.4974 683.389 17.9141C683.468 18.0339 683.6 18.237 683.788 18.5234C683.981 18.8047 684.116 19.0052 684.194 19.125C684.158 17.3385 684.139 16.4115 684.139 16.3438V10.5547H686.069V22H683.788L678.624 13.9531L678.249 13.3359C678.29 14.7109 678.311 15.6771 678.311 16.2344V22H676.389ZM691.381 22V12.25H688.045V10.5547H696.826V12.25H693.506V22H691.381ZM697.349 22L701.56 10.5469H703.865L708.013 22H705.841L704.708 18.7656H700.701L699.56 22H697.349ZM701.232 17.1875H704.169C703.232 14.1823 702.75 12.6302 702.724 12.5312L701.232 17.1875ZM714.77 22.1641C713.098 22.1641 711.773 21.638 710.794 20.5859C709.815 19.5339 709.325 18.0807 709.325 16.2266C709.325 14.4661 709.835 13.0547 710.856 11.9922C711.882 10.9245 713.223 10.3906 714.88 10.3906C716.218 10.3906 717.351 10.7005 718.278 11.3203L717.614 12.9219C716.723 12.375 715.828 12.1016 714.927 12.1016C713.874 12.1016 713.041 12.4818 712.427 13.2422C711.817 13.9974 711.513 15.013 711.513 16.2891C711.513 17.612 711.807 18.6354 712.395 19.3594C712.989 20.0833 713.833 20.4453 714.927 20.4453C715.885 20.4453 716.835 20.2057 717.778 19.7266L718.059 21.3828C717.184 21.9036 716.088 22.1641 714.77 22.1641ZM722.801 22V12.25H719.465V10.5547H728.246V12.25H724.926V22H722.801ZM733.441 22.1562C732.061 22.1562 730.824 21.8385 729.73 21.2031L730.246 19.5234C730.735 19.7943 731.266 20.013 731.839 20.1797C732.418 20.3464 732.98 20.4297 733.527 20.4297C734.199 20.4297 734.707 20.2865 735.05 20C735.394 19.7083 735.566 19.2917 735.566 18.75C735.566 18.0312 735.087 17.5339 734.128 17.2578C734.061 17.237 733.871 17.1823 733.558 17.0938C733.246 17 732.951 16.9115 732.675 16.8281C732.404 16.7396 732.209 16.6719 732.089 16.625C730.553 16.0833 729.785 15.0729 729.785 13.5938C729.785 12.5573 730.152 11.7578 730.886 11.1953C731.626 10.6328 732.605 10.3516 733.824 10.3516C735.204 10.3516 736.394 10.6354 737.394 11.2031L736.753 12.75C735.733 12.2917 734.785 12.0625 733.91 12.0625C733.279 12.0625 732.803 12.1745 732.48 12.3984C732.162 12.6172 731.993 12.9844 731.972 13.5C731.972 14.1354 732.287 14.5495 732.918 14.7422C733.043 14.7891 733.35 14.8906 733.839 15.0469C734.329 15.2031 734.647 15.3047 734.793 15.3516C735.839 15.6953 736.587 16.1224 737.035 16.6328C737.488 17.1432 737.714 17.8542 737.714 18.7656C737.714 19.8542 737.329 20.6927 736.558 21.2812C735.787 21.8646 734.748 22.1562 733.441 22.1562Z" fill="#00FFFF"/>
<path fill-rule="evenodd" clip-rule="evenodd" d="M785.649 1H779V0H785.649C789.563 0 793.395 1.12022 796.692 3.2283L817.34 16.4292C820.476 18.4344 824.121 19.5 827.843 19.5H835V20.5H827.843C823.93 20.5 820.098 19.3798 816.801 17.2717L796.153 4.07082C793.017 2.06557 789.372 1 785.649 1Z" fill="#828FA1"/>
<path fill-rule="evenodd" clip-rule="evenodd" d="M1390 20.5H835V19.5H1390V20.5Z" fill="#828FA1"/>
</svg>
