<svg width="960" height="29" viewBox="0 0 960 29" fill="none" xmlns="http://www.w3.org/2000/svg">
<path fill-rule="evenodd" clip-rule="evenodd" d="M321.5 20.5H0V19.5H321.5V20.5Z" fill="#828FA1"/>
<path fill-rule="evenodd" clip-rule="evenodd" d="M328.149 19.5H321.5V20.5H328.149C332.063 20.5 335.895 19.3798 339.192 17.2717L359.84 4.07082C362.976 2.06558 366.621 1 370.343 1H377.5V0H370.343C366.43 0 362.598 1.12022 359.301 3.2283L338.653 16.4292C335.517 18.4344 331.872 19.5 328.149 19.5Z" fill="#828FA1"/>
<path fill-rule="evenodd" clip-rule="evenodd" d="M582.5 1H377.5V0H582.5V1Z" fill="#828FA1"/>
<path d="M420.688 22L417.578 10.5547H419.688L421.906 19.4609L424.516 10.6094H426.539L429.016 19.4922L431.281 10.5547H433.391L430.188 22H427.992L425.547 13.6172L422.867 22H420.688ZM435.249 22V10.5547H437.367V15.2344H442.538V10.5547H444.656V22H442.538V16.9062H437.367V22H435.249ZM446.507 22L450.718 10.5469H453.022L457.171 22H454.999L453.866 18.7656H449.858L448.718 22H446.507ZM450.389 17.1875H453.327C452.389 14.1823 451.908 12.6302 451.882 12.5312L450.389 17.1875ZM460.537 22V12.25H457.201V10.5547H465.982V12.25H462.662V22H460.537ZM474.794 22L471.684 10.5547H473.794L476.013 19.4609L478.622 10.6094H480.645L483.122 19.4922L485.388 10.5547H487.497L484.294 22H482.098L479.653 13.6172L476.973 22H474.794ZM489.356 22V10.5547H496.293L496.207 12.2344H491.473V15.1875H495.973V16.8672H491.473V20.3125H496.379L496.309 22H489.356ZM502.612 22L506.823 10.5469H509.128L513.276 22H511.104L509.972 18.7656H505.964L504.823 22H502.612ZM506.495 17.1875H509.433C508.495 14.1823 508.013 12.6302 507.987 12.5312L506.495 17.1875ZM515.002 22V10.5234H519.244C519.823 10.5234 520.323 10.5495 520.744 10.6016C521.171 10.6536 521.575 10.75 521.955 10.8906C522.341 11.026 522.651 11.2109 522.885 11.4453C523.125 11.6797 523.312 11.987 523.448 12.3672C523.588 12.7422 523.658 13.1875 523.658 13.7031C523.658 15.224 522.968 16.224 521.588 16.7031C521.869 17.0208 522.218 17.6094 522.635 18.4688L524.338 22H522.026L520.69 19.0078C520.184 17.9349 519.872 17.2995 519.752 17.1016C519.664 17.0964 519.369 17.0938 518.869 17.0938L517.096 17.0781V22H515.002ZM519.432 15.5625C520.244 15.5625 520.828 15.4193 521.182 15.1328C521.536 14.8411 521.713 14.375 521.713 13.7344C521.713 13.1719 521.533 12.7578 521.174 12.4922C520.815 12.2266 520.265 12.0938 519.526 12.0938H517.096V15.5547C517.174 15.5547 517.562 15.5573 518.26 15.5625C518.958 15.5625 519.349 15.5625 519.432 15.5625ZM526.494 22V10.5547H533.431L533.345 12.2344H528.611V15.1875H533.111V16.8672H528.611V20.3125H533.517L533.447 22H526.494ZM537.423 18.5C537.475 18.0885 537.587 17.6719 537.759 17.25C537.931 16.8281 538.118 16.4479 538.321 16.1094C538.53 15.7708 538.733 15.4427 538.931 15.125C539.134 14.8073 539.3 14.4922 539.431 14.1797C539.566 13.862 539.634 13.5703 539.634 13.3047C539.629 12.8464 539.483 12.4844 539.196 12.2188C538.915 11.9531 538.522 11.8203 538.017 11.8203C537.694 11.8203 537.381 11.862 537.079 11.9453C536.777 12.0234 536.545 12.1016 536.384 12.1797C536.228 12.2578 536.048 12.3594 535.845 12.4844L535.298 11.1875C535.725 10.9115 536.168 10.7057 536.626 10.5703C537.084 10.4297 537.621 10.3594 538.235 10.3594C538.605 10.3594 538.964 10.4167 539.313 10.5312C539.668 10.6406 539.991 10.8021 540.282 11.0156C540.579 11.224 540.816 11.5026 540.993 11.8516C541.175 12.2005 541.267 12.5938 541.267 13.0312C541.267 13.3854 541.204 13.7344 541.079 14.0781C540.954 14.4219 540.782 14.7604 540.563 15.0938C540.345 15.4271 540.113 15.7526 539.868 16.0703C539.629 16.388 539.358 16.7682 539.056 17.2109C538.759 17.6484 538.504 18.0781 538.29 18.5H537.423ZM537.837 22.1406C537.498 22.1406 537.212 22.0234 536.978 21.7891C536.743 21.5547 536.626 21.276 536.626 20.9531C536.626 20.625 536.743 20.3411 536.978 20.1016C537.212 19.862 537.498 19.7422 537.837 19.7422C538.17 19.7422 538.451 19.862 538.681 20.1016C538.91 20.3411 539.024 20.625 539.024 20.9531C539.024 21.276 538.91 21.5547 538.681 21.7891C538.451 22.0234 538.17 22.1406 537.837 22.1406Z" fill="#00FFFF"/>
<path fill-rule="evenodd" clip-rule="evenodd" d="M589.149 1H582.5V0H589.149C593.063 0 596.895 1.12022 600.192 3.2283L620.84 16.4292C623.976 18.4344 627.621 19.5 631.343 19.5H638.5V20.5H631.343C627.43 20.5 623.598 19.3798 620.301 17.2717L599.653 4.07082C596.517 2.06557 592.872 1 589.149 1Z" fill="#828FA1"/>
<path fill-rule="evenodd" clip-rule="evenodd" d="M960 20.5H638.5V19.5H960V20.5Z" fill="#828FA1"/>
</svg>
