<svg width="1390" height="29" viewBox="0 0 1390 29" fill="none" xmlns="http://www.w3.org/2000/svg">
<path fill-rule="evenodd" clip-rule="evenodd" d="M568 20.5H0V19.5H568V20.5Z" fill="#828FA1"/>
<path fill-rule="evenodd" clip-rule="evenodd" d="M574.649 19.5H568V20.5H574.649C578.563 20.5 582.395 19.3798 585.692 17.2717L606.34 4.07082C609.476 2.06557 613.121 1 616.843 1H624V0H616.843C612.93 0 609.098 1.12022 605.801 3.2283L585.153 16.4292C582.017 18.4344 578.372 19.5 574.649 19.5Z" fill="#828FA1"/>
<path fill-rule="evenodd" clip-rule="evenodd" d="M766 1H624V0H766V1Z" fill="#828FA1"/>
<path d="M665.234 22V10.5547H672.172L672.086 12.2344H667.352V15.1875H671.852V16.8672H667.352V20.3125H672.258L672.188 22H665.234ZM677.757 22L673.593 10.5547H675.773L678.195 17.625C678.288 17.8698 678.505 18.5859 678.843 19.7734C678.864 19.6901 678.96 19.349 679.132 18.75C679.304 18.1458 679.416 17.776 679.468 17.6406C679.531 17.4635 679.926 16.2891 680.656 14.1172C681.385 11.9401 681.783 10.7526 681.851 10.5547H684.007L679.898 22H677.757ZM685.749 22V10.5547H692.686L692.6 12.2344H687.866V15.1875H692.366V16.8672H687.866V20.3125H692.772L692.702 22H685.749ZM695.389 22V10.5547H697.639C698.045 11.1901 698.871 12.4714 700.115 14.3984C701.36 16.3255 702.118 17.4974 702.389 17.9141C702.467 18.0339 702.6 18.237 702.787 18.5234C702.98 18.8047 703.115 19.0052 703.193 19.125C703.157 17.3385 703.139 16.4115 703.139 16.3438V10.5547H705.068V22H702.787L697.623 13.9531L697.248 13.3359C697.29 14.7109 697.311 15.6771 697.311 16.2344V22H695.389ZM710.38 22V12.25H707.044V10.5547H715.826V12.25H712.505V22H710.38ZM721.02 22.1562C719.64 22.1562 718.403 21.8385 717.309 21.2031L717.825 19.5234C718.315 19.7943 718.846 20.013 719.419 20.1797C719.997 20.3464 720.559 20.4297 721.106 20.4297C721.778 20.4297 722.286 20.2865 722.63 20C722.973 19.7083 723.145 19.2917 723.145 18.75C723.145 18.0312 722.666 17.5339 721.708 17.2578C721.64 17.237 721.45 17.1823 721.138 17.0938C720.825 17 720.531 16.9115 720.255 16.8281C719.984 16.7396 719.789 16.6719 719.669 16.625C718.132 16.0833 717.364 15.0729 717.364 13.5938C717.364 12.5573 717.731 11.7578 718.466 11.1953C719.205 10.6328 720.184 10.3516 721.403 10.3516C722.783 10.3516 723.973 10.6354 724.973 11.2031L724.333 12.75C723.312 12.2917 722.364 12.0625 721.489 12.0625C720.859 12.0625 720.382 12.1745 720.059 12.3984C719.742 12.6172 719.572 12.9844 719.552 13.5C719.552 14.1354 719.867 14.5495 720.497 14.7422C720.622 14.7891 720.929 14.8906 721.419 15.0469C721.908 15.2031 722.226 15.3047 722.372 15.3516C723.419 15.6953 724.166 16.1224 724.614 16.6328C725.067 17.1432 725.294 17.8542 725.294 18.7656C725.294 19.8542 724.908 20.6927 724.138 21.2812C723.367 21.8646 722.328 22.1562 721.02 22.1562Z" fill="#00FFFF"/>
<path fill-rule="evenodd" clip-rule="evenodd" d="M772.649 1H766V0H772.649C776.563 0 780.395 1.12022 783.692 3.2283L804.34 16.4292C807.476 18.4344 811.121 19.5 814.843 19.5H822V20.5H814.843C810.93 20.5 807.098 19.3798 803.801 17.2717L783.153 4.07082C780.017 2.06557 776.372 1 772.649 1Z" fill="#828FA1"/>
<path fill-rule="evenodd" clip-rule="evenodd" d="M1390 20.5H822V19.5H1390V20.5Z" fill="#828FA1"/>
</svg>
