<svg width="150" height="33" viewBox="0 0 150 33" fill="none" xmlns="http://www.w3.org/2000/svg">
<path d="M36.132 1.61328L30.9596 25.3733C30.5163 27.5733 31.2552 28.3799 32.8069 28.3799C34.3586 28.3799 35.467 27.5733 35.9843 25.3733L41.0828 1.61328H45.6641L40.6394 25.0799C39.6049 29.9933 36.5015 32.8533 31.6985 32.8533C26.8956 32.8533 25.0483 30.0666 26.0828 25.0799L31.1813 1.61328H36.132Z" fill="#F0F0F0"/>
<path d="M66.2814 1.61328L58.0794 16.5733L60.2223 32.4133H55.0499L53.6459 20.2399L47.0696 32.4133H42.4883L51.2814 16.5733L49.3602 1.61328H54.3848L55.641 12.9799L61.774 1.61328H66.2814Z" fill="#F0F0F0"/>
<path d="M80.6145 9.16694L80.1712 11.2203H79.2106L79.6539 9.16694C80.3928 5.42695 79.6539 2.27362 75.5899 2.27362C71.5258 2.27362 69.4569 5.42695 68.6441 9.16694L65.3928 24.9336C64.58 28.6736 65.3928 31.7536 69.5308 31.7536C73.5948 31.7536 75.6638 28.6736 76.4027 24.9336L77.8805 17.9669H73.0776L73.2253 17.0869H78.9889L77.3633 24.9336C76.4766 29.1869 73.9643 32.7069 69.2352 32.7069C64.5061 32.7069 63.4716 29.1869 64.3583 24.9336L67.6096 9.24027C68.4963 4.98695 71.0086 1.46695 75.6638 1.46695C80.4667 1.39361 81.5012 4.91361 80.6145 9.16694Z" fill="#F0F0F0"/>
<path d="M92.6602 1.61328C97.2415 1.61328 98.4238 4.32661 97.611 8.50661L97.0198 11.2933C96.2809 15.1066 94.3597 17.1599 90.8129 17.7466C94.138 18.2599 95.1725 20.5333 94.5075 23.9066L93.5469 28.7466C93.3252 29.9199 93.1036 31.4599 93.6208 32.4133H92.5863C92.143 31.4599 92.2908 30.0666 92.5863 28.7466L93.5469 23.9066C94.4336 19.3599 91.9952 18.1866 87.9312 18.1866H84.1627L81.2809 32.4133H80.3203L86.6011 1.61328H92.6602ZM88.1528 17.2333C92.4385 17.2333 95.0986 16.1333 96.0592 11.3666L96.6504 8.57994C97.3893 4.83995 96.4287 2.49327 92.4385 2.49327H87.34L84.3105 17.2333H88.1528Z" fill="#F0F0F0"/>
<path d="M102.194 9.1669C103.081 4.84023 105.593 1.39355 110.248 1.39355C114.977 1.39355 116.16 4.84023 115.273 9.1669L112.17 24.8602C111.283 29.1869 108.771 32.6336 103.968 32.6336C99.2385 32.6336 98.1301 29.1869 98.943 24.8602L102.194 9.1669ZM100.051 24.8602C99.3124 28.6736 100.125 31.7536 104.263 31.7536C108.401 31.7536 110.544 28.6736 111.283 24.8602L114.386 9.09356C115.125 5.28022 114.239 2.20023 110.101 2.20023C106.037 2.20023 103.968 5.28022 103.155 9.09356L100.051 24.8602Z" fill="#F0F0F0"/>
<path d="M117.634 24.7867C116.895 28.4534 117.634 31.68 121.698 31.68C125.836 31.68 127.757 28.4534 128.496 24.7867L133.003 1.54004H133.964L129.456 24.7134C128.644 28.9667 126.279 32.56 121.55 32.56C116.821 32.56 115.86 28.9667 116.673 24.7134L121.254 1.54004H122.215L117.634 24.7867Z" fill="#F0F0F0"/>
<path d="M144.533 1.61337C149.262 1.61337 150.296 4.76669 149.483 9.02003L148.892 12.1C147.932 17.0134 145.345 19.2867 140.395 19.2867H135.961L133.449 32.34H132.488L138.4 1.54004H144.533V1.61337ZM140.616 18.4067C144.976 18.4067 147.119 16.5 147.932 12.1734L148.523 9.02003C149.262 5.20669 148.449 2.5667 144.311 2.5667H139.212L136.183 18.48H140.616V18.4067Z" fill="#F0F0F0"/>
<path d="M20.246 1.61281H14.7042H9.97511C9.82733 1.61281 9.75344 1.39278 9.90122 1.31945L10.8618 0.659458C11.0096 0.512791 10.9357 0.292796 10.714 0.366129L0.59088 3.95946C0.369205 4.03279 0.44309 4.32612 0.664765 4.32612H7.75836C7.98004 4.32612 7.98004 4.54612 7.83225 4.69279L5.61551 5.79279C5.46773 5.86612 5.54161 6.15946 5.6894 6.15946H11.6007L5.7633 32.5595H13.448C18.3249 32.5595 21.2805 29.8461 22.3889 24.9328L25.7879 9.38613C26.8963 4.25278 25.1229 1.61281 20.246 1.61281ZM20.985 8.94613L17.4382 24.9328C16.9209 27.1328 15.8864 27.9395 14.3347 27.9395H11.6007L16.4776 5.93947H19.2116C20.7633 6.0128 21.5022 6.74614 20.985 8.94613Z" fill="#F0F0F0"/>
</svg>
