<svg width="1390" height="29" viewBox="0 0 1390 29" fill="none" xmlns="http://www.w3.org/2000/svg">
<path fill-rule="evenodd" clip-rule="evenodd" d="M542.5 20.5H0V19.5H542.5V20.5Z" fill="#828FA1"/>
<path fill-rule="evenodd" clip-rule="evenodd" d="M549.149 19.5H542.5V20.5H549.149C553.063 20.5 556.895 19.3798 560.192 17.2717L580.84 4.07082C583.976 2.06557 587.621 1 591.343 1H598.5V0H591.343C587.43 0 583.598 1.12022 580.301 3.2283L559.653 16.4292C556.517 18.4344 552.872 19.5 549.149 19.5Z" fill="#828FA1"/>
<path fill-rule="evenodd" clip-rule="evenodd" d="M791.5 1H598.5V0H791.5V1Z" fill="#828FA1"/>
<path d="M642.344 19.3516C642.911 20.0755 643.75 20.4375 644.859 20.4375C645.969 20.4375 646.805 20.0781 647.367 19.3594C647.935 18.6354 648.219 17.6146 648.219 16.2969C648.219 14.9635 647.935 13.9297 647.367 13.1953C646.805 12.4609 645.971 12.0938 644.867 12.0938C643.758 12.0938 642.917 12.4635 642.344 13.2031C641.776 13.9375 641.492 14.9688 641.492 16.2969C641.492 17.6094 641.776 18.6276 642.344 19.3516ZM644.852 22.1641C643.128 22.1641 641.766 21.6432 640.766 20.6016C639.771 19.5547 639.273 18.112 639.273 16.2734C639.273 14.4245 639.773 12.9818 640.773 11.9453C641.773 10.9089 643.135 10.3906 644.859 10.3906C646.583 10.3906 647.943 10.9115 648.938 11.9531C649.932 12.9896 650.43 14.4323 650.43 16.2812C650.43 18.1094 649.93 19.5469 648.93 20.5938C647.93 21.6406 646.57 22.1641 644.852 22.1641ZM657.546 22.1641C656.046 22.1641 654.908 21.7917 654.132 21.0469C653.356 20.2969 652.968 19.2422 652.968 17.8828V10.5547H655.093V17.7031C655.093 18.6562 655.286 19.3516 655.671 19.7891C656.062 20.2266 656.7 20.4453 657.585 20.4453C658.455 20.4453 659.085 20.2266 659.476 19.7891C659.867 19.3464 660.062 18.6484 660.062 17.6953V10.5547H662.179V17.8984C662.179 19.2474 661.783 20.2969 660.992 21.0469C660.2 21.7917 659.051 22.1641 657.546 22.1641ZM665.132 22V10.5234H669.374C669.952 10.5234 670.452 10.5495 670.874 10.6016C671.301 10.6536 671.704 10.75 672.085 10.8906C672.47 11.026 672.78 11.2109 673.014 11.4453C673.254 11.6797 673.441 11.987 673.577 12.3672C673.718 12.7422 673.788 13.1875 673.788 13.7031C673.788 15.224 673.098 16.224 671.718 16.7031C671.999 17.0208 672.348 17.6094 672.764 18.4688L674.468 22H672.155L670.819 19.0078C670.314 17.9349 670.001 17.2995 669.882 17.1016C669.793 17.0964 669.499 17.0938 668.999 17.0938L667.225 17.0781V22H665.132ZM669.561 15.5625C670.374 15.5625 670.957 15.4193 671.311 15.1328C671.665 14.8411 671.843 14.375 671.843 13.7344C671.843 13.1719 671.663 12.7578 671.303 12.4922C670.944 12.2266 670.395 12.0938 669.655 12.0938H667.225V15.5547C667.303 15.5547 667.691 15.5573 668.389 15.5625C669.087 15.5625 669.478 15.5625 669.561 15.5625ZM681.591 22V10.5547H684.091L687.552 18.8203L691.037 10.5547H693.505V22H691.552V16.3438L691.615 13.1016L691.326 13.9609L688.396 21.2188H686.583L683.716 13.9219L683.427 13.0625L683.498 16.375V22H681.591ZM696.677 22V10.5547H698.794V22H696.677ZM705.176 22.1562C703.796 22.1562 702.559 21.8385 701.465 21.2031L701.981 19.5234C702.47 19.7943 703.001 20.013 703.574 20.1797C704.153 20.3464 704.715 20.4297 705.262 20.4297C705.934 20.4297 706.442 20.2865 706.785 20C707.129 19.7083 707.301 19.2917 707.301 18.75C707.301 18.0312 706.822 17.5339 705.863 17.2578C705.796 17.237 705.606 17.1823 705.293 17.0938C704.981 17 704.686 16.9115 704.41 16.8281C704.139 16.7396 703.944 16.6719 703.824 16.625C702.288 16.0833 701.52 15.0729 701.52 13.5938C701.52 12.5573 701.887 11.7578 702.621 11.1953C703.361 10.6328 704.34 10.3516 705.559 10.3516C706.939 10.3516 708.129 10.6354 709.129 11.2031L708.488 12.75C707.468 12.2917 706.52 12.0625 705.645 12.0625C705.014 12.0625 704.538 12.1745 704.215 12.3984C703.897 12.6172 703.728 12.9844 703.707 13.5C703.707 14.1354 704.022 14.5495 704.653 14.7422C704.778 14.7891 705.085 14.8906 705.574 15.0469C706.064 15.2031 706.382 15.3047 706.528 15.3516C707.574 15.6953 708.322 16.1224 708.77 16.6328C709.223 17.1432 709.449 17.8542 709.449 18.7656C709.449 19.8542 709.064 20.6927 708.293 21.2812C707.522 21.8646 706.483 22.1562 705.176 22.1562ZM715.113 22.1562C713.733 22.1562 712.496 21.8385 711.402 21.2031L711.918 19.5234C712.407 19.7943 712.938 20.013 713.511 20.1797C714.089 20.3464 714.652 20.4297 715.199 20.4297C715.871 20.4297 716.378 20.2865 716.722 20C717.066 19.7083 717.238 19.2917 717.238 18.75C717.238 18.0312 716.759 17.5339 715.8 17.2578C715.733 17.237 715.543 17.1823 715.23 17.0938C714.918 17 714.623 16.9115 714.347 16.8281C714.076 16.7396 713.881 16.6719 713.761 16.625C712.225 16.0833 711.457 15.0729 711.457 13.5938C711.457 12.5573 711.824 11.7578 712.558 11.1953C713.298 10.6328 714.277 10.3516 715.496 10.3516C716.876 10.3516 718.066 10.6354 719.066 11.2031L718.425 12.75C717.404 12.2917 716.457 12.0625 715.582 12.0625C714.951 12.0625 714.475 12.1745 714.152 12.3984C713.834 12.6172 713.665 12.9844 713.644 13.5C713.644 14.1354 713.959 14.5495 714.589 14.7422C714.714 14.7891 715.022 14.8906 715.511 15.0469C716.001 15.2031 716.319 15.3047 716.464 15.3516C717.511 15.6953 718.259 16.1224 718.707 16.6328C719.16 17.1432 719.386 17.8542 719.386 18.7656C719.386 19.8542 719.001 20.6927 718.23 21.2812C717.459 21.8646 716.42 22.1562 715.113 22.1562ZM721.893 22V10.5547H724.011V22H721.893ZM729.791 19.3516C730.359 20.0755 731.198 20.4375 732.307 20.4375C733.416 20.4375 734.252 20.0781 734.815 19.3594C735.382 18.6354 735.666 17.6146 735.666 16.2969C735.666 14.9635 735.382 13.9297 734.815 13.1953C734.252 12.4609 733.419 12.0938 732.315 12.0938C731.205 12.0938 730.364 12.4635 729.791 13.2031C729.224 13.9375 728.94 14.9688 728.94 16.2969C728.94 17.6094 729.224 18.6276 729.791 19.3516ZM732.299 22.1641C730.575 22.1641 729.213 21.6432 728.213 20.6016C727.218 19.5547 726.721 18.112 726.721 16.2734C726.721 14.4245 727.221 12.9818 728.221 11.9453C729.221 10.9089 730.583 10.3906 732.307 10.3906C734.031 10.3906 735.39 10.9115 736.385 11.9531C737.38 12.9896 737.877 14.4323 737.877 16.2812C737.877 18.1094 737.377 19.5469 736.377 20.5938C735.377 21.6406 734.018 22.1641 732.299 22.1641ZM740.525 22V10.5547H742.775C743.181 11.1901 744.007 12.4714 745.252 14.3984C746.496 16.3255 747.254 17.4974 747.525 17.9141C747.603 18.0339 747.736 18.237 747.923 18.5234C748.116 18.8047 748.252 19.0052 748.33 19.125C748.293 17.3385 748.275 16.4115 748.275 16.3438V10.5547H750.205V22H747.923L742.759 13.9531L742.384 13.3359C742.426 14.7109 742.447 15.6771 742.447 16.2344V22H740.525Z" fill="#00FFFF"/>
<path fill-rule="evenodd" clip-rule="evenodd" d="M798.149 1H791.5V0H798.149C802.063 0 805.895 1.12022 809.192 3.2283L829.84 16.4292C832.976 18.4344 836.621 19.5 840.343 19.5H847.5V20.5H840.343C836.43 20.5 832.598 19.3798 829.301 17.2717L808.653 4.07082C805.517 2.06557 801.872 1 798.149 1Z" fill="#828FA1"/>
<path fill-rule="evenodd" clip-rule="evenodd" d="M1390 20.5H847.5V19.5H1390V20.5Z" fill="#828FA1"/>
</svg>
