<svg width="194" height="90" viewBox="0 0 194 90" fill="none" xmlns="http://www.w3.org/2000/svg">
<path d="M22.186 52.3396L22.0586 52.1188L21.9312 52.3396L0.434624 89.6004L0.307386 89.821H0.562003H43.5552H43.8098L43.6826 89.6004L22.186 52.3396ZM0.254615 89.8516L22.0586 52.0579L43.8626 89.8516H0.254615Z" fill="url(#paint0_linear_719_11319)" stroke="url(#paint1_linear_719_11319)" stroke-width="0.294115"/>
<mask id="path-2-inside-1_719_11319" fill="white">
<path fill-rule="evenodd" clip-rule="evenodd" d="M47.6433 35L15.8789 89.9995H79.4077L47.6433 35ZM47.6433 35.5752L16.3772 89.7119H78.9095L47.6433 35.5752Z"/>
</mask>
<path fill-rule="evenodd" clip-rule="evenodd" d="M47.6433 35L15.8789 89.9995H79.4077L47.6433 35ZM47.6433 35.5752L16.3772 89.7119H78.9095L47.6433 35.5752Z" fill="url(#paint2_linear_719_11319)"/>
<path d="M47.6433 35L47.898 34.8529L47.6433 34.4119L47.3886 34.8529L47.6433 35ZM15.8789 89.9995L15.6242 89.8524L15.3694 90.2936H15.8789V89.9995ZM79.4077 89.9995V90.2936H79.9172L79.6624 89.8524L79.4077 89.9995ZM16.3772 89.7119L16.1225 89.5648L15.8677 90.006H16.3772V89.7119ZM47.6433 35.5752L47.898 35.4281L47.6433 34.9871L47.3886 35.4281L47.6433 35.5752ZM78.9095 89.7119V90.006H79.419L79.1642 89.5648L78.9095 89.7119ZM16.6319 89.859L47.898 35.7223L47.3886 35.4281L16.1225 89.5648L16.6319 89.859ZM78.9095 89.4178H16.3772V90.006H78.9095V89.4178ZM47.3886 35.7223L78.6548 89.859L79.1642 89.5648L47.898 35.4281L47.3886 35.7223ZM16.1336 90.1466L47.898 35.1471L47.3886 34.8529L15.6242 89.8524L16.1336 90.1466ZM79.4077 89.7054H15.8789V90.2936H79.4077V89.7054ZM47.3886 35.1471L79.153 90.1466L79.6624 89.8524L47.898 34.8529L47.3886 35.1471Z" fill="url(#paint3_linear_719_11319)" mask="url(#path-2-inside-1_719_11319)"/>
<mask id="path-4-inside-2_719_11319" fill="white">
<path fill-rule="evenodd" clip-rule="evenodd" d="M79.9948 17.6475L38.2305 89.9997H121.759L79.9948 17.6475ZM79.9948 18.21L38.7175 89.7185H121.272L79.9948 18.21Z"/>
</mask>
<path fill-rule="evenodd" clip-rule="evenodd" d="M79.9948 17.6475L38.2305 89.9997H121.759L79.9948 17.6475ZM79.9948 18.21L38.7175 89.7185H121.272L79.9948 18.21Z" fill="url(#paint4_linear_719_11319)"/>
<path d="M79.9948 17.6475L80.2495 17.5004L79.9948 17.0591L79.7401 17.5004L79.9948 17.6475ZM38.2305 89.9997L37.9757 89.8527L37.7211 90.2938H38.2305V89.9997ZM121.759 89.9997V90.2938H122.268L122.014 89.8527L121.759 89.9997ZM38.7175 89.7185L38.4628 89.5714L38.2081 90.0126H38.7175V89.7185ZM79.9948 18.21L80.2495 18.0629L79.9948 17.6217L79.7401 18.0629L79.9948 18.21ZM121.272 89.7185V90.0126H121.781L121.527 89.5714L121.272 89.7185ZM38.9722 89.8655L80.2495 18.357L79.7401 18.0629L38.4628 89.5714L38.9722 89.8655ZM121.272 89.4244H38.7175V90.0126H121.272V89.4244ZM79.7401 18.357L121.017 89.8655L121.527 89.5714L80.2495 18.0629L79.7401 18.357ZM38.4852 90.1468L80.2495 17.7945L79.7401 17.5004L37.9757 89.8527L38.4852 90.1468ZM121.759 89.7056H38.2305V90.2938H121.759V89.7056ZM79.7401 17.7945L121.504 90.1468L122.014 89.8527L80.2495 17.5004L79.7401 17.7945Z" fill="url(#paint5_linear_719_11319)" mask="url(#path-4-inside-2_719_11319)"/>
<path d="M112.032 0.625916L111.905 0.40662L111.777 0.625916L60.1808 89.5755L60.0527 89.7964H60.308H163.501H163.757L163.628 89.5755L112.032 0.625916ZM59.9545 89.8521L111.905 0.293082L163.855 89.8521H59.9545Z" fill="url(#paint6_linear_719_11319)" stroke="url(#paint7_linear_719_11319)" stroke-width="0.294115"/>
<defs>
<linearGradient id="paint0_linear_719_11319" x1="4.34252" y1="51.7637" x2="33.4455" y2="88.7052" gradientUnits="userSpaceOnUse">
<stop stop-color="#0C7355"/>
<stop offset="1" stop-color="#00FFFF"/>
</linearGradient>
<linearGradient id="paint1_linear_719_11319" x1="4.34252" y1="51.7637" x2="33.4455" y2="88.7052" gradientUnits="userSpaceOnUse">
<stop stop-color="#0C7355"/>
<stop offset="1" stop-color="#00FFFF"/>
</linearGradient>
<linearGradient id="paint2_linear_719_11319" x1="22.1321" y1="35" x2="63.9852" y2="88.1825" gradientUnits="userSpaceOnUse">
<stop stop-color="#0C7355"/>
<stop offset="1" stop-color="#00FFFF"/>
</linearGradient>
<linearGradient id="paint3_linear_719_11319" x1="22.1321" y1="35" x2="63.9852" y2="88.1825" gradientUnits="userSpaceOnUse">
<stop stop-color="#0C7355"/>
<stop offset="1" stop-color="#00FFFF"/>
</linearGradient>
<linearGradient id="paint4_linear_719_11319" x1="46.4523" y1="17.6475" x2="101.517" y2="87.5812" gradientUnits="userSpaceOnUse">
<stop stop-color="#0C7355"/>
<stop offset="1" stop-color="#00FFFF"/>
</linearGradient>
<linearGradient id="paint5_linear_719_11319" x1="46.4523" y1="17.6475" x2="101.517" y2="87.5812" gradientUnits="userSpaceOnUse">
<stop stop-color="#0C7355"/>
<stop offset="1" stop-color="#00FFFF"/>
</linearGradient>
<linearGradient id="paint6_linear_719_11319" x1="69.9765" y1="7.08835e-07" x2="138.393" y2="87.316" gradientUnits="userSpaceOnUse">
<stop stop-color="#0C7355"/>
<stop offset="1" stop-color="#00FFFF"/>
</linearGradient>
<linearGradient id="paint7_linear_719_11319" x1="69.9765" y1="7.08835e-07" x2="138.393" y2="87.316" gradientUnits="userSpaceOnUse">
<stop stop-color="#0C7355"/>
<stop offset="1" stop-color="#00FFFF"/>
</linearGradient>
</defs>
</svg>
