<svg width="1390" height="29" viewBox="0 0 1390 29" fill="none" xmlns="http://www.w3.org/2000/svg">
<path fill-rule="evenodd" clip-rule="evenodd" d="M515.5 20.5H0V19.5H515.5V20.5Z" fill="#828FA1"/>
<path fill-rule="evenodd" clip-rule="evenodd" d="M522.149 19.5H515.5V20.5H522.149C526.063 20.5 529.895 19.3798 533.192 17.2717L553.84 4.07082C556.976 2.06557 560.621 1 564.343 1H571.5V0H564.343C560.43 0 556.598 1.12022 553.301 3.2283L532.653 16.4292C529.517 18.4344 525.872 19.5 522.149 19.5Z" fill="#828FA1"/>
<path fill-rule="evenodd" clip-rule="evenodd" d="M818.5 1H571.5V0H818.5V1Z" fill="#828FA1"/>
<path d="M614.688 22L611.578 10.5547H613.688L615.906 19.4609L618.516 10.6094H620.539L623.016 19.4922L625.281 10.5547H627.391L624.188 22H621.992L619.547 13.6172L616.867 22H614.688ZM629.249 22V10.5547H631.367V15.2344H636.538V10.5547H638.656V22H636.538V16.9062H631.367V22H629.249ZM640.507 22L644.718 10.5469H647.022L651.171 22H648.999L647.866 18.7656H643.858L642.718 22H640.507ZM644.389 17.1875H647.327C646.389 14.1823 645.908 12.6302 645.882 12.5312L644.389 17.1875ZM654.537 22V12.25H651.201V10.5547H659.982V12.25H656.662V22H654.537ZM668.966 20.3047H670.481C671.789 20.3047 672.783 19.9635 673.466 19.2812C674.148 18.5938 674.489 17.5938 674.489 16.2812C674.489 14.875 674.138 13.8542 673.434 13.2188C672.731 12.5781 671.671 12.2578 670.255 12.2578H668.966V20.3047ZM666.848 22V10.5547H670.161C671.161 10.5547 672.057 10.6693 672.848 10.8984C673.64 11.1276 674.32 11.474 674.888 11.9375C675.46 12.3958 675.898 12.9896 676.2 13.7188C676.507 14.4427 676.661 15.2812 676.661 16.2344C676.661 18.0833 676.104 19.5078 674.989 20.5078C673.874 21.5026 672.33 22 670.356 22H666.848ZM681.918 19.3516C682.486 20.0755 683.324 20.4375 684.434 20.4375C685.543 20.4375 686.379 20.0781 686.942 19.3594C687.509 18.6354 687.793 17.6146 687.793 16.2969C687.793 14.9635 687.509 13.9297 686.942 13.1953C686.379 12.4609 685.546 12.0938 684.442 12.0938C683.332 12.0938 682.491 12.4635 681.918 13.2031C681.35 13.9375 681.067 14.9688 681.067 16.2969C681.067 17.6094 681.35 18.6276 681.918 19.3516ZM684.426 22.1641C682.702 22.1641 681.34 21.6432 680.34 20.6016C679.345 19.5547 678.848 18.112 678.848 16.2734C678.848 14.4245 679.348 12.9818 680.348 11.9453C681.348 10.9089 682.71 10.3906 684.434 10.3906C686.158 10.3906 687.517 10.9115 688.512 11.9531C689.507 12.9896 690.004 14.4323 690.004 16.2812C690.004 18.1094 689.504 19.5469 688.504 20.5938C687.504 21.6406 686.145 22.1641 684.426 22.1641ZM699.479 22L696.37 10.5547H698.479L700.698 19.4609L703.308 10.6094H705.331L707.808 19.4922L710.073 10.5547H712.183L708.979 22H706.784L704.339 13.6172L701.659 22H699.479ZM714.041 22V10.5547H720.979L720.893 12.2344H716.158V15.1875H720.658V16.8672H716.158V20.3125H721.065L720.994 22H714.041ZM728.556 22V10.5547H730.673V15.2344H735.845V10.5547H737.962V22H735.845V16.9062H730.673V22H728.556ZM739.813 22L744.024 10.5469H746.328L750.477 22H748.305L747.172 18.7656H743.164L742.024 22H739.813ZM743.696 17.1875H746.633C745.696 14.1823 745.214 12.6302 745.188 12.5312L743.696 17.1875ZM754.718 22L750.554 10.5547H752.734L755.156 17.625C755.25 17.8698 755.466 18.5859 755.804 19.7734C755.825 19.6901 755.922 19.349 756.093 18.75C756.265 18.1458 756.377 17.776 756.429 17.6406C756.492 17.4635 756.888 16.2891 757.617 14.1172C758.346 11.9401 758.744 10.7526 758.812 10.5547H760.968L756.859 22H754.718ZM762.71 22V10.5547H769.648L769.562 12.2344H764.827V15.1875H769.327V16.8672H764.827V20.3125H769.733L769.663 22H762.71ZM773.639 18.5C773.691 18.0885 773.803 17.6719 773.975 17.25C774.147 16.8281 774.334 16.4479 774.538 16.1094C774.746 15.7708 774.949 15.4427 775.147 15.125C775.35 14.8073 775.517 14.4922 775.647 14.1797C775.782 13.862 775.85 13.5703 775.85 13.3047C775.845 12.8464 775.699 12.4844 775.413 12.2188C775.131 11.9531 774.738 11.8203 774.233 11.8203C773.91 11.8203 773.597 11.862 773.295 11.9453C772.993 12.0234 772.761 12.1016 772.6 12.1797C772.444 12.2578 772.264 12.3594 772.061 12.4844L771.514 11.1875C771.941 10.9115 772.384 10.7057 772.842 10.5703C773.301 10.4297 773.837 10.3594 774.452 10.3594C774.821 10.3594 775.181 10.4167 775.53 10.5312C775.884 10.6406 776.207 10.8021 776.498 11.0156C776.795 11.224 777.032 11.5026 777.209 11.8516C777.392 12.2005 777.483 12.5938 777.483 13.0312C777.483 13.3854 777.42 13.7344 777.295 14.0781C777.17 14.4219 776.998 14.7604 776.78 15.0938C776.561 15.4271 776.329 15.7526 776.084 16.0703C775.845 16.388 775.574 16.7682 775.272 17.2109C774.975 17.6484 774.72 18.0781 774.506 18.5H773.639ZM774.053 22.1406C773.715 22.1406 773.428 22.0234 773.194 21.7891C772.959 21.5547 772.842 21.276 772.842 20.9531C772.842 20.625 772.959 20.3411 773.194 20.1016C773.428 19.862 773.715 19.7422 774.053 19.7422C774.386 19.7422 774.668 19.862 774.897 20.1016C775.126 20.3411 775.241 20.625 775.241 20.9531C775.241 21.276 775.126 21.5547 774.897 21.7891C774.668 22.0234 774.386 22.1406 774.053 22.1406Z" fill="#00FFFF"/>
<path fill-rule="evenodd" clip-rule="evenodd" d="M825.149 1H818.5V0H825.149C829.063 0 832.895 1.12022 836.192 3.2283L856.84 16.4292C859.976 18.4344 863.621 19.5 867.343 19.5H874.5V20.5H867.343C863.43 20.5 859.598 19.3798 856.301 17.2717L835.653 4.07082C832.517 2.06557 828.872 1 825.149 1Z" fill="#828FA1"/>
<path fill-rule="evenodd" clip-rule="evenodd" d="M1390 20.5H874.5V19.5H1390V20.5Z" fill="#828FA1"/>
</svg>
