<svg width="288" height="29" viewBox="0 0 288 29" fill="none" xmlns="http://www.w3.org/2000/svg">
<path fill-rule="evenodd" clip-rule="evenodd" d="M25 20.5H0V19.5H25V20.5Z" fill="#828FA1"/>
<path fill-rule="evenodd" clip-rule="evenodd" d="M31.6494 19.5H25V20.5H31.6494C35.5629 20.5 39.3947 19.3798 42.692 17.2717L63.3395 4.07082C66.4759 2.06557 70.1208 1 73.8434 1H81V0H73.8434C69.9299 0 66.0981 1.12022 62.8008 3.2283L42.1533 16.4292C39.0169 18.4344 35.372 19.5 31.6494 19.5Z" fill="#828FA1"/>
<path fill-rule="evenodd" clip-rule="evenodd" d="M207 1H81V0H207V1Z" fill="#828FA1"/>
<path d="M101.967 18V9.41602H103.555V18H101.967ZM105.933 18V9.41602H107.621C107.925 9.89258 108.544 10.8535 109.478 12.2988C110.412 13.7441 110.98 14.623 111.183 14.9355C111.242 15.0254 111.341 15.1777 111.482 15.3926C111.626 15.6035 111.728 15.7539 111.787 15.8438C111.759 14.5039 111.746 13.8086 111.746 13.7578V9.41602H113.193V18H111.482L107.609 11.9648L107.328 11.502C107.359 12.5332 107.375 13.2578 107.375 13.6758V18H105.933ZM117.681 18L114.558 9.41602H116.192L118.009 14.7188C118.079 14.9023 118.241 15.4395 118.495 16.3301C118.511 16.2676 118.583 16.0117 118.712 15.5625C118.841 15.1094 118.925 14.832 118.964 14.7305C119.011 14.5977 119.308 13.7168 119.855 12.0879C120.401 10.4551 120.7 9.56445 120.751 9.41602H122.368L119.286 18H117.681ZM123.674 18V9.41602H128.878L128.813 10.6758H125.262V12.8906H128.637V14.1504H125.262V16.7344H128.942L128.889 18H123.674ZM133.313 18.1172C132.277 18.1172 131.35 17.8789 130.529 17.4023L130.916 16.1426C131.283 16.3457 131.682 16.5098 132.111 16.6348C132.545 16.7598 132.967 16.8223 133.377 16.8223C133.881 16.8223 134.262 16.7148 134.52 16.5C134.777 16.2812 134.906 15.9688 134.906 15.5625C134.906 15.0234 134.547 14.6504 133.828 14.4434C133.777 14.4277 133.635 14.3867 133.4 14.3203C133.166 14.25 132.945 14.1836 132.738 14.1211C132.535 14.0547 132.389 14.0039 132.299 13.9688C131.147 13.5625 130.57 12.8047 130.57 11.6953C130.57 10.918 130.846 10.3184 131.397 9.89648C131.951 9.47461 132.686 9.26367 133.6 9.26367C134.635 9.26367 135.527 9.47656 136.277 9.90234L135.797 11.0625C135.031 10.7188 134.32 10.5469 133.664 10.5469C133.191 10.5469 132.834 10.6309 132.592 10.7988C132.354 10.9629 132.227 11.2383 132.211 11.625C132.211 12.1016 132.447 12.4121 132.92 12.5566C133.014 12.5918 133.244 12.668 133.611 12.7852C133.979 12.9023 134.217 12.9785 134.326 13.0137C135.111 13.2715 135.672 13.5918 136.008 13.9746C136.348 14.3574 136.518 14.8906 136.518 15.5742C136.518 16.3906 136.229 17.0195 135.65 17.4609C135.072 17.8984 134.293 18.1172 133.313 18.1172ZM140.015 18V10.6875H137.513V9.41602H144.099V10.6875H141.609V18H140.015ZM145.505 18V9.41602H147.38L149.976 15.6152L152.589 9.41602H154.441V18H152.976V13.7578L153.023 11.3262L152.806 11.9707L150.609 17.4141H149.249L147.099 11.9414L146.882 11.2969L146.935 13.7812V18H145.505ZM156.778 18V9.41602H161.981L161.917 10.6758H158.366V12.8906H161.741V14.1504H158.366V16.7344H162.046L161.993 18H156.778ZM164.008 18V9.41602H165.695C166 9.89258 166.619 10.8535 167.553 12.2988C168.486 13.7441 169.055 14.623 169.258 14.9355C169.317 15.0254 169.416 15.1777 169.557 15.3926C169.701 15.6035 169.803 15.7539 169.861 15.8438C169.834 14.5039 169.82 13.8086 169.82 13.7578V9.41602H171.268V18H169.557L165.684 11.9648L165.403 11.502C165.434 12.5332 165.449 13.2578 165.449 13.6758V18H164.008ZM175.252 18V10.6875H172.75V9.41602H179.336V10.6875H176.845V18H175.252ZM183.232 18.1172C182.196 18.1172 181.269 17.8789 180.448 17.4023L180.835 16.1426C181.202 16.3457 181.601 16.5098 182.03 16.6348C182.464 16.7598 182.886 16.8223 183.296 16.8223C183.8 16.8223 184.181 16.7148 184.439 16.5C184.696 16.2812 184.825 15.9688 184.825 15.5625C184.825 15.0234 184.466 14.6504 183.747 14.4434C183.696 14.4277 183.554 14.3867 183.32 14.3203C183.085 14.25 182.864 14.1836 182.657 14.1211C182.454 14.0547 182.308 14.0039 182.218 13.9688C181.066 13.5625 180.489 12.8047 180.489 11.6953C180.489 10.918 180.765 10.3184 181.316 9.89648C181.87 9.47461 182.605 9.26367 183.519 9.26367C184.554 9.26367 185.446 9.47656 186.196 9.90234L185.716 11.0625C184.95 10.7188 184.239 10.5469 183.583 10.5469C183.111 10.5469 182.753 10.6309 182.511 10.7988C182.273 10.9629 182.146 11.2383 182.13 11.625C182.13 12.1016 182.366 12.4121 182.839 12.5566C182.933 12.5918 183.163 12.668 183.53 12.7852C183.898 12.9023 184.136 12.9785 184.245 13.0137C185.03 13.2715 185.591 13.5918 185.927 13.9746C186.267 14.3574 186.437 14.8906 186.437 15.5742C186.437 16.3906 186.148 17.0195 185.57 17.4609C184.991 17.8984 184.212 18.1172 183.232 18.1172Z" fill="#00FFFF"/>
<path fill-rule="evenodd" clip-rule="evenodd" d="M213.649 1H207V0H213.649C217.563 0 221.395 1.12022 224.692 3.2283L245.34 16.4292C248.476 18.4344 252.121 19.5 255.843 19.5H263V20.5H255.843C251.93 20.5 248.098 19.3798 244.801 17.2717L224.153 4.07082C221.017 2.06557 217.372 1 213.649 1Z" fill="#828FA1"/>
<path fill-rule="evenodd" clip-rule="evenodd" d="M288 20.5H263V19.5H288V20.5Z" fill="#828FA1"/>
</svg>
