<svg width="1390" height="29" viewBox="0 0 1390 29" fill="none" xmlns="http://www.w3.org/2000/svg">
<path fill-rule="evenodd" clip-rule="evenodd" d="M541.5 20.5H0V19.5H541.5V20.5Z" fill="#828FA1"/>
<path fill-rule="evenodd" clip-rule="evenodd" d="M548.149 19.5H541.5V20.5H548.149C552.063 20.5 555.895 19.3798 559.192 17.2717L579.84 4.07082C582.976 2.06557 586.621 1 590.343 1H597.5V0H590.343C586.43 0 582.598 1.12022 579.301 3.2283L558.653 16.4292C555.517 18.4344 551.872 19.5 548.149 19.5Z" fill="#828FA1"/>
<path fill-rule="evenodd" clip-rule="evenodd" d="M792.5 1H597.5V0H792.5V1Z" fill="#828FA1"/>
<path d="M638.789 22V10.5547H640.906V22H638.789ZM644.077 22V10.5547H646.327C646.734 11.1901 647.559 12.4714 648.804 14.3984C650.049 16.3255 650.807 17.4974 651.077 17.9141C651.156 18.0339 651.288 18.237 651.476 18.5234C651.669 18.8047 651.804 19.0052 651.882 19.125C651.846 17.3385 651.827 16.4115 651.827 16.3438V10.5547H653.757V22H651.476L646.312 13.9531L645.937 13.3359C645.979 14.7109 645.999 15.6771 645.999 16.2344V22H644.077ZM659.741 22L655.577 10.5547H657.757L660.178 17.625C660.272 17.8698 660.488 18.5859 660.827 19.7734C660.848 19.6901 660.944 19.349 661.116 18.75C661.288 18.1458 661.4 17.776 661.452 17.6406C661.514 17.4635 661.91 16.2891 662.639 14.1172C663.369 11.9401 663.767 10.7526 663.835 10.5547H665.991L661.882 22H659.741ZM667.733 22V10.5547H674.67L674.584 12.2344H669.85V15.1875H674.35V16.8672H669.85V20.3125H674.756L674.686 22H667.733ZM680.583 22.1562C679.203 22.1562 677.966 21.8385 676.873 21.2031L677.388 19.5234C677.878 19.7943 678.409 20.013 678.982 20.1797C679.56 20.3464 680.123 20.4297 680.669 20.4297C681.341 20.4297 681.849 20.2865 682.193 20C682.537 19.7083 682.708 19.2917 682.708 18.75C682.708 18.0312 682.229 17.5339 681.271 17.2578C681.203 17.237 681.013 17.1823 680.701 17.0938C680.388 17 680.094 16.9115 679.818 16.8281C679.547 16.7396 679.352 16.6719 679.232 16.625C677.695 16.0833 676.927 15.0729 676.927 13.5938C676.927 12.5573 677.294 11.7578 678.029 11.1953C678.768 10.6328 679.748 10.3516 680.966 10.3516C682.346 10.3516 683.537 10.6354 684.537 11.2031L683.896 12.75C682.875 12.2917 681.927 12.0625 681.052 12.0625C680.422 12.0625 679.945 12.1745 679.623 12.3984C679.305 12.6172 679.136 12.9844 679.115 13.5C679.115 14.1354 679.43 14.5495 680.06 14.7422C680.185 14.7891 680.492 14.8906 680.982 15.0469C681.471 15.2031 681.789 15.3047 681.935 15.3516C682.982 15.6953 683.729 16.1224 684.177 16.6328C684.63 17.1432 684.857 17.8542 684.857 18.7656C684.857 19.8542 684.471 20.6927 683.701 21.2812C682.93 21.8646 681.891 22.1562 680.583 22.1562ZM689.52 22V12.25H686.184V10.5547H694.966V12.25H691.645V22H689.52ZM696.84 22V10.5547H699.34L702.801 18.8203L706.285 10.5547H708.754V22H706.801V16.3438L706.863 13.1016L706.574 13.9609L703.645 21.2188H701.832L698.965 13.9219L698.676 13.0625L698.746 16.375V22H696.84ZM711.871 22V10.5547H718.808L718.722 12.2344H713.988V15.1875H718.488V16.8672H713.988V20.3125H718.894L718.824 22H711.871ZM721.511 22V10.5547H723.761C724.167 11.1901 724.992 12.4714 726.237 14.3984C727.482 16.3255 728.24 17.4974 728.511 17.9141C728.589 18.0339 728.722 18.237 728.909 18.5234C729.102 18.8047 729.237 19.0052 729.315 19.125C729.279 17.3385 729.261 16.4115 729.261 16.3438V10.5547H731.19V22H728.909L723.745 13.9531L723.37 13.3359C723.412 14.7109 723.433 15.6771 723.433 16.2344V22H721.511ZM736.502 22V12.25H733.166V10.5547H741.948V12.25H738.627V22H736.502ZM747.142 22.1562C745.762 22.1562 744.525 21.8385 743.431 21.2031L743.947 19.5234C744.436 19.7943 744.968 20.013 745.541 20.1797C746.119 20.3464 746.681 20.4297 747.228 20.4297C747.9 20.4297 748.408 20.2865 748.752 20C749.095 19.7083 749.267 19.2917 749.267 18.75C749.267 18.0312 748.788 17.5339 747.83 17.2578C747.762 17.237 747.572 17.1823 747.259 17.0938C746.947 17 746.653 16.9115 746.377 16.8281C746.106 16.7396 745.91 16.6719 745.791 16.625C744.254 16.0833 743.486 15.0729 743.486 13.5938C743.486 12.5573 743.853 11.7578 744.588 11.1953C745.327 10.6328 746.306 10.3516 747.525 10.3516C748.905 10.3516 750.095 10.6354 751.095 11.2031L750.455 12.75C749.434 12.2917 748.486 12.0625 747.611 12.0625C746.981 12.0625 746.504 12.1745 746.181 12.3984C745.864 12.6172 745.694 12.9844 745.673 13.5C745.673 14.1354 745.989 14.5495 746.619 14.7422C746.744 14.7891 747.051 14.8906 747.541 15.0469C748.03 15.2031 748.348 15.3047 748.494 15.3516C749.541 15.6953 750.288 16.1224 750.736 16.6328C751.189 17.1432 751.416 17.8542 751.416 18.7656C751.416 19.8542 751.03 20.6927 750.259 21.2812C749.489 21.8646 748.449 22.1562 747.142 22.1562Z" fill="#00FFFF"/>
<path fill-rule="evenodd" clip-rule="evenodd" d="M799.149 1H792.5V0H799.149C803.063 0 806.895 1.12022 810.192 3.2283L830.84 16.4292C833.976 18.4344 837.621 19.5 841.343 19.5H848.5V20.5H841.343C837.43 20.5 833.598 19.3798 830.301 17.2717L809.653 4.07082C806.517 2.06557 802.872 1 799.149 1Z" fill="#828FA1"/>
<path fill-rule="evenodd" clip-rule="evenodd" d="M1390 20.5H848.5V19.5H1390V20.5Z" fill="#828FA1"/>
</svg>
