<svg width="181" height="65" viewBox="0 0 181 65" fill="none" xmlns="http://www.w3.org/2000/svg">
<g clip-path="url(#clip0_1077_16491)">
<path d="M36.6964 41.2173C36.122 41.2173 35.5476 40.9033 35.2285 40.401L28.0808 28.2824C27.6341 27.4661 27.8893 26.4615 28.719 25.9591C29.5486 25.5196 30.5697 25.7708 31.0803 26.587L38.228 38.6428C38.6748 39.4591 38.4195 40.4638 37.5898 40.9661C37.2707 41.1545 37.0155 41.2173 36.6964 41.2173Z" fill="#848DA5"/>
<path d="M54.6934 34.6239C54.6934 33.7448 54.3743 32.9285 53.8638 32.0495C53.0979 30.6681 52.2045 29.789 50.9919 29.2239C49.9708 28.7216 48.8221 28.4704 47.6733 28.596C48.0562 27.7797 48.3115 26.9634 48.3753 26.0843C48.503 24.8285 48.0562 23.6983 47.2904 22.3169C46.7799 21.4378 46.1417 20.8099 45.4397 20.3076C44.6738 19.8681 43.908 19.5541 43.0145 19.4913C42.1211 19.4285 41.2276 19.4913 40.2703 19.6797C39.9512 19.7425 39.6321 19.8681 39.313 19.9309C39.1854 19.9936 39.0577 20.0564 38.9301 20.1192C38.3557 20.3076 36.8879 21.1239 36.3773 21.4378L33.8884 22.882H33.8246C32.9311 23.4471 32.612 24.5774 33.1226 25.5192C33.5055 26.1471 34.1437 26.4611 34.7819 26.4611C35.101 26.4611 35.4201 26.3983 35.7391 26.2099H35.803L39.8236 23.9495C40.2065 23.7611 40.5894 23.6355 40.9723 23.5727C41.3552 23.5099 41.7381 23.5727 42.1211 23.6355C42.504 23.7611 42.8231 23.9495 43.206 24.2006C43.5251 24.4518 43.7804 24.7657 44.0356 25.1425C44.2271 25.5192 44.4185 25.896 44.4824 26.3355C44.5462 26.775 44.5462 27.1518 44.4824 27.5285C44.4185 27.9053 44.2909 28.2192 44.0356 28.5332C43.8442 28.8471 43.5251 29.0983 43.206 29.2867L40.7809 30.7309L39.7598 31.296L39.1216 31.6727C38.2281 32.175 37.9728 33.2425 38.4834 34.1216C38.8025 34.6867 39.4407 35.0006 40.0788 35.0006C40.3979 35.0006 40.717 34.9378 40.9723 34.7495L42.3125 33.996L45.7587 32.175C46.1417 31.9867 46.4608 31.8611 46.8437 31.8611C47.2266 31.8611 47.6095 31.9239 47.9286 32.0495C48.3115 32.175 48.6306 32.3634 48.9497 32.6146C49.2688 32.8657 49.5241 33.1797 49.7793 33.5564C49.9708 33.9332 50.0984 34.3099 50.1623 34.6867C50.2261 35.0634 50.2261 35.5029 50.0984 35.8797C50.0346 36.2564 49.8432 36.5704 49.5879 36.9471C49.3326 37.2611 49.0135 37.5122 48.6306 37.7634L42.6954 41.0913H42.3763L41.2914 41.7192L39.1854 42.8495C38.2919 43.3518 37.909 44.482 38.4196 45.3611C38.7386 45.989 39.3768 46.3657 40.0788 46.3657C40.3979 46.3657 40.717 46.3029 40.9723 46.1146L46.0778 43.4146L50.2261 41.2169C51.1195 40.7146 51.9492 40.0867 52.6512 39.396C53.3532 38.7053 53.8638 37.9518 54.1829 37.1983C54.5658 36.3192 54.7572 35.5029 54.6934 34.6239Z" fill="#848DA5"/>
<path d="M107.534 37.889C107.151 37.889 106.705 37.889 106.386 37.5751C106.066 37.2611 106.066 36.8216 106.066 36.4448V27.0262C106.066 26.6495 106.066 26.2099 106.386 25.896C106.705 25.582 107.151 25.582 107.534 25.582H111.108C113.597 25.582 115.001 26.9634 115.001 29.0355C115.001 30.4169 114.108 31.296 113.406 31.6099C114.171 31.9867 115.129 32.7402 115.129 34.3727C115.129 36.696 113.533 37.9518 111.3 37.9518H107.534V37.889ZM108.555 27.7169V30.5425H110.98C112.002 30.5425 112.576 29.9774 112.576 29.0983C112.576 28.2192 112.002 27.6541 110.98 27.6541H108.555V27.7169ZM111.108 35.7541C112.193 35.7541 112.767 35.0634 112.767 34.2471C112.767 33.4309 112.257 32.7402 111.108 32.7402H108.555V35.7541H111.108Z" fill="#848DA5"/>
<path d="M119.02 34.0592C119.02 35.2522 119.722 36.0685 121.062 36.0685C121.637 36.0685 122.211 35.9429 122.658 35.5662C123.041 35.315 123.232 35.2522 123.487 35.2522C123.934 35.2522 124.381 35.6917 124.381 36.1941C124.381 36.6336 123.998 37.0103 123.487 37.3243C122.849 37.7638 122.02 37.9522 120.999 37.9522C118.829 37.9522 116.723 37.0103 116.723 33.3057C116.723 30.3545 118.318 28.6592 120.743 28.6592C123.232 28.6592 124.636 30.4173 124.764 32.6778C124.764 33.0545 124.7 33.4313 124.445 33.6824C124.126 33.9964 123.807 33.9964 123.424 33.9964H119.02V34.0592ZM122.339 31.5476C122.083 30.9824 121.573 30.6057 120.807 30.6057C120.041 30.6057 119.531 30.9824 119.275 31.5476C119.148 31.8615 119.084 32.1127 119.084 32.5522H122.594C122.53 32.1127 122.466 31.8615 122.339 31.5476Z" fill="#848DA5"/>
<path d="M126.999 30.8569H126.744C126.297 30.8569 126.169 30.8569 125.978 30.7313C125.723 30.6057 125.531 30.3545 125.531 29.9778C125.531 29.6638 125.659 29.3499 125.978 29.2243C126.169 29.0987 126.297 29.0987 126.744 29.0987H126.999V27.9057C126.999 27.3406 126.999 27.1522 127.127 26.9011C127.318 26.5871 127.637 26.3359 128.148 26.3359C128.595 26.3359 128.977 26.5243 129.169 26.9011C129.297 27.1522 129.297 27.3406 129.297 27.9057V29.0987H129.999C130.445 29.0987 130.573 29.0987 130.764 29.2243C131.02 29.3499 131.211 29.6011 131.211 29.9778C131.211 30.2917 131.084 30.6057 130.764 30.7313C130.573 30.8569 130.445 30.8569 129.999 30.8569H129.297V35.1894C129.297 35.629 129.424 35.9429 130.062 36.0057C130.382 36.0057 130.573 36.0685 130.764 36.1313C131.02 36.2569 131.211 36.508 131.211 36.9476C131.211 37.3243 131.02 37.6383 130.764 37.7638C130.573 37.8894 130.254 37.8894 129.807 37.8894H129.68C127.765 37.8894 126.999 36.6336 126.999 35.315V30.8569Z" fill="#848DA5"/>
<path d="M133.191 30.8569H132.935C132.488 30.8569 132.361 30.8569 132.169 30.7313C131.914 30.6057 131.723 30.3545 131.723 29.9778C131.723 29.6638 131.85 29.3499 132.169 29.2243C132.361 29.0987 132.488 29.0987 132.935 29.0987H133.191V27.9057C133.191 27.3406 133.191 27.1522 133.318 26.9011C133.51 26.5871 133.829 26.3359 134.339 26.3359C134.786 26.3359 135.169 26.5243 135.36 26.9011C135.488 27.1522 135.488 27.3406 135.488 27.9057V29.0987H136.19C136.637 29.0987 136.764 29.0987 136.956 29.2243C137.211 29.3499 137.403 29.6011 137.403 29.9778C137.403 30.2917 137.275 30.6057 136.956 30.7313C136.764 30.8569 136.637 30.8569 136.19 30.8569H135.488V35.1894C135.488 35.629 135.616 35.9429 136.254 36.0057C136.573 36.0057 136.764 36.0685 136.956 36.1313C137.211 36.2569 137.403 36.508 137.403 36.9476C137.403 37.3243 137.211 37.6383 136.956 37.7638C136.764 37.8894 136.445 37.8894 135.999 37.8894H135.871C133.956 37.8894 133.191 36.6336 133.191 35.315V30.8569Z" fill="#848DA5"/>
<path d="M140.594 34.0592C140.594 35.2522 141.296 36.0685 142.637 36.0685C143.211 36.0685 143.785 35.9429 144.232 35.5662C144.615 35.315 144.806 35.2522 145.062 35.2522C145.508 35.2522 145.955 35.6917 145.955 36.1941C145.955 36.6336 145.572 37.0103 145.062 37.3243C144.423 37.7638 143.594 37.9522 142.573 37.9522C140.403 37.9522 138.297 37.0103 138.297 33.3057C138.297 30.3545 139.892 28.6592 142.317 28.6592C144.806 28.6592 146.21 30.4173 146.338 32.6778C146.338 33.0545 146.274 33.4313 146.019 33.6824C145.7 33.9964 145.381 33.9964 144.998 33.9964H140.594V34.0592ZM143.913 31.5476C143.658 30.9824 143.147 30.6057 142.381 30.6057C141.615 30.6057 141.105 30.9824 140.85 31.5476C140.722 31.8615 140.658 32.1127 140.658 32.5522H144.168C144.041 32.1127 144.041 31.8615 143.913 31.5476Z" fill="#848DA5"/>
<path d="M152.525 28.7207C153.227 28.7207 153.673 28.8463 154.12 29.1602C154.439 29.4114 154.694 29.7254 154.694 30.1021C154.694 30.4161 154.567 30.73 154.375 30.9184C154.184 31.1067 153.865 31.2323 153.61 31.2323C153.354 31.2323 153.163 31.1695 152.844 30.9812C152.588 30.8556 152.269 30.73 151.95 30.73C151.184 30.73 150.419 31.2323 150.419 32.3626V36.3812C150.419 36.9463 150.419 37.1347 150.291 37.3858C150.1 37.6998 149.78 37.9509 149.27 37.9509C148.759 37.9509 148.44 37.7626 148.249 37.3858C148.121 37.1347 148.121 36.9463 148.121 36.3812V30.2905C148.121 29.7254 148.121 29.537 148.313 29.2858C148.504 28.9719 148.887 28.7835 149.27 28.7835C149.589 28.7835 149.844 28.9091 149.972 29.0347C150.163 29.223 150.291 29.4114 150.291 29.7254C150.802 29.223 151.631 28.7207 152.525 28.7207Z" fill="#848DA5"/>
<path d="M68.0989 34.6232L66.0567 30.6674V36.193C66.0567 36.7581 66.0567 36.9465 65.8652 37.2604C65.6738 37.5744 65.2908 37.8255 64.7803 37.8255C64.2697 37.8255 63.8868 37.5744 63.6954 37.2604C63.5677 36.9465 63.5039 36.7581 63.5039 36.193V26.9627C63.5039 26.4604 63.5677 26.0837 63.8868 25.8325C64.0783 25.6441 64.3974 25.5186 64.7165 25.5186C65.0356 25.5186 65.227 25.5813 65.4185 25.7069C65.6738 25.8325 65.8652 26.1465 66.0567 26.4604L69.1838 32.2999L72.3109 26.4604C72.4386 26.1465 72.6939 25.8953 72.9491 25.7069C73.1406 25.5813 73.3959 25.5186 73.6511 25.5186C73.9702 25.5186 74.2255 25.6441 74.4808 25.8325C74.7999 26.1465 74.8637 26.4604 74.8637 26.9627V36.2558C74.8637 36.8209 74.8637 37.0093 74.6722 37.3232C74.4808 37.6372 74.0979 37.8883 73.5873 37.8883C73.0768 37.8883 72.6939 37.6372 72.5024 37.3232C72.3748 37.0093 72.3109 36.8209 72.3109 36.2558V30.7302L70.4602 34.6232C70.1411 35.1883 69.8858 35.4395 69.3114 35.4395C68.7371 35.4395 68.418 35.2511 68.0989 34.6232Z" fill="#848DA5"/>
<path d="M73.7124 37.952C73.2018 37.952 72.7551 37.7008 72.5636 37.3241C72.3722 37.0101 72.3722 36.8218 72.3722 36.2566V31.1078L70.5214 34.6869C70.2023 35.252 69.9471 35.5659 69.245 35.5659C68.6069 35.5659 68.2878 35.252 67.9687 34.6869L66.1179 31.1078V36.2566C66.1179 36.8218 66.1179 37.0101 65.9264 37.3241C65.735 37.7008 65.2883 37.952 64.7777 37.952C64.2671 37.952 63.8204 37.7008 63.629 37.3241C63.4375 37.0101 63.4375 36.759 63.4375 36.2566V26.9636C63.4375 26.4613 63.5013 26.0845 63.8204 25.7078C64.0757 25.4566 64.331 25.3311 64.7139 25.3311C65.033 25.3311 65.2883 25.3938 65.4797 25.5194C65.7988 25.7078 65.9903 26.0845 66.1179 26.2729L69.1174 31.9241L72.1169 26.2729C72.2445 26.0845 72.436 25.7078 72.7551 25.5194C72.9466 25.3938 73.2018 25.3311 73.5209 25.3311C73.9038 25.3311 74.1591 25.4566 74.4144 25.7078C74.7335 26.0218 74.7973 26.3985 74.7973 26.9636V36.2566C74.7973 36.8218 74.7973 37.0101 74.6059 37.3241C74.6697 37.7008 74.2229 37.952 73.7124 37.952ZM72.5636 30.2915V36.2566C72.5636 36.8218 72.5636 37.0101 72.6913 37.2613C72.8827 37.5752 73.2657 37.7636 73.6486 37.7636C74.0953 37.7636 74.4144 37.5752 74.6059 37.2613C74.7335 37.0101 74.7335 36.8218 74.7335 36.2566V26.9636C74.7335 26.4613 74.6697 26.1473 74.4144 25.8962C74.2229 25.7078 73.9677 25.5822 73.6486 25.5822C73.3933 25.5822 73.2018 25.645 72.9466 25.7706C72.7551 25.8962 72.5636 26.1473 72.3722 26.4613L69.1812 32.4264L65.9903 26.4613C65.7988 26.1473 65.6074 25.8962 65.4159 25.7706C65.2244 25.645 65.033 25.5822 64.7139 25.5822C64.3948 25.5822 64.1395 25.7078 63.9481 25.8962C63.6928 26.1473 63.629 26.5241 63.629 26.9636V36.2566C63.629 36.8218 63.629 37.0101 63.7566 37.2613C63.9481 37.5752 64.331 37.7636 64.7139 37.7636C65.1606 37.7636 65.4797 37.5752 65.6712 37.2613C65.9903 37.0101 65.9903 36.8218 65.9903 36.2566V30.2915L68.2239 34.5613C68.543 35.1892 68.7983 35.3776 69.3089 35.3776C69.8194 35.3776 70.0747 35.1892 70.3938 34.5613L72.5636 30.2915Z" fill="#848DA5"/>
<path d="M80.3498 37.8881C79.4563 37.8881 78.6905 37.5742 78.1799 37.0719C77.4141 36.3184 77.2227 35.5021 77.2227 34.4974V30.2277C77.2227 29.6626 77.2227 29.4742 77.3503 29.223C77.5418 28.9091 77.8609 28.7207 78.3076 28.7207C78.7543 28.7207 79.1372 28.9091 79.2649 29.223C79.3925 29.4742 79.3925 29.6626 79.3925 30.2277V34.1835C79.3925 35.3765 80.1583 35.8161 80.9242 35.8161C81.6262 35.8161 82.4558 35.4393 82.4558 34.1835V30.2277C82.4558 29.6626 82.4558 29.4742 82.5835 29.223C82.7749 28.9091 83.094 28.7207 83.5408 28.7207C83.9875 28.7207 84.3704 28.9091 84.4981 29.223C84.6257 29.4742 84.6257 29.6626 84.6257 30.2277V36.2556C84.6257 36.8207 84.6257 37.0091 84.4342 37.2602C84.2428 37.5742 83.8599 37.7626 83.4769 37.7626C83.1578 37.7626 82.9026 37.637 82.7749 37.5114C82.5835 37.323 82.5197 37.1347 82.4558 36.8835C82.0729 37.5742 81.1795 37.8881 80.3498 37.8881Z" fill="#848DA5"/>
<path d="M80.3511 38.015C79.4576 38.015 78.6918 37.701 78.1174 37.1987C77.4793 36.5708 77.1602 35.7545 77.1602 34.5615V30.2917C77.1602 29.7266 77.1602 29.5382 77.2878 29.2243C77.4793 28.8476 77.8622 28.6592 78.3727 28.6592C78.8833 28.6592 79.2662 28.8476 79.4576 29.2243C79.5853 29.4755 79.5853 29.7266 79.5853 30.2917V34.2476C79.5853 35.6289 80.6702 35.7545 80.9893 35.7545C81.3084 35.7545 82.3933 35.6289 82.3933 34.2476V30.2917C82.3933 29.7266 82.3933 29.5382 82.521 29.2243C82.7124 28.8476 83.0953 28.6592 83.6059 28.6592C84.1164 28.6592 84.4994 28.8476 84.6908 29.2243C84.8185 29.4755 84.8185 29.7266 84.8185 30.2917V36.3196C84.8185 36.8848 84.8185 37.0731 84.627 37.3871C84.4355 37.701 84.0526 37.9522 83.5421 37.9522C83.223 37.9522 82.9677 37.8266 82.7762 37.6382C82.5848 37.5127 82.521 37.3243 82.4571 37.1359C82.0104 37.701 81.1808 38.015 80.3511 38.015ZM78.4365 28.8476C77.9898 28.8476 77.6707 29.0359 77.5431 29.3499C77.4154 29.5382 77.4154 29.7894 77.4154 30.2917V34.5615C77.4154 35.6917 77.6707 36.4452 78.3089 37.0103C78.8195 37.5127 79.5215 37.7638 80.4149 37.7638C81.2446 37.7638 82.0742 37.4499 82.6486 36.822L82.7762 36.6964L82.8401 36.8848C82.9039 37.1987 82.9677 37.3243 83.1592 37.5127C83.3506 37.6382 83.5421 37.7638 83.7973 37.7638C84.1803 37.7638 84.5632 37.5755 84.6908 37.3243C84.8185 37.0731 84.8185 36.9476 84.8185 36.3824V30.3545C84.8185 29.7894 84.8185 29.601 84.6908 29.4127C84.5632 29.0987 84.1803 28.9103 83.7973 28.9103C83.4144 28.9103 83.0315 29.0987 82.9039 29.4127C82.7762 29.601 82.7762 29.8522 82.7762 30.3545V34.3103C82.7762 35.5662 81.9466 36.0057 81.1808 36.0057C80.4149 36.0057 79.5853 35.5662 79.5853 34.3103V30.3545C79.5853 29.7894 79.5853 29.601 79.4576 29.4127C79.1385 29.0359 78.8195 28.8476 78.4365 28.8476Z" fill="#848DA5"/>
<path d="M92.5393 29.162C93.0498 29.4131 93.6242 29.8527 93.6242 30.4178C93.6242 30.7317 93.4966 30.9201 93.3051 31.1713C93.1775 31.3596 92.8584 31.4852 92.6031 31.4852C92.3478 31.4852 92.1564 31.4224 91.8373 31.1713C91.4544 30.9201 91.1991 30.7945 90.7524 30.7945C90.2418 30.7945 89.7951 30.9829 89.476 31.3596C89.1569 31.7992 88.9654 32.3643 88.9654 33.3062C88.9654 34.248 89.0931 34.8759 89.476 35.3155C89.7951 35.6922 90.2418 35.8806 90.7524 35.8806C91.1991 35.8806 91.4544 35.755 91.8373 35.5038C92.1564 35.2527 92.3478 35.1899 92.6031 35.1899C92.8584 35.1899 93.1137 35.3155 93.3051 35.5038C93.4966 35.6922 93.6242 35.9434 93.6242 36.2573C93.6242 36.8224 93.0498 37.262 92.5393 37.5131C92.0287 37.8271 91.4544 37.9527 90.7524 37.9527C88.9654 37.9527 86.668 37.0108 86.668 33.3689C86.668 29.7271 88.9016 28.7852 90.7524 28.7852C91.4544 28.7224 91.9649 28.848 92.5393 29.162Z" fill="#848DA5"/>
<path d="M90.6886 38.0147C89.9228 38.0147 88.8379 37.8263 87.8806 37.0728C86.9871 36.2566 86.4766 35.0008 86.4766 33.3682C86.4766 31.6728 86.9233 30.4798 87.8806 29.6635C88.7741 28.8473 89.9228 28.7217 90.6886 28.7217C91.3906 28.7217 91.965 28.8473 92.5394 29.1612C93.0499 29.4124 93.6881 29.8519 93.6881 30.4798C93.6881 30.7938 93.5605 31.0449 93.369 31.2961C93.1776 31.4845 92.8585 31.6101 92.6032 31.6101C92.3479 31.6101 92.0926 31.5473 91.7735 31.2961C91.3906 31.0449 91.1354 30.9194 90.7524 30.9194C90.2419 30.9194 89.859 31.1077 89.5399 31.4845C89.2208 31.924 89.0293 32.4891 89.0293 33.3682C89.0293 34.3101 89.157 34.8752 89.5399 35.3147C89.859 35.6914 90.2419 35.8798 90.7524 35.8798C91.1354 35.8798 91.4544 35.7542 91.7735 35.5031C92.0926 35.3147 92.2841 35.1263 92.6032 35.1263C92.8585 35.1263 93.1776 35.2519 93.369 35.4403C93.6243 35.6914 93.6881 35.9426 93.6881 36.2566C93.6881 36.7589 93.3052 37.1984 92.5394 37.638C91.965 37.8891 91.4544 38.0147 90.6886 38.0147ZM90.7524 28.8473C89.5399 28.8473 86.7957 29.2868 86.7957 33.3054C86.7957 37.3868 89.5399 37.8263 90.7524 37.8263C91.4545 37.8263 91.965 37.7008 92.4756 37.3868C93.1776 37.0101 93.4967 36.6333 93.4967 36.1938C93.4967 35.9426 93.369 35.7542 93.1776 35.5031C93.0499 35.3775 92.7946 35.2519 92.5394 35.2519C92.2841 35.2519 92.0926 35.3147 91.8374 35.5659C91.4544 35.8798 91.1354 35.9426 90.6886 35.9426C90.1142 35.9426 89.6675 35.7542 89.3484 35.3147C88.9655 34.8752 88.8379 34.2473 88.8379 33.3054C88.8379 32.3635 89.0293 31.7356 89.3484 31.2961C89.6675 30.9194 90.1142 30.6682 90.6886 30.6682C91.1992 30.6682 91.4544 30.7938 91.8374 31.0449C92.1565 31.2333 92.3479 31.3589 92.5394 31.3589C92.7946 31.3589 92.9861 31.2333 93.1776 31.1077C93.369 30.9194 93.4967 30.6682 93.4967 30.417C93.4967 29.8519 92.8585 29.4124 92.4756 29.224C91.965 28.9728 91.4545 28.8473 90.7524 28.8473Z" fill="#848DA5"/>
<path d="M102.623 37.3242C102.432 37.6381 102.112 37.8265 101.666 37.8265C101.219 37.8265 100.836 37.6381 100.708 37.3242C100.581 37.073 100.581 36.8846 100.581 36.3195V32.3637C100.581 31.1707 99.815 30.7312 99.0492 30.7312C98.2833 30.7312 97.5175 31.1079 97.5175 32.3637V36.3195C97.5175 36.8846 97.5175 37.073 97.3899 37.3242C97.1984 37.6381 96.8793 37.8265 96.4326 37.8265C95.9858 37.8265 95.6029 37.6381 95.4753 37.3242C95.3477 37.073 95.3477 36.8846 95.3477 36.3195V27.0265C95.3477 26.4614 95.3477 26.273 95.4753 26.0219C95.6667 25.7079 95.9858 25.5195 96.4326 25.5195C96.8793 25.5195 97.2622 25.7079 97.3899 26.0219C97.5175 26.273 97.5175 26.4614 97.5175 27.0265V29.6637C98.0919 29.0986 98.7301 28.7219 99.7512 28.7219C100.645 28.7219 101.41 29.0358 101.921 29.5381C102.687 30.2916 102.878 31.1079 102.878 32.1126V36.3823C102.814 36.8846 102.751 37.073 102.623 37.3242Z" fill="#848DA5"/>
<path d="M101.664 37.9527C101.154 37.9527 100.771 37.7643 100.58 37.3876C100.452 37.1364 100.452 36.8852 100.452 36.3201V32.3643C100.452 30.9829 99.367 30.8573 99.0479 30.8573C98.7288 30.8573 97.6439 30.9829 97.6439 32.3643V36.3201C97.6439 36.8852 97.6439 37.0736 97.5162 37.3876C97.3248 37.7643 96.9419 37.9527 96.4313 37.9527C95.9208 37.9527 95.5378 37.7643 95.3464 37.3876C95.2187 37.1364 95.2188 36.8852 95.2188 36.3201V27.0271C95.2188 26.462 95.2187 26.2736 95.3464 25.9596C95.5378 25.5829 95.9208 25.3945 96.4313 25.3945C96.9419 25.3945 97.3248 25.5829 97.5162 25.9596C97.6439 26.2108 97.6439 26.462 97.6439 27.0271V29.4759C98.2821 28.9108 98.9203 28.6596 99.7499 28.6596C100.643 28.6596 101.409 28.9736 101.984 29.4759C102.622 30.1038 102.941 30.9201 102.941 32.1131V36.3829C102.941 36.948 102.941 37.1364 102.813 37.4503C102.558 37.7643 102.175 37.9527 101.664 37.9527ZM99.0479 30.6689C99.8137 30.6689 100.643 31.1085 100.643 32.3643V36.3201C100.643 36.8852 100.643 37.0736 100.771 37.262C100.899 37.5759 101.282 37.7643 101.664 37.7643C102.047 37.7643 102.43 37.5759 102.558 37.262C102.686 37.0736 102.686 36.8224 102.686 36.3201V32.0503C102.686 30.9201 102.43 30.1666 101.792 29.6015C101.282 29.0992 100.58 28.848 99.6861 28.848C98.7926 28.848 98.1544 29.0992 97.5162 29.7271L97.3248 29.9155V27.0271C97.3248 26.462 97.3248 26.2736 97.1971 26.0852C97.0695 25.7713 96.6866 25.5829 96.3037 25.5829C95.8569 25.5829 95.5378 25.7713 95.4102 26.0852C95.2826 26.2736 95.2826 26.5248 95.2826 27.0271V36.3829C95.2826 36.948 95.2826 37.1364 95.4102 37.3248C95.5378 37.6387 95.9208 37.8271 96.3037 37.8271C96.6866 37.8271 97.0695 37.6387 97.1971 37.3248C97.3248 37.1364 97.3248 36.8852 97.3248 36.3829V32.4271C97.3886 31.1085 98.2183 30.6689 99.0479 30.6689Z" fill="#848DA5"/>
</g>
<defs>
<clipPath id="clip0_1077_16491">
<rect width="127" height="27" fill="white" transform="translate(27.6992 19.4287)"/>
</clipPath>
</defs>
</svg>
