<svg width="181" height="65" viewBox="0 0 181 65" fill="none" xmlns="http://www.w3.org/2000/svg">
<g clip-path="url(#clip0_1077_16542)">
<path d="M112.604 38.875C110.758 38.875 109.396 37.9817 109.006 36.395C108.642 37.9817 107.267 38.875 105.434 38.875C102.402 38.875 100.906 36.9017 100.906 34.2217V26.2217H103.858V34.395C103.858 35.6883 104.316 36.555 105.69 36.555C106.998 36.555 107.523 35.6883 107.55 34.395V26.2217H110.488V34.395C110.488 35.6883 111.027 36.555 112.348 36.555C113.722 36.555 114.181 35.6883 114.181 34.395V26.2217H117.132V34.2217C117.132 36.9017 115.636 38.875 112.604 38.875Z" fill="#848DA5"/>
<path d="M74.8404 29.3817C75.5008 28.4617 75.8512 27.355 75.8512 26.2217H66.3367V28.4483H72.2125L67.1318 35.515C66.4715 36.435 66.1211 37.5417 66.1211 38.675H75.6355V36.4483H69.7598L74.8404 29.3817Z" fill="#848DA5"/>
<path d="M156.79 30.6083V33.8083C156.79 34.0617 156.79 34.315 156.79 34.5683C156.79 35.075 156.871 35.515 157.06 35.8483L157.073 35.8883C157.14 35.995 157.208 36.1017 157.302 36.1817C157.356 36.235 157.41 36.2883 157.477 36.3283C157.504 36.355 157.545 36.3683 157.585 36.395L157.599 36.4083L157.639 36.435C158.003 36.6483 158.434 36.715 158.852 36.715C159.068 36.715 159.283 36.6883 159.499 36.6483V38.8483C159.283 38.875 159.068 38.875 158.852 38.875C156.521 38.875 154.715 37.7283 154.122 35.9017L154.108 35.875C154.014 35.5283 153.96 35.1683 153.933 34.7817C153.933 34.715 153.92 34.635 153.92 34.5683V34.555C153.92 34.475 153.92 34.395 153.92 34.315C153.92 33.4617 153.92 30.6083 153.92 30.6083H152.141V28.4483H153.92V26.2217H156.79V28.435H159.499V30.6083H156.79Z" fill="#848DA5"/>
<path d="M80.0285 32.7146C80.0285 31.0212 81.0932 30.6079 82.077 30.6079C83.0877 30.6079 84.1523 31.0212 84.1523 32.7146H80.0285ZM85.7965 29.7812C85.7426 29.7279 85.6887 29.6746 85.6213 29.6212C85.3518 29.3812 85.0418 29.1812 84.7049 29.0079C84.5432 28.9279 84.3814 28.8612 84.2062 28.7946C84.1523 28.7812 84.0984 28.7546 84.0445 28.7412C83.4516 28.5412 82.7912 28.4346 82.077 28.4346C81.8883 28.4346 81.6996 28.4479 81.5244 28.4612C81.4166 28.4746 81.3223 28.4879 81.2145 28.4879C80.8102 28.5412 80.4328 28.6212 80.0824 28.7546C79.9477 28.7946 79.8264 28.8479 79.6916 28.9012C79.5703 28.9546 79.449 29.0212 79.3277 29.0746C78.9773 29.2612 78.6539 29.4879 78.3844 29.7546C77.6027 30.5012 77.1445 31.5412 77.1445 32.7812V33.6479V34.5146C77.1445 34.5546 77.158 34.5812 77.158 34.6212C77.1715 34.9812 77.2119 35.3279 77.2928 35.6479V35.6746C77.8184 37.6346 79.6781 38.8612 82.1039 38.8612C84.0984 38.8612 85.7156 38.0212 86.5107 36.6212V36.6079C86.632 36.3946 86.7264 36.1812 86.8072 35.9546H83.802C83.5594 36.3012 83.209 36.5146 82.8316 36.6079C82.6025 36.6746 82.3465 36.6879 82.1039 36.6879C81.6861 36.6879 81.2414 36.6212 80.891 36.4079L80.8506 36.3812C80.5541 36.2212 80.352 35.9546 80.2172 35.6346C80.1902 35.5546 80.1498 35.4612 80.1363 35.3812C80.1229 35.3279 80.1094 35.2612 80.0959 35.1946C80.0555 35.0212 80.042 34.8079 80.042 34.5946V34.5412H87.0498V34.5146V33.6479V32.7812C87.0363 31.5679 86.5781 30.5412 85.7965 29.7812Z" fill="#848DA5"/>
<path d="M125.565 35.4485C125.552 35.5818 125.511 35.7018 125.444 35.8085C125.174 36.2485 124.473 36.7285 123.382 36.7285C122.627 36.7285 121.967 36.3018 121.967 35.5152C121.967 34.7285 122.573 34.2352 123.638 34.2352H125.565V34.8752C125.579 35.0618 125.592 35.2485 125.565 35.4485ZM128.395 32.6352C128.395 32.4752 128.382 32.3285 128.368 32.1685C128.355 32.0618 128.341 31.9552 128.328 31.8485C128.314 31.7952 128.301 31.7418 128.301 31.6885C128.301 31.6352 128.274 31.5818 128.274 31.5418V31.5152C127.762 29.5952 125.942 28.3818 123.557 28.3818C122.29 28.3818 121.185 28.7152 120.35 29.3285C120.08 29.5285 119.837 29.7552 119.622 30.0085L121.792 31.3818C122.034 30.9418 122.412 30.7018 122.843 30.5952C122.897 30.5818 122.964 30.5685 123.018 30.5552C123.193 30.5285 123.368 30.5152 123.557 30.5152C123.759 30.5152 123.975 30.5285 124.177 30.5818C124.231 30.5952 124.271 30.6085 124.325 30.6218C124.473 30.6618 124.608 30.7285 124.743 30.8085L124.783 30.8352L124.797 30.8485C124.824 30.8618 124.851 30.8885 124.878 30.9018C125.066 31.0218 125.201 31.1818 125.296 31.3685C125.322 31.4085 125.336 31.4352 125.349 31.4752C125.363 31.5152 125.376 31.5418 125.39 31.5818C125.417 31.6618 125.457 31.7418 125.471 31.8352C125.484 31.8885 125.498 31.9552 125.511 32.0085C125.525 32.0485 125.525 32.1018 125.538 32.1418V32.1552C125.552 32.2485 125.565 32.3285 125.565 32.4352C125.565 32.4885 125.565 32.5418 125.565 32.5952V32.6485H122.91C120.862 32.6485 119.137 33.5285 119.137 35.7018C119.137 37.7552 120.943 38.8752 122.789 38.8752C123.8 38.8752 124.878 38.5818 125.565 37.8485V38.6885H128.395V32.8085C128.409 32.7418 128.409 32.6885 128.395 32.6352Z" fill="#848DA5"/>
<path d="M57.8605 32.7146C57.8605 31.0212 58.9252 30.6079 59.909 30.6079C60.9197 30.6079 61.9844 31.0212 61.9844 32.7146H57.8605ZM63.6285 29.7812C63.5746 29.7279 63.5207 29.6746 63.4533 29.6212C63.1838 29.3812 62.8738 29.1812 62.5369 29.0079C62.3752 28.9279 62.2135 28.8612 62.0383 28.7946C61.9844 28.7812 61.9305 28.7546 61.8766 28.7412C61.2836 28.5412 60.6232 28.4346 59.909 28.4346C59.7203 28.4346 59.5316 28.4479 59.3564 28.4612C59.2486 28.4746 59.1543 28.4879 59.0465 28.4879C58.6422 28.5412 58.2648 28.6212 57.9145 28.7546C57.7797 28.7946 57.6584 28.8479 57.5236 28.9012C57.4023 28.9546 57.2811 29.0212 57.1598 29.0746C56.8094 29.2612 56.4859 29.4879 56.2164 29.7546C55.4348 30.5012 54.9766 31.5412 54.9766 32.7812V33.6479V34.5146C54.9766 34.5546 54.99 34.5812 54.99 34.6212C55.0035 34.9812 55.0439 35.3279 55.1248 35.6479V35.6746C55.6504 37.6346 57.5102 38.8612 59.9359 38.8612C61.9305 38.8612 63.5477 38.0212 64.3428 36.6212V36.6079C64.3697 36.5546 64.4102 36.4879 64.4371 36.4346C64.518 36.2746 64.5854 36.1146 64.6393 35.9546H61.634C61.3914 36.3012 61.041 36.5146 60.6637 36.6079C60.4346 36.6746 60.1785 36.6879 59.9359 36.6879C59.5182 36.6879 59.0734 36.6212 58.723 36.4079L58.6826 36.3812C58.3861 36.2212 58.184 35.9546 58.0492 35.6346C58.0223 35.5546 57.9818 35.4612 57.9549 35.3812C57.9414 35.3279 57.9279 35.2612 57.9145 35.1946C57.874 35.0212 57.8605 34.8079 57.8605 34.5946V34.5412H64.8684V34.5146V33.6479V32.7812C64.8684 31.5679 64.4102 30.5412 63.6285 29.7812Z" fill="#848DA5"/>
<path d="M91.7277 32.7146C91.7277 31.0212 92.7924 30.6079 93.7762 30.6079C94.7869 30.6079 95.8516 31.0212 95.8516 32.7146H91.7277ZM97.4957 29.7812C97.4418 29.7279 97.3879 29.6746 97.3205 29.6212C97.051 29.3812 96.741 29.1812 96.4041 29.0079C96.2424 28.9279 96.0807 28.8612 95.9055 28.7946C95.8516 28.7812 95.7977 28.7546 95.7438 28.7412C95.1508 28.5412 94.4904 28.4346 93.7762 28.4346C93.5875 28.4346 93.3988 28.4479 93.2236 28.4612C93.1158 28.4746 93.0215 28.4879 92.9137 28.4879C92.5094 28.5412 92.132 28.6212 91.7816 28.7546C91.6469 28.7946 91.5256 28.8479 91.3908 28.9012C91.2695 28.9546 91.1482 29.0212 91.027 29.0746C90.6766 29.2612 90.3666 29.4879 90.0836 29.7546C89.302 30.5012 88.8438 31.5412 88.8438 32.7812V33.6479V34.5146C88.8438 34.5546 88.8572 34.5812 88.8572 34.6212C88.8707 34.9812 88.9111 35.3279 88.992 35.6479V35.6746C89.5176 37.6346 91.3773 38.8612 93.8031 38.8612C95.7977 38.8612 97.4148 38.0212 98.21 36.6212V36.6079C98.3313 36.3946 98.4256 36.1812 98.5064 35.9546H95.4877C95.2451 36.3012 94.8947 36.5146 94.5174 36.6079C94.2883 36.6746 94.0322 36.6879 93.7896 36.6879C93.3719 36.6879 92.9272 36.6212 92.5768 36.4079L92.5363 36.3812C92.2398 36.2212 92.0377 35.9546 91.9029 35.6346C91.876 35.5546 91.8355 35.4612 91.8086 35.3812C91.7951 35.3279 91.7816 35.2612 91.7682 35.1946C91.7277 35.0212 91.7143 34.8079 91.7143 34.5946V34.5412H98.7221V34.5146V33.6479V32.7812C98.7355 31.5679 98.2773 30.5412 97.4957 29.7812Z" fill="#848DA5"/>
<path d="M143.814 32.7146C143.814 31.0212 144.878 30.6079 145.862 30.6079C146.873 30.6079 147.938 31.0212 147.938 32.7146H143.814ZM149.582 29.7812C149.528 29.7279 149.474 29.6746 149.406 29.6212C149.137 29.3812 148.827 29.1812 148.49 29.0079C148.328 28.9279 148.167 28.8612 147.991 28.7946C147.937 28.7812 147.884 28.7546 147.83 28.7412C147.237 28.5412 146.576 28.4346 145.862 28.4346C145.673 28.4346 145.485 28.4479 145.31 28.4612C145.202 28.4746 145.107 28.4879 145 28.4879C144.595 28.5412 144.218 28.6212 143.868 28.7546C143.733 28.7946 143.612 28.8479 143.477 28.9012C143.355 28.9546 143.234 29.0212 143.113 29.0746C142.763 29.2612 142.439 29.4879 142.17 29.7546C141.388 30.5012 140.93 31.5412 140.93 32.7812V33.6479V34.5146C140.93 34.5546 140.943 34.5812 140.943 34.6212C140.957 34.9812 140.997 35.3279 141.078 35.6479V35.6746C141.604 37.6346 143.463 38.8612 145.889 38.8612C147.884 38.8612 149.501 38.0212 150.296 36.6212V36.6079C150.417 36.3946 150.512 36.1812 150.592 35.9546H147.587C147.345 36.3012 146.994 36.5146 146.617 36.6079C146.388 36.6746 146.132 36.6879 145.889 36.6879C145.471 36.6879 145.027 36.6212 144.676 36.4079L144.636 36.3812C144.339 36.2212 144.137 35.9546 144.002 35.6346C143.975 35.5546 143.935 35.4612 143.921 35.3812C143.908 35.3279 143.895 35.2612 143.881 35.1946C143.841 35.0212 143.827 34.8079 143.827 34.5946V34.5412H150.835V34.5146V33.6479V32.7812C150.821 31.5679 150.363 30.5412 149.582 29.7812Z" fill="#848DA5"/>
<path d="M131.98 38.675H133.624V26.2217H130.754V37.475C130.754 38.1417 131.293 38.675 131.98 38.675Z" fill="#848DA5"/>
<path d="M136.969 38.675H138.613V26.2217H135.742V37.475C135.742 38.1417 136.295 38.675 136.969 38.675Z" fill="#848DA5"/>
<path d="M30.9453 35.7151C30.9453 36.5951 31.6596 37.3018 32.549 37.3018H45.3518V34.1418H32.549C31.6596 34.1285 30.9453 34.8351 30.9453 35.7151Z" fill="#848DA5"/>
<path d="M45.34 27.7949H32.5373C31.6479 27.7949 30.9336 28.5016 30.9336 29.3816C30.9336 30.2616 31.6479 30.9683 32.5373 30.9683H45.34V27.7949Z" fill="#848DA5"/>
<path d="M26.865 26.7013C26.6359 27.1147 26.528 27.5813 26.528 28.048C26.5146 29.248 27.2692 30.1547 28.2665 30.768C29.0077 31.248 29.722 31.808 29.722 32.7147C29.722 33.6213 29.0077 34.1813 28.2665 34.6613C27.2827 35.2747 26.528 36.1813 26.528 37.3813C26.528 37.848 26.6359 38.3147 26.865 38.728C27.5792 40.0613 29.0751 40.448 30.4901 40.448H46.9316V45.1947H30.2341C30.005 45.1947 29.7759 45.1947 29.5333 45.1947C27.5657 45.208 25.5038 44.768 23.9271 43.5413C23.0241 42.848 22.3234 41.928 21.9325 40.848C21.0161 38.408 21.5687 36.0213 23.4689 34.248C23.6575 34.0613 23.8597 33.888 24.0349 33.688C24.2235 33.4747 24.3987 33.2347 24.4796 32.9547C24.5066 32.8747 24.52 32.8213 24.52 32.7147C24.52 32.608 24.5066 32.5547 24.4796 32.4747C24.3987 32.1947 24.2235 31.9547 24.0349 31.7413C23.8597 31.5413 23.6575 31.368 23.4689 31.1813C21.5687 29.408 21.0161 27.008 21.9325 24.5813C22.3368 23.5147 23.0241 22.5813 23.9405 21.888C25.5173 20.6747 27.5792 20.2213 29.5468 20.2347C29.7759 20.2347 30.005 20.2347 30.2476 20.2347H46.945V24.9813H30.5036C29.0751 24.9813 27.5792 25.368 26.865 26.7013Z" fill="#848DA5"/>
</g>
<defs>
<clipPath id="clip0_1077_16542">
<rect width="138" height="32" fill="white" transform="translate(21.5 16.7148)"/>
</clipPath>
</defs>
</svg>
