<svg width="181" height="65" viewBox="0 0 181 65" fill="none" xmlns="http://www.w3.org/2000/svg">
<path d="M91.8164 46.4289C92.4286 46.0053 92.8243 45.3342 92.8243 44.5783V21.3681C92.8243 20.6122 92.4286 19.9412 91.8164 19.5176H115.784C117.14 19.5176 118.24 20.5208 118.24 21.7599V44.1865C118.24 45.4257 117.14 46.4289 115.784 46.4289H91.8164Z" fill="#848DA5"/>
<path d="M91.7503 44.1788C91.7503 45.4221 90.688 46.4285 89.3798 46.4285H65.6722C64.3622 46.4285 63.3008 45.4221 63.3008 44.1788V21.6784C63.3008 20.4352 64.3622 19.4287 65.6722 19.4287H89.3798C90.688 19.4287 91.7503 20.4352 91.7503 21.6784V44.1788Z" fill="#848DA5"/>
<path d="M79.1624 33.2401L79.1602 28.3916L80.4694 28.0919V28.7269C80.4694 28.7269 80.8078 27.8914 81.5942 27.6971C81.8366 27.6384 81.9585 27.6735 81.9585 27.6735V28.9105C81.9585 28.9105 81.6614 28.8986 81.2728 29.0488C80.7895 29.2338 80.5457 29.6362 80.5457 30.2512L80.5471 32.9279L79.1624 33.2401Z" fill="#1F2941"/>
<path d="M72.1244 34.8295C72.1244 34.8295 71.9105 34.5215 71.9105 33.4328V31.0233L71.2305 31.1777V30.1853L71.9114 30.0313V28.9497L73.3163 28.6328V29.7144L74.3086 29.4894V30.4804L73.3163 30.7059C73.3163 30.7059 73.3149 32.6796 73.3163 33.1594C73.3163 34.2747 73.6258 34.4887 73.6258 34.4887L72.1244 34.8295Z" fill="#1F2941"/>
<path d="M74.4961 31.9521C74.4961 31.0955 74.6235 30.4713 74.8975 29.9915C75.2226 29.4225 75.757 29.0518 76.5351 28.8826C78.0686 28.5491 78.6214 29.4172 78.5997 30.5808C78.5923 30.997 78.5941 31.2002 78.5941 31.2002L75.8927 31.8073V31.8492C75.8927 32.663 76.0715 33.0487 76.61 32.9391C77.0756 32.8455 77.2049 32.5662 77.2414 32.2221C77.2478 32.1655 77.2502 32.0246 77.2502 32.0246L78.5161 31.7344C78.5161 31.7344 78.5189 31.8337 78.5175 31.9442C78.5059 32.4068 78.3655 33.5541 76.6068 33.9512C74.9408 34.3298 74.4961 33.3561 74.4961 31.9521ZM76.5911 29.7795C76.1435 29.8766 75.9089 30.2963 75.8987 30.9926L77.258 30.6829C77.2603 30.6515 77.2603 30.5817 77.2603 30.4731C77.258 29.9482 77.088 29.6712 76.5911 29.7795Z" fill="#1F2941"/>
<path d="M86.813 29.1109C86.7603 27.6273 87.1617 26.4499 88.8907 26.0756C89.9942 25.8357 90.4124 26.11 90.6243 26.3748C90.8279 26.6281 90.9068 26.9694 90.9068 27.4473L90.9082 27.5358L89.554 27.8435C89.554 27.8435 89.5535 27.6684 89.5535 27.663C89.554 27.0958 89.3902 26.8804 88.9598 26.9836C88.4482 27.1065 88.2413 27.5711 88.2413 28.4952C88.2413 28.8236 88.2433 28.8821 88.2433 28.9263C88.2433 29.8653 88.3777 30.2954 88.9668 30.177C89.4783 30.0761 89.5484 29.6459 89.5568 29.2694C89.5577 29.21 89.5605 29.0205 89.5605 29.0205L90.9114 28.7155C90.9114 28.7155 90.9128 28.8115 90.9128 28.917C90.9091 30.148 90.2313 30.9244 88.9598 31.2071C87.2098 31.6003 86.8667 30.6313 86.813 29.1109Z" fill="#1F2941"/>
<path d="M82.0508 31.1898C82.0508 30.0662 82.7452 29.7107 83.7887 29.3008C84.7268 28.9324 84.7465 28.7495 84.7507 28.4286C84.7559 28.1594 84.6247 27.9285 84.1575 28.0415C83.7283 28.1447 83.6144 28.4406 83.5915 28.6765C83.5788 28.8033 83.583 28.9257 83.583 28.9257L82.2673 29.2207C82.2673 29.2207 82.2462 28.8353 82.3582 28.4821C82.5686 27.8101 83.1932 27.358 84.27 27.1213C85.6691 26.8151 86.1363 27.398 86.1386 28.3058V30.4546C86.1386 31.4942 86.3415 31.6459 86.3415 31.6459L85.0496 31.9365C85.0496 31.9365 84.9288 31.6993 84.8758 31.4955C84.8758 31.4955 84.5933 32.1719 83.6181 32.3899C82.5939 32.6191 82.0508 32.017 82.0508 31.1898ZM84.7423 29.6554C84.7423 29.6554 84.4733 29.8437 84.0544 30.0373C83.6243 30.2375 83.4288 30.4841 83.4288 30.8632C83.4288 31.192 83.6439 31.4083 84.0333 31.3162C84.4518 31.2165 84.7423 30.8458 84.7423 30.3314V29.6554Z" fill="#1F2941"/>
<path d="M64.7587 38.1979C64.3147 38.1979 63.9531 37.8417 63.9531 37.4027C63.9531 37.2486 63.9979 37.1 64.0832 36.9695L64.092 36.9586L64.1072 36.955L66.0052 36.5137V37.9339L65.9753 37.9407C65.545 38.043 65.0308 38.1589 64.9243 38.1802C64.8713 38.1925 64.8145 38.1979 64.7587 38.1979Z" fill="#1F2941"/>
<path d="M64.7587 40.0544C64.3147 40.0544 63.9531 39.6993 63.9531 39.2611C63.9531 39.1051 63.9979 38.9565 64.0832 38.8293L64.092 38.8152L64.1072 38.812L66.0052 38.3701V39.7912L65.9753 39.7989C65.545 39.9007 65.0308 40.0185 64.9243 40.039C64.8713 40.0494 64.8145 40.0544 64.7587 40.0544Z" fill="#1F2941"/>
<path d="M64.7587 41.8258C64.3147 41.8258 63.9531 41.4701 63.9531 41.0316C63.9531 40.8762 63.9979 40.7268 64.0832 40.6L64.092 40.5855L66.0052 40.1416V41.5618L65.9753 41.5691C65.521 41.6772 65.016 41.7895 64.9243 41.8099C64.8713 41.8199 64.8145 41.8258 64.7587 41.8258Z" fill="#1F2941"/>
<path d="M64.5161 36.5117L64.5156 28.789L66.0094 28.4561V36.1784L64.5161 36.5117Z" fill="#1F2941"/>
<path d="M68.2311 35.8798C68.2311 35.4009 67.8159 35.0107 67.3057 35.0107C66.7927 35.0107 66.3789 35.4009 66.3789 35.8798L66.3798 43.1029C66.3798 44.3992 67.5048 45.4566 68.8863 45.4566C69.5872 45.4566 71.5072 45.4535 71.5072 45.4535L71.5082 42.4402C71.5087 40.7939 71.5092 39.118 71.5092 39.08C71.5092 38.6987 71.3086 38.3453 70.9706 38.1327L68.634 36.6433C68.634 36.6433 68.6336 39.8775 68.6336 40.0255C68.6336 40.1294 68.5446 40.2142 68.434 40.2142C68.3243 40.2142 68.2358 40.1294 68.2358 40.0255C68.2358 39.9893 68.2311 36.3265 68.2311 35.8798Z" fill="#1F2941"/>
<path d="M69.5417 30.4609C68.5715 30.6722 68.2039 31.4371 68.2039 31.4371V30.8903L66.8516 31.1924L66.853 34.6857C67.0104 34.6265 67.1828 34.594 67.3633 34.594C67.7134 34.594 68.0324 34.7168 68.277 34.9206V32.6652C68.277 32.125 68.5625 31.6934 68.9687 31.6089C69.2749 31.5452 69.5303 31.6489 69.5303 32.1633L69.5313 35.4541L70.9558 35.1382V31.6574C70.9558 30.8133 70.6127 30.2242 69.5417 30.4609Z" fill="#1F2941"/>
<path d="M90.0315 25.5417C89.5429 25.5417 89.1445 25.1637 89.1445 24.7002C89.1445 24.2358 89.5429 23.8574 90.0315 23.8574C90.5201 23.8574 90.9184 24.2358 90.9184 24.7002C90.9184 25.1637 90.5201 25.5417 90.0315 25.5417ZM90.0315 23.9633C89.6042 23.9633 89.2552 24.2939 89.2552 24.7002C89.2552 25.1065 89.6042 25.4362 90.0315 25.4362C90.4592 25.4362 90.8073 25.1065 90.8073 24.7002C90.8073 24.2939 90.4592 23.9633 90.0315 23.9633Z" fill="#1F2941"/>
<path d="M89.7031 24.123H90.0583C90.1995 24.123 90.3135 24.1914 90.3135 24.3735C90.3135 24.4999 90.2554 24.5973 90.1459 24.614V24.6157C90.2453 24.6256 90.2977 24.679 90.3029 24.8161C90.3047 24.8781 90.3056 24.9546 90.3087 25.0144C90.3122 25.0622 90.3355 25.0853 90.3567 25.0981H90.1757C90.159 25.0798 90.152 25.0511 90.1485 25.0118C90.1423 24.9533 90.1436 24.8986 90.1415 24.8276C90.1388 24.7212 90.1054 24.6747 89.9949 24.6747H89.8642V25.0981H89.7031V24.123ZM89.9918 24.5576C90.0953 24.5576 90.152 24.4973 90.152 24.3986C90.152 24.2948 90.1067 24.241 90.0006 24.241H89.8642V24.5576H89.9918Z" fill="#1F2941"/>
<path d="M99.5355 33.1721C99.5355 33.6644 99.4432 34.1001 99.2586 34.4792C99.074 34.8582 98.8118 35.15 98.4718 35.3546C98.1318 35.5592 97.7445 35.6615 97.3099 35.6615C96.8753 35.6615 96.4898 35.5626 96.1533 35.365C95.8168 35.1674 95.5546 34.8848 95.3665 34.5173C95.1784 34.1498 95.0797 33.728 95.0703 33.2518V32.9675C95.0703 32.4728 95.162 32.0366 95.3454 31.6587C95.5289 31.2807 95.7917 30.9889 96.134 30.7832C96.4763 30.5775 96.866 30.4746 97.3029 30.4746C97.7352 30.4746 98.1207 30.5763 98.4595 30.7797C98.7983 30.9831 99.0618 31.2726 99.2499 31.6483C99.438 32.0239 99.5332 32.4544 99.5355 32.9398V33.1721ZM98.2843 32.9606C98.2843 32.459 98.1996 32.0782 98.0302 31.8181C97.8608 31.5581 97.6183 31.4281 97.3029 31.4281C96.6861 31.4281 96.3601 31.8857 96.3251 32.8011L96.3215 33.1721C96.3215 33.6667 96.4045 34.0469 96.5704 34.3127C96.7363 34.5786 96.9828 34.7115 97.3099 34.7115C97.6207 34.7115 97.8602 34.5809 98.0284 34.3197C98.1967 34.0585 98.2819 33.6829 98.2843 33.1929V32.9606ZM101.2 31.8407L101.239 32.281C101.501 31.9412 101.862 31.7713 102.322 31.7713C102.717 31.7713 103.012 31.8881 103.207 32.1215C103.402 32.355 103.503 32.7063 103.51 33.1755V35.5921H102.325V33.2241C102.325 33.0345 102.287 32.8953 102.21 32.8063C102.133 32.7173 101.992 32.6728 101.789 32.6728C101.558 32.6728 101.386 32.7629 101.274 32.9432V35.5921H100.093V31.8407H101.2ZM105.41 35.5921H104.225V30.2666H105.41V35.5921ZM107.383 35.5921H106.198V31.8407H107.383V35.5921ZM106.128 30.8733C106.128 30.7069 106.189 30.5706 106.31 30.4642C106.432 30.3579 106.59 30.3047 106.784 30.3047C106.978 30.3047 107.135 30.3579 107.257 30.4642C107.378 30.5706 107.439 30.7069 107.439 30.8733C107.439 31.0398 107.378 31.1761 107.257 31.2825C107.135 31.3888 106.978 31.442 106.784 31.442C106.59 31.442 106.432 31.3888 106.31 31.2825C106.189 31.1761 106.128 31.0398 106.128 30.8733ZM109.195 31.8407L109.233 32.281C109.495 31.9412 109.856 31.7713 110.316 31.7713C110.711 31.7713 111.006 31.8881 111.201 32.1215C111.397 32.355 111.498 32.7063 111.505 33.1755V35.5921H110.32V33.2241C110.32 33.0345 110.281 32.8953 110.204 32.8063C110.127 32.7173 109.987 32.6728 109.784 32.6728C109.552 32.6728 109.381 32.7629 109.269 32.9432V35.5921H108.087V31.8407H109.195ZM113.993 35.6615C113.411 35.6615 112.94 35.4898 112.581 35.1466C112.221 34.8033 112.041 34.3567 112.041 33.8065V33.7095C112.041 33.3258 112.113 32.9871 112.256 32.6936C112.4 32.4 112.61 32.1729 112.886 32.0123C113.161 31.8517 113.488 31.7713 113.867 31.7713C114.4 31.7713 114.82 31.9349 115.129 32.2619C115.437 32.589 115.591 33.0449 115.591 33.6297V34.0839H113.243C113.285 34.2942 113.377 34.4595 113.52 34.5797C113.662 34.6999 113.847 34.76 114.074 34.76C114.448 34.76 114.74 34.6306 114.95 34.3717L115.49 35.0027C115.342 35.2038 115.134 35.3639 114.864 35.4829C114.594 35.6019 114.304 35.6615 113.993 35.6615ZM113.86 32.6728C113.514 32.6728 113.308 32.8993 113.243 33.3523H114.435V33.2622C114.439 33.075 114.391 32.9299 114.291 32.8271C114.191 32.7242 114.047 32.6728 113.86 32.6728Z" fill="#1F2941"/>
</svg>
