<svg width="181" height="65" viewBox="0 0 181 65" fill="none" xmlns="http://www.w3.org/2000/svg">
<g clip-path="url(#clip0_1077_16523)">
<path d="M68.7279 22.8145H64.9191C64.8419 22.8145 64.7647 22.8917 64.7647 22.9689V23.2262V36.4542C64.7647 37.4064 64.2757 38.2814 63.4265 38.7446C63.0919 38.9247 62.7059 39.0277 62.3199 39.0277H62.2426C61.3934 39.0277 60.5699 38.5902 60.1066 37.8953C59.875 37.5093 59.7463 37.0718 59.7463 36.6343C59.7463 36.5571 59.6691 36.4799 59.5919 36.4799H55.7059C55.6544 36.4799 55.5772 36.5056 55.5515 36.5571C55.5257 36.5571 55.5 36.6086 55.5 36.66C55.6029 40.2887 58.5625 43.1453 62.1654 43.1453H62.2941C65.9228 43.1196 68.8824 40.1343 68.8824 36.4542V22.9689C68.8824 22.8917 68.8051 22.8145 68.7279 22.8145Z" fill="#848DA5"/>
<path d="M110.522 32.8513C109.827 31.1271 108.463 29.7374 106.713 29.0168C104.86 28.2705 102.801 28.2705 100.974 29.0168C100.099 29.3513 99.3271 29.8918 98.6579 30.5352C98.0146 31.2043 97.5256 31.9763 97.191 32.8256C96.8307 33.7521 96.6249 34.73 96.6506 35.708C96.6506 36.7116 96.8307 37.6896 97.191 38.616C97.5256 39.4653 98.0146 40.2631 98.6579 40.9322C99.3271 41.6013 100.099 42.116 100.974 42.4506C102.827 43.1712 104.86 43.1712 106.713 42.4506C107.562 42.0903 108.334 41.5756 109.004 40.9322C109.647 40.2631 110.162 39.491 110.522 38.616C110.882 37.6896 111.062 36.7116 111.062 35.708C111.088 34.7557 110.882 33.7778 110.522 32.8513ZM101.772 33.1344C102.029 32.8771 102.338 32.6712 102.698 32.5425C103.445 32.2594 104.268 32.2594 105.015 32.5425C105.375 32.6712 105.684 32.9028 105.967 33.1602C106.25 33.469 106.481 33.8293 106.636 34.2153C106.97 35.219 106.97 36.2999 106.636 37.3035C106.481 37.7153 106.25 38.0756 105.967 38.3844C105.709 38.6675 105.375 38.8734 105.015 39.0278C104.268 39.3109 103.445 39.3109 102.724 39.0278C102.364 38.8734 102.055 38.6675 101.798 38.3844C101.515 38.0756 101.283 37.7153 101.129 37.3035C100.768 36.3256 100.768 35.2447 101.129 34.241C101.257 33.8293 101.463 33.4432 101.772 33.1344Z" fill="#848DA5"/>
<path d="M125.499 34.2666V42.9909C125.499 43.0681 125.421 43.1453 125.344 43.1453H125.499H121.535C121.458 43.1453 121.381 43.0681 121.381 42.9909V34.9615C121.407 34.6012 121.355 34.2409 121.278 33.8806C121.175 33.5718 120.995 33.2629 120.763 33.0313C120.66 32.9541 120.583 32.8512 120.48 32.7997C120.146 32.5681 119.528 32.4652 119.142 32.4652C118.421 32.4652 117.778 32.8255 117.366 33.4174C117.212 33.649 117.135 33.9063 117.083 34.1894C117.032 34.421 117.032 34.6269 117.032 34.8585C117.032 34.8843 117.032 34.9357 117.032 34.9615V42.9909C117.032 43.0681 116.955 43.1453 116.877 43.1453H113.068C112.991 43.1453 112.914 43.0681 112.914 42.9909V28.888C112.914 28.8107 112.991 28.7335 113.068 28.7335H113.043H116.877C116.98 28.7335 117.032 28.8107 117.032 28.888V29.6085C117.032 29.6343 117.032 29.66 117.057 29.6857C117.083 29.7115 117.109 29.7115 117.135 29.6857C117.366 29.5056 117.624 29.3512 117.881 29.2482C119.374 28.5791 121.046 28.5534 122.591 29.1453C123.234 29.4284 123.8 29.8402 124.238 30.3806C124.675 30.8953 125.01 31.5129 125.19 32.1563C125.396 32.8512 125.499 33.546 125.499 34.2666Z" fill="#848DA5"/>
<path d="M94.7215 28.7338H92.4568C92.3796 28.7338 92.3024 28.6566 92.3024 28.5794V22.9691C92.3024 22.8919 92.2252 22.8147 92.148 22.8147H88.3392C88.2619 22.8147 88.1847 22.8919 88.1847 22.9691V22.5059V28.322C88.1847 28.3992 88.1075 28.4764 88.0303 28.4764H86.795C86.7178 28.4764 86.6406 28.5537 86.6406 28.6309V32.1823C86.6406 32.2853 86.7178 32.3367 86.795 32.3367H88.0303C88.1075 32.3367 88.1847 32.4139 88.1847 32.4912V37.2522C88.1847 40.4434 90.7325 43.0426 93.898 43.0426C94.1811 43.0426 94.4642 43.0169 94.7472 42.9912C94.8244 42.9654 94.8759 42.9139 94.8759 42.8367V38.925C94.8759 38.8478 94.7987 38.7706 94.7215 38.7706H93.8208C93.0744 38.7706 92.3796 38.2301 92.3024 37.4581C92.3024 37.4066 92.3024 37.3294 92.3024 37.2779V32.7485C92.3024 32.6456 92.3796 32.5941 92.4568 32.5941H94.7215C94.7987 32.5941 94.8759 32.5169 94.8759 32.4397V28.9139C94.8759 28.811 94.7987 28.7338 94.7215 28.7338Z" fill="#848DA5"/>
<path d="M82.3176 30.1233C82.2661 30.0718 82.1889 30.0203 82.1117 29.9689C80.619 28.888 78.7403 28.4247 76.9389 28.7336H76.8359C76.2183 28.8108 75.6006 28.9652 75.0345 29.1968C74.1852 29.5571 73.4131 30.0718 72.7698 30.7152C72.1264 31.3586 71.6117 32.1564 71.2514 33.0056C70.8911 33.9321 70.7109 34.91 70.7109 35.888C70.7109 36.8659 70.8911 37.8439 71.2514 38.7703C71.5859 39.6196 72.1006 40.4174 72.744 41.0608C73.3874 41.7042 74.1595 42.2189 75.0345 42.5792C75.858 42.9137 76.7073 43.0939 77.5823 43.1196C77.7881 43.1196 77.994 43.1453 78.2256 43.1453H78.6889C80.8764 42.9909 82.858 41.8071 84.0418 39.9799C84.0676 39.9542 84.0676 39.9027 84.0676 39.877C84.0676 39.8512 84.0418 39.7997 84.0161 39.7997C84.0161 39.774 83.9903 39.774 83.9646 39.774L80.5676 38.8218C80.4903 38.7961 80.3874 38.7703 80.2845 38.7961C80.1815 38.8218 80.0528 38.8733 79.9756 38.9247L79.9499 38.9505C79.1264 39.4909 78.097 39.5939 77.1705 39.2593C77.1448 39.2593 77.1448 39.2336 77.119 39.2336C76.2698 38.899 75.6006 38.2042 75.3176 37.3292C75.3176 37.3034 75.3176 37.252 75.3176 37.252C75.3433 37.2262 75.3433 37.2262 75.369 37.2262H84.2992C84.3506 37.2262 84.4278 37.2005 84.4278 37.1233C84.8396 35.7078 84.7624 34.2152 84.222 32.877C83.8359 31.7961 83.1668 30.8696 82.3176 30.1233ZM80.4389 33.8806H75.3433C75.369 33.8034 75.3948 33.7262 75.4462 33.649L75.472 33.5975C75.5749 33.4689 75.6778 33.3145 75.7808 33.2115C76.0381 32.9284 76.347 32.7225 76.7073 32.5939C77.4536 32.3108 78.2771 32.3108 79.0234 32.5939C79.5896 32.8255 80.0528 33.2115 80.3874 33.7262C80.3874 33.7777 80.4131 33.8292 80.4389 33.8806Z" fill="#848DA5"/>
</g>
<defs>
<clipPath id="clip0_1077_16523">
<rect width="70" height="21" fill="white" transform="translate(55.5 22.4287)"/>
</clipPath>
</defs>
</svg>
