<svg width="181" height="65" viewBox="0 0 181 65" fill="none" xmlns="http://www.w3.org/2000/svg">
<path d="M86.6723 33.0272C86.6041 28.9213 88.4434 25.273 91.3244 22.9066C89.1498 21.2002 86.4236 20.174 83.4683 20.1842C76.467 20.2081 70.8983 25.9758 71.0163 33.0808C71.1344 40.1858 76.8942 45.9147 83.8955 45.8907C86.8508 45.8806 89.5426 44.8359 91.6602 43.1148C88.7015 40.8041 86.7406 37.1331 86.6723 33.0272Z" fill="#848DA5"/>
<path d="M112.238 32.8535C112.356 39.9585 106.788 45.7261 99.7864 45.7501C96.8312 45.7602 94.1049 44.7341 91.9303 43.0277C94.8465 40.6611 96.6506 37.013 96.5824 32.9071C96.5141 28.8012 94.5538 25.1659 91.5945 22.8195C93.7121 21.0984 96.404 20.0537 99.3593 20.0436C106.36 20.0196 112.121 25.7842 112.238 32.8535Z" fill="#848DA5"/>
</svg>
