<svg width="181" height="65" viewBox="0 0 181 65" fill="none" xmlns="http://www.w3.org/2000/svg">
<path d="M59.1417 27.9554C59.2078 28.0433 59.2677 28.1356 59.3211 28.2317C59.1762 27.625 58.9545 27.0392 58.6612 26.4885C56.2436 22.0607 49.517 23.3848 42.8086 28.4048C41.0416 29.7244 39.454 31.2679 38.0859 32.9967C38.8983 33.4852 39.6737 34.0323 40.4062 34.6336C40.8525 34.9584 41.3256 35.2449 41.8203 35.49C42.246 34.998 42.69 34.5142 43.1522 34.0384C49.1277 27.8916 56.7332 24.7544 59.1417 27.9554Z" fill="#848DA5"/>
<path d="M59.5636 31.7118L59.6883 31.6753C59.9042 30.2905 59.816 29.0909 59.3203 28.2314C59.5851 29.3714 59.6672 30.5461 59.5636 31.7118Z" fill="#848DA5"/>
<g style="mix-blend-mode:soft-light">
<path d="M59.3083 28.2101C59.255 28.1139 59.195 28.0216 59.1289 27.9337L59.1016 27.9033C59.1563 28.0704 59.205 28.2404 59.2475 28.4166C59.3216 28.5409 59.3857 28.6709 59.4391 28.8053C59.4026 28.6018 59.357 28.4044 59.3083 28.2101Z" fill="#848DA5"/>
</g>
<g style="mix-blend-mode:soft-light">
<path d="M42.7417 28.6748C49.4318 23.6183 56.1463 22.2547 58.5852 26.6704C58.7977 27.0579 58.9728 27.4646 59.1082 27.8852C59.1157 27.8967 59.1249 27.9069 59.1356 27.9156C59.2007 28.0042 59.2606 28.0965 59.315 28.1919C59.1668 27.5863 58.9431 27.0017 58.649 26.4518C56.2163 22.036 49.4896 23.3996 42.8025 28.4561C40.3495 30.296 38.2613 32.5762 36.6445 35.1799C36.6586 35.1954 36.6718 35.2116 36.6841 35.2285C38.2875 32.6943 40.3403 30.4734 42.7417 28.6748Z" fill="#848DA5"/>
</g>
<path d="M40.8333 33.0538C40.2251 32.5315 39.5865 32.0395 39.0087 31.4746C37.8447 32.8485 36.5592 34.1149 35.1679 35.2586C29.1833 40.1967 22.7334 41.8336 20.7658 38.903C20.7354 38.8574 20.7081 38.8088 20.6807 38.7633C20.3035 38.2059 20.021 37.5903 19.8444 36.9411C19.5164 35.7084 19.5375 34.4089 19.9052 33.1874C18.993 35.0339 18.7375 36.8591 19.3183 38.4201C20.8388 42.5443 27.6324 43.2397 34.4746 39.972C37.6615 38.4535 40.295 36.3276 42.0496 34.0894C41.6422 33.7432 41.2438 33.3848 40.8333 33.0538Z" fill="#848DA5"/>
<path d="M26.3302 26.8711C26.0099 26.8983 25.6937 26.9615 25.3875 27.0594L25.4058 27.1049L25.351 27.0776C24.0312 28.0191 23.9856 28.0251 25.4058 27.1049C24.5724 27.6225 23.7913 28.2195 23.0733 28.8876C21.907 30.0213 20.9177 31.3235 20.1388 32.7506C20.0577 32.9025 19.9786 33.0543 19.9016 33.2062C19.5338 34.4276 19.5128 35.7271 19.8408 36.9598C20.0173 37.609 20.2999 38.2246 20.677 38.782C20.1599 37.868 19.8846 36.8374 19.8773 35.7876C19.9016 33.1879 22.1063 29.7501 23.5994 28.4685C24.245 27.8693 25.0676 27.4953 25.944 27.4026C26.0415 27.2047 26.1721 27.025 26.3302 26.8711Z" fill="#848DA5"/>
<g style="mix-blend-mode:multiply" opacity="0.71">
<path d="M32.0391 37.5395C34.8428 35.8024 37.3669 33.4062 38.1545 32.3767L38.6076 31.8787C38.9634 31.5446 39.4043 30.8674 39.754 30.5424C40.6481 30.0778 42.3084 28.9176 44.0479 27.7636C44.796 27.2686 45.5501 26.7796 45.9759 26.5488L48.0194 29.9259C46.7452 30.752 43.4823 33.5004 42.3297 34.4813C41.9679 34.785 42.3997 34.1108 42.0591 34.4327L39.6263 36.6163C37.9477 38.0349 36.0837 39.219 34.0856 40.1361L32.0391 37.5395Z" fill="#848DA5"/>
</g>
<path d="M58.2036 25.817C63.1817 35.2315 51.851 39.6411 45.9059 33.1481C43.4123 30.017 43.1234 28.4378 41.5603 26.8343C34.8702 20.3505 25.2515 24.3805 20.2461 32.5073C20.9121 31.7117 25.1421 26.892 31.294 27.6482C36.0501 28.2556 36.8255 34.3295 43.8593 37.9101C51.8419 41.9917 66.1922 36.4797 58.2036 25.817Z" fill="#848DA5"/>
<g style="mix-blend-mode:darken" opacity="0.57">
<path d="M44.0758 37.6791C37.042 34.0894 36.2635 28.0095 31.5104 27.4173C25.6414 26.6762 21.5208 31.0373 20.5781 32.1427C21.8249 30.77 25.7904 26.9799 31.2976 27.6693C36.0537 28.2615 36.8291 34.3506 43.8629 37.9281C48.8075 40.4488 56.188 39.2947 59.1985 35.5168C56.0663 39.0943 48.9048 40.142 44.0758 37.6791Z" fill="#848DA5"/>
</g>
<g style="mix-blend-mode:soft-light">
<path d="M58.4482 26.1242C58.3691 26.0118 58.2901 25.8995 58.2049 25.7871C63.0705 35.0012 52.3115 39.4291 46.2812 33.504C52.2324 39.6082 63.1161 35.2836 58.4482 26.1242Z" fill="#848DA5"/>
</g>
<path d="M83.7315 24.2986C83.6479 24.2644 83.5614 24.238 83.473 24.2196C82.7736 24.0404 81.0402 23.9827 80.4807 24.4383L80.4503 24.4656C80.3578 24.552 80.2825 24.655 80.2283 24.7693C78.6031 26.9235 77.1005 29.1673 75.7276 31.4901L71.5402 24.7815L71.525 24.7481C71.4694 24.633 71.392 24.5298 71.2969 24.4444L71.2665 24.4201C70.78 24.0161 69.3233 24.0283 68.5296 24.165C68.3413 24.1847 68.1563 24.2286 67.9792 24.2955C67.8255 24.3611 67.694 24.4697 67.6007 24.6082C67.5074 24.7467 67.4561 24.9091 67.4531 25.076V39.2312C67.4531 39.5137 67.5839 40.0087 68.4597 40.1423C68.7509 40.1815 69.0447 40.1998 69.3385 40.197C69.9467 40.197 71.227 40.197 71.227 39.2312V31.0679C71.5007 31.4992 72.0207 32.3434 72.5954 33.4033C73.3942 34.8793 73.9304 35.844 74.2041 36.2975L74.3653 36.6012C74.5091 36.8197 74.6927 37.0092 74.9066 37.16C75.3641 37.4311 75.9086 37.5159 76.4271 37.3969C76.5553 37.3625 76.6753 37.3026 76.7798 37.2208C77.0138 37.0643 77.2195 36.8691 77.388 36.6438L77.7529 36.006C77.9293 35.6962 78.3429 34.9299 78.9936 33.707C79.6444 32.4842 80.1401 31.5923 80.4807 31.0315C80.4807 31.0315 80.4807 32.5651 80.4807 32.6532V39.2403C80.4807 40.2061 81.7548 40.2061 82.3661 40.2061C82.9773 40.2061 84.2545 40.2061 84.2545 39.2403V25.0791C84.2518 24.9125 84.201 24.7503 84.1082 24.6118C84.0154 24.4734 83.8846 24.3646 83.7315 24.2986Z" fill="#848DA5"/>
<path d="M88.3142 40.3698C87.706 40.3698 86.4258 40.3698 86.4258 39.4041V30.3661C86.4258 29.4004 87.6999 29.4004 88.3142 29.4004C88.9285 29.4004 90.1996 29.4004 90.1996 30.3661V39.4041C90.1996 40.3698 88.9255 40.3698 88.3142 40.3698ZM87.4627 39.2674C88.0259 39.3565 88.5995 39.3565 89.1627 39.2674V30.5028C88.5995 30.4137 88.0259 30.4137 87.4627 30.5028V39.2674Z" fill="#848DA5"/>
<path d="M102.102 24.8027H94.2194C93.3923 24.8301 92.9727 24.906 92.9727 25.2461V39.4044C92.9727 39.6382 93.1369 39.8538 94.332 39.8538C95.5271 39.8538 95.6913 39.6382 95.6913 39.4044V33.5582H101.326C101.761 33.5582 102.041 33.0632 102.041 32.3009C102.041 31.5387 101.761 31.0437 101.326 31.0437H95.6913V27.3143H102.102C102.537 27.3143 102.819 26.8223 102.819 26.06C102.819 25.2978 102.54 24.8027 102.102 24.8027Z" fill="#848DA5"/>
<path d="M122.671 40.3698C121.488 40.3698 121.151 40.0843 120.995 39.8717L115.482 31.7358V39.3858C115.482 40.3667 114.214 40.3667 113.606 40.3667C112.998 40.3667 111.727 40.3667 111.727 39.3858V25.264C111.729 25.0874 111.785 24.9158 111.888 24.772C111.991 24.6282 112.135 24.5191 112.301 24.4592C112.691 24.2983 114.673 24.1009 115.239 24.6627L115.333 24.7781L120.837 32.9111V25.264C120.837 24.2861 122.154 24.2861 122.717 24.2861C123.279 24.2861 124.593 24.2861 124.593 25.264V39.3858C124.586 39.5836 124.515 39.7739 124.391 39.9279C124.266 40.0819 124.095 40.1911 123.903 40.2392C123.499 40.3347 123.085 40.3786 122.671 40.3698ZM121.813 39.234C122.092 39.3153 122.382 39.3492 122.671 39.3342C122.967 39.3389 123.262 39.3145 123.553 39.2613V25.3916C122.996 25.2944 122.426 25.2944 121.868 25.3916V36.2912L114.506 25.4128C113.928 25.3074 113.336 25.3074 112.757 25.4128V39.2734C113.314 39.3709 113.883 39.3709 114.439 39.2734V28.3617L121.813 39.234Z" fill="#848DA5"/>
<path d="M129.034 40.37C128.426 40.37 127.148 40.37 127.148 39.4042V25.246C127.148 24.2803 128.423 24.2803 129.034 24.2803C129.645 24.2803 130.922 24.2803 130.922 25.246V39.4042C130.922 40.37 129.648 40.37 129.034 40.37ZM128.185 39.2676C128.749 39.3567 129.322 39.3567 129.885 39.2676V25.3827C129.605 25.3288 129.319 25.3064 129.034 25.3159C128.749 25.3061 128.465 25.3285 128.185 25.3827V39.2676Z" fill="#848DA5"/>
<path d="M107.216 24.7998C106.015 24.7998 105.848 25.0154 105.848 25.2462V39.4045C105.848 39.6383 106.015 39.8539 107.216 39.8539C108.417 39.8539 108.585 39.6383 108.585 39.4045V25.2462C108.585 25.0154 108.42 24.7998 107.216 24.7998Z" fill="#848DA5"/>
<path d="M139.456 40.3698C138.848 40.3698 137.58 40.3698 137.58 39.404V28.0368H133.931C132.961 28.0368 132.961 26.7673 132.961 26.1599C132.961 25.5525 132.961 24.2861 133.931 24.2861H144.982C145.949 24.2861 145.949 25.5525 145.949 26.1599C145.949 26.7673 145.949 28.0368 144.982 28.0368H141.333V39.404C141.333 40.3698 140.068 40.3698 139.456 40.3698ZM138.614 39.2674C139.172 39.3565 139.741 39.3565 140.299 39.2674V27.0012H144.842C144.931 26.4439 144.931 25.876 144.842 25.3187H134.071C133.982 25.876 133.982 26.4439 134.071 27.0012H138.614V39.2674Z" fill="#848DA5"/>
<path d="M154.532 40.3821C154.063 40.3821 152.646 40.3821 152.646 39.3526V33.5824L147.477 25.5315V25.3067C147.48 25.105 147.551 24.9104 147.678 24.7532C147.804 24.596 147.98 24.4852 148.176 24.4382C148.675 24.2711 150.928 24.095 151.5 24.8573L151.521 24.8876L154.535 29.5554L157.576 24.839C158.184 24.0889 160.452 24.2802 160.921 24.4473C161.111 24.4984 161.28 24.6098 161.402 24.7648C161.523 24.9197 161.591 25.1098 161.596 25.3067V25.5345L156.426 33.5854V39.3556C156.417 40.3821 155.012 40.3821 154.532 40.3821ZM153.68 39.2524C154.24 39.3778 154.82 39.3778 155.38 39.2524V33.2878L160.462 25.3918C159.929 25.2824 158.667 25.3128 158.382 25.495L154.541 31.4748L150.682 25.5041C150.396 25.3219 149.161 25.2885 148.617 25.4009L153.68 33.2969V39.2524Z" fill="#848DA5"/>
<path d="M88.7553 24.417H87.7427C86.9248 24.417 86.2617 25.0792 86.2617 25.896V26.9346C86.2617 27.7514 86.9248 28.4136 87.7427 28.4136H88.7553C89.5732 28.4136 90.2363 27.7514 90.2363 26.9346V25.896C90.2363 25.0792 89.5732 24.417 88.7553 24.417Z" fill="#848DA5"/>
<path d="M88.3138 29.917C87.0974 29.917 86.9453 30.1326 86.9453 30.3665V39.4044C86.9453 39.6382 87.1095 39.8539 88.3138 39.8539C89.518 39.8539 89.6822 39.6382 89.6822 39.4044V30.3665C89.6822 30.1326 89.5149 29.917 88.3138 29.917Z" fill="#848DA5"/>
<path d="M94.3325 40.3698C93.7243 40.3698 92.4531 40.3698 92.4531 39.404V25.2458C92.4531 24.3347 93.5083 24.3074 94.2047 24.2861H102.111C102.68 24.2861 103.346 24.7508 103.346 26.0597C103.346 27.3686 102.68 27.8333 102.111 27.8333H96.2087V30.527H101.327C101.895 30.527 102.561 30.9917 102.561 32.3006C102.561 33.6096 101.895 34.0742 101.327 34.0742H96.2087V39.404C96.2087 40.3698 94.9407 40.3698 94.3325 40.3698ZM93.4901 39.2674C94.0481 39.3565 94.6168 39.3565 95.1748 39.2674V33.0538H101.327C101.381 33.0356 101.524 32.8169 101.524 32.3158C101.524 31.8147 101.381 31.5961 101.33 31.5748H95.1748V26.7977H102.102C102.136 26.7977 102.3 26.6003 102.3 26.0597C102.3 25.5191 102.136 25.3308 102.108 25.3187V24.8024V25.3187H94.223C93.9772 25.3206 93.7321 25.3429 93.4901 25.3855V39.2674Z" fill="#848DA5"/>
<path d="M122.711 24.8027C121.513 24.8027 121.352 25.0366 121.352 25.2643V34.603L114.896 25.0669L114.866 25.0305C114.562 24.7268 112.88 24.7784 112.494 24.9394C112.422 24.9594 112.359 25.0017 112.313 25.0601C112.267 25.1185 112.241 25.1901 112.238 25.2643V39.3861C112.238 39.538 112.238 39.8477 113.601 39.8477C114.963 39.8477 114.96 39.5441 114.96 39.3861V30.0475L121.416 39.5714C121.568 39.7809 122.128 39.8538 122.672 39.8538C123.031 39.8619 123.389 39.8262 123.739 39.7475C124.013 39.6595 124.071 39.5015 124.071 39.3861V25.2643C124.071 25.0366 123.91 24.8027 122.711 24.8027Z" fill="#848DA5"/>
<path d="M129.033 24.7998C127.831 24.7998 127.664 25.0154 127.664 25.2462V39.4045C127.664 39.6383 127.831 39.8539 129.033 39.8539C130.234 39.8539 130.401 39.6383 130.401 39.4045V25.2462C130.401 25.0154 130.237 24.7998 129.033 24.7998Z" fill="#848DA5"/>
<path d="M107.217 40.37C106.609 40.37 105.332 40.37 105.332 39.4042V25.246C105.332 24.2803 106.606 24.2803 107.217 24.2803C107.829 24.2803 109.103 24.2803 109.103 25.246V39.4042C109.097 40.37 107.829 40.37 107.217 40.37ZM106.366 39.2676C106.93 39.3567 107.505 39.3567 108.069 39.2676V25.3827C107.505 25.2936 106.93 25.2936 106.366 25.3827V39.2676Z" fill="#848DA5"/>
<path d="M144.979 24.8027H133.934C133.7 24.8027 133.484 24.9667 133.484 26.1602C133.484 27.3538 133.7 27.5178 133.934 27.5178H138.094V39.4044C138.094 39.6382 138.259 39.8538 139.454 39.8538C140.649 39.8538 140.813 39.6382 140.813 39.4044V27.5178H144.979C145.21 27.5178 145.426 27.3538 145.426 26.1602C145.426 24.9667 145.207 24.8027 144.979 24.8027Z" fill="#848DA5"/>
<path d="M160.756 24.9423C160.248 24.7661 158.341 24.7206 157.979 25.17L154.54 30.5181L151.091 25.1761C150.76 24.7327 148.859 24.7661 148.354 24.9392C148.069 25.0334 148.008 25.1943 148.008 25.3158V25.3917L153.177 33.4427V39.3525C153.177 39.4801 153.177 39.8658 154.546 39.8658C155.914 39.8658 155.914 39.4801 155.914 39.3525V33.4427L161.084 25.3917V25.3158C161.096 25.1974 161.026 25.0394 160.756 24.9423Z" fill="#848DA5"/>
</svg>
