<svg width="92" height="17" viewBox="0 0 92 17" fill="none" xmlns="http://www.w3.org/2000/svg">
<path d="M85.4008 7.30654C84.9185 7.63307 84.1146 7.79634 83.15 7.79634H82.6676H82.1853L82.8284 3.55144H83.3107H83.6323C84.4362 3.55144 85.0793 3.7147 85.5616 3.87797C85.8832 4.2045 86.2047 4.53103 86.2047 5.51062C86.2047 6.49021 85.8832 6.98001 85.4008 7.30654ZM24.627 12.6943H16.7489L17.2312 9.75552H22.2153L22.6977 6.65348H17.8743L18.3567 3.87797H26.2348L24.627 12.6943ZM89.7418 1.42899C88.4556 0.612663 86.6871 0.286133 84.4362 0.286133H78.4874L76.2365 12.6943H68.3584L68.8408 9.75552H73.5033L74.1464 6.65348H69.3231L69.9662 3.87797H74.7895L75.4326 0.286133H65.4645L63.3743 12.0412H59.6765L61.9273 0.286133H56.6217L54.5316 12.0412H50.9945L53.0846 0.286133H47.9397L45.6888 12.6943H37.8107L38.2931 9.75552H42.9556L43.5987 6.65348H38.7754L39.2577 3.87797H44.2418L44.8849 0.286133H13.8549L12.0864 10.0821L8.71003 0.286133H3.2436L0.349609 16.2861H5.49449L7.26304 6.16368L10.6394 16.2861H29.1288L31.3796 3.87797H34.2736L32.0228 16.2861H80.5775L82.0245 8.4494L84.2754 16.2861H89.4203L87.0086 9.91879L87.6517 9.75552C88.7772 9.42899 89.7418 8.93919 90.3849 8.12287C91.0281 7.30654 91.3496 6.16368 91.3496 4.85756C91.3496 3.38817 90.8673 2.24532 89.7418 1.42899Z" fill="#848DA5"/>
</svg>
