<svg width="181" height="65" viewBox="0 0 181 65" fill="none" xmlns="http://www.w3.org/2000/svg">
<path fill-rule="evenodd" clip-rule="evenodd" d="M103.664 12.5723H107.004L106.973 12.6973C106.915 12.93 106.846 13.1597 106.765 13.3856L106.847 12.8733C106.501 12.75 106.128 12.7444 105.766 12.7191C104.964 12.6956 104.251 12.5409 103.484 12.8817L103.658 12.5818L103.664 12.5723Z" fill="#848DA5"/>
<path d="M58.1563 12.6494C60.4676 12.7083 62.7866 12.6399 65.0984 12.6786C65.8159 12.7727 66.6019 13.2498 66.8502 13.9634C67.0789 14.6321 66.9713 15.2931 66.7213 15.9366C65.5676 18.9732 64.4274 22.0182 63.2715 25.0531C62.832 26.1714 61.9419 26.9792 60.8801 27.5011C60.2876 30.9312 59.6951 34.3669 59.1087 37.7987H59.0207C57.8884 37.6642 56.7269 37.7673 55.5867 37.7359C56.2145 34.4589 56.811 31.1717 57.4388 27.8924C56.8743 27.8885 56.3098 27.8885 55.7453 27.8924C54.5132 31.1773 53.234 34.4471 52.012 37.7343C50.8426 37.7303 49.6693 37.7516 48.5 37.7186C48.9092 36.9383 49.1688 36.1153 49.4894 35.2975C52.3836 27.7494 55.2543 20.1935 58.1558 12.6494H58.1563ZM60.4519 15.6042C59.1945 18.7546 58.019 21.9907 56.7874 25.1562C57.7965 25.1585 58.8038 25.1585 59.8128 25.1585C61.0248 21.9672 62.2294 18.7759 63.4436 15.5868C62.4486 15.598 61.4474 15.5515 60.4519 15.6042ZM75.8378 12.6808C77.2728 12.6517 78.7101 12.6808 80.1457 12.6668C81.055 12.6376 82.0348 13.2537 82.2675 14.1652C82.4704 14.8435 82.2613 15.4281 82.0382 16.0616C79.3419 23.2851 76.6685 30.5186 73.9778 37.746C72.8242 37.7225 71.6705 37.7477 70.5146 37.7264C71.7237 34.4436 72.9472 31.1661 74.1852 27.8941C73.1235 27.8997 72.0539 27.8593 70.9939 27.9081C70.8571 28.1037 70.7809 28.3498 70.6929 28.5707C69.5661 31.633 68.3968 34.678 67.2706 37.7382C66.1231 37.7303 64.9768 37.746 63.831 37.7281C66.4651 30.7098 69.1087 23.696 71.7467 16.6816C71.9755 16.0874 72.1694 15.4478 72.4901 14.8984C73.2053 13.7251 74.4963 12.9151 75.8378 12.6808ZM75.5872 15.5733C74.3691 18.7097 73.2233 21.8988 72.0147 25.0413C73.0921 25.0469 74.1673 25.0469 75.2452 25.0391C76.4084 21.8719 77.6052 18.717 78.7746 15.5515C77.7151 15.5672 76.645 15.5122 75.5872 15.5728V15.5733ZM88.7342 12.6808C90.889 12.6556 93.0478 12.6808 95.2031 12.6668C96.1141 12.6337 97.0956 13.2554 97.3378 14.1629C97.5138 14.7672 97.3753 15.3205 97.1752 15.8951C95.8425 19.5331 94.513 23.1723 93.1868 26.8127C92.6447 28.5746 90.8027 29.9732 88.945 29.9104C87.8933 29.9121 86.8389 29.9065 85.785 29.9082C84.8265 32.5171 83.8472 35.1198 82.9104 37.7337C82.1425 37.7315 80.9911 37.7259 79.4551 37.7169C83.5753 26.5874 86.6679 18.2422 88.7342 12.6808ZM93.8673 15.5845C92.9323 15.5924 91.9939 15.5593 91.0611 15.6042C89.6552 19.3841 88.2745 23.1797 86.8664 26.9596C87.8093 26.9613 88.7516 26.9573 89.6961 26.9635C91.0998 23.1758 92.5001 19.3858 93.8667 15.5845H93.8673ZM112.767 12.669C114.994 12.6707 117.223 12.673 119.451 12.6668C120.36 12.6141 121.39 13.2161 121.645 14.1276C121.801 14.6927 121.723 15.2561 121.535 15.8037C119.292 22.1045 117.036 28.4064 114.798 34.7089C114.167 36.6199 112.151 37.7202 110.064 37.7382C108.659 37.7494 106.548 37.7438 103.733 37.7202C104.024 36.8979 104.247 36.274 104.399 35.8474C107.185 28.1211 109.983 20.397 112.767 12.669ZM115.129 15.5885C112.82 21.9616 110.489 28.4692 108.191 34.8574C109.234 34.8541 110.277 34.8675 111.319 34.8462C113.608 28.4109 115.925 21.9829 118.22 15.5492C117.194 15.5773 116.148 15.4932 115.129 15.5885Z" fill="#848DA5"/>
<path fill-rule="evenodd" clip-rule="evenodd" d="M132.648 12.6143L132.651 15.3554L132.268 15.3459L132.27 14.2276L125.817 14.1995V13.8324H132.264L132.27 12.6143H132.648ZM103.607 12.6647L106.971 12.6569L97.9241 37.7204L94.4688 37.726L103.607 12.6647Z" fill="#848DA5"/>
<path d="M125.824 15.9721C128.042 15.9312 130.445 15.9777 132.667 15.9721C132.663 16.7053 132.868 17.9806 132.056 18.2895C131.395 18.4145 130.678 18.3579 130.005 18.3399C129.62 18.3483 129.463 18.086 129.199 17.8595C128.945 18.0821 128.792 18.3483 128.419 18.3422C127.614 18.3657 126.632 18.3814 125.828 18.3405L125.824 17.9806C126.726 17.9077 127.657 18.0294 128.549 17.9004C129.123 17.6443 128.955 16.8735 129.01 16.365C127.95 16.3516 126.888 16.3791 125.828 16.3421L125.824 15.9721ZM129.393 16.3516L129.387 16.4514C129.397 17.0203 129.207 17.5837 129.829 17.892C130.502 17.9514 131.284 17.9548 131.957 17.8847C132.428 17.568 132.226 16.8639 132.277 16.3634C131.315 16.3555 130.355 16.369 129.393 16.3516ZM125.857 19.1382C127.834 19.4571 129.796 19.8478 131.769 20.1842C132.117 20.2666 132.476 20.2604 132.747 20.5127V20.6887C132.021 20.9802 131.174 21.029 130.404 21.1932C128.922 21.4942 127.427 21.7 125.953 22.0341C125.943 21.8947 125.934 21.7553 125.926 21.6159C126.391 21.5262 126.858 21.4516 127.326 21.381C127.334 20.849 127.336 20.3193 127.336 19.789C126.848 19.7003 126.36 19.6078 125.873 19.5115L125.857 19.1382ZM127.749 19.8675L127.754 21.2874C129.092 21.0194 130.453 20.867 131.781 20.5558C130.433 20.3389 129.096 20.0766 127.749 19.8675Z" fill="#848DA5"/>
<path fill-rule="evenodd" clip-rule="evenodd" d="M122.847 22.166C122.852 27.3754 122.87 32.5887 122.837 37.798H122.827C120.882 37.6472 118.916 37.7963 116.969 37.7156C118.836 32.7826 120.686 27.8384 122.54 22.8976C122.637 22.6509 122.739 22.4087 122.847 22.166ZM125.964 22.8095C127.964 22.7877 129.964 22.8073 131.963 22.7978C132.258 22.8522 132.878 22.647 132.657 23.179C131.454 23.6218 129.625 24.2255 127.17 24.9896H132.745V25.3377C130.452 25.3809 128.15 25.3629 125.854 25.3478C125.917 24.757 126.427 24.8433 126.863 24.6493C128.347 24.1644 129.855 23.7283 131.325 23.2003C129.507 23.1201 127.681 23.2104 125.86 23.1829L125.964 22.8095ZM128.342 26.3176L128.306 26.7262C127.737 26.7302 127.141 26.6758 126.58 26.7694C126.14 27.0177 126.128 28.0598 126.58 28.2925C127.143 28.3844 127.788 28.3709 128.355 28.3042C129.081 27.8782 129.406 26.7985 130.158 26.4056C130.719 26.257 131.363 26.3137 131.94 26.3389C132.46 26.3977 132.652 26.7694 132.745 27.2347V27.8193C132.693 28.1355 132.622 28.3042 132.43 28.4959C131.949 28.9085 131.056 28.7073 130.461 28.7381C130.467 28.6075 130.471 28.4763 130.475 28.3457C131.003 28.2925 131.905 28.5195 132.252 28.0458C132.301 27.6433 132.426 27.0217 132 26.7829C131.521 26.6831 130.839 26.6791 130.362 26.7924C129.666 27.2386 129.331 28.3805 128.549 28.6994C127.946 28.8183 127.292 28.7796 126.681 28.7443C126.49 28.7292 126.31 28.6496 126.17 28.5184C126.031 28.3873 125.94 28.2125 125.913 28.0228C125.839 27.4611 125.794 26.6478 126.423 26.382C127.029 26.2273 127.718 26.3176 128.342 26.3176ZM125.893 29.6692C128.918 29.6782 131.174 29.6782 132.661 29.6692C132.659 30.323 132.659 30.9768 132.661 31.6306H132.262C132.264 31.1183 132.266 30.5998 132.262 30.0874C131.363 30.093 130.461 30.093 129.562 30.0874C129.56 30.4254 129.556 30.9322 129.548 31.6088H129.147C129.154 30.9232 129.154 30.4148 129.147 30.084C128.424 30.093 127.339 30.0936 125.894 30.0857V29.6692H125.893ZM125.944 32.4283L132.665 32.4166C132.661 32.8521 132.658 33.5052 132.657 34.3757L132.266 34.3679V32.8005C131.063 32.8028 130.16 32.8028 129.558 32.8005C129.56 33.3163 129.558 33.8309 129.55 34.3472H129.159C129.161 33.8387 129.159 33.309 129.159 32.8C128.209 32.8013 127.26 32.8013 126.31 32.8V34.3763H125.944V32.4289V32.4283Z" fill="#848DA5"/>
<path d="M125.93 35.2868C128.173 35.2846 130.416 35.2846 132.657 35.2868C132.653 35.862 132.708 36.4618 132.61 37.0291C132.516 37.3066 132.385 37.5745 131.992 37.7029C131.251 37.7051 130.526 37.7214 129.778 37.6844C129.485 37.5588 129.333 37.4058 129.193 37.1541C129.021 37.3402 128.853 37.5257 128.658 37.6866C127.707 37.7191 126.94 37.7191 125.989 37.7191V37.2948C126.798 37.2247 127.639 37.3497 128.443 37.2326C129.151 37.0722 128.947 36.2331 129.01 35.6994C127.983 35.6899 126.957 35.6972 125.93 35.6916V35.2868ZM129.372 35.6916C129.397 36.1159 129.277 36.7219 129.581 37.0543C129.923 37.3346 130.368 37.2673 130.791 37.2673C131.269 37.2673 132.019 37.3537 132.164 37.0235C132.24 36.834 132.264 36.3928 132.235 35.6994C130.971 35.6966 130.017 35.6938 129.372 35.6916Z" fill="#848DA5"/>
<path fill-rule="evenodd" clip-rule="evenodd" d="M82.9302 47.6144C82.9302 46.634 82.6202 46.1687 81.8976 46.0656C81.7423 46.0656 81.5876 46.0656 81.4323 46.1177L81.1229 46.2719V49.0612C81.1745 49.0612 81.226 49.1117 81.3292 49.1117C81.4329 49.1638 81.536 49.1638 81.6907 49.1638C82.1039 49.1638 82.4139 49.0086 82.6202 48.7507C82.827 48.4413 82.9302 48.0791 82.9302 47.6144ZM84.5827 46.4271C84.6859 46.7881 84.7374 47.2013 84.8921 47.7703C84.8921 48.2344 84.8406 48.6475 84.6859 49.0091C84.5311 49.3701 84.3243 49.7322 84.0664 49.9901C83.7564 50.2485 83.4464 50.4548 83.0854 50.6101C82.7233 50.7127 82.2586 50.8164 81.7939 50.8164C81.5876 50.8164 81.3807 50.8164 81.1745 50.7648C80.9676 50.7127 80.7613 50.7127 80.555 50.6611C80.2966 50.6611 80.1419 50.6107 79.935 50.558C79.7288 50.507 79.5735 50.4548 79.4188 50.4032L79.3672 50.3517V42.2969L81.1229 42.0385V44.8273C81.2776 44.7751 81.4329 44.7236 81.5876 44.6726C81.7939 44.6726 82.0007 44.6199 82.207 44.6199C82.6202 44.6199 82.9817 44.6726 83.2917 44.8273C83.5496 44.9814 83.8074 45.1367 84.0664 45.4467C84.3243 45.7561 84.479 46.0661 84.5821 46.4277L84.5827 46.4271ZM88.8172 44.7746L90.6245 44.8267L90.5729 44.9299C90.2114 45.9624 89.9014 46.9956 89.5398 47.976C89.1788 48.9054 88.8167 49.8354 88.4041 50.7648C88.2488 51.0742 88.0941 51.3848 87.9388 51.5905C87.7841 51.7979 87.6294 52.0037 87.4231 52.1595C87.2163 52.2621 87.0615 52.3652 86.8031 52.4684C86.5453 52.5199 86.2868 52.5726 85.9768 52.5726C85.719 52.5726 85.5121 52.5199 85.2537 52.4684C84.9958 52.4179 84.8411 52.3652 84.6859 52.3142L84.6343 52.2621L84.9443 50.8158L85.0474 50.8685C85.2021 50.919 85.3574 50.919 85.4606 50.9711C85.5637 51.0232 85.6674 51.0232 85.8221 51.0232C86.1321 51.0232 86.2868 50.9711 86.4416 50.8158C86.5968 50.6611 86.6994 50.5069 86.8031 50.2485C86.4416 49.5775 86.08 48.7507 85.719 47.8728C85.3118 46.8972 84.9668 45.8969 84.6859 44.8777L84.6343 44.7746H86.5453L86.5968 44.8267C86.6484 45.1362 86.7515 45.4461 86.8547 45.7556C86.9578 46.0656 87.0615 46.4271 87.1647 46.7371C87.2678 47.0981 87.371 47.4087 87.4747 47.7181C87.5778 47.976 87.6294 48.1834 87.7325 48.3891C87.7841 48.1313 87.8357 47.925 87.9394 47.7181C88.0425 47.4087 88.1457 47.0466 88.2488 46.7371C88.301 46.4271 88.4041 46.0656 88.5072 45.7561C88.6104 45.394 88.662 45.0846 88.7651 44.8267L88.8172 44.7746ZM92.9486 43.9483C92.9486 42.141 94.6006 40.9016 96.4595 40.9538C97.4405 40.9538 97.8536 40.9538 98.8867 41.16C99.5577 41.3148 99.7646 41.4179 100.126 41.5216V43.6904C99.9193 43.6389 99.6609 43.5352 99.4024 43.4326C98.5767 43.1742 96.9757 42.8126 96.1495 43.1742C95.53 43.3805 95.53 44.1036 96.0979 44.3614C96.5632 44.6193 99.764 44.3614 100.332 46.8403C100.849 49.1123 98.8351 50.6101 96.6142 50.6101C95.7885 50.6101 93.7228 50.558 93.1028 50.2485V47.9765C93.3096 48.0281 93.5159 48.1313 93.7228 48.1828C94.549 48.4407 95.2716 48.5444 96.0979 48.5444C97.7504 48.5444 97.802 47.305 97.0789 47.0466C96.511 46.8403 92.9481 46.995 92.9481 43.9483H92.9486ZM101.055 41.4179C101.468 41.4179 103.172 40.9016 103.689 40.9016V45.8593C103.999 45.6014 104.98 43.9483 105.083 43.432H108.078C108.026 43.7942 107.458 44.9809 107.252 45.2909C106.116 47.5118 105.909 46.1177 107.148 48.6991L107.768 50.0938C107.82 50.2485 107.871 50.4548 107.923 50.558H104.722C104.722 50.1964 104.412 49.3191 104.309 49.0612C104.205 48.8028 104.102 48.596 103.999 48.3891L103.741 47.925C103.689 47.8213 103.741 47.8728 103.689 47.7703V50.507H101.055V41.4179ZM116.805 41.3663C117.321 41.3148 118.87 40.9016 119.335 40.9016V50.5064H116.805V41.3663ZM120.42 41.3663C120.73 41.3663 122.64 40.9016 122.95 40.9016V50.5064H120.42V41.3663ZM108.336 46.4787C108.336 45.2903 108.852 44.4651 109.524 44.0514C110.35 43.5357 110.867 43.5357 111.641 43.4326C112.415 43.3805 112.002 43.4326 112.467 43.4326V45.5487C111.073 45.5487 110.867 46.0656 110.867 47.5118V50.558H108.336V46.4787ZM113.242 50.5064V43.483H115.772V50.507H113.242V50.5064ZM113.293 41.5216C113.293 40.5916 114.584 39.9206 115.359 40.7469C116.547 41.9347 114.791 43.6394 113.655 42.5026C113.345 42.1926 113.293 41.9347 113.293 41.5216Z" fill="#848DA5"/>
</svg>
