<svg width="181" height="65" viewBox="0 0 181 65" fill="none" xmlns="http://www.w3.org/2000/svg">
<path fill-rule="evenodd" clip-rule="evenodd" d="M55.5 30.1094C55.5 37.2028 63.867 36.8481 65.1633 37.321C66.8131 37.9121 66.6953 40.8677 62.9242 40.8677C60.9209 40.8677 59.271 40.6312 57.3855 40.0401C56.9141 39.9219 56.4428 39.6855 55.9714 39.5672V44.8873C57.3855 45.5966 62.2172 45.7148 64.2205 45.7148C69.4057 45.7148 74.1195 42.1681 72.8232 36.8481C71.5269 31.0552 63.9848 31.6463 62.9242 31.0552C61.6279 30.4641 61.6279 28.8089 63.0421 28.2178C64.9276 27.3903 68.6987 28.2178 70.5842 28.8089C71.1734 29.0454 71.7626 29.2818 72.234 29.4V24.3165C71.4091 24.08 70.9377 23.8436 69.2879 23.4889C66.931 23.016 65.9882 23.016 63.6313 23.016C59.3889 23.016 55.5 25.8534 55.5 30.1094ZM74.4731 24.1982V45.4784H80.601V39.0943C80.7189 39.3308 80.601 39.2126 80.7189 39.449L81.3081 40.513C81.5438 40.9859 81.7795 41.4588 82.0152 42.0499C82.2508 42.641 82.9579 44.7691 82.9579 45.4784H90.3822C90.2643 45.242 90.1465 44.7691 90.0286 44.4144L88.6145 41.2224C85.6684 35.193 86.2576 38.385 88.8502 33.3014C89.3215 32.5921 90.6178 29.8729 90.7357 28.9272H83.7828C83.5471 30.1094 81.3081 34.0108 80.601 34.6019V23.016C79.4226 23.016 75.4158 24.1982 74.4731 24.1982ZM111.123 24.08V45.4784H117.015V23.016C116.072 23.016 112.419 23.9618 111.123 24.08ZM119.608 24.08V45.4784H125.5V23.016C124.793 23.016 120.315 24.08 119.608 24.08ZM91.4428 36.0205V45.4784H97.335V38.385C97.335 35.0748 97.8064 33.7743 101.106 33.7743V28.8089C100.045 28.8089 100.988 28.6907 99.2205 28.8089C97.4529 29.0454 96.1566 29.0454 94.271 30.2276C92.6212 31.2916 91.4428 33.3014 91.4428 36.0205ZM102.874 45.4784H108.766V29.0454H102.874V45.4784ZM102.992 24.4347C102.992 25.3805 103.109 25.9716 103.816 26.6809C106.409 29.2818 110.534 25.3805 107.823 22.5431C106.056 20.6515 102.992 22.3067 102.992 24.4347Z" fill="#848DA5"/>
</svg>
