<svg width="181" height="65" viewBox="0 0 181 65" fill="none" xmlns="http://www.w3.org/2000/svg">
<path d="M85.3225 23.7412L82.4258 42.149H87.0586L89.9577 23.7412H85.3225Z" fill="#848DA5"/>
<path d="M78.5406 23.7666L74.0031 36.3201L73.5193 34.4246C72.6245 32.1408 70.0841 28.8608 67.1016 26.7937L71.2506 42.1446L76.1527 42.1356L83.4487 23.7627L78.5406 23.7666Z" fill="#848DA5"/>
<path d="M71.7609 25.0834C71.4916 23.9621 70.7111 23.6279 69.7424 23.5879H62.5596L62.5 23.9543C68.0896 25.4227 71.7883 28.9608 73.323 33.215L71.7609 25.0834Z" fill="#848DA5"/>
<path d="M99.3505 27.2739C100.866 27.2481 101.965 27.6068 102.818 27.9784L103.236 28.1913L103.863 24.2016C102.945 23.8287 101.507 23.4287 99.7127 23.4287C95.1347 23.4287 91.908 25.9255 91.8829 29.5035C91.8531 32.1474 94.1815 33.6235 95.9402 34.5048C97.7455 35.4081 98.3508 35.9823 98.3424 36.7887C98.3281 38.021 96.903 38.5861 95.572 38.5861C93.7168 38.5861 92.7313 38.3087 91.2097 37.6223L90.6127 37.3281L89.9609 41.4481C91.0453 41.9629 93.0459 42.4055 95.1228 42.4287C99.9928 42.4287 103.158 39.9616 103.191 36.1384C103.211 34.0468 101.976 32.4506 99.2981 31.141C97.6775 30.2868 96.6862 29.719 96.6957 28.8571C96.6957 28.0919 97.5369 27.2739 99.3505 27.2739Z" fill="#848DA5"/>
<path d="M115.753 23.7627H112.173C111.062 23.7627 110.235 24.0904 109.746 25.2904L102.867 42.1601H107.732C107.732 42.1601 108.526 39.8917 108.706 39.395C109.239 39.395 113.965 39.4027 114.639 39.4027C114.777 40.0453 115.203 42.1601 115.203 42.1601H119.501L115.753 23.7627ZM110.039 35.6272C110.421 34.5704 111.885 30.4827 111.885 30.4827C111.86 30.533 112.263 29.4182 112.502 28.7253L112.814 30.3124C112.814 30.3124 113.702 34.7072 113.888 35.6272H110.039Z" fill="#848DA5"/>
</svg>
