<svg width="1390" height="29" viewBox="0 0 1390 29" fill="none" xmlns="http://www.w3.org/2000/svg">
<path fill-rule="evenodd" clip-rule="evenodd" d="M517.5 20.5H0V19.5H517.5V20.5Z" fill="#828FA1"/>
<path fill-rule="evenodd" clip-rule="evenodd" d="M524.149 19.5H517.5V20.5H524.149C528.063 20.5 531.895 19.3798 535.192 17.2717L555.84 4.07082C558.976 2.06557 562.621 1 566.343 1H573.5V0H566.343C562.43 0 558.598 1.12022 555.301 3.2283L534.653 16.4292C531.517 18.4344 527.872 19.5 524.149 19.5Z" fill="#828FA1"/>
<path fill-rule="evenodd" clip-rule="evenodd" d="M816.5 1H573.5V0H816.5V1Z" fill="#828FA1"/>
<path d="M617.344 19.3516C617.911 20.0755 618.75 20.4375 619.859 20.4375C620.969 20.4375 621.805 20.0781 622.367 19.3594C622.935 18.6354 623.219 17.6146 623.219 16.2969C623.219 14.9635 622.935 13.9297 622.367 13.1953C621.805 12.4609 620.971 12.0938 619.867 12.0938C618.758 12.0938 617.917 12.4635 617.344 13.2031C616.776 13.9375 616.492 14.9688 616.492 16.2969C616.492 17.6094 616.776 18.6276 617.344 19.3516ZM619.852 22.1641C618.128 22.1641 616.766 21.6432 615.766 20.6016C614.771 19.5547 614.273 18.112 614.273 16.2734C614.273 14.4245 614.773 12.9818 615.773 11.9453C616.773 10.9089 618.135 10.3906 619.859 10.3906C621.583 10.3906 622.943 10.9115 623.938 11.9531C624.932 12.9896 625.43 14.4323 625.43 16.2812C625.43 18.1094 624.93 19.5469 623.93 20.5938C622.93 21.6406 621.57 22.1641 619.852 22.1641ZM632.546 22.1641C631.046 22.1641 629.908 21.7917 629.132 21.0469C628.356 20.2969 627.968 19.2422 627.968 17.8828V10.5547H630.093V17.7031C630.093 18.6562 630.286 19.3516 630.671 19.7891C631.062 20.2266 631.7 20.4453 632.585 20.4453C633.455 20.4453 634.085 20.2266 634.476 19.7891C634.867 19.3464 635.062 18.6484 635.062 17.6953V10.5547H637.179V17.8984C637.179 19.2474 636.783 20.2969 635.992 21.0469C635.2 21.7917 634.051 22.1641 632.546 22.1641ZM640.132 22V10.5234H644.374C644.952 10.5234 645.452 10.5495 645.874 10.6016C646.301 10.6536 646.704 10.75 647.085 10.8906C647.47 11.026 647.78 11.2109 648.014 11.4453C648.254 11.6797 648.441 11.987 648.577 12.3672C648.718 12.7422 648.788 13.1875 648.788 13.7031C648.788 15.224 648.098 16.224 646.718 16.7031C646.999 17.0208 647.348 17.6094 647.764 18.4688L649.468 22H647.155L645.819 19.0078C645.314 17.9349 645.001 17.2995 644.882 17.1016C644.793 17.0964 644.499 17.0938 643.999 17.0938L642.225 17.0781V22H640.132ZM644.561 15.5625C645.374 15.5625 645.957 15.4193 646.311 15.1328C646.665 14.8411 646.843 14.375 646.843 13.7344C646.843 13.1719 646.663 12.7578 646.303 12.4922C645.944 12.2266 645.395 12.0938 644.655 12.0938H642.225V15.5547C642.303 15.5547 642.691 15.5573 643.389 15.5625C644.087 15.5625 644.478 15.5625 644.561 15.5625ZM658.716 20.3047H660.232C661.539 20.3047 662.534 19.9635 663.216 19.2812C663.899 18.5938 664.24 17.5938 664.24 16.2812C664.24 14.875 663.888 13.8542 663.185 13.2188C662.482 12.5781 661.422 12.2578 660.005 12.2578H658.716V20.3047ZM656.599 22V10.5547H659.912C660.912 10.5547 661.807 10.6693 662.599 10.8984C663.391 11.1276 664.07 11.474 664.638 11.9375C665.211 12.3958 665.649 12.9896 665.951 13.7188C666.258 14.4427 666.412 15.2812 666.412 16.2344C666.412 18.0833 665.854 19.5078 664.74 20.5078C663.625 21.5026 662.081 22 660.107 22H656.599ZM669.059 22V10.5547H675.997L675.911 12.2344H671.177V15.1875H675.677V16.8672H671.177V20.3125H676.083L676.013 22H669.059ZM678.645 22V10.5234H682.457C683.358 10.5234 684.129 10.6406 684.77 10.875C685.41 11.1042 685.916 11.4792 686.285 12C686.66 12.5208 686.848 13.1745 686.848 13.9609C686.848 14.5078 686.778 14.9948 686.637 15.4219C686.496 15.8438 686.264 16.2292 685.942 16.5781C685.619 16.9219 685.163 17.1875 684.574 17.375C683.991 17.5625 683.285 17.6562 682.457 17.6562C681.749 17.6562 681.173 17.6354 680.731 17.5938V22H678.645ZM682.231 16.125C682.663 16.125 683.038 16.0833 683.356 16C683.679 15.9167 683.929 15.8099 684.106 15.6797C684.288 15.5495 684.431 15.388 684.535 15.1953C684.645 15.0026 684.715 14.8177 684.746 14.6406C684.783 14.4583 684.801 14.2552 684.801 14.0312C684.801 13.401 684.598 12.9219 684.192 12.5938C683.785 12.2656 683.212 12.1016 682.473 12.1016H680.731V16.1094C680.793 16.1198 681.293 16.125 682.231 16.125ZM686.972 22L691.183 10.5469H693.488L697.636 22H695.464L694.332 18.7656H690.324L689.183 22H686.972ZM690.855 17.1875H693.793C692.855 14.1823 692.373 12.6302 692.347 12.5312L690.855 17.1875ZM699.362 22V10.5234H703.604C704.183 10.5234 704.683 10.5495 705.104 10.6016C705.531 10.6536 705.935 10.75 706.315 10.8906C706.701 11.026 707.011 11.2109 707.245 11.4453C707.485 11.6797 707.672 11.987 707.808 12.3672C707.948 12.7422 708.018 13.1875 708.018 13.7031C708.018 15.224 707.328 16.224 705.948 16.7031C706.229 17.0208 706.578 17.6094 706.995 18.4688L708.698 22H706.386L705.05 19.0078C704.544 17.9349 704.232 17.2995 704.112 17.1016C704.024 17.0964 703.729 17.0938 703.229 17.0938L701.456 17.0781V22H699.362ZM703.792 15.5625C704.604 15.5625 705.188 15.4193 705.542 15.1328C705.896 14.8411 706.073 14.375 706.073 13.7344C706.073 13.1719 705.893 12.7578 705.534 12.4922C705.175 12.2266 704.625 12.0938 703.886 12.0938H701.456V15.5547C701.534 15.5547 701.922 15.5573 702.62 15.5625C703.318 15.5625 703.709 15.5625 703.792 15.5625ZM713.158 22V12.25H709.823V10.5547H718.604V12.25H715.283V22H713.158ZM720.478 22V10.5547H722.978L726.439 18.8203L729.923 10.5547H732.392V22H730.439V16.3438L730.502 13.1016L730.213 13.9609L727.283 21.2188H725.47L722.603 13.9219L722.314 13.0625L722.384 16.375V22H720.478ZM735.509 22V10.5547H742.446L742.36 12.2344H737.626V15.1875H742.126V16.8672H737.626V20.3125H742.532L742.462 22H735.509ZM745.149 22V10.5547H747.399C747.805 11.1901 748.631 12.4714 749.875 14.3984C751.12 16.3255 751.878 17.4974 752.149 17.9141C752.227 18.0339 752.36 18.237 752.547 18.5234C752.74 18.8047 752.875 19.0052 752.953 19.125C752.917 17.3385 752.899 16.4115 752.899 16.3438V10.5547H754.828V22H752.547L747.383 13.9531L747.008 13.3359C747.05 14.7109 747.071 15.6771 747.071 16.2344V22H745.149ZM760.14 22V12.25H756.804V10.5547H765.586V12.25H762.265V22H760.14ZM770.78 22.1562C769.4 22.1562 768.163 21.8385 767.069 21.2031L767.585 19.5234C768.075 19.7943 768.606 20.013 769.179 20.1797C769.757 20.3464 770.319 20.4297 770.866 20.4297C771.538 20.4297 772.046 20.2865 772.39 20C772.733 19.7083 772.905 19.2917 772.905 18.75C772.905 18.0312 772.426 17.5339 771.468 17.2578C771.4 17.237 771.21 17.1823 770.898 17.0938C770.585 17 770.291 16.9115 770.015 16.8281C769.744 16.7396 769.549 16.6719 769.429 16.625C767.892 16.0833 767.124 15.0729 767.124 13.5938C767.124 12.5573 767.491 11.7578 768.226 11.1953C768.965 10.6328 769.944 10.3516 771.163 10.3516C772.543 10.3516 773.733 10.6354 774.733 11.2031L774.093 12.75C773.072 12.2917 772.124 12.0625 771.249 12.0625C770.619 12.0625 770.142 12.1745 769.819 12.3984C769.502 12.6172 769.332 12.9844 769.312 13.5C769.312 14.1354 769.627 14.5495 770.257 14.7422C770.382 14.7891 770.689 14.8906 771.179 15.0469C771.668 15.2031 771.986 15.3047 772.132 15.3516C773.179 15.6953 773.926 16.1224 774.374 16.6328C774.827 17.1432 775.054 17.8542 775.054 18.7656C775.054 19.8542 774.668 20.6927 773.898 21.2812C773.127 21.8646 772.088 22.1562 770.78 22.1562Z" fill="#00FFFF"/>
<path fill-rule="evenodd" clip-rule="evenodd" d="M823.149 1H816.5V0H823.149C827.063 0 830.895 1.12022 834.192 3.2283L854.84 16.4292C857.976 18.4344 861.621 19.5 865.343 19.5H872.5V20.5H865.343C861.43 20.5 857.598 19.3798 854.301 17.2717L833.653 4.07082C830.517 2.06557 826.872 1 823.149 1Z" fill="#828FA1"/>
<path fill-rule="evenodd" clip-rule="evenodd" d="M1390 20.5H872.5V19.5H1390V20.5Z" fill="#828FA1"/>
</svg>
