<svg width="331" height="331" viewBox="0 0 331 331" fill="none" xmlns="http://www.w3.org/2000/svg">
<path d="M142.447 325.874L142.072 326.204L142.448 325.874C144.134 327.796 146.349 328.642 151.53 329.096L151.486 329.594L151.53 329.096C156.426 329.526 164.275 329.602 171.396 329.418C174.954 329.326 178.323 329.169 181.042 328.959C183.784 328.748 185.807 328.486 186.717 328.202L186.867 328.679L186.717 328.202C188.943 327.505 190.39 326.488 191.362 324.791C192.354 323.059 192.885 320.567 193.131 316.843C193.592 309.84 194.829 305.41 197.829 300.078C203.036 290.826 210.93 284.548 220.766 281.856L220.898 282.339L220.766 281.856C222.899 281.273 226.193 280.988 229.495 280.987C232.8 280.985 236.178 281.267 238.486 281.845C244.995 283.477 251.765 287.273 255.969 291.665C258.189 293.984 260.42 295.183 262.676 295.36C264.932 295.537 267.308 294.701 269.833 292.756C273.603 289.852 279.317 284.476 284.451 279.208C287.016 276.576 289.43 273.978 291.379 271.737C293.336 269.487 294.799 267.624 295.484 266.453C296.805 264.196 297.237 262.408 296.779 260.529C296.311 258.608 294.897 256.506 292.293 253.68C287.74 248.74 285.442 244.972 283.507 239.25C282.9 237.454 282.529 236.171 282.29 234.729C282.053 233.291 281.949 231.71 281.863 229.32C281.638 223.065 282.238 219.131 284.168 214.352C286.757 207.937 291.467 202.121 297.368 198.04C304.223 193.3 309.973 191.369 318.66 190.882C321.158 190.741 322.473 190.645 323.404 190.432C324.293 190.229 324.829 189.92 325.765 189.285L326.046 189.698L325.765 189.285C327.181 188.324 328.03 187.433 328.627 186.003C329.24 184.535 329.598 182.475 329.937 179.137C330.529 173.305 330.628 165.259 330.353 158.195C330.215 154.664 329.985 151.387 329.678 148.761C329.525 147.448 329.353 146.304 329.165 145.375C328.976 144.437 328.777 143.751 328.579 143.336C327.673 141.426 325.451 139.546 323.33 138.91C322.463 138.651 320.208 138.42 318.33 138.42C308.813 138.42 299.266 134.282 292.18 127.107C284.721 119.556 280.748 107.97 282.058 97.577C283.066 89.5853 286.362 82.4325 291.857 76.3024C293.44 74.5363 294.485 73.0613 295.138 71.6147C295.787 70.1766 296.059 68.7423 296.058 67.042C296.058 65.7367 295.904 64.8225 295.351 63.7437C294.782 62.6336 293.785 61.3347 292.039 59.2891C285.794 51.9692 282.221 48.2769 276.081 42.7961C272.283 39.4053 269.872 37.3533 268.094 36.1002C266.332 34.8576 265.228 34.4254 264.045 34.248C262.458 34.0099 261.221 34.1106 259.905 34.6948C258.563 35.2904 257.105 36.4028 255.111 38.2681C250.782 42.3176 247.372 44.6118 242.88 46.4808C234.963 49.7742 225.138 50.1933 217.328 47.5601C207.712 44.3184 200.201 37.8647 195.819 29.0673C193.27 23.9484 192.18 19.4955 191.772 12.6021C191.616 9.9595 191.502 8.50058 191.298 7.49582C191.102 6.53082 190.825 5.99512 190.301 5.2034L190.718 4.92749L190.301 5.20331C189.605 4.15082 188.387 3.09241 187.106 2.44299C186.404 2.08743 185.284 1.76184 183.757 1.48532C182.241 1.21051 180.357 0.98996 178.153 0.828766C173.744 0.506378 168.077 0.42334 161.536 0.609589C153.679 0.833496 149.064 1.12241 146.072 1.83023C144.588 2.18143 143.528 2.63058 142.681 3.21024C141.835 3.78912 141.173 4.51678 140.508 5.46515C139.926 6.29349 139.631 6.8129 139.426 7.69693C139.212 8.62161 139.098 9.94156 138.938 12.378C138.746 15.2928 138.368 18.6662 138.092 19.8723C136.642 26.1836 133.071 32.8157 128.525 37.647C121.579 45.0305 114.064 48.585 104.2 49.1425C94.0136 49.7189 85.2427 46.5797 77.0672 39.4543L77.3957 39.0774L77.0672 39.4543C74.5722 37.2796 73.1707 36.127 72.0336 35.5031C70.9438 34.9052 70.0956 34.7923 68.6522 34.7821C67.1214 34.771 66.0831 34.9309 64.7992 35.5968C63.4782 36.282 61.8888 37.5071 59.2894 39.6901C57.0751 41.5497 53.2604 45.1678 49.6587 48.7458C46.0526 52.3283 42.6948 55.8362 41.3819 57.4779L40.9914 57.1656L41.3818 57.4779C40.4359 58.6606 38.8395 60.5662 37.8297 61.7167C35.8291 63.9978 34.9531 66.1592 35.0936 68.324C35.235 70.5016 36.4113 72.7889 38.7457 75.3005C43.7239 80.6562 46.2878 84.5876 48.05 89.6279C50.9679 97.9725 50.9747 106.629 48.0693 114.942L47.5972 114.777L48.0692 114.942C45.2113 123.118 38.137 130.821 29.7094 134.971C24.2841 137.642 19.832 138.822 13.9972 139.13C10.455 139.317 8.10937 139.734 6.45412 140.555C4.83487 141.358 3.83494 142.569 3.04033 144.472C2.81568 145.01 2.60159 145.936 2.41083 147.199C2.2219 148.45 2.06109 149.994 1.92961 151.744C1.66671 155.244 1.52269 159.545 1.50167 163.933C1.48065 168.32 1.58264 172.786 1.81064 176.614C2.03942 180.455 2.39319 183.616 2.86482 185.414C2.98636 185.877 3.34508 186.46 3.8743 187.102C4.39407 187.732 5.03975 188.375 5.67638 188.955C6.31154 189.534 6.92951 190.044 7.38923 190.409C7.61885 190.591 7.80839 190.737 7.94011 190.837C7.98467 190.871 8.02259 190.9 8.05318 190.923L8.11884 190.935C8.23492 190.956 8.40411 190.987 8.61574 191.024C9.0391 191.098 9.63177 191.198 10.3085 191.302C11.6666 191.511 13.3455 191.733 14.6729 191.796C24.7666 192.276 32.9367 195.987 39.9176 203.266C46.737 210.377 49.9701 218.54 49.9713 228.63C49.9726 238.66 46.8091 246.701 40.0155 253.926L39.6512 253.584L40.0155 253.926C38.4664 255.574 37.4719 256.927 36.8583 258.302C36.2479 259.67 35.9997 261.092 35.9949 262.9C35.9901 264.677 36.0399 265.549 36.8151 266.872C37.6301 268.263 39.2308 270.119 42.4323 273.767C46.222 278.086 51.2987 283.167 55.8493 287.344C58.1242 289.432 60.263 291.29 62.0398 292.712C63.8355 294.148 65.2124 295.098 65.9807 295.419L65.7879 295.881L65.9807 295.419C67.7736 296.169 70.4243 296.15 72.307 295.363L72.3071 295.363C72.6881 295.204 73.3472 294.79 74.1184 294.223C74.8779 293.665 75.7099 292.984 76.4278 292.32C84.5811 284.768 93.8125 281.013 104.232 281.028C111.54 281.038 117.367 282.789 123.37 286.78C133.82 293.728 139.555 304.21 140.101 317.308C140.22 320.153 140.347 321.753 140.671 322.919C140.985 324.045 141.487 324.78 142.447 325.874Z" stroke="url(#paint0_radial_1143_1946)"/>
<defs>
<radialGradient id="paint0_radial_1143_1946" cx="0" cy="0" r="1" gradientUnits="userSpaceOnUse" gradientTransform="translate(277.705 35.0975) rotate(123.286) scale(358.95 360.73)">
<stop stop-color="#032B96"/>
<stop offset="0.462005" stop-color="#2F5BD8"/>
<stop offset="1" stop-color="#00FFFF" stop-opacity="0.43"/>
</radialGradient>
</defs>
</svg>
