<svg width="233" height="232" viewBox="0 0 233 232" fill="none" xmlns="http://www.w3.org/2000/svg">
<path d="M143.33 231.096L143.33 231.096C144.278 231.431 145.668 231.583 146.456 231.455L146.536 231.949L146.456 231.455C147.882 231.225 151.553 230.081 155.605 228.664C159.64 227.252 163.988 225.593 166.739 224.354C168.953 223.358 170.665 222.491 171.958 221.646C173.25 220.801 174.09 219.999 174.592 219.145C175.579 217.466 175.363 215.407 174.147 211.926C172.502 207.219 172.103 200.971 173.187 196.634C175.735 186.435 183.312 179.014 193.482 176.768C199.166 175.513 205.77 176.076 210.601 178.249C212.596 179.146 214.108 179.498 215.381 179.365C216.633 179.235 217.726 178.626 218.872 177.435C219.614 176.663 220.749 174.815 222.053 172.345C223.345 169.897 224.771 166.897 226.1 163.875C227.429 160.852 228.656 157.815 229.55 155.291C229.997 154.029 230.359 152.901 230.608 151.971C230.86 151.028 230.986 150.33 230.986 149.908C230.985 148.665 230.604 147.6 229.735 146.583C228.853 145.549 227.455 144.551 225.399 143.491L225.628 143.047L225.399 143.491C218.265 139.811 214.039 135.031 211.512 127.761C208.177 118.166 210.575 107.828 217.821 100.511C220.345 97.9636 222.074 96.7308 225.733 94.8573C228.412 93.4854 230.093 92.3712 231.103 91.2348C232.085 90.1302 232.45 88.9843 232.43 87.4684C232.417 86.5737 231.998 84.7528 231.288 82.3822C230.585 80.0369 229.618 77.218 228.55 74.365C226.408 68.6392 223.887 62.8498 222.307 60.467L222.307 60.4668C221.595 59.3914 220.681 58.6764 219.327 58.1599C218.266 57.7552 217.843 57.6056 217.249 57.6484C216.604 57.6948 215.76 57.9678 213.905 58.5816C210.453 59.7233 207.686 60.3576 204.981 60.4998C202.273 60.6421 199.655 60.2898 196.501 59.4914C185.028 56.5872 176.86 45.8698 176.802 33.6933C176.783 29.7999 177.51 26.3672 179.125 22.7079C180.123 20.4471 180.399 18.5969 180.028 17.0558C179.661 15.5274 178.637 14.2153 176.847 13.0681C175.205 12.0162 171.575 10.1791 167.686 8.36909C163.803 6.56201 159.707 4.80241 157.148 3.90236C155.089 3.17807 153.438 2.67955 152.069 2.42592C150.701 2.17245 149.648 2.17026 148.773 2.40909C147.047 2.87962 145.821 4.33887 144.252 7.34534C139.278 16.8733 129.677 22.9608 119.55 22.9608C109.283 22.9608 99.9472 16.9039 95.3979 7.31901C94.156 4.70271 93.0936 2.99309 92.0233 1.93796C90.9786 0.908095 89.9255 0.500014 88.643 0.500014C88.1083 0.500014 87.0892 0.685057 85.6954 1.03824C84.3201 1.38676 82.6286 1.88591 80.7765 2.48598C77.0724 3.68613 72.7462 5.2834 69.0559 6.8697L68.8583 6.41034L69.0559 6.86972C66.3708 8.02382 64.2866 8.99815 62.7006 9.90974C61.1114 10.8232 60.0591 11.6537 59.4053 12.5051C58.1486 14.142 58.2609 15.9995 59.3689 19.2231C60.6011 22.8077 61.26 25.8559 61.3403 28.8131C61.4207 31.7736 60.9205 34.6171 59.866 37.7922C57.8385 43.8964 53.6458 49.2479 48.5077 52.257C47.3895 52.9118 44.9776 53.9346 43.1326 54.5445C36.5078 56.7352 30.1637 56.5231 23.5956 53.8966L23.7811 53.4324L23.5956 53.8966C20.3568 52.6013 18.4519 52.2897 16.8511 53.0911C16.0381 53.4981 15.2553 54.2155 14.4056 55.3488C13.5554 56.4826 12.6601 58.0026 11.6111 59.9801C9.34887 64.245 7.20605 69.0085 5.63043 73.1069C4.84259 75.1562 4.19879 77.0334 3.75302 78.595C3.30305 80.1712 3.06828 81.381 3.06924 82.1162C3.07105 83.6234 3.33778 84.6468 4.01105 85.5227C4.7022 86.4219 5.86406 87.2233 7.79485 88.179C14.6544 91.574 20.0298 97.4378 22.3712 104.117C23.0747 106.123 23.5053 108.765 23.6427 111.404C23.7801 114.045 23.6263 116.725 23.136 118.813C21.1653 127.204 15.1998 134.385 7.58664 137.494C6.07424 138.112 4.64014 139.102 3.53449 140.219C2.42052 141.343 1.68482 142.549 1.49121 143.582C1.43941 143.859 1.44449 144.322 1.52719 144.978C1.60838 145.623 1.7587 146.412 1.97043 147.318C2.39369 149.13 3.05542 151.38 3.8742 153.823C5.51205 158.709 7.76672 164.327 9.96614 168.68L9.5199 168.905L9.96616 168.68C11.4511 171.619 12.7572 173.22 14.3151 173.891C15.8627 174.558 17.7945 174.362 20.6962 173.32L20.8654 173.791L20.6962 173.32C22.6284 172.627 25.6645 172.205 28.6961 172.079C31.7298 171.953 34.8381 172.119 36.9203 172.644C41.8876 173.894 45.518 175.948 49.1551 179.564C56.9433 187.308 59.1161 198.139 55.0218 208.681C53.6024 212.335 53.2146 214.367 54.0604 216.04C54.4883 216.887 55.2577 217.694 56.4966 218.58C57.7356 219.467 59.4071 220.408 61.598 221.538C66.2106 223.917 70.9224 226.026 74.8803 227.538C76.8595 228.294 78.6447 228.899 80.1311 229.315C81.6295 229.733 82.7856 229.947 83.5234 229.947C85.5724 229.947 87.6945 228.528 88.6932 226.41L89.1454 226.623L88.6932 226.41C92.9254 217.432 100.625 211.238 109.783 209.487C121.917 207.164 135.23 214.952 139.395 226.789C140.211 229.108 141.457 230.434 143.33 231.096Z" stroke="url(#paint0_radial_1143_2168)"/>
<defs>
<radialGradient id="paint0_radial_1143_2168" cx="0" cy="0" r="1" gradientUnits="userSpaceOnUse" gradientTransform="translate(195.444 24.6664) rotate(123.271) scale(252.312 253.645)">
<stop stop-color="#032B96"/>
<stop offset="0.462005" stop-color="#2F5BD8"/>
<stop offset="1" stop-color="#00FFFF" stop-opacity="0.43"/>
</radialGradient>
</defs>
</svg>
