<svg width="180" height="65" viewBox="0 0 180 65" fill="none" xmlns="http://www.w3.org/2000/svg">
<path fill-rule="evenodd" clip-rule="evenodd" d="M37.9813 13.1242C37.6299 13.2181 36.4187 14.3366 32.3888 18.2881C27.7386 22.8481 27.2311 23.3856 27.1005 23.889C26.8198 24.9724 26.9891 25.2444 29.4324 27.6362L31.6224 29.7799L31.2697 30.3748C28.6896 34.7272 28.148 38.6883 29.6495 42.226C30.9106 45.1971 33.6029 47.4913 36.7641 48.2885C38.0142 48.6037 40.5203 48.6044 41.8248 48.2901C44.0517 47.7533 46.6282 46.2019 47.8465 44.6641C48.5321 43.7987 48.642 43.9508 48.2299 45.195C47.3774 47.7695 45.4914 49.5282 42.6048 50.4403C41.8799 50.6693 41.4437 50.7561 39.6788 51.022C39.3731 51.0681 39.2625 51.1494 39.2625 51.3281C39.2625 51.5674 39.4261 51.5714 49.3839 51.5714H59.5054V51.2846C59.5054 51.0344 59.4357 50.9941 58.9609 50.9698C57.5253 50.8962 55.7405 50.3971 54.3513 49.6807C53.4134 49.1971 51.9982 47.9445 51.4475 47.1107C50.9763 46.3973 50.4682 45.1116 50.357 44.3515C50.2754 43.7942 50.276 43.7929 50.4916 44.1025C50.9583 44.7727 52.9587 46.5542 53.7444 46.9991C56.3025 48.4478 59.5376 48.9358 62.1319 48.2641C67.3764 46.9063 70.7873 41.5928 69.8303 36.2709C69.0364 31.8548 65.7919 27.0442 60.0909 21.8302C57.5002 19.461 53.8741 16.6514 50.7716 14.6094L49.4047 13.7098L48.017 14.612C47.2538 15.1082 46.0574 15.9286 45.3583 16.4351L44.0872 17.3559L42.0272 15.3604C39.5836 12.9934 39.2212 12.7931 37.9813 13.1242ZM44.2828 18.9195C47.7711 22.3049 49.3989 23.9686 49.4518 24.2026C49.4944 24.3906 49.4616 24.6737 49.3791 24.8316C49.1662 25.2391 39.6586 34.4946 39.2211 34.7202C39.0079 34.8301 38.7158 34.8761 38.5096 34.832C38.2712 34.7811 36.5416 33.1832 33.0739 29.8101C28.0981 24.97 27.9879 24.8522 27.9879 24.3718C27.9879 23.8913 28.0972 23.7747 33.084 18.9293C38.0709 14.0841 38.191 13.9779 38.6855 13.9779C39.1799 13.9779 39.3013 14.085 44.2828 18.9195ZM72.7869 21.7787C72.7753 21.7902 72.7813 24.4649 72.8003 27.7227L72.8347 33.6461L76.0033 33.6416C81.4768 33.634 82.3502 33.4634 83.1205 32.2522C83.5736 31.5396 83.717 30.3546 83.4586 29.4575C83.297 28.8968 82.508 27.9374 82.0545 27.7502C81.8837 27.6798 81.8837 27.662 82.0545 27.5908C82.1602 27.5467 82.4571 27.2984 82.7141 27.0387C83.8638 25.8778 83.8632 23.8537 82.7125 22.6495C81.9817 21.8846 82.0056 21.8881 77.2071 21.8203C74.7875 21.7861 72.7985 21.7674 72.7869 21.7787ZM91.4713 21.8203C87.9101 21.8924 87.6978 21.9481 86.5671 23.1097C85.3738 24.3357 84.9437 25.548 84.9491 27.6709C84.9544 29.7931 85.4827 31.2749 86.6154 32.3446C87.4303 33.114 88.2989 33.3967 90.2542 33.5287C91.941 33.6426 94.5304 33.6818 94.6209 33.5948C94.6504 33.5665 94.6557 33.0963 94.6329 32.5499L94.5916 31.5564L92.1987 31.5047C89.524 31.4468 89.1705 31.3629 88.5066 30.6282C88.1424 30.2252 87.694 28.9965 87.8544 28.8408C87.8891 28.807 89.4272 28.768 91.2722 28.7542L94.6267 28.729L94.6505 27.7019L94.6743 26.6748L91.2306 26.675L87.7868 26.6751L87.8749 26.0311C87.9725 25.3156 88.1059 25.01 88.5085 24.5782C89.1029 23.9408 89.374 23.8854 92.1439 23.8343L94.7384 23.7865V22.8107C94.7384 22.274 94.6952 21.8177 94.6423 21.7965C94.5894 21.7753 93.1625 21.7861 91.4713 21.8203ZM96.6838 26.2394C96.7235 30.6422 96.7295 30.7322 97.027 31.3714C97.3701 32.1087 98.2009 32.9158 98.9257 33.2157C99.4674 33.4398 102.536 33.6838 104.028 33.6213L104.924 33.5838L104.961 32.5695L104.998 31.5551L102.847 31.5053C100.474 31.4503 99.9361 31.321 99.5208 30.7058C99.3089 30.3919 99.2805 29.9516 99.2226 26.0797L99.1585 21.8006L97.9009 21.7793L96.6433 21.758L96.6838 26.2394ZM112.177 21.8203L110.717 21.8825L108.945 26.0527C107.97 28.3462 106.885 30.895 106.534 31.7166C106.183 32.5382 105.858 33.3102 105.811 33.4323C105.732 33.6385 105.833 33.6517 107.232 33.619L108.739 33.5838L109.33 32.237L109.921 30.8904L112.197 30.8926C113.448 30.894 114.518 30.9223 114.573 30.9555C114.629 30.9889 114.923 31.6078 115.228 32.331L115.782 33.6461H117.24C118.041 33.6461 118.697 33.595 118.697 33.5325C118.697 33.3727 113.819 21.8961 113.718 21.8203C113.673 21.7861 112.979 21.7861 112.177 21.8203ZM117.544 22.785V23.812H119.466H121.387V28.729V33.6461H122.669H123.95V28.729V23.812H126.005H128.06L128.023 22.813L127.985 21.8139L122.765 21.7861L117.544 21.758V22.785ZM129.377 21.8825C129.35 21.951 129.343 24.6118 129.361 27.7954L129.395 33.5838L130.644 33.6194L131.893 33.655V31.3476V29.0402H133.232C135.393 29.0402 136.392 29.3654 136.918 30.2391C137.051 30.4617 137.246 31.2597 137.373 32.1058L137.595 33.5838L139.046 33.619C140.389 33.6518 140.492 33.6377 140.426 33.4323C140.388 33.3103 140.295 32.6782 140.22 32.0278C140.145 31.3774 140.03 30.6492 139.963 30.4095C139.767 29.7042 139.254 29.0895 138.606 28.7848L138.006 28.5027L138.585 28.2169C139.752 27.6407 140.251 26.7394 140.266 25.1813C140.278 23.9859 140.062 23.4357 139.303 22.7281C138.468 21.9493 138.165 21.9017 133.574 21.8263C130.862 21.7817 129.409 21.8011 129.377 21.8825ZM146.307 21.8203C146.17 22.037 141.374 33.4056 141.374 33.513C141.374 33.7128 144.125 33.6915 144.286 33.4905C144.355 33.4049 144.63 32.8145 144.899 32.1785C145.167 31.5426 145.434 30.9936 145.492 30.9586C145.551 30.9236 146.622 30.895 147.874 30.895H150.15L150.732 32.2394L151.313 33.5838L152.829 33.619C154.021 33.6467 154.331 33.6202 154.281 33.4946C154.245 33.4067 153.31 31.2062 152.203 28.6045C151.096 26.0029 150.014 23.4541 149.799 22.9406C149.585 22.4271 149.367 21.9611 149.316 21.9049C149.216 21.7958 146.373 21.7157 146.307 21.8203ZM80.4143 24.2966C80.7559 24.6683 80.7947 24.7861 80.7378 25.2765C80.6905 25.6836 80.5651 25.939 80.2726 26.2235L79.872 26.6128H77.6002H75.3282L75.2913 25.3769C75.2709 24.6971 75.2853 24.0623 75.3232 23.9664C75.3797 23.8234 75.8111 23.7993 77.7092 23.833L80.0261 23.8742L80.4143 24.2966ZM136.762 24.0301C137.603 24.4384 137.75 25.8588 137.023 26.5647C136.579 26.9961 136.039 27.072 133.751 27.024L131.957 26.9863L131.921 25.3991L131.885 23.812L134.099 23.8122C135.95 23.8124 136.387 23.8481 136.762 24.0301ZM113.124 26.5852C113.546 27.6274 113.911 28.5501 113.934 28.6357C113.965 28.7545 113.562 28.7913 112.225 28.7913C111.263 28.7913 110.495 28.7455 110.519 28.6893C111.791 25.6523 112.217 24.684 112.279 24.6869C112.321 24.6887 112.701 25.543 113.124 26.5852ZM148.703 26.7062L149.551 28.729L147.879 28.7639C146.96 28.783 146.18 28.7718 146.146 28.739C146.074 28.669 147.683 24.6953 147.786 24.6882C147.824 24.6855 148.237 25.5937 148.703 26.7062ZM79.7746 28.7962C80.6647 29.0365 81.0298 29.94 80.5789 30.7871C80.2229 31.456 79.8596 31.5397 77.4746 31.5017L75.3282 31.4676L75.2913 30.2316C75.2709 29.5518 75.2835 28.9217 75.3192 28.8312C75.4001 28.6265 79.0395 28.5979 79.7746 28.7962ZM84.2325 36.5089C81.9693 36.8032 80.7547 37.7679 80.0996 39.7918C79.8593 40.5346 79.8124 40.9633 79.8124 42.422C79.8124 43.9085 79.8561 44.2942 80.1095 45.0453C80.4488 46.0512 81.1209 46.9863 81.864 47.4868C82.7898 48.1102 83.5471 48.2104 87.3343 48.2104H90.7667V44.7249V41.2394H87.8199H84.8731V42.2975V43.3556H86.5387H88.2043V44.801V46.2463L86.3785 46.2004C84.6649 46.1573 84.5162 46.1337 83.9566 45.8149C82.9376 45.2347 82.4915 43.897 82.5963 41.7374C82.6842 39.929 83.162 39.0985 84.3484 38.6918C84.7867 38.5415 85.5298 38.5008 87.836 38.5008H90.7667V37.4427V36.3847L87.8519 36.401C86.2489 36.4099 84.6201 36.4585 84.2325 36.5089ZM96.8822 36.5364C96.5875 37.2624 92.0065 48.0451 91.9621 48.1171C91.9305 48.1685 92.5854 48.2103 93.4176 48.21L94.9306 48.2097L95.5071 46.8389L96.0836 45.468L98.4284 45.5009L100.773 45.5341L101.356 46.8722L101.938 48.2104H103.399C104.202 48.2104 104.86 48.1774 104.86 48.1371C104.86 48.0968 104.401 46.9905 103.841 45.6786C103.281 44.3668 102.166 41.7529 101.363 39.8701L99.9029 36.4469L98.4249 36.4119C97.3156 36.3858 96.9308 36.4168 96.8822 36.5364ZM106.269 42.2942V48.2104H107.485H108.7L108.734 43.8391L108.768 39.4677L110.249 43.808L111.731 48.1482L113.068 48.1812L114.405 48.2142L115.91 43.997C116.738 41.6775 117.416 39.716 117.416 39.6382C117.416 39.5604 117.473 39.4967 117.544 39.4967C117.627 39.4967 117.672 41.0319 117.672 43.8536V48.2104H118.825H119.978V42.2975V36.3847H118.139H116.301L114.712 40.9897C113.839 43.5226 113.095 45.5941 113.06 45.5931C113.024 45.5921 112.33 43.5338 111.517 41.019L110.039 36.4469L108.154 36.4124L106.269 36.3781V42.2942ZM126.128 36.508C125.137 36.6357 124.568 36.901 123.814 37.5866C122.665 38.6306 122.088 39.9315 121.954 41.7801C121.812 43.7411 122.386 45.6563 123.453 46.7807C124.575 47.9634 125.561 48.2104 129.162 48.2104H131.637V47.2283V46.246L129.299 46.1936C127.446 46.152 126.854 46.0961 126.448 45.9243C125.702 45.6089 125.251 45.13 125.036 44.4273C124.679 43.2604 124.394 43.3556 128.242 43.3556H131.637V42.3598V41.3639H128.242C124.388 41.3639 124.715 41.4745 124.983 40.2606C125.16 39.4579 125.765 38.8368 126.557 38.6429C126.883 38.5633 128.127 38.5008 129.388 38.5008H131.637V37.4427V36.3847L129.235 36.401C127.913 36.4099 126.515 36.4581 126.128 36.508ZM136.166 36.516C134.66 36.7067 133.77 37.4462 133.348 38.857C133.084 39.7374 133.181 40.6847 133.625 41.5662C134.29 42.8877 135.207 43.2297 138.098 43.2341C140.403 43.2376 140.933 43.3362 141.406 43.849C141.88 44.3632 141.903 45.2179 141.454 45.6539C140.952 46.1418 140.355 46.2172 136.986 46.218L133.815 46.2187V47.2146V48.2104H137.763C142.36 48.2104 142.72 48.1538 143.608 47.2912C144.277 46.6411 144.577 45.8415 144.577 44.7074C144.577 43.1145 143.827 41.9189 142.562 41.4943C142.267 41.3949 141.073 41.3011 139.491 41.2525C137.144 41.1804 136.87 41.1491 136.544 40.9143C135.785 40.3666 135.838 39.1091 136.636 38.7189C137.027 38.5279 137.502 38.5012 140.509 38.5011L143.936 38.5008V37.4427V36.3847L140.445 36.4005C138.525 36.4092 136.599 36.4611 136.166 36.516ZM99.3187 41.3357C99.7591 42.4144 100.119 43.3382 100.119 43.3885C100.119 43.4389 99.3349 43.4801 98.3761 43.4801C97.007 43.4801 96.6463 43.4458 96.6961 43.3199C97.2171 42.0006 98.377 39.3725 98.4377 39.3733C98.4818 39.374 98.8783 40.257 99.3187 41.3357Z" fill="#848DA5"/>
</svg>
