<svg width="181" height="65" viewBox="0 0 181 65" fill="none" xmlns="http://www.w3.org/2000/svg">
<path fill-rule="evenodd" clip-rule="evenodd" d="M20.5469 19.6631H41.0442V46.4788H20.5469V19.6631ZM25.5114 42.4075V24.5173H30.5511C32.3187 24.5173 33.7103 24.9088 34.6881 25.7309C35.666 26.553 36.1925 27.7665 36.1925 29.3716C36.1925 30.1545 36.0045 30.9374 35.666 31.6421C35.2899 32.3076 34.7258 32.8165 34.0488 33.1297C34.8762 33.2863 35.6284 33.8343 36.0421 34.5781C36.4934 35.3611 36.7191 36.2614 36.6815 37.1618C36.6815 38.8843 36.2301 40.1762 35.2899 41.0374C34.3497 41.8986 32.9957 42.3684 31.2657 42.3684L25.5114 42.4075ZM28.633 34.4998V39.6281H31.0024C31.6041 39.6672 32.1683 39.4324 32.582 39.0017C32.9581 38.4928 33.1461 37.8273 33.1085 37.1618C33.1461 36.4963 32.9957 35.7917 32.6572 35.2045C32.3187 34.7347 31.7922 34.4607 31.228 34.4998H28.633ZM28.633 32.0727H30.4759C31.0776 32.1119 31.6418 31.877 32.0555 31.4464C32.4316 30.9766 32.6572 30.3502 32.582 29.7239C32.6196 29.0584 32.4316 28.3929 32.0179 27.884C31.5665 27.4534 30.9272 27.2576 30.3254 27.2968H28.633V32.0727Z" fill="#848DA5"/>
<path d="M61.9171 46.4397H60.7136V19.6631H61.9171V46.4397ZM82.8281 46.4397H81.6246V19.6631H82.8281V46.4397ZM103.702 46.4397H102.498V19.6631H103.702V46.4397ZM124.613 46.4397H123.447V19.6631H124.613V46.4397ZM145.561 46.4397H144.358V19.6631H145.561V46.4397ZM56.1252 39.4324C55.6739 40.2544 54.9969 40.92 54.2071 41.3897C53.1917 42.0161 51.9881 42.2901 50.8222 42.251C49.017 42.251 47.5502 41.6637 46.4595 40.5285C45.3688 39.3932 44.8047 37.7882 44.8047 35.6742V30.3894C44.8047 28.3146 45.3312 26.7096 46.3843 25.5743C47.4374 24.439 48.8289 23.8518 50.559 23.891C52.3266 23.891 53.643 24.3607 54.5832 25.2611C55.5235 26.1615 56.0124 27.4534 56.0876 29.1367L56.05 29.215H53.7934C53.7558 28.0797 53.4925 27.2185 52.966 26.6704C52.4395 26.1224 51.6497 25.8092 50.6342 25.8092C49.694 25.77 48.7537 26.2006 48.152 26.9836C47.5502 27.7665 47.2493 28.9018 47.2493 30.3894V35.7134C47.2493 37.2401 47.5878 38.4145 48.2272 39.1975C48.8665 39.9804 49.8444 40.4502 50.8599 40.411C51.5368 40.4502 52.1762 40.2936 52.778 39.9804C53.1917 39.7064 53.5678 39.3149 53.7934 38.8843V34.7739H50.8599V32.9731H56.2004V39.4324H56.1252ZM69.4391 35.87H73.8018L71.6957 28.0406H71.6204L69.4391 35.87ZM74.3659 37.8273H68.9125L67.6714 42.3292H65.2268L70.4921 24.4782H72.8239L78.0517 42.3292H75.6071L74.3659 37.8273ZM88.62 24.4782L92.6443 39.0409H92.7195L96.7437 24.4782H99.8277V42.3292H97.4583V35.4785L97.6464 28.6278L97.5712 28.5886L93.4717 42.3292H91.8921L87.755 28.6278H87.7174L87.9055 35.4785V42.3292H85.536V24.4782H88.62ZM114.684 42.3292H112.314V24.4782H114.684V42.3292ZM140.446 42.3292H138.039L131.533 29.0584H131.458V42.3292H129.088V24.4782H131.458L137.964 37.7099H138.039V24.4782H140.446V42.3292ZM160.455 39.5498C159.966 40.3719 159.326 41.0374 158.537 41.5072C157.521 42.1335 156.318 42.4075 155.152 42.3684C153.346 42.3684 151.917 41.8203 150.789 40.6851C149.698 39.5498 149.134 37.9448 149.134 35.8308V30.4677C149.134 28.3929 149.661 26.7879 150.714 25.6526C151.767 24.5173 153.158 23.9301 154.851 23.9301C156.618 23.9301 157.935 24.3999 158.875 25.3003C159.815 26.2006 160.304 27.4925 160.379 29.1758L160.342 29.2541H158.085C158.048 28.1189 157.784 27.2968 157.258 26.7096C156.731 26.1224 155.941 25.8483 154.926 25.8483C153.986 25.8092 153.046 26.2398 152.444 27.0227C151.842 27.8057 151.541 28.9409 151.541 30.4285V35.7525C151.541 37.2793 151.88 38.4537 152.519 39.2366C153.158 40.0196 154.136 40.4893 155.152 40.4502C155.829 40.4893 156.468 40.3327 157.07 40.0196C157.483 39.7455 157.86 39.3541 158.085 38.9234V34.8522H155.152V33.0514H160.455V39.5498Z" fill="#848DA5"/>
</svg>
