<svg width="180" height="65" viewBox="0 0 180 65" fill="none" xmlns="http://www.w3.org/2000/svg">
<g clip-path="url(#clip0_1077_16430)">
<path d="M57.4947 43.4392H63.809V51.0626C62.8969 51.7357 61.9306 52.2363 60.9022 52.5363C59.8738 52.8454 58.8007 52.9912 57.6827 52.9912C56.2246 52.9912 54.8918 52.7546 53.6933 52.2906C52.4948 51.8266 51.4664 51.1809 50.6171 50.362C49.7645 49.5414 49.0909 48.5464 48.6403 47.442C48.1753 46.3134 47.9426 45.0854 47.9426 43.766C47.9426 42.4197 48.1664 41.182 48.6045 40.054C49.0426 38.926 49.6687 37.9523 50.4828 37.134C51.2969 36.3146 52.2895 35.678 53.4427 35.2232C54.597 34.7683 55.8934 34.5409 57.3246 34.5409C58.0671 34.5409 58.7559 34.6043 59.4083 34.7226C60.0613 34.85 60.6605 35.014 61.2066 35.2323C61.7522 35.4506 62.2529 35.7054 62.7089 35.9963C63.1428 36.2786 63.5501 36.6015 63.9254 36.9609L62.7358 38.8077C62.5478 39.0992 62.3066 39.2717 62.0112 39.3449C61.7164 39.4077 61.3941 39.3352 61.0544 39.1169C60.7545 38.931 60.4471 38.758 60.1329 38.5986C59.8487 38.4538 59.5525 38.335 59.2477 38.2437C58.9433 38.1523 58.6306 38.0894 58.2999 38.0437C57.9288 37.9974 57.5552 37.976 57.1814 37.9797C56.4126 37.9797 55.7149 38.1163 55.0977 38.398C54.4922 38.6613 53.9538 39.0628 53.5238 39.5717C53.0851 40.0723 52.7545 40.682 52.5223 41.3912C52.2895 42.1009 52.1731 42.8837 52.1731 43.7477C52.1731 44.7032 52.3074 45.558 52.5665 46.3043C52.8261 47.0506 53.1931 47.678 53.667 48.1877C54.1467 48.7002 54.7293 49.1006 55.3747 49.3614C56.0366 49.6249 56.7702 49.7614 57.5753 49.7614C58.0671 49.7614 58.5231 49.7157 58.9254 49.6157C59.3283 49.5157 59.7216 49.3883 60.0971 49.2157V46.4769H58.3441C58.085 46.4769 57.8797 46.4043 57.7359 46.2677C57.6636 46.1995 57.6063 46.1164 57.5677 46.0239C57.5292 45.9314 57.5102 45.8317 57.5121 45.7312V43.4386H57.4947V43.4392ZM82.224 52.7917H79.0314C78.6733 52.7917 78.3879 52.71 78.1636 52.5369C77.9424 52.3681 77.7695 52.142 77.6628 51.882L76.6165 48.734H69.8636L68.8262 51.8912C68.7367 52.1186 68.5761 52.3277 68.3433 52.5192C68.1106 52.7009 67.8247 52.8009 67.485 52.8009H64.265L71.1337 34.7414H75.3553L82.2235 52.7917H82.224ZM75.686 45.8957L74.0404 40.9557C73.9151 40.646 73.7898 40.2729 73.6471 39.8454C73.5128 39.418 73.3701 38.9632 73.2353 38.4626C73.1099 38.9632 72.9857 39.4363 72.8419 39.8637C72.7076 40.2912 72.5739 40.6643 72.4486 40.9826L70.8299 45.8957H75.6865H75.686ZM103.582 34.7414V52.8009H99.9509V42.4112C99.9509 42.1746 99.9598 41.9106 99.9688 41.6283C99.9771 41.3466 100.005 41.0649 100.031 40.7734L95.318 50.0534C95.1748 50.3449 94.9784 50.5632 94.7277 50.7083C94.4694 50.8597 94.1762 50.9382 93.8783 50.9357H93.3143C93.0016 50.9357 92.7151 50.8632 92.4644 50.7083C92.2138 50.5632 92.0179 50.3443 91.8741 50.0534L87.1607 40.746C87.1881 41.0466 87.206 41.3374 87.2239 41.6197C87.2413 41.9014 87.2508 42.1654 87.2508 42.402V52.7826H83.6195V34.7414H86.759C86.9374 34.7414 87.0896 34.7414 87.2239 34.7506C87.3577 34.7597 87.474 34.7872 87.5815 34.8237C87.6889 34.8597 87.7784 34.9323 87.8674 35.0146C87.9569 35.106 88.0375 35.2237 88.118 35.3786L92.7061 44.5403C92.8673 44.8586 93.0284 45.1769 93.1711 45.5226C93.3238 45.8597 93.4665 46.2049 93.6008 46.5597C93.7345 46.1957 93.8867 45.8409 94.03 45.4952C94.1822 45.1494 94.3433 44.822 94.5134 44.5037L99.0651 35.378C99.1457 35.2237 99.2263 35.0963 99.3158 35.0146C99.4053 34.9232 99.4948 34.8603 99.6017 34.8237C99.7091 34.778 99.8255 34.7597 99.9598 34.7506C100.094 34.7414 100.246 34.7414 100.425 34.7414H103.582ZM111.157 37.962V42.1746H116.738V45.2774H111.157V49.5803H118.446V52.8009H107.016V34.7414H118.446V37.962H111.157ZM130.788 38.4083C130.664 38.6083 130.538 38.7534 130.404 38.854C130.27 38.954 130.1 38.9992 129.885 38.9992C129.697 38.9992 129.501 38.9357 129.286 38.8174C129.072 38.6992 128.83 38.5626 128.553 38.4174C128.254 38.2576 127.943 38.1236 127.622 38.0169C127.274 37.8986 126.872 37.8346 126.424 37.8346C125.655 37.8346 125.073 37.9986 124.698 38.3352C124.323 38.6723 124.135 39.118 124.135 39.6906C124.135 40.0546 124.251 40.3552 124.474 40.5917C124.698 40.8283 125.002 41.0374 125.368 41.21C125.735 41.3832 126.165 41.5472 126.638 41.6832C127.112 41.8289 127.596 41.9923 128.097 42.1654C128.588 42.3477 129.081 42.5477 129.555 42.7934C130.023 43.0288 130.452 43.339 130.825 43.7123C131.205 44.1019 131.508 44.562 131.719 45.0677C131.942 45.6049 132.059 46.2414 132.059 46.9963C132.059 47.8334 131.916 48.6157 131.629 49.3346C131.352 50.0495 130.932 50.6973 130.395 51.2363C129.859 51.7729 129.188 52.2003 128.401 52.51C127.605 52.8186 126.711 52.9734 125.7 52.9734C125.145 52.9734 124.582 52.9192 124.009 52.8009C123.442 52.6842 122.886 52.5198 122.346 52.3094C121.823 52.1032 121.318 51.8538 120.835 51.5637C120.386 51.2944 119.972 50.9705 119.6 50.5992L120.816 48.6432C120.915 48.5066 121.04 48.3883 121.201 48.2889C121.362 48.1974 121.532 48.1426 121.72 48.1426C121.961 48.1426 122.212 48.2249 122.453 48.3792C122.704 48.534 122.981 48.7066 123.294 48.898C123.607 49.0889 123.964 49.262 124.376 49.4163C124.778 49.5706 125.261 49.6529 125.816 49.6529C126.567 49.6529 127.14 49.4894 127.56 49.1529C127.972 48.8157 128.178 48.2883 128.178 47.5603C128.178 47.142 128.061 46.7963 127.838 46.5323C127.614 46.2683 127.309 46.05 126.943 45.8774C126.536 45.6885 126.115 45.5364 125.682 45.4226C125.197 45.2829 124.714 45.1374 124.233 44.986C123.737 44.8237 123.253 44.626 122.784 44.3946C122.315 44.1618 121.888 43.8478 121.523 43.4666C121.156 43.0843 120.852 42.602 120.629 42.0289C120.405 41.4557 120.289 40.746 120.289 39.9003C120.289 39.2272 120.423 38.5632 120.691 37.9169C120.963 37.2658 121.365 36.6799 121.872 36.1969C122.391 35.6969 123.026 35.2877 123.785 34.9872C124.537 34.6872 125.404 34.5323 126.379 34.5323C126.925 34.5323 127.453 34.578 127.972 34.6597C128.471 34.742 128.962 34.8699 129.438 35.042C129.887 35.2063 130.321 35.4102 130.735 35.6512C131.138 35.8877 131.496 36.1517 131.817 36.4517L130.788 38.4083ZM36.1013 12.3334C37.3267 12.3334 38.373 12.4517 39.2313 12.6791C40.0902 12.9066 40.7969 13.2346 41.3424 13.662C41.8879 14.0894 42.2813 14.5991 42.532 15.1992C42.7821 15.7997 42.9074 16.4734 42.9074 17.2192C42.9099 17.617 42.8525 18.0128 42.7373 18.3929C42.6181 18.7731 42.4367 19.13 42.2007 19.4483C41.9596 19.7757 41.6468 20.0757 41.2618 20.3489C40.8769 20.622 40.4209 20.8586 39.8843 21.0586C41.0559 21.35 41.9148 21.8134 42.4782 22.4597C43.0417 23.1054 43.3186 23.9426 43.3186 24.9614C43.3186 25.726 43.1754 26.4443 42.8805 27.1089C42.5857 27.7729 42.156 28.346 41.5925 28.8374C41.0291 29.3289 40.3313 29.7106 39.4999 29.9929C38.6679 30.2654 37.729 30.4112 36.6648 30.4112H29.5723V12.3334H36.1013ZM33.6864 15.4723V19.9306H35.8328C36.2888 19.9306 36.7 19.894 37.0671 19.8306C37.4336 19.7666 37.7469 19.6483 37.997 19.4843C38.2566 19.3209 38.4446 19.0934 38.5789 18.802C38.7132 18.5112 38.7753 18.1472 38.7753 17.7106C38.7753 17.2832 38.7216 16.9277 38.6142 16.6369C38.5073 16.3552 38.3456 16.1186 38.1313 15.9454C37.9075 15.7729 37.6305 15.6454 37.2998 15.5723C36.9597 15.4997 36.5663 15.4637 36.1013 15.4637H33.6864V15.4723ZM36.5842 27.2357C37.1298 27.2357 37.5768 27.1632 37.917 27.0266C38.2656 26.89 38.5342 26.7083 38.7306 26.4809C38.9275 26.2534 39.0618 26.0077 39.1334 25.726C39.2045 25.4437 39.2403 25.1614 39.2403 24.8706C39.2403 24.5432 39.1955 24.2426 39.1155 23.9792C39.0307 23.7188 38.8792 23.4864 38.6768 23.306C38.4715 23.1237 38.194 22.9872 37.8543 22.8872C37.5141 22.7872 37.085 22.7414 36.5663 22.7414H33.6864V27.2357H36.5842ZM105.522 12.3334V30.3929H101.891V20.0123C101.891 19.7757 101.9 19.5117 101.909 19.2294C101.918 18.9477 101.944 18.666 101.972 18.3746L97.2584 27.6546C97.1146 27.946 96.9188 28.1643 96.6681 28.3094C96.4096 28.461 96.1163 28.5395 95.8182 28.5369H95.2553C94.9414 28.5369 94.6555 28.4643 94.4054 28.3094C94.1547 28.1637 93.9578 27.9454 93.8151 27.6546L89.1017 18.3472C89.128 18.6477 89.1464 18.9386 89.1638 19.2209C89.1823 19.5026 89.1912 19.7666 89.1912 20.0037V30.3837H85.5599V12.3334H88.6988C88.8779 12.3334 89.0301 12.3334 89.1638 12.3426C89.2981 12.3517 89.4145 12.3791 89.5224 12.4157C89.6293 12.4614 89.7183 12.5243 89.8078 12.6066C89.8973 12.698 89.9779 12.8157 90.0585 12.9706L94.6287 22.1323C94.7898 22.4506 94.9504 22.7689 95.0942 23.1152C95.2458 23.4512 95.3891 23.7969 95.5233 24.1517C95.6571 23.7877 95.8098 23.4334 95.9525 23.0872C96.1009 22.7505 96.262 22.4197 96.4354 22.0957L100.988 12.9706C101.069 12.8163 101.148 12.6883 101.238 12.6066C101.328 12.5151 101.417 12.4523 101.524 12.4157C101.632 12.37 101.749 12.3517 101.882 12.3426C102.017 12.3334 102.168 12.3334 102.347 12.3334H105.522ZM113.106 30.3929H108.966V12.3334H113.106V30.3929ZM132.032 12.3334V30.3929H129.885C129.572 30.3929 129.304 30.3386 129.089 30.2386C128.875 30.138 128.659 29.9563 128.445 29.7014L120.074 18.93C120.109 19.2483 120.127 19.5666 120.137 19.8672C120.145 20.1672 120.154 20.4489 120.154 20.7129V30.3929H116.523V12.3334H118.688C118.867 12.3334 119.018 12.3426 119.135 12.3609C119.26 12.3791 119.367 12.4066 119.466 12.4523C119.564 12.4974 119.653 12.5609 119.742 12.6431C119.832 12.7249 119.931 12.834 120.047 12.9797L128.489 23.8243C128.447 23.489 128.418 23.1522 128.4 22.8146C128.383 22.5086 128.374 22.2022 128.374 21.8957V12.3426H132.032V12.3334ZM143.998 21.0403H150.313V28.6643C149.4 29.3374 148.435 29.838 147.406 30.1386C146.377 30.4472 145.304 30.5929 144.187 30.5929C142.729 30.5929 141.396 30.3563 140.198 29.8923C138.999 29.4283 137.97 28.7826 137.121 27.9637C136.268 27.1428 135.595 26.1479 135.144 25.0437C134.679 23.9152 134.447 22.6872 134.447 21.3677C134.447 20.0214 134.67 18.7843 135.109 17.6557C135.547 16.5277 136.173 15.5546 136.987 14.7357C137.8 13.9169 138.794 13.2797 139.947 12.8249C141.101 12.37 142.397 12.1426 143.829 12.1426C144.571 12.1426 145.26 12.206 145.912 12.3243C146.566 12.4517 147.165 12.6157 147.711 12.834C148.256 13.0523 148.756 13.3071 149.213 13.598C149.647 13.8804 150.054 14.2033 150.429 14.5626L149.24 16.4186C149.052 16.71 148.811 16.8826 148.515 16.9557C148.22 17.0186 147.898 16.946 147.558 16.7277C147.258 16.5417 146.951 16.3688 146.637 16.2094C146.353 16.0644 146.056 15.9457 145.751 15.8546C145.447 15.7631 145.135 15.7003 144.803 15.6546C144.433 15.6083 144.059 15.5869 143.685 15.5906C142.917 15.5906 142.218 15.7272 141.602 16.0094C140.996 16.2725 140.458 16.6738 140.028 17.1826C139.589 17.6832 139.259 18.2929 139.026 19.0026C138.794 19.7117 138.677 20.494 138.677 21.3586C138.677 22.314 138.811 23.1694 139.071 23.9152C139.33 24.6614 139.697 25.2889 140.171 25.7986C140.65 26.311 141.233 26.7114 141.879 26.9723C142.541 27.2357 143.274 27.3723 144.079 27.3723C144.571 27.3723 145.027 27.3266 145.43 27.2266C145.831 27.1304 146.224 26.9965 146.601 26.8266V24.0883H144.848C144.589 24.0883 144.383 24.0152 144.24 23.8786C144.168 23.8103 144.111 23.7272 144.072 23.6347C144.034 23.5422 144.015 23.4425 144.017 23.342V21.0403H143.998ZM79.5405 22.2592C79.0398 25.0163 76.6786 27.0083 73.924 27.0083H73.7987C73.3964 26.9992 72.9667 27.0083 71.8935 26.5443C70.8293 26.0803 70.5971 25.8072 69.8183 25.1889C69.3718 24.8346 68.7272 24.1517 68.0927 23.5786C67.466 24.27 66.0448 25.8712 65.9195 25.9986C66.465 26.5986 67.7973 27.7814 68.3338 28.2003L68.2538 28.1277C69.8095 29.4519 71.7647 30.1877 73.7898 30.2112C74.2368 30.2112 74.6033 30.1929 74.9966 30.1472C78.5306 29.7106 81.4905 27.154 82.4568 23.6512L79.5411 22.2592H79.5405Z" fill="#848DA5"/>
<path d="M69.6132 17.3821C70.1476 16.7529 70.8084 16.2485 71.5506 15.9032C72.2928 15.5579 73.0992 15.3798 73.9148 15.3809C75.2565 15.3809 76.5171 15.8541 77.5192 16.6821L76.1596 17.6735L82.4296 20.6032L81.7862 13.6158L80.1663 14.7804C78.5297 13.1158 76.3028 12.1689 73.9237 12.1689C71.1781 12.1689 68.7274 13.4432 67.0998 15.4449V15.4535C67.0371 15.5358 62.1273 21.6404 60.1057 23.6598C59.9983 23.7689 59.8819 23.8695 59.7661 23.9695C59.7482 23.9878 59.7213 24.0055 59.7034 24.0238C59.5602 24.1512 59.417 24.2787 59.2743 24.3969C59.2466 24.4238 59.2167 24.4481 59.1847 24.4695C59.0505 24.5787 58.9162 24.6878 58.7908 24.7884C58.7564 24.8133 58.7237 24.8406 58.6929 24.8701C58.6034 24.9427 58.5139 25.0067 58.4333 25.0701C58.3975 25.0975 58.3617 25.1249 58.3348 25.1518C58.299 25.1792 58.2632 25.2067 58.2274 25.2249C58.1116 25.3067 57.9952 25.3884 57.8878 25.4707C57.852 25.4975 57.8251 25.5164 57.7893 25.5341L57.4676 25.7524C57.4407 25.7707 57.4139 25.7889 57.378 25.8072C57.2796 25.8707 57.19 25.9255 57.1005 25.9798C57.0647 25.9981 57.0289 26.0255 56.9931 26.0438C56.9036 26.0981 56.8236 26.1438 56.743 26.1895C56.1527 26.5169 55.6609 26.7261 55.2491 26.8535C54.8378 26.981 54.5161 27.0444 53.8631 27.0444C50.6968 26.8901 48.1929 24.1055 48.4341 20.8032C48.64 17.9461 50.9385 15.6358 53.7467 15.4449C55.5445 15.3261 57.1274 16.1089 58.308 17.2821C58.5049 17.4735 60.1057 19.2295 60.4454 19.6569C61.0541 18.9929 62.5117 17.2455 62.5654 17.1827C62.2789 16.7998 61.0715 15.5084 60.9915 15.4169C59.2737 13.4621 56.7967 12.1878 54.0153 12.2244C49.3914 12.2884 45.5273 16.0455 45.2772 20.7404C45.0087 25.7438 48.7653 29.929 53.5414 30.2564C53.7109 30.2655 54.4713 30.293 54.8736 30.2472C55.2849 30.2015 55.6514 30.1112 55.9647 30.0381C56.4655 29.9198 56.9752 29.6472 56.9841 29.6472C57.0116 29.6381 57.0379 29.6198 57.0647 29.6107C57.1632 29.565 57.2706 29.5192 57.378 29.465C57.4228 29.4467 57.4765 29.4192 57.5213 29.3924C57.6282 29.3375 57.7451 29.2832 57.8609 29.2192C57.9057 29.201 57.9415 29.1735 57.9862 29.1558C58.2996 28.9827 58.6392 28.7918 58.9788 28.573C59.0236 28.5461 59.0773 28.5101 59.1221 28.4827C59.2469 28.4004 59.3722 28.3187 59.5065 28.2278C59.5602 28.1912 59.6229 28.1461 59.6855 28.1095C59.8109 28.0181 59.9446 27.9272 60.0789 27.8272C60.1326 27.7815 60.1863 27.7455 60.249 27.6998C60.3832 27.5998 60.5175 27.4907 60.6518 27.3912C60.6871 27.3632 60.7229 27.3364 60.7497 27.309C60.7766 27.2907 60.7945 27.2724 60.8214 27.2541C61.0183 27.0998 61.2147 26.9267 61.42 26.7541C61.4701 26.7142 61.5181 26.6717 61.5638 26.6267C61.7155 26.4895 61.8772 26.3535 62.0378 26.2078C62.1094 26.1444 62.172 26.0804 62.2431 26.0261C62.27 25.9987 62.3058 25.9712 62.3326 25.9444L62.6907 25.6072C62.7618 25.5444 64.5511 23.7604 65.758 22.2684C66.9655 20.7769 68.2714 18.9935 69.6132 17.3827V17.3821Z" fill="#848DA5"/>
</g>
<defs>
<clipPath id="clip0_1077_16430">
<rect width="120.857" height="41.1429" fill="white" transform="translate(29.5723 12.1426)"/>
</clipPath>
</defs>
</svg>
