<svg width="180" height="65" viewBox="0 0 180 65" fill="none" xmlns="http://www.w3.org/2000/svg">
<path d="M97.7021 28.7508L97.1625 28.157C95.7595 26.6996 94.0596 25.9709 92.063 25.9709C90.0664 25.9709 88.3576 26.6996 86.9365 28.157C86.7567 28.337 86.5948 28.5349 86.4509 28.7508C85.5515 29.8664 85.0299 31.1439 84.886 32.5833C84.85 32.8712 84.832 33.1591 84.832 33.447C84.832 35.2463 85.3716 36.8117 86.4509 38.1432C86.5948 38.3411 86.7567 38.53 86.9365 38.71C88.3576 40.1854 90.0664 40.9231 92.063 40.9231C94.0596 40.9231 95.7595 40.1854 97.1625 38.71C97.3424 38.53 97.5222 38.3411 97.7021 38.1432C98.7634 36.8117 99.294 35.2463 99.294 33.447C99.294 33.1591 99.285 32.8712 99.267 32.5833C99.1051 31.1439 98.5835 29.8664 97.7021 28.7508ZM88.6364 33.447C88.6364 33.1411 88.6544 32.8532 88.6903 32.5833C88.8162 31.7017 89.131 30.928 89.6347 30.2622C90.3002 29.3806 91.1097 28.9397 92.063 28.9397C93.0163 28.9397 93.8258 29.3806 94.4913 30.2622C95.013 30.928 95.3367 31.7017 95.4627 32.5833C95.4986 32.8532 95.5166 33.1411 95.5166 33.447C95.5166 34.6885 95.1749 35.7411 94.4913 36.6048C93.8258 37.4864 93.0163 37.9273 92.063 37.9273C91.1097 37.9273 90.3002 37.4864 89.6347 36.6048C88.9691 35.7411 88.6364 34.6885 88.6364 33.447ZM110.168 33.447C110.168 33.1591 110.159 32.8712 110.141 32.5833C109.961 30.874 109.277 29.3986 108.09 28.157C106.759 26.7356 105.149 26.0069 103.26 25.9709H103.125C102.694 25.9889 102.325 26.1418 102.019 26.4297C101.713 26.7536 101.56 27.1404 101.56 27.5903C101.56 28.0401 101.713 28.4179 102.019 28.7238C102.253 28.9577 102.532 29.1107 102.856 29.1826C102.963 29.1646 103.071 29.1556 103.179 29.1556C103.287 29.1556 103.404 29.1646 103.53 29.1826C104.286 29.2726 104.942 29.6774 105.5 30.3972C106.003 31.0269 106.318 31.7556 106.444 32.5833C106.48 32.8532 106.498 33.1321 106.498 33.42C106.498 34.5895 106.165 35.5882 105.5 36.4158C104.924 37.1895 104.232 37.6124 103.422 37.6843H102.937C102.595 37.7383 102.289 37.8913 102.019 38.1432C101.803 38.3771 101.659 38.647 101.587 38.9529C101.569 39.0608 101.56 39.1688 101.56 39.2767V39.3037C101.56 39.4117 101.569 39.5196 101.587 39.6276C101.641 39.9335 101.785 40.2034 102.019 40.4373C102.325 40.7432 102.694 40.9051 103.125 40.9231H103.26C105.149 40.8871 106.759 40.1494 108.09 38.71C109.475 37.2705 110.168 35.5162 110.168 33.447ZM123.901 27.4013C123.469 26.9695 123.002 26.6366 122.498 26.4027C121.814 26.0788 121.068 25.9169 120.259 25.9169C118.82 25.9169 117.596 26.4117 116.589 27.4013C116.463 27.5273 116.346 27.6532 116.238 27.7792C116.22 27.3114 116.031 26.9065 115.672 26.5647C115.312 26.2228 114.889 26.0518 114.404 26.0518C113.9 26.0518 113.459 26.2228 113.082 26.5647C112.758 26.9245 112.596 27.3563 112.596 27.8601V39.0878C112.596 39.5916 112.758 40.0144 113.082 40.3563C113.459 40.7162 113.9 40.8961 114.404 40.8961C114.889 40.8961 115.312 40.7162 115.672 40.3563C116.049 40.0144 116.238 39.5916 116.238 39.0878V31.4767C116.256 30.739 116.526 30.1183 117.048 29.6145C117.569 29.0747 118.217 28.8048 118.99 28.8048C119.764 28.8048 120.411 29.0747 120.933 29.6145C121.275 29.9204 121.518 30.2802 121.662 30.6941L121.77 31.0719C121.788 31.1979 121.797 31.3328 121.797 31.4767V39.0878C121.797 39.5916 121.958 40.0144 122.282 40.3563C122.66 40.7162 123.101 40.8961 123.604 40.8961C124.09 40.8961 124.513 40.7162 124.872 40.3563C125.25 40.0144 125.439 39.5916 125.439 39.0878V30.91C125.421 29.5425 124.908 28.3729 123.901 27.4013ZM141.817 27.8601C141.817 27.3563 141.628 26.9245 141.25 26.5647C140.89 26.2228 140.468 26.0518 139.982 26.0518C139.478 26.0518 139.038 26.2228 138.66 26.5647C138.336 26.9245 138.174 27.3563 138.174 27.8601V27.8871C136.987 26.5916 135.557 25.9439 133.884 25.9439C132.139 25.9439 130.646 26.6636 129.405 28.1031C128.614 29.0387 128.074 30.1003 127.786 31.2878C127.678 31.7017 127.606 32.1335 127.571 32.5833C127.553 32.8352 127.544 33.0961 127.544 33.366C127.544 33.6539 127.562 33.9418 127.597 34.2297C127.669 35.0934 127.867 35.894 128.191 36.6318C128.479 37.3515 128.884 38.0082 129.405 38.602C129.837 39.1058 130.296 39.5286 130.781 39.8705C131.717 40.4823 132.751 40.7881 133.884 40.7881C135.539 40.7881 136.951 40.1584 138.12 38.8989C138.138 38.8629 138.156 38.8359 138.174 38.8179V40.9771C138.012 41.5529 137.689 42.0567 137.203 42.4885C136.465 43.1902 135.575 43.5411 134.532 43.5411C133.506 43.5411 132.625 43.1902 131.888 42.4885C131.726 42.3446 131.591 42.2006 131.483 42.0567L131.456 42.0297C131.456 42.0117 131.42 41.9487 131.348 41.8407C131.258 41.7328 131.141 41.5978 130.997 41.4359C130.835 41.292 130.7 41.175 130.592 41.085C130.485 40.9771 130.251 40.9231 129.891 40.9231C129.441 40.9231 129.054 41.076 128.731 41.3819C128.515 41.6158 128.371 41.8857 128.299 42.1916V42.2186C128.281 42.3266 128.272 42.4345 128.272 42.5425C128.272 42.6324 128.281 42.7134 128.299 42.7854C128.299 42.8394 128.326 42.9473 128.38 43.1093C128.416 43.2712 128.461 43.3792 128.515 43.4331C128.551 43.5051 128.623 43.6041 128.731 43.73C128.947 44.0179 129.198 44.2878 129.486 44.5397C130.907 45.8712 132.616 46.5369 134.613 46.5369C136.609 46.5369 138.309 45.8712 139.712 44.5397C140.63 43.712 141.25 42.7584 141.574 41.6788C141.7 41.265 141.781 40.8421 141.817 40.4103V27.8601ZM132.778 29.9653L132.832 29.9114C133.407 29.2276 134.082 28.8857 134.855 28.8857C135.773 28.8857 136.537 29.3266 137.149 30.2082C137.653 30.892 137.967 31.6837 138.093 32.5833C138.111 32.8352 138.12 33.0961 138.12 33.366V33.8248C138.048 34.8684 137.725 35.7591 137.149 36.4968C136.987 36.7307 136.825 36.9286 136.663 37.0906C136.142 37.5764 135.539 37.8193 134.855 37.8193C134.1 37.8193 133.443 37.4954 132.886 36.8477C132.778 36.7397 132.679 36.6228 132.589 36.4968C131.995 35.7051 131.681 34.7335 131.645 33.5819V33.366C131.645 33.0961 131.663 32.8352 131.699 32.5833C131.807 31.6837 132.103 30.892 132.589 30.2082C132.643 30.1183 132.706 30.0373 132.778 29.9653ZM156.009 28.13C155.523 27.6082 154.993 27.1854 154.417 26.8615C153.374 26.2498 152.205 25.9439 150.909 25.9439C148.913 25.9439 147.204 26.6726 145.783 28.13C144.578 29.3896 143.894 30.874 143.732 32.5833C143.696 32.8532 143.678 33.1321 143.678 33.42C143.678 35.4892 144.38 37.2435 145.783 38.683C147.204 40.1584 148.913 40.8961 150.909 40.8961C152.205 40.8961 153.374 40.5902 154.417 39.9785C154.993 39.6366 155.523 39.2048 156.009 38.683C157.43 37.2435 158.14 35.4892 158.14 33.42C158.14 33.1321 158.131 32.8532 158.113 32.5833C157.934 30.874 157.232 29.3896 156.009 28.13ZM154.309 32.5833C154.345 32.8532 154.363 33.1321 154.363 33.42C154.363 34.6615 154.021 35.7141 153.338 36.5778C152.672 37.4594 151.863 37.9003 150.909 37.9003C149.956 37.9003 149.147 37.4594 148.481 36.5778C147.816 35.7141 147.483 34.6615 147.483 33.42C147.483 33.1321 147.501 32.8532 147.537 32.5833C147.663 31.7017 147.977 30.919 148.481 30.2352C149.147 29.3536 149.956 28.9127 150.909 28.9127C151.863 28.9127 152.672 29.3536 153.338 30.2352C153.859 30.919 154.183 31.7017 154.309 32.5833ZM32.3262 33.366C32.2363 33.366 32.1553 33.375 32.0834 33.393C31.7416 33.429 31.4358 33.5729 31.166 33.8248C30.8602 34.1487 30.7073 34.5356 30.7073 34.9854C30.7073 35.4352 30.8602 35.8131 31.166 36.119C31.4358 36.3889 31.7506 36.5508 32.1104 36.6048H32.3262C32.7759 36.6048 33.1536 36.4428 33.4594 36.119C33.7832 35.8131 33.9451 35.4352 33.9451 34.9854C33.9451 34.5356 33.7832 34.1487 33.4594 33.8248C33.1536 33.519 32.7759 33.366 32.3262 33.366ZM41.0682 31.4767C40.8164 31.0629 40.5106 30.6761 40.1508 30.3162C38.9097 29.0387 37.4077 28.3999 35.6449 28.3999C34.6196 28.3999 33.6843 28.6159 32.8389 29.0477V23.7847C32.8389 23.3529 32.677 22.984 32.3532 22.6781C32.0474 22.3903 31.6876 22.2463 31.2739 22.2463C30.8422 22.2463 30.4645 22.3903 30.1407 22.6781C29.8709 22.984 29.736 23.3529 29.736 23.7847V29.9114L29.763 30.0733C29.781 30.4152 29.9249 30.721 30.1947 30.9909C30.2666 31.0629 30.3476 31.1349 30.4375 31.2069C30.6354 31.3508 30.8692 31.4408 31.139 31.4767H31.2739C32.8389 31.3868 34.3858 31.3868 35.9147 31.4767C36.5443 31.6207 37.1019 31.9446 37.5876 32.4484L37.7225 32.5833C38.3161 33.2491 38.6129 34.0408 38.6129 34.9584C38.6129 35.948 38.2711 36.7757 37.5876 37.4414C37.2278 37.8193 36.8411 38.0892 36.4274 38.2511L31.3009 38.467C30.9591 38.467 30.6624 38.548 30.4105 38.71L30.1947 38.8719C29.8889 39.1958 29.736 39.5736 29.736 40.0055C29.736 40.4193 29.8889 40.7792 30.1947 41.085C30.5005 41.4089 30.8692 41.5708 31.3009 41.5708L31.0311 41.5439C33.6213 41.5978 35.1323 41.6248 35.564 41.6248C37.3807 41.5708 38.9097 40.8961 40.1508 39.6006C40.3307 39.4207 40.4926 39.2407 40.6365 39.0608C40.7804 38.8809 40.9153 38.692 41.0412 38.494C41.0412 38.476 41.0502 38.467 41.0682 38.467C41.6977 37.4414 42.0125 36.2719 42.0125 34.9584C42.0125 34.1127 41.8776 33.321 41.6078 32.5833C41.4639 32.2055 41.284 31.8366 41.0682 31.4767ZM70.6398 28.0491C69.3986 26.6096 67.9057 25.8899 66.1609 25.8899C64.488 25.8899 63.058 26.5377 61.8708 27.8332V22.6781C61.8708 22.1743 61.682 21.7425 61.3042 21.3827C60.9445 21.0408 60.5218 20.8699 60.0361 20.8699C59.5324 20.8699 59.0917 21.0408 58.714 21.3827C58.3902 21.7425 58.2283 22.1743 58.2283 22.6781V39.0878C58.2283 39.5916 58.3902 40.0144 58.714 40.3563C59.0917 40.7162 59.5324 40.8961 60.0361 40.8961C60.5218 40.8961 60.9445 40.7162 61.3042 40.3563C61.682 40.0144 61.8708 39.5916 61.8708 39.0878V38.7639C63.058 40.0774 64.488 40.7342 66.1609 40.7342C67.9057 40.7342 69.3986 40.0055 70.6398 38.548C71.8809 37.1086 72.5015 35.3633 72.5015 33.312C72.5015 33.0601 72.4925 32.8172 72.4745 32.5833C72.3486 30.838 71.737 29.3266 70.6398 28.0491ZM67.456 30.1543C67.9596 30.838 68.2654 31.6477 68.3733 32.5833C68.3913 32.8172 68.4003 33.0601 68.4003 33.312C68.4003 34.5536 68.0855 35.5972 67.456 36.4428C66.8264 37.3245 66.0709 37.7653 65.1895 37.7653C64.2722 37.7653 63.5077 37.3245 62.8961 36.4428C62.2486 35.5972 61.9248 34.5536 61.9248 33.312C61.9248 33.0601 61.9428 32.8172 61.9788 32.5833C62.0687 31.6477 62.3745 30.838 62.8961 30.1543C63.5077 29.2726 64.2722 28.8318 65.1895 28.8318C66.0709 28.8318 66.8264 29.2726 67.456 30.1543ZM81.0276 25.9709H80.8657C78.977 26.0069 77.3671 26.7356 76.0361 28.157C74.8489 29.3986 74.1743 30.874 74.0125 32.5833C73.9765 32.8712 73.9585 33.1591 73.9585 33.447C73.9585 35.5162 74.651 37.2705 76.0361 38.71C77.3671 40.1494 78.977 40.8871 80.8657 40.9231H81.0276C81.4413 40.9051 81.8011 40.7432 82.1069 40.4373C82.3407 40.2034 82.4846 39.9335 82.5386 39.6276C82.5566 39.5196 82.5656 39.4117 82.5656 39.3037V39.2767C82.5656 39.1688 82.5566 39.0608 82.5386 38.9529C82.4666 38.647 82.3227 38.3771 82.1069 38.1432C81.8371 37.8913 81.5313 37.7383 81.1895 37.6843H80.7038C80.47 37.6484 80.2542 37.6034 80.0563 37.5494C79.5167 37.3515 79.04 36.9736 78.6263 36.4158C77.9607 35.5882 77.628 34.5895 77.628 33.42C77.628 33.1321 77.6459 32.8532 77.6819 32.5833C77.8078 31.7556 78.1226 31.0269 78.6263 30.3972C79.1839 29.6774 79.8494 29.2726 80.6229 29.1826C80.7128 29.2006 80.8208 29.2096 80.9467 29.2096C81.0726 29.2096 81.1895 29.2006 81.2974 29.1826C81.6032 29.1107 81.873 28.9577 82.1069 28.7238C82.4127 28.4179 82.5656 28.0401 82.5656 27.5903C82.5656 27.1404 82.4127 26.7536 82.1069 26.4297C81.8011 26.1418 81.4413 25.9889 81.0276 25.9709ZM35.3481 15.7418C35.0243 15.7238 34.6916 15.7148 34.3498 15.7148C31.7236 15.7148 29.3223 16.2546 27.1458 17.3342C25.5629 18.1079 24.0879 19.1695 22.7208 20.519L22.505 20.7349L22.1272 21.1667C21.9474 21.4186 21.8574 21.7155 21.8574 22.0574C21.8574 22.5072 22.0103 22.8851 22.3161 23.191C22.6399 23.5148 23.0266 23.6768 23.4763 23.6768C23.7821 23.6768 24.0519 23.6048 24.2857 23.4609C24.4836 23.2269 24.6995 22.993 24.9333 22.7591C25.6348 22.0574 26.3723 21.4546 27.1458 20.9508C29.2683 19.5654 31.6697 18.8726 34.3498 18.8726C34.6916 18.8726 35.0243 18.8816 35.3481 18.8996C38.5859 19.1155 41.383 20.402 43.7393 22.7591C46.3475 25.3681 47.6516 28.5079 47.6516 32.1785V32.5833C47.5977 34.7785 47.058 36.7847 46.0328 38.602C45.4392 39.6636 44.6747 40.6532 43.7393 41.5708C41.1491 44.1798 38.0193 45.4843 34.3498 45.4843C30.7163 45.4843 27.6134 44.2158 25.0412 41.6788L24.9333 41.5708C24.7175 41.3549 24.5106 41.139 24.3127 40.9231C24.0969 40.7971 23.845 40.7342 23.5572 40.7342C23.1076 40.7342 22.7208 40.8871 22.397 41.193C22.0913 41.5169 21.9384 41.9037 21.9384 42.3535C21.9384 42.7134 22.0373 43.0283 22.2352 43.2982C22.3071 43.3881 22.3971 43.4781 22.505 43.5681C22.5769 43.658 22.6489 43.739 22.7208 43.811C25.9406 47.0317 29.8169 48.6421 34.3498 48.6421C38.9007 48.6421 42.777 47.0317 45.9788 43.811C47.5257 42.2636 48.7039 40.5632 49.5133 38.71C50.3228 36.8027 50.7545 34.7605 50.8085 32.5833V32.1785C50.8085 29.8394 50.3768 27.6712 49.5133 25.674C48.7039 23.8027 47.5257 22.0844 45.9788 20.519C43.0108 17.5501 39.4673 15.9578 35.3481 15.7418Z" fill="#848DA5"/>
</svg>
