<svg width="181" height="65" viewBox="0 0 181 65" fill="none" xmlns="http://www.w3.org/2000/svg">
<path d="M53.488 51.4983C59.6065 51.32 65.7113 50.8168 71.7765 49.9908C80.9908 48.8908 90.0163 46.5615 98.6121 43.0651C102.585 41.5222 106.218 39.2178 109.306 36.2815C111.001 34.7212 112.148 32.6568 112.577 30.3939C112.899 27.8071 112.073 25.209 110.316 23.2833C108.047 20.6695 105.27 18.5453 102.153 17.0401C98.3101 15.0399 94.2805 13.4204 90.122 12.2049C89.8394 12.128 89.5635 12.0281 89.2971 11.9062C90.4901 11.9093 91.6787 12.0525 92.8382 12.3329C99.8959 13.4632 106.807 15.371 113.445 18.0214C117.39 19.4908 121.013 21.7125 124.111 24.5632C125.874 26.114 127.016 28.251 127.325 30.5788C127.487 32.6308 126.856 34.667 125.561 36.2673C123.575 38.7589 121.065 40.7834 118.209 42.1976C112.938 44.9582 107.33 47.0233 101.527 48.3412C91.8703 50.6554 82.0115 52.0271 72.0894 52.4369C64.426 52.8078 56.7475 52.7271 49.0936 52.1951C47.4724 52.0814 45.8511 51.9107 44.2441 51.7685C44.3721 51.3703 44.6992 51.5694 44.9268 51.5694H52.6774C52.9495 51.6062 53.2264 51.5819 53.488 51.4983Z" fill="#848DA5"/>
<path d="M103.533 36.5654C99.4231 36.6195 96.0457 33.3365 95.9833 29.2272C95.9209 25.1178 99.1972 21.7338 103.306 21.6632C107.416 21.5927 110.806 24.8622 110.885 28.9712C110.933 33.091 107.652 36.4798 103.533 36.5654Z" fill="#848DA5"/>
<path d="M74.4231 31.8874C72.86 31.8874 71.3313 31.8874 69.8026 31.8874C69.2186 31.8874 69.1671 31.7156 69.3045 31.2175C69.9572 28.7441 69.94 28.7441 72.4993 28.7441H78.3049C78.6485 28.7441 78.9748 28.7441 78.8374 29.2594C77.8298 35.0549 72.3708 38.9793 66.5563 38.088C63.0041 37.5814 60.4733 34.3782 60.8022 30.8052C61.2938 24.8552 66.0769 20.1672 72.0355 19.7952C74.7337 19.6127 77.3338 20.8413 78.9061 23.0415C79.1809 23.4194 79.2325 23.6598 78.7515 23.8488C78.5857 23.924 78.4251 24.0101 78.2706 24.1064C77.7029 24.5532 77.0642 24.9016 76.3812 25.137C75.6598 25.2573 75.4193 24.3126 74.8868 23.9003C72.8939 22.576 70.3012 22.576 68.3083 23.9003C65.7458 25.2837 64.1494 27.9619 64.1516 30.8739C64.1469 33.1327 65.8995 35.0057 68.1537 35.1509C70.6915 35.3315 73.1153 34.0698 74.4231 31.8874Z" fill="#848DA5"/>
<path d="M50.8038 34.6693C52.6417 34.6693 54.4109 34.6693 56.18 34.6693C56.8156 34.6693 57.0217 34.6693 56.7984 35.4594C56.077 37.8126 56.0942 37.8126 53.6551 37.8126C51.5424 37.8126 49.4297 37.8126 47.317 37.8126C46.6987 37.8126 46.4582 37.8126 46.6815 37.0225C48.2617 31.7321 49.8133 26.4361 51.3363 21.1343C51.3688 20.8412 51.5234 20.5753 51.7621 20.4021C52.0007 20.2288 52.3014 20.1641 52.5902 20.2239C55.2182 20.2239 57.8462 20.2239 60.4742 20.2239C61.0582 20.2239 61.1784 20.327 61.0066 20.9282C60.3196 23.3844 60.3196 23.3844 57.7775 23.3844C56.7812 23.3844 55.785 23.3844 54.7888 23.3844C54.2906 23.3844 54.0158 23.4875 53.8784 24.0027C53.6895 24.7929 53.449 25.583 53.1913 26.3387C52.9337 27.0945 53.1913 26.9914 53.7238 26.9914C55.2869 26.9914 56.8671 26.9914 58.4302 26.9914C59.0142 26.9914 59.2203 26.9914 59.0313 27.73C58.3615 30.1004 58.3786 30.1176 55.9396 30.1176C54.8575 30.1176 53.7582 30.1176 52.6761 30.1176C52.5163 30.0877 52.3513 30.1239 52.2186 30.2177C52.086 30.3116 51.9969 30.4551 51.9718 30.6157C51.6626 31.7837 51.2848 32.9345 50.9584 34.051C50.9069 34.2227 50.8725 34.3945 50.8038 34.6693Z" fill="#848DA5"/>
<path d="M85.6211 23.3849H81.8938C82.1686 22.4058 82.4434 21.5127 82.6839 20.6195C82.7869 20.276 83.0274 20.2588 83.3194 20.2588H93.505L92.6977 23.1273C92.6119 23.4536 92.337 23.3849 92.0966 23.3849C91.2893 23.3849 90.3789 23.3849 89.6575 23.3849C88.9361 23.3849 88.8502 23.6769 88.7128 24.175C87.4933 28.3317 86.2566 32.4884 85.0714 36.6623C84.8309 37.5211 84.5218 37.8646 83.5599 37.8303C81.4128 37.7444 81.4128 37.8303 82.014 35.7519L85.6211 23.3849Z" fill="#848DA5"/>
<path d="M57.7554 51.498C57.5137 51.7114 57.2293 51.626 56.959 51.626H49.2369C48.9809 51.626 48.6823 51.5123 48.4547 51.754C47.7913 51.7696 47.1294 51.6833 46.4922 51.498H57.7554Z" fill="#848DA5"/>
</svg>
