<svg width="180" height="65" viewBox="0 0 180 65" fill="none" xmlns="http://www.w3.org/2000/svg">
<path d="M50.3066 20.5737H64.8616V23.9359H54.1027V28.8244H61.2608V32.1866H54.1027V37.6723H65.2087V41.0345H50.3283V20.5737H50.3066ZM64.1241 26.4797H67.9852L71.3691 36.6327L74.5143 26.4797H78.267L73.061 41.0345H69.5904L64.1241 26.4797ZM77.703 33.8013C77.703 29.3553 80.7181 26.2142 85.0564 26.2142C89.3513 26.2142 92.3664 29.3553 92.3664 33.8013C92.3664 38.1811 89.2863 41.3221 84.948 41.3221C80.653 41.3221 77.703 38.2474 77.703 33.8013ZM88.5487 33.8898V33.7571C88.5487 30.9921 87.2256 29.311 85.0347 29.311C82.8222 29.311 81.499 30.97 81.499 33.7571V33.8898C81.499 36.6106 82.8005 38.2032 84.9696 38.2032C87.1822 38.2032 88.5487 36.6106 88.5487 33.8898ZM94.0801 20.2861H97.8544V41.0345H94.0801V20.2861ZM100.002 35.217V26.4797H103.754V34.9958C103.754 36.9424 104.666 38.0705 106.357 38.0705C108.331 38.0705 109.134 36.3672 109.134 33.8677V26.4576H112.887V41.0124H109.134V38.9553C108.375 40.4594 107.073 41.3 105.23 41.3C101.997 41.3221 100.002 38.9774 100.002 35.217ZM116.314 37.1857V29.5765H114.297V26.5018H116.314V23.7368L119.98 21.6354V26.4797H122.8V29.5543H119.958V36.8096C119.958 37.5175 120.283 37.8271 120.978 37.8493H122.648V41.0345H119.741C116.986 40.9018 116.379 39.5967 116.314 37.1857ZM124.492 20.6401H128.396V24.3783H124.492V20.6401ZM124.557 26.4797H128.331V41.0345H124.557V26.4797ZM130.045 33.8013C130.045 29.3553 133.06 26.2142 137.398 26.2142C141.693 26.2142 144.708 29.3553 144.708 33.8013C144.708 38.1811 141.628 41.3221 137.29 41.3221C133.016 41.3221 130.045 38.2474 130.045 33.8013ZM140.912 33.8898V33.7571C140.912 30.9921 139.589 29.311 137.398 29.311C135.185 29.311 133.862 30.97 133.862 33.7571V33.8898C133.862 36.6106 135.164 38.2032 137.333 38.2032C139.545 38.2032 140.912 36.6106 140.912 33.8898ZM146.4 26.4797H150.153V28.8465C150.912 27.1433 152.3 26.17 154.317 26.17C157.441 26.17 159.285 28.2935 159.285 32.2972V41.0345H155.532V32.5184C155.532 30.4834 154.773 29.4437 153.016 29.4437C151.237 29.4437 150.153 30.9258 150.153 33.6465V41.0566H146.4V26.4797Z" fill="#848DA5"/>
<path d="M22.8809 19.6572C29.9955 15.7757 39.2148 19.8688 39.9085 29.7508C26.6872 30.8088 25.0953 24.7387 22.8809 19.6572Z" fill="#848DA5"/>
<path d="M22.8809 40.8449C29.9955 44.7264 39.2148 40.6333 39.9085 30.7513C26.6872 29.6932 25.0953 35.7603 22.8809 40.8449Z" fill="#848DA5"/>
<path d="M37.4264 22.7401C34.0575 18.1809 27.8828 16.8843 22.7715 19.6592C24.7642 24.2215 26.2565 29.5745 36.089 29.8804C37.0313 28.1518 37.5245 26.2072 37.5217 24.2306C37.521 23.7322 37.4891 23.2344 37.4264 22.7401ZM25.1812 35.8665C25.4791 35.8877 25.7531 35.9029 26.045 35.9029C29.8891 35.9047 33.4782 33.947 35.6035 30.6893C29.6938 30.9831 26.9148 33.1673 25.1812 35.8665Z" fill="#848DA5"/>
</svg>
