<svg width="180" height="65" viewBox="0 0 180 65" fill="none" xmlns="http://www.w3.org/2000/svg">
<path d="M64.9894 18.7939C65.3419 18.8724 65.6944 18.951 66.0469 19.0491C66.6896 19.2257 67.3116 19.5397 67.8507 19.9519C69.0947 20.8939 69.7996 22.1893 70.318 23.6023C70.6912 24.6229 70.9192 25.6827 71.1058 26.7622C71.2303 27.5276 71.2717 28.2734 71.3132 29.0584C71.3754 30.1967 71.4169 31.3547 71.4169 32.493C71.4169 33.4154 71.3547 34.3378 71.251 35.2406C71.1058 36.5949 70.8778 37.9491 70.4631 39.2444C69.9862 40.7163 69.302 42.0705 68.0787 43.1304C67.3323 43.778 66.4615 44.1509 65.4871 44.3668C64.8028 44.5042 64.1186 44.5238 63.4552 44.4453C62.2319 44.3472 61.133 43.9154 60.2207 43.1107C59.2048 42.2472 58.5828 41.1677 58.1059 39.9705C57.6705 38.9107 57.4424 37.792 57.2144 36.6734C57.1107 36.1827 57.1107 35.692 57.0485 35.2014C56.8412 33.6117 56.8619 32.0023 56.9034 30.393C56.9241 29.4706 57.0278 28.5481 57.1107 27.6257C57.2351 26.2519 57.5254 24.878 58.0022 23.5827C58.3754 22.5229 58.9145 21.5612 59.6817 20.6977C60.5732 19.6967 61.7135 19.1276 63.0405 18.8725C63.1442 18.8528 63.2271 18.8332 63.3308 18.8136H64.9894V18.7939ZM68.6386 30.0986H68.5349C68.5349 29.5883 68.5764 29.0584 68.5142 28.5481C68.4312 27.665 68.2861 26.7818 68.1617 25.8986C67.9751 24.7799 67.6641 23.7005 67.0628 22.7192C66.6689 22.0911 66.1713 21.5809 65.4456 21.3061C64.8443 21.0706 64.2223 21.0313 63.6003 21.1295C62.9783 21.208 62.3977 21.4827 61.9623 21.8949C61.2781 22.5229 60.9049 23.308 60.6147 24.1323C60.2 25.3294 60.0134 26.5659 59.889 27.8023C59.8061 28.7051 59.7439 29.6079 59.7231 30.5107C59.7024 31.335 59.7439 32.179 59.7646 33.0033C59.7853 33.6706 59.8268 34.3575 59.889 35.0248C59.9512 35.7313 60.0549 36.4182 60.1585 37.1248C60.3244 38.2434 60.6354 39.3229 61.2159 40.3238C61.5684 40.9126 62.0038 41.4229 62.6466 41.7369C63.3722 42.1098 64.1601 42.1687 64.9272 42.0313C65.6529 41.8939 66.2127 41.521 66.6896 40.9911C67.2909 40.3042 67.6226 39.4995 67.8714 38.6556C68.2861 37.2818 68.452 35.8687 68.5556 34.4556C68.6178 33.5332 68.6386 32.5911 68.6593 31.6491C68.6386 31.1584 68.6386 30.6285 68.6386 30.0986ZM47.2 18.7939C47.5732 18.8724 47.9672 18.951 48.3404 19.0491C49.1075 19.265 49.8332 19.6379 50.4345 20.1678C51.4297 21.0117 51.9895 22.1108 52.342 23.308C52.4871 23.8575 52.5493 24.4266 52.6322 24.9958C52.6737 25.1921 52.6737 25.3883 52.7152 25.6042H50.1235C50.0405 25.1921 49.9783 24.7603 49.8954 24.3481C49.6881 23.3865 49.2941 22.5229 48.527 21.8752C48.0501 21.4827 47.4488 21.2668 46.8061 21.1687C46.1426 21.0902 45.4999 21.1098 44.8779 21.3061C43.6961 21.6986 42.9497 22.4837 42.7216 23.7005C42.4935 24.9958 42.846 26.1341 43.6961 27.1547C44.4839 28.1164 45.5206 28.8033 46.5366 29.4902C47.5732 30.1967 48.6307 30.8836 49.6259 31.6294C50.704 32.4734 51.637 33.4743 52.2383 34.7107C52.5908 35.4369 52.8396 36.2023 52.9018 37.007C52.9432 37.635 53.0054 38.2827 52.9432 38.8911C52.8188 40.2061 52.4456 41.4229 51.5334 42.4631C50.7662 43.3462 49.7917 43.8565 48.6929 44.1705C48.0086 44.3668 47.3037 44.406 46.5988 44.4453C45.3755 44.4846 44.2144 44.249 43.1363 43.6603C42.224 43.1696 41.519 42.4631 40.98 41.5995C40.4409 40.736 40.1714 39.7743 39.9848 38.8126C39.9018 38.3612 39.9018 37.8902 39.8604 37.3995H42.452C42.4935 37.6939 42.5142 37.9883 42.5557 38.2827C42.7009 39.4799 43.1155 40.5593 44.09 41.3444C44.6291 41.7762 45.2718 42.0117 45.9768 42.0902C46.7024 42.1883 47.4074 42.149 48.1123 41.9135C49.2941 41.521 49.9991 40.6771 50.2893 39.5388C50.4345 39.0481 50.4967 38.5575 50.4967 38.0472C50.4759 37.0659 50.1442 36.1238 49.5429 35.3388C48.7758 34.3378 47.8013 33.5921 46.7646 32.8659C45.7487 32.1593 44.6913 31.4724 43.7168 30.7266C42.8045 30.0397 41.9337 29.2547 41.3117 28.293C40.7519 27.4491 40.358 26.5463 40.2336 25.5257C40.0884 24.2108 40.1921 22.9351 40.8141 21.7379C41.519 20.4033 42.6179 19.5397 44.0693 19.108C44.4839 18.9706 44.9193 18.9313 45.3547 18.8332C45.3962 18.8136 45.417 18.8136 45.4377 18.7939H47.2ZM84.7071 32.2182H78.5492V44.1117H75.7709V19.1865H86.8012C86.8012 19.893 86.8012 20.6192 86.8012 21.3257C86.8012 21.365 86.7182 21.4435 86.656 21.4631C86.5938 21.4827 86.5109 21.4631 86.4487 21.4631H78.5492V29.9023H84.6863V32.2182H84.7071ZM98.1839 44.1117H95.4056V21.4631H90.1393V19.1668H103.45C103.45 19.3435 103.45 19.579 103.45 19.7949C103.471 20.3052 103.492 20.7958 103.492 21.2865C103.492 21.3453 103.388 21.4238 103.326 21.4435C103.264 21.4631 103.181 21.4435 103.098 21.4435H98.2461V21.9145C98.2461 21.993 98.2461 22.0911 98.2461 22.1696V43.15C98.2254 43.464 98.2046 43.778 98.1839 44.1117Z" fill="#848DA5"/>
<path d="M152.418 21.4964H147.247V44.4876L147.165 44.4677C147.062 44.4478 146.938 44.4478 146.835 44.4478C146.197 44.4478 145.538 44.4478 144.899 44.4478C144.796 44.4478 144.714 44.4677 144.631 44.4876C144.467 44.5074 144.405 44.4478 144.425 44.269C144.446 44.1696 144.446 44.0901 144.446 43.9908V21.9336C144.446 21.5163 144.446 21.5163 144.013 21.5163H139.235V19.1318H152.438V21.4964H152.418ZM116.061 30.9949C116.267 31.0744 116.411 31.1738 116.576 31.2135C117.482 31.4719 118.286 31.9885 118.904 32.7039C119.316 33.1609 119.604 33.7173 119.851 34.2936C120.243 35.1481 120.428 36.082 120.387 37.0358C120.366 37.4333 120.387 37.8108 120.387 38.2082C120.366 39.0031 120.181 39.7582 119.913 40.5133C119.584 41.4671 118.966 42.2421 118.183 42.878C117.833 43.1562 117.421 43.3549 117.029 43.5735C116.514 43.8318 115.979 43.9709 115.423 44.11C114.784 44.269 114.166 44.3882 113.507 44.3882C111.468 44.428 109.428 44.428 107.389 44.4478C106.998 44.4478 106.998 44.4478 106.998 44.0703V19.4497V19.1119H107.307C109.593 19.1119 111.9 19.1119 114.187 19.1119C114.743 19.1119 115.299 19.251 115.855 19.3901C116.494 19.5491 117.112 19.8471 117.627 20.2644C118.059 20.6022 118.43 21.0394 118.78 21.4567C119.233 22.0131 119.439 22.7086 119.645 23.3644C119.748 23.7022 119.79 24.0598 119.831 24.4175C119.872 24.7752 119.893 25.1329 119.893 25.4906C119.872 26.6829 119.625 27.8354 118.966 28.8488C118.471 29.6039 117.812 30.22 116.988 30.6174C116.679 30.7366 116.411 30.8558 116.061 30.9949ZM109.82 32.3661V32.5648V41.7851V41.8646C109.799 42.0037 109.882 42.0633 110.026 42.0633C111.385 42.0235 112.745 42.1428 114.104 41.9242C114.599 41.8447 115.072 41.7056 115.526 41.487C116.35 41.1094 116.906 40.4537 117.256 39.639C117.544 38.9633 117.627 38.2082 117.627 37.473C117.627 36.7775 117.565 36.082 117.379 35.4064C117.194 34.7307 116.906 34.1545 116.453 33.6378C115.979 33.1013 115.34 32.8032 114.681 32.5846C114.228 32.4455 113.754 32.4058 113.28 32.3661C112.889 32.3263 112.477 32.3661 112.086 32.3661H109.82ZM109.84 21.4964V30.0014H111.426C111.653 30.0014 111.88 30.0014 112.106 29.9815C112.601 29.9219 113.116 29.8623 113.61 29.7828C113.816 29.743 114.043 29.7232 114.249 29.6636C114.537 29.5642 114.825 29.4052 115.134 29.2661C115.773 28.9879 116.226 28.4912 116.556 27.9149C116.865 27.3784 116.988 26.7623 117.05 26.1463C117.112 25.3714 117.091 24.6162 116.906 23.8611C116.679 22.9669 116.144 22.331 115.34 21.9336C114.763 21.6554 114.104 21.5561 113.466 21.5362C112.25 21.4567 111.056 21.4964 109.84 21.4964ZM124.692 19.1318H136.371V21.4964H127.514V30.0014H133.652C134.085 30.0014 134.085 30.0014 134.085 30.4385V32.3859H127.493V32.6641C127.493 35.7044 127.493 38.7249 127.493 41.7652C127.493 42.0434 127.576 42.0831 127.844 42.0831C130.686 42.0633 133.508 42.0831 136.351 42.0831C136.825 42.0831 136.825 42.0831 136.825 42.56C136.825 43.1164 136.825 43.6728 136.825 44.2094C136.825 44.428 136.763 44.5074 136.536 44.4677C136.454 44.4478 136.371 44.4478 136.31 44.4677H124.713V19.1318H124.692ZM33.8933 18.7939C34.0993 18.8536 34.3053 18.933 34.5319 18.9927C35.0881 19.1516 35.603 19.41 36.0356 19.7676C36.5506 20.2048 36.9831 20.7016 37.2303 21.3375C37.3539 21.6554 37.4363 21.9932 37.4981 22.331C37.5599 22.5894 37.6011 22.8477 37.6011 23.106C37.5805 23.9804 37.3539 24.815 36.8801 25.5502C36.427 26.2457 35.7678 26.7226 35.0263 27.0803C34.6143 27.2591 34.2023 27.3784 33.7491 27.3982C33.5844 27.3982 33.4402 27.4976 33.2754 27.4777C32.884 27.438 32.5132 27.3187 32.1425 27.2989C31.6481 27.2393 31.2361 27.0207 30.8241 26.7623C30.3092 26.4643 29.8972 26.047 29.547 25.5701C29.2381 25.1329 29.0321 24.6361 28.9497 24.0996C28.9291 24.04 28.8879 24.0002 28.8467 23.9605V22.1919C28.8879 22.1125 28.9291 22.033 28.9497 21.9535C29.0115 21.7746 29.0527 21.5958 29.1145 21.4368C29.4028 20.7215 29.8972 20.1253 30.5152 19.6683C31.0507 19.251 31.6481 18.9728 32.3278 18.8933C32.4102 18.8933 32.472 18.8337 32.5544 18.7939H33.8933ZM33.193 20.9798C31.8129 20.9997 30.9683 21.9336 30.9683 23.106C30.9889 24.5765 32.0189 25.2919 33.1724 25.3117C34.3671 25.3316 35.3764 24.5368 35.397 23.1656C35.4382 21.9336 34.4495 20.9202 33.193 20.9798ZM34.4701 44.4876H31.7923V29.3854C32.2455 29.445 32.678 29.5443 33.1312 29.5642C33.5844 29.5642 34.0169 29.4648 34.4701 29.4052V44.4876Z" fill="#848DA5"/>
</svg>
