<svg width="180" height="67" viewBox="0 0 180 67" fill="none" xmlns="http://www.w3.org/2000/svg">
<path d="M34.6015 16.4092C25.4158 16.4092 18 24.0167 18 33.4344C18 35.1071 18.2464 36.7798 18.7393 38.3609C19.053 37.9255 19.3443 37.4901 19.6131 37.0089C20.7781 35.2675 21.8983 33.526 23.0185 31.7387L23.8475 30.3868C24.1164 29.9514 24.3852 29.4931 24.6316 29.0348C25.1693 28.1412 25.7071 27.2246 26.1775 26.331C26.424 25.8727 26.6704 25.4373 26.9393 24.9561C27.2081 24.4979 27.4322 24.0625 27.6786 23.5813C27.9251 23.1001 28.1715 22.6418 28.3732 22.2064L29.0453 20.8087L29.1125 20.717C29.471 19.9609 30.3671 19.663 31.1289 20.0067C31.6666 20.3275 32.0026 20.9003 31.9802 21.5649C31.9802 22.3668 31.8234 23.2147 31.7562 24.0167C31.689 24.8187 31.6666 25.6665 31.5994 26.5143C31.5321 28.1641 31.5097 29.8598 31.5097 31.5096C31.5097 33.1594 31.5994 34.8092 31.7562 36.4132C31.8458 37.1923 31.9802 37.9713 32.1147 38.7504C32.2267 39.4378 32.4507 40.1253 32.7644 40.7439C32.854 40.9273 32.9884 41.1106 33.1228 41.271C33.2125 41.3397 33.1453 41.2939 33.2125 41.2939C33.2797 41.2939 33.2349 41.2939 33.2797 41.2939L33.3469 41.271H33.3693L33.4589 41.2481C33.4813 41.2251 33.5485 41.1793 33.5709 41.1564C33.8174 40.9731 34.019 40.7439 34.2431 40.4919C34.736 39.8961 35.184 39.3004 35.5873 38.6588C36.013 37.9943 36.4163 37.2839 36.7971 36.5736C37.5813 35.13 38.3206 33.6635 39.0152 32.1741C39.3512 31.4179 39.7097 30.6847 40.0457 29.9056C40.3818 29.1494 40.7179 28.3703 41.0315 27.6371C41.3452 26.858 42.219 26.4914 42.9807 26.7893C43.4736 26.9726 43.8097 27.4079 43.8993 27.935C43.8993 28.1183 43.9217 28.3703 43.9665 28.6224L44.0561 29.3327C44.1233 29.791 44.1681 30.2722 44.2801 30.7305C44.437 31.67 44.6162 32.6094 44.8627 33.5031C45.1091 34.3967 45.4004 35.3133 45.7812 36.184C46.1397 37.0548 46.6102 37.8568 47.1927 38.6129C47.3047 38.7962 47.2823 39.0483 47.1255 39.1629C46.9687 39.2774 46.767 39.2774 46.6326 39.1629C45.8708 38.4755 45.1987 37.6964 44.6162 36.8486C44.0337 36.0007 43.5408 35.1071 43.0927 34.1905C42.7791 33.5718 42.555 32.9532 42.2638 32.3116C42.0845 32.6782 41.9277 33.0677 41.7485 33.4114C41.0091 34.9467 40.2922 36.459 39.4408 37.9943C39.0152 38.7963 38.5895 39.5524 38.0966 40.3086C37.6037 41.0877 37.066 41.8438 36.4835 42.5312C36.1474 42.9437 35.7441 43.2874 35.3633 43.6311C35.2512 43.7228 35.1168 43.8144 34.96 43.8832L34.6911 44.0436L34.5343 44.1123H34.5119L34.4223 44.1352H34.3551L34.2431 44.1581C34.1534 44.1811 34.0862 44.2269 33.9966 44.2269C33.8174 44.2498 33.6381 44.2956 33.4589 44.3185C33.0556 44.3415 32.63 44.2956 32.2715 44.1581C31.913 44.0207 31.577 43.8144 31.2633 43.5624C30.8152 43.1499 30.4119 42.6687 30.1431 42.0959C29.7174 41.2251 29.4037 40.2857 29.2245 39.3233C29.0453 38.4525 28.9109 37.536 28.8212 36.6652C28.642 34.9238 28.5748 33.2052 28.5524 31.4637C28.5524 30.6617 28.5524 29.8139 28.5524 29.0119C28.2387 29.6077 27.9475 30.2035 27.6338 30.7534C27.3874 31.2117 27.1409 31.6929 26.8721 32.1512L26.1103 33.5489C25.0797 35.4279 24.0043 37.261 22.8841 39.0941C22.1896 40.2857 21.4502 41.4543 20.7109 42.6229C25.7295 50.4824 36.0354 52.6593 43.72 47.5265C51.4047 42.3938 53.5331 31.8533 48.5145 23.9937C45.4228 19.2964 40.225 16.4092 34.6015 16.4092Z" fill="#848DA5"/>
<path d="M69.0022 40.3489V28.872H68.709L64.8483 40.3955H63.8954L60.0348 28.8953H59.7416V40.3722H58.1533V27.708H60.9877L64.4085 37.7882L67.756 27.708H70.6149V40.4188H69.0022V40.3489Z" fill="#848DA5"/>
<path d="M72 28.1382V26.2949H73.3846V28.1382H72ZM72.0195 40.418V29.5142H73.3651V40.418H72.0195Z" fill="#848DA5"/>
<path d="M84.461 37.1532C84.461 39.0126 83.721 40.4184 80.4743 40.4184C76.392 40.4184 76.1533 38.1963 76.1533 35.4753C76.1533 32.7543 76.392 30.5322 80.4743 30.5322C83.721 30.5322 84.461 31.9607 84.461 33.7974H82.9093C82.9093 32.2782 82.3602 31.5526 80.4743 31.5526C77.9438 31.5526 77.8005 32.845 77.8005 35.43C77.8005 38.0149 77.9199 39.3073 80.4743 39.3073C82.3602 39.3073 82.9093 38.5591 82.9093 37.0625L84.461 37.1532Z" fill="#848DA5"/>
<path d="M87.355 31.6899C88.1328 31.2268 89.1226 30.5785 90.0418 30.5554C90.2303 30.5322 90.4189 30.5322 90.6074 30.5322C90.8667 30.5322 91.0788 30.5322 91.3851 30.5554L91.2673 31.713C91.0081 31.6899 90.7959 31.6899 90.5603 31.6899C90.3717 31.6899 90.1832 31.6899 89.9475 31.713C89.0755 31.7362 88.1563 32.3844 87.4729 32.7549V40.4184H85.8467V30.648H87.1193L87.355 31.6899Z" fill="#848DA5"/>
<path d="M101.077 35.4753C101.077 38.1963 100.851 40.4184 96.9234 40.4184C92.9953 40.4184 92.7695 38.1963 92.7695 35.4753C92.7695 32.7543 92.9953 30.5322 96.9234 30.5322C100.851 30.5322 101.077 32.7543 101.077 35.4753ZM94.3498 35.4753C94.3498 38.0602 94.4627 39.3527 96.9234 39.3527C99.3841 39.3527 99.497 38.0829 99.497 35.4753C99.497 32.8677 99.3841 31.5979 96.9234 31.5979C94.4627 31.5979 94.3498 32.845 94.3498 35.4753Z" fill="#848DA5"/>
<path d="M103.979 43.3847C104.596 43.458 105.403 43.4825 106.305 43.4825C108.821 43.4825 109.154 42.7739 109.177 40.0616C108.442 40.5015 107.397 40.9901 106.329 41.0146C102.674 41.0879 102.46 39.0598 102.46 35.8589C102.46 32.658 102.65 30.5322 106.163 30.5322C107.35 30.5322 108.465 31.0942 109.32 31.6562L109.486 30.7277H110.768V39.8417C110.768 43.5313 109.961 44.6553 106.661 44.6553C105.688 44.6553 104.715 44.5576 103.789 44.411L103.979 43.3847ZM109.177 32.6091C108.465 32.1449 107.563 31.6806 106.685 31.6806C104.264 31.6806 104.098 33.0734 104.098 35.8589C104.098 38.5956 104.264 39.8906 106.685 39.8906C107.563 39.8906 108.489 39.4019 109.177 39.0354V32.6091Z" fill="#848DA5"/>
<path d="M120.382 40.2353L120.189 39.3738C119.25 39.8726 118.007 40.4167 116.654 40.4167C112.402 40.4847 112.153 38.5123 112.153 35.4744C112.153 32.4592 112.374 30.5322 116.599 30.5322C117.98 30.5322 119.222 31.0537 120.161 31.5297L120.355 30.6909H121.846V40.2126H120.382V40.2353ZM119.996 32.4139C119.195 32.0512 118.118 31.6204 117.096 31.6204C114.28 31.6204 114.086 32.9127 114.086 35.4971C114.086 38.0816 114.28 39.3738 117.096 39.3738C118.118 39.3738 119.167 38.9204 119.996 38.5123V32.4139Z" fill="#848DA5"/>
<path d="M124.803 31.5526C125.616 31.1151 126.717 30.5854 127.897 30.5394C129.758 30.4703 130.702 30.9078 131.174 31.5987C132.039 31.1381 133.166 30.5624 134.424 30.5394C138.199 30.4473 138.461 32.1283 138.461 34.4772V40.3723H136.652V34.5693C136.652 32.5658 136.521 31.5987 134.057 31.5987C133.166 31.5987 132.248 32.0592 131.488 32.4737C131.672 33.1646 131.75 33.8784 131.698 34.6153V40.4184H130.125V34.5923C130.125 32.5889 129.994 31.6217 127.53 31.6217C126.665 31.6217 125.747 32.0822 125.039 32.4277V40.3954H123.23V30.7236H124.646L124.803 31.5526Z" fill="#848DA5"/>
<path d="M139.847 28.1392V26.2959H141.231V28.1392H139.847ZM139.886 40.419V29.5151H141.231V40.419H139.886Z" fill="#848DA5"/>
<path d="M144.296 31.5494C145.232 31.1117 146.471 30.5819 147.82 30.5358C152.061 30.4437 152.309 32.1253 152.309 34.475V40.3723H150.409V34.5672C150.409 32.563 150.216 31.5955 147.407 31.5955C146.389 31.5955 145.315 32.0562 144.516 32.4478V40.4184H142.616V30.6971H144.103L144.296 31.5494Z" fill="#848DA5"/>
<path d="M155.212 43.3847C155.83 43.458 156.637 43.4825 157.539 43.4825C160.055 43.4825 160.387 42.7739 160.411 40.0616C159.675 40.5015 158.63 40.9901 157.562 41.0146C153.907 41.0879 153.693 39.0598 153.693 35.8589C153.693 32.658 153.883 30.5322 157.396 30.5322C158.583 30.5322 159.699 31.0942 160.553 31.6562L160.719 30.7277H162.001V39.8417C162.001 43.5313 161.194 44.6553 157.895 44.6553C156.921 44.6553 155.948 44.5576 155.023 44.411L155.212 43.3847ZM160.387 32.6091C159.675 32.1449 158.773 31.6806 157.895 31.6806C155.474 31.6806 155.307 33.0734 155.307 35.8589C155.307 38.5956 155.474 39.8906 157.895 39.8906C158.773 39.8906 159.699 39.4019 160.387 39.0354V32.6091Z" fill="#848DA5"/>
</svg>
