<svg width="181" height="65" viewBox="0 0 181 65" fill="none" xmlns="http://www.w3.org/2000/svg">
<path d="M55.0727 34.1834L51.4592 28.3259L46.8227 21.0659L46.7732 20.9999H42.9287V42.4994H47.2022V29.2829L50.3867 34.4309L55.5017 42.4994H59.3792V20.9999H55.0892V34.1834H55.0727ZM61.7717 42.4994H75.8627V38.4239H66.0617V33.7379H74.4437V29.6294H66.0617V25.0919H75.8627V20.9834H61.7717V42.4994ZM77.5952 25.1414H82.5287V42.5159H86.8187V25.1414H91.7192V20.9999H77.5952V25.1414Z" fill="#848DA5"/>
<path d="M94.7233 14.2852H93.7168V49.2321H94.7233V42.5001H107.461V38.4246H97.6603V33.7386H106.042V29.6301H97.6603V25.0926H107.461V20.9841H94.7233V14.2852ZM121.767 34.2171L118.153 28.3596L113.517 21.0996L113.467 21.0171H109.623V42.5166H113.88V29.3001L117.064 34.4481L122.179 42.5166H126.057V21.0336H121.767V34.2171ZM127.806 21.0336V25.1751H132.739V42.5496H137.029V25.1751H141.93V21.0336H127.806Z" fill="#848DA5"/>
</svg>
