<svg width="180" height="65" viewBox="0 0 180 65" fill="none" xmlns="http://www.w3.org/2000/svg">
<path fill-rule="evenodd" clip-rule="evenodd" d="M68.2739 14.6221C68.2739 14.5153 68.3593 14.4287 68.4647 14.4287H72.4716C72.577 14.4287 72.6624 14.5153 72.6624 14.6221V23.5195C72.6624 23.6263 72.577 23.7129 72.4716 23.7129H68.4647C68.3593 23.7129 68.2739 23.6263 68.2739 23.5195V14.6221ZM25.3424 18.7807C25.0371 18.7807 24.9608 19.0386 24.9608 19.1675L24.9608 19.1675V23.5195C24.9608 23.6263 24.8754 23.7129 24.77 23.7129H20.7631C20.6577 23.7129 20.5723 23.6263 20.5723 23.5195V14.8156C20.5723 14.7087 20.6577 14.6221 20.7631 14.6221H24.77L24.77 14.6221C29.8073 14.39 32.2751 15.1702 32.8793 15.5892C37.9992 17.854 37.9417 22.9731 37.9359 23.4896C37.9358 23.5025 37.9357 23.5124 37.9357 23.5195C37.9357 23.7516 37.6812 23.8096 37.554 23.8096H34.0241C33.7188 23.8096 33.6425 23.6162 33.6425 23.5195C33.4135 19.5737 30.1126 18.7162 28.4907 18.7807H25.3424ZM53.5503 51.7144C52.4449 51.7144 51.5319 51.3421 50.8113 50.5974C50.0907 49.8528 49.7303 48.9343 49.7303 47.8421C49.7303 46.7429 50.0907 45.8244 50.8113 45.0869C51.5319 44.3422 52.4449 43.9699 53.5503 43.9699C54.2149 43.9699 54.8271 44.1294 55.3868 44.4486C55.9535 44.7606 56.3943 45.1862 56.7091 45.7252L55.4603 46.4592C55.2784 46.1259 55.0195 45.867 54.6837 45.6826C54.3479 45.4911 53.9701 45.3954 53.5503 45.3954C52.8367 45.3954 52.2595 45.6223 51.8187 46.0762C51.385 46.5301 51.1681 47.1188 51.1681 47.8421C51.1681 48.5585 51.385 49.1435 51.8187 49.5974C52.2595 50.0513 52.8367 50.2783 53.5503 50.2783C53.9701 50.2783 54.3479 50.1861 54.6837 50.0017C55.0265 49.8102 55.2854 49.5513 55.4603 49.2251L56.7091 49.9591C56.3943 50.4981 55.957 50.9272 55.3973 51.2464C54.8376 51.5584 54.2219 51.7144 53.5503 51.7144ZM75.8589 44.1188H77.3071V51.5655H75.8589V44.1188ZM101.786 45.523V44.1188H96.3814V45.523H98.3544V51.5655H99.8026V45.523H101.786ZM126.669 44.1188L124.15 48.6613V51.5655H122.712V48.6613L120.204 44.1188H121.841L123.436 47.2251L125.031 44.1188H126.669ZM20.7631 24.8734C20.6577 24.8734 20.5723 24.96 20.5723 25.0669V36.0918C20.5723 36.1987 20.6577 36.2853 20.7631 36.2853H24.77C24.8754 36.2853 24.9608 36.1987 24.9608 36.0918V25.0669C24.9608 24.96 24.8754 24.8734 24.77 24.8734H20.7631ZM33.7379 25.0669C33.6325 25.0669 33.5471 25.1535 33.5471 25.2603V36.2853C33.5471 36.3921 33.6325 36.4787 33.7379 36.4787H37.7448C37.8502 36.4787 37.9356 36.3921 37.9356 36.2853V25.2603C37.9356 25.1535 37.8502 25.0669 37.7448 25.0669H33.7379ZM72.6624 32.2234V25.0669C72.6624 24.96 72.577 24.8734 72.4716 24.8734H68.4647C68.3593 24.8734 68.2739 24.96 68.2739 25.0669V36.2853C68.2739 36.3921 68.3593 36.4787 68.4647 36.4787H70.5635H72.4716H81.4395C81.5449 36.4787 81.6303 36.3921 81.6303 36.2853V32.4168C81.6303 32.31 81.5449 32.2234 81.4395 32.2234H72.6624ZM87.1637 25.0669C87.1637 24.96 87.2491 24.8734 87.3545 24.8734H91.3615C91.4668 24.8734 91.5523 24.96 91.5523 25.0669V36.2853C91.5523 36.3921 91.4668 36.4787 91.3615 36.4787H87.3545C87.2491 36.4787 87.1637 36.3921 87.1637 36.2853V25.0669ZM135.056 24.8734C134.951 24.8734 134.865 24.96 134.865 25.0669V36.2853C134.865 36.3921 134.951 36.4787 135.056 36.4787H139.063C139.168 36.4787 139.254 36.3921 139.254 36.2853V25.0669C139.254 24.96 139.168 24.8734 139.063 24.8734H135.056ZM148.985 25.0669C148.985 24.96 149.07 24.8734 149.176 24.8734H153.183C153.288 24.8734 153.374 24.96 153.374 25.0669V36.2853C153.374 36.3921 153.288 36.4787 153.183 36.4787H149.176C149.07 36.4787 148.985 36.3921 148.985 36.2853V25.0669ZM97.2764 24.8734C97.1711 24.8734 97.0856 24.96 97.0856 25.0669V36.2853C97.0856 36.3921 97.1711 36.4787 97.2764 36.4787H101.283C101.389 36.4787 101.474 36.3921 101.474 36.2853V25.0669C101.474 24.96 101.389 24.8734 101.283 24.8734H97.2764ZM111.205 25.0669C111.205 24.96 111.291 24.8734 111.396 24.8734H115.403C115.508 24.8734 115.594 24.96 115.594 25.0669V36.2853C115.594 36.3921 115.508 36.4787 115.403 36.4787H111.396C111.291 36.4787 111.205 36.3921 111.205 36.2853V25.0669ZM125.516 24.8734C125.41 24.8734 125.325 24.96 125.325 25.0669V36.2853C125.325 36.3921 125.41 36.4787 125.516 36.4787H129.523C129.628 36.4787 129.714 36.3921 129.714 36.2853V25.0669C129.714 24.96 129.628 24.8734 129.523 24.8734H125.516ZM87.3545 14.4287C87.2491 14.4287 87.1637 14.5153 87.1637 14.6221V23.5195C87.1637 23.6263 87.2491 23.7129 87.3545 23.7129H91.3615C91.4668 23.7129 91.5523 23.6263 91.5523 23.5195V14.6221C91.5523 14.5153 91.4668 14.4287 91.3615 14.4287H87.3545ZM134.865 14.6221C134.865 14.5153 134.951 14.4287 135.056 14.4287H139.063C139.168 14.4287 139.254 14.5153 139.254 14.6221V23.5195C139.254 23.6263 139.168 23.7129 139.063 23.7129H135.056C134.951 23.7129 134.865 23.6263 134.865 23.5195V14.6221ZM149.176 14.4287L149.175 14.4287L144.215 14.4287C144.109 14.4287 144.024 14.5153 144.024 14.6221V18.684C144.024 18.7908 144.109 18.8774 144.215 18.8774L148.985 18.8774V23.5195C148.985 23.6263 149.07 23.7129 149.176 23.7129H153.183C153.288 23.7129 153.374 23.6263 153.374 23.5195V18.8774L157.953 18.8774C158.058 18.8774 158.144 18.7908 158.144 18.684V14.6221C158.144 14.5153 158.058 14.4287 157.953 14.4287H153.183H153.183H149.176ZM53.7726 18.8774H52.0553C49.3729 18.8774 47.1363 20.8123 46.6295 23.3803C46.5921 23.5698 46.4322 23.7129 46.2416 23.7129H42.7661C42.5437 23.7129 42.3677 23.5205 42.3943 23.2967C42.9739 18.4098 47.0783 14.6221 52.0553 14.6221H53.7726C58.7496 14.6221 62.854 18.4098 63.4336 23.2967C63.4602 23.5205 63.2842 23.7129 63.0619 23.7129H59.5863C59.3957 23.7129 59.2358 23.5698 59.1984 23.3803C58.6916 20.8123 56.455 18.8774 53.7726 18.8774ZM46.1403 24.8734C46.3511 24.8734 46.5219 25.0466 46.5219 25.2603V26.6142C46.5219 29.7121 48.9993 32.2234 52.0553 32.2234H53.7726C56.8286 32.2234 59.306 29.7121 59.306 26.6142V25.2603C59.306 25.0466 59.4768 24.8734 59.6876 24.8734H63.1221C63.3329 24.8734 63.5037 25.0466 63.5037 25.2603V26.6142C63.5037 32.0622 59.1469 36.4787 53.7726 36.4787H52.0553C46.681 36.4787 42.3242 32.0622 42.3242 26.6142V25.2603C42.3242 25.0466 42.4951 24.8734 42.7058 24.8734H46.1403ZM125.698 23.7129C125.491 23.7129 125.322 23.5436 125.303 23.3338C125.067 20.8331 122.988 18.8774 120.459 18.8774C117.931 18.8774 115.852 20.8331 115.616 23.3338C115.596 23.5436 115.428 23.7129 115.22 23.7129H114.544H111.591H110.728C110.57 23.7129 110.442 23.583 110.442 23.4228C110.442 20.9124 108.435 18.8774 105.958 18.8774C103.482 18.8774 101.474 20.9124 101.474 23.4228C101.474 23.583 101.346 23.7129 101.188 23.7129H97.3718C97.2138 23.7129 97.0856 23.583 97.0856 23.4228C97.0856 18.4555 101.058 14.4287 105.958 14.4287C108.895 14.4287 111.499 15.8752 113.113 18.1037C114.805 15.8692 117.466 14.4287 120.459 14.4287C125.409 14.4287 129.451 18.3677 129.701 23.3219C129.712 23.5368 129.54 23.7129 129.328 23.7129H125.698Z" fill="#848DA5"/>
</svg>
