<svg width="181" height="65" viewBox="0 0 181 65" fill="none" xmlns="http://www.w3.org/2000/svg">
<path fill-rule="evenodd" clip-rule="evenodd" d="M45.695 24.4287C44.4686 24.4287 43.4743 25.3785 43.4743 26.5501V36.4501V38.218V38.5716H43.8444H45.3249H45.695V38.218V36.4501V33.9751C45.695 33.7799 45.8607 33.6216 46.0651 33.6216H56.0583C56.2627 33.6216 56.4284 33.7799 56.4284 33.9751V36.4501V38.218V38.5716H56.7986H58.279H58.6491V38.218V36.4501V26.5501C58.6491 25.3785 57.6549 24.4287 56.4284 24.4287H45.695ZM56.0583 26.5501C56.2627 26.5501 56.4284 26.7084 56.4284 26.9037V31.1466C56.4284 31.3418 56.2627 31.5001 56.0583 31.5001H46.0651C45.8607 31.5001 45.695 31.3418 45.695 31.1466V26.9037C45.695 26.7084 45.8607 26.5501 46.0651 26.5501H56.0583ZM23.5698 33.1704C24.9481 33.1704 25.6372 32.5188 25.6372 31.2155V26.4391C25.6372 25.1224 24.9481 24.4641 23.5698 24.4641H10.7852V38.5716H13.1058V33.1704H23.5698ZM13.1058 31.3566V26.2779H22.4094C23.0142 26.2779 23.3166 26.5668 23.3166 27.1445V30.5101C23.3166 31.0744 23.0142 31.3566 22.4094 31.3566H13.1058ZM39.1223 36.7577H29.4178V24.4641H27.0972V38.5716H39.0329H39.1223H41.9939V36.7581H39.1223V36.7577ZM68.649 32.1426V38.5716H66.3284V32.1426L59.05 24.4641H62.32L67.6152 30.1071L72.9527 24.4641H75.9484L68.649 32.1426ZM90.9678 28.2328H88.7738V27.1445C88.7738 26.5668 88.4784 26.2779 87.8877 26.2779H79.0693C78.4645 26.2779 78.1621 26.5668 78.1621 27.1445V29.6838C78.1621 30.1272 78.3942 30.3489 78.8583 30.3489H89.259C90.4404 30.3489 91.0311 30.9065 91.0311 32.0217V36.8182C91.0311 37.9871 90.4193 38.5716 89.1957 38.5716H77.6347C76.397 38.5716 75.7782 37.9871 75.7782 36.8182V34.8029H78.0988V35.9113C78.0988 36.4756 78.4012 36.7577 79.006 36.7577H87.8244C88.4151 36.7577 88.7105 36.4756 88.7105 35.9113V32.9487C88.7105 32.4247 88.4433 32.1627 87.9088 32.1627H77.487C76.39 32.1627 75.8415 31.6388 75.8415 30.5907V26.2376C75.8415 25.0552 76.4603 24.4641 77.698 24.4641H89.1324C90.356 24.4641 90.9678 25.0552 90.9678 26.2376V28.2328ZM107.817 36.8182C107.817 37.9871 107.206 38.5716 105.982 38.5716H94.4844C93.2467 38.5716 92.6279 37.9871 92.6279 36.8182V26.2376C92.6279 25.0552 93.2467 24.4641 94.4844 24.4641H105.982C107.206 24.4641 107.817 25.0552 107.817 26.2376V36.8182ZM95.8557 26.2779C95.2509 26.2779 94.9485 26.5668 94.9485 27.1445V35.9113C94.9485 36.4756 95.2509 36.7577 95.8557 36.7577H104.611C105.202 36.7577 105.497 36.4756 105.497 35.9113V27.1445C105.497 26.5668 105.202 26.2779 104.611 26.2779H95.8557ZM125.214 38.5716H121.817L111.649 26.8825V38.5716H109.539V24.4641H112.724L122.893 36.1531V24.4641H125.214V38.5716Z" fill="#848DA5"/>
<path fill-rule="evenodd" clip-rule="evenodd" d="M135.5 16.7139V27.3756L147.079 22.0332L135.5 16.7139Z" fill="#848DA5"/>
<path fill-rule="evenodd" clip-rule="evenodd" d="M147.078 22.0332V32.6949L158.634 27.3756L147.078 22.0332Z" fill="#848DA5"/>
<path fill-rule="evenodd" clip-rule="evenodd" d="M147.078 32.6953V43.357L158.634 38.0146L147.078 32.6953Z" fill="#848DA5"/>
<path fill-rule="evenodd" clip-rule="evenodd" d="M158.635 27.375V38.0136L170.214 32.6943L158.635 27.375Z" fill="#848DA5"/>
<path fill-rule="evenodd" clip-rule="evenodd" d="M135.5 27.375V38.0136L147.079 32.6943L135.5 27.375Z" fill="#848DA5"/>
<path fill-rule="evenodd" clip-rule="evenodd" d="M135.5 38.0137V48.6754L147.079 43.3561L135.5 38.0137Z" fill="#848DA5"/>
</svg>
