<svg width="181" height="65" viewBox="0 0 181 65" fill="none" xmlns="http://www.w3.org/2000/svg">
<g clip-path="url(#clip0_1077_16415)">
<path fill-rule="evenodd" clip-rule="evenodd" d="M120.544 19.4766C120.33 19.2576 120.146 19.2717 119.968 19.2717H108.523C107.191 19.2717 105.986 19.6936 104.865 20.3505C102.626 21.6623 101.116 23.4804 100.364 25.9735C99.2246 29.7704 97.9548 33.5311 96.6747 37.2838C95.4525 40.8637 97.7352 43.7244 101.335 43.4773C103.27 43.3447 105.221 43.4632 107.164 43.4472C107.769 43.4431 108.37 43.4351 108.975 43.2623C112.094 42.3684 114.029 40.3052 115.065 37.4123C115.831 35.2829 116.494 33.1193 117.165 30.9597C117.42 30.14 117.783 29.3425 117.905 28.4907C117.534 28.2597 117.165 28.3641 116.819 28.3621C114.912 28.3501 113.004 28.342 111.096 28.3641C110.419 28.3722 109.625 28.107 109.097 28.4947C108.579 28.8764 108.59 29.68 108.382 30.3007C107.945 31.6126 107.523 32.9304 107.084 34.2824C108.14 34.4954 109.147 34.2222 110.145 34.4773C109.849 35.3813 109.565 36.203 109.317 37.0347C109.228 37.334 109.134 37.5369 108.761 37.5369C106.862 37.5268 104.96 37.5309 102.935 37.5309C103.343 36.2572 103.709 35.1041 104.084 33.951C104.944 31.3032 105.803 28.6574 106.669 26.0117C106.934 25.196 106.941 25.196 107.854 25.192H110.34C112.894 25.192 115.45 25.198 118.004 25.184C118.288 25.184 118.646 25.3347 118.791 24.8666C119.365 23.0485 119.97 21.2384 120.546 19.4766M124.086 43.423C125.488 43.4431 126.934 43.6601 128.283 43.3387C131.787 42.5009 134.294 40.4619 135.433 37.0588C136.649 33.4306 137.815 29.7864 138.988 26.1443C139.286 25.2201 139.539 24.296 139.586 23.3016C139.717 20.5414 137.322 18.8197 135.079 18.8759C132.993 18.9282 130.905 18.884 128.819 18.89C128.426 18.89 128.036 18.89 127.643 18.9925C124.08 19.9085 121.644 21.9938 120.494 25.4251C120.007 26.8755 119.541 28.332 119.077 29.7905C118.24 32.4061 117.35 35.0097 116.591 37.6474C115.601 41.0987 118.046 43.5134 120.85 43.4291C121.927 43.3989 123.007 43.4251 124.086 43.4251M98.4147 23.2675C100.064 20.1436 102.574 18.0081 106.044 16.9313C106.398 16.8208 106.852 16.9715 107.115 16.5918H136.276C136.34 16.7465 136.488 16.7445 136.626 16.7766C139.431 17.3934 141.217 19.0467 142.008 21.7306C142.155 22.2329 142.06 22.7793 142.323 23.2574C142.192 24.5994 141.971 25.9193 141.509 27.209C140.927 28.8402 140.487 30.5197 139.928 32.161C139.079 34.6521 138.439 37.2094 137.395 39.6382C135.767 42.4407 133.467 44.4858 130.311 45.5706C129.229 45.9473 128.089 46.1397 126.94 46.1391C118.199 46.1271 109.46 46.0989 100.72 46.1492C97.6545 46.1693 94.1641 44.096 93.6794 40.3594C93.6483 40.1184 93.5696 39.8853 93.5137 39.6483C93.553 38.0009 94.0398 36.4541 94.5618 34.9032C95.8668 31.032 97.0061 27.1085 98.4147 23.2675Z" fill="#848DA5"/>
<path fill-rule="evenodd" clip-rule="evenodd" d="M137.396 39.638C138.44 37.2092 139.08 34.6518 139.929 32.1608C140.489 30.5195 140.926 28.84 141.51 27.2088C141.972 25.919 142.193 24.6012 142.324 23.2552C143.293 23.2632 144.263 23.2592 145.234 23.2793C146.533 23.3054 147.55 23.8619 148.387 24.8201C148.764 25.2521 148.855 25.8186 149.238 26.2284V28.7436C148.596 29.6838 148.526 30.8128 148.18 31.8494C147.815 32.9342 147.569 34.0592 147.231 35.1541C146.328 38.0992 143.43 39.7445 140.949 39.644C139.766 39.5978 138.579 39.638 137.396 39.638ZM81.9791 29.1876H84.9392C85.2043 29.1876 85.4135 29.1474 85.5109 28.84C85.7698 28.0244 86.0598 27.2168 86.3581 26.3489C85.3079 26.2143 84.3467 26.3168 83.3897 26.2766C83.0107 26.2606 82.8947 26.5137 82.8015 26.7748C82.5342 27.5201 82.2877 28.2735 81.9791 29.1856M88.5621 35.8672C89.2664 35.8672 89.9085 35.8452 90.5465 35.8753C91.0312 35.8974 91.2405 35.7065 91.3627 35.2565C91.7148 33.9507 92.1395 32.659 92.4937 31.3532C92.881 29.9208 92.1954 29.0148 90.6998 28.9585C89.8737 28.9242 89.0464 28.9242 88.2203 28.9585C86.617 29.0329 85.4777 29.8726 84.9267 31.2628C84.3509 32.7092 84.005 34.242 83.5472 35.7728C84.2017 35.9456 84.8149 35.7989 85.4094 35.8773C86.0142 35.9556 86.2235 35.6523 86.3581 35.1581C86.6459 34.12 86.949 33.086 87.2675 32.0563C87.3565 31.765 87.429 31.4255 87.8723 31.4496C88.5103 31.4818 89.1566 31.3693 89.8464 31.538L88.5621 35.8672ZM59.0297 26.0396C58.2944 26.0396 57.7537 26.0878 57.2276 26.0255C56.5917 25.9512 56.3452 26.2244 56.1712 26.7728C55.4752 28.9967 54.7046 31.1985 54.0252 33.4284C53.789 34.2039 53.3955 34.9512 53.352 35.8652C55.7548 35.8652 58.0872 35.8572 60.4197 35.8713C60.834 35.8713 60.9769 35.6623 61.0805 35.3289C61.3601 34.4329 61.6936 33.5489 61.9422 32.6449C62.5097 30.5818 62.9717 30.9293 60.4756 30.8831C60.0385 30.8751 59.8231 31.0699 59.7071 31.4536C59.5559 31.9518 59.3591 32.438 59.21 32.9382C59.1333 33.1994 59.0339 33.3862 58.7128 33.3681C58.0769 33.33 57.4285 33.4585 56.7077 33.2577L59.0277 26.0376M74.9735 30.9132L76.5147 26.0376C75.7255 26.0376 75.0854 26.0576 74.4432 26.0295C74.0435 26.0135 73.8881 26.1802 73.7783 26.5378C73.2936 28.0987 72.782 29.6516 72.2703 31.2025C72.0342 31.9177 72.2724 32.5043 72.7799 33.0065C73.0865 33.3119 73.5567 33.328 73.9565 33.5168C73.884 34.3204 73.3972 35.0094 73.3475 35.8311C73.5173 35.8431 73.6582 35.8713 73.799 35.8632C74.4743 35.8251 75.2842 36.1143 75.7876 35.7347C76.1874 35.4333 76.2537 34.69 76.4215 34.1295C76.554 33.6835 76.7798 33.4505 77.2811 33.338C78.6358 33.0306 79.5514 32.209 79.9822 30.9092C80.322 29.8847 80.6803 28.8681 80.991 27.8356C81.6042 25.8085 81.9667 26.0556 79.5576 26.0335C79.135 26.0295 78.9113 26.1661 78.7912 26.584C78.5426 27.4518 78.2319 28.3016 77.9481 29.1614C77.306 31.1061 77.306 31.1081 75.1765 31.0036C75.1434 31.0036 75.1123 30.9755 74.9735 30.9132ZM44.7721 35.8652C45.3728 35.8652 46.015 35.8532 46.655 35.8693C47.0279 35.8793 47.204 35.7608 47.3282 35.3811C47.523 34.7925 47.525 34.0291 48.0077 33.6614C48.5359 33.2556 49.323 33.5489 49.9962 33.5128C52.0407 33.4043 53.265 32.5344 53.9154 30.6722C54.1557 29.9831 54.3856 29.288 54.572 28.5829C54.9863 27.0239 54.2261 26.0617 52.5607 26.0396C51.2329 26.0235 49.901 26.0797 48.5752 26.0195C47.8917 25.9893 47.6555 26.2585 47.4732 26.8451C46.624 29.5652 45.7291 32.2693 44.8425 34.9793C44.7597 35.2405 44.6147 35.4856 44.7742 35.8652M61.9442 35.7849C62.6485 35.9335 63.2969 35.817 63.9328 35.8713C64.3678 35.9094 64.5936 35.7306 64.7117 35.3489C64.8567 34.8829 65.0286 34.4268 65.1612 33.9588C65.2357 33.6976 65.3331 33.4967 65.65 33.5148C66.286 33.5469 66.9343 33.4123 67.5765 33.6092C67.593 34.3987 67.0379 35.0436 67.0835 35.8652C67.7215 35.8652 68.3305 35.8451 68.9374 35.8713C69.4076 35.8914 69.6272 35.7306 69.768 35.2706C70.4661 33.0126 71.2222 30.7706 71.9285 28.5126C72.3635 27.1143 71.595 26.0918 70.0912 26.0416C69.3009 26.0096 68.5096 26.0102 67.7194 26.0436C66.1306 26.1239 64.9292 26.9215 64.4051 28.3197C63.4875 30.7585 62.7625 33.2657 61.9442 35.7849ZM98.4159 23.2672C97.0073 27.1083 95.8639 31.0318 94.561 34.903C94.039 36.4539 93.5522 38.0027 93.5107 39.6481L65.8634 39.636C58.4104 39.636 50.9595 39.638 43.5065 39.632C43.0052 39.632 42.4915 39.642 42.0026 39.5456C39.229 39.0072 38.2202 36.8034 38.738 34.5393C39.2766 32.201 39.9767 29.8947 40.6396 27.5844C41.4371 24.8021 44.3371 23.2371 46.684 23.2451C63.9287 23.2974 81.1733 23.2693 98.418 23.2672M132.847 25.226C131.153 25.226 129.612 25.2239 128.07 25.228C127.078 25.232 127.082 25.238 126.799 26.1199C126.161 28.1047 125.514 30.0856 124.878 32.0724C124.307 33.8563 123.747 35.6423 123.149 37.5327C124.425 37.5327 125.605 37.5467 126.786 37.5266C127.464 37.5166 128.259 37.7737 128.789 37.4121C129.317 37.0505 129.297 36.2309 129.5 35.6101C130.608 32.211 131.695 28.8059 132.847 25.226Z" fill="#848DA5"/>
<path fill-rule="evenodd" clip-rule="evenodd" d="M132.846 25.2266C131.695 28.8065 130.609 32.2116 129.499 35.6107C129.296 36.2315 129.317 37.0491 128.788 37.4127C128.258 37.7743 127.463 37.5172 126.785 37.5272C125.605 37.5473 124.424 37.5333 123.148 37.5333C123.746 35.6449 124.308 33.8569 124.877 32.073C125.513 30.0862 126.16 28.1054 126.798 26.1205C127.081 25.2366 127.077 25.2326 128.07 25.2286C129.611 25.2246 131.152 25.2286 132.846 25.2286M66.1918 30.9741C66.2249 30.7853 66.2415 30.6467 66.2746 30.5121C66.7676 28.4368 66.9748 28.3083 69.2824 28.6337L69.1684 29.0295C68.5263 31.1067 68.5263 31.1067 66.1918 30.9741ZM48.8995 31.0223C48.7856 30.6667 48.8995 30.5201 48.9513 30.3574C49.6038 28.3263 49.6038 28.3243 51.9258 28.6237C51.7373 29.2545 51.5406 29.8792 51.3624 30.51C51.2671 30.8556 51.0807 31.0384 50.6871 31.0263C50.0864 31.0063 49.4857 31.0223 48.8995 31.0223Z" fill="#848DA5"/>
</g>
<defs>
<clipPath id="clip0_1077_16415">
<rect width="111.857" height="32.1429" fill="white" transform="translate(37.7861 15.4287)"/>
</clipPath>
</defs>
</svg>
