<svg width="181" height="77" viewBox="0 0 181 77" fill="none" xmlns="http://www.w3.org/2000/svg">
<g clip-path="url(#clip0_1077_16421)">
<path d="M140.258 26.5441C133.364 26.9679 136.46 35.8488 144.08 35.38C151.535 34.9216 147.602 26.0926 140.258 26.5441Z" fill="#848DA5"/>
<path d="M137.346 21.0591C132.954 21.0591 128.66 22.3476 125.008 24.7615C121.356 27.1755 118.509 30.6065 116.828 34.6208C115.147 38.635 114.708 43.0522 115.564 47.3137C116.421 51.5752 118.536 55.4897 121.642 58.5621C124.748 61.6344 128.705 63.7268 133.013 64.5744C137.321 65.4221 141.787 64.987 145.845 63.3243C149.903 61.6615 153.371 58.8457 155.811 55.233C158.252 51.6203 159.554 47.3728 159.554 43.0278C159.554 37.2014 157.214 31.6136 153.049 27.4936C148.885 23.3737 143.236 21.0591 137.346 21.0591V21.0591ZM137.346 62.6942C133.415 62.6948 129.572 61.5423 126.303 59.3823C123.034 57.2224 120.486 54.152 118.981 50.5594C117.476 46.9669 117.082 43.0136 117.848 39.1995C118.615 35.3853 120.508 31.8817 123.287 29.1317C126.067 26.3817 129.608 24.5089 133.464 23.7499C137.319 22.991 141.316 23.3802 144.948 24.8682C148.58 26.3562 151.684 28.8762 153.868 32.1095C156.052 35.3429 157.218 39.1443 157.218 43.033C157.218 48.2469 155.124 53.2472 151.398 56.9343C147.671 60.6214 142.617 62.6932 137.346 62.6942V62.6942ZM136.676 5.72257C131.404 9.66483 132.32 15.7105 132.32 15.7105C132.32 15.7105 129.006 7.20157 124.703 2C124.122 8.69613 126.244 17.5684 126.244 17.5684C126.244 17.5684 123.549 12.0675 116.946 11.7596C122.423 14.8733 124.547 20.4831 125.033 21.9881C128.297 19.9951 132.03 18.8778 135.863 18.7464C135.431 17.3452 133.896 11.4414 136.676 5.72257V5.72257Z" fill="#848DA5"/>
<path d="M22.7553 45.1818V49.7797H20.8213V37.9339H24.8922C26.2725 37.9339 27.31 38.2585 28.0049 38.9078C28.6997 39.557 29.0494 40.4461 29.0541 41.5751C29.0541 42.6949 28.6979 43.576 27.9856 44.2183C27.2733 44.8606 26.2445 45.1818 24.8992 45.1818H22.7553ZM27.0798 41.5751C27.0798 40.904 26.8904 40.3919 26.5115 40.0391C26.1326 39.6862 25.5252 39.5103 24.6894 39.5115H22.7553V43.6215H24.6894C26.2818 43.6215 27.0786 42.9394 27.0798 41.5751V41.5751ZM37.0368 49.7797L34.0518 45.0486H32.6773V49.7797H30.7433V37.9339H34.9681C36.3355 37.9339 37.3731 38.2637 38.0807 38.9233C38.7884 39.583 39.1416 40.4559 39.1404 41.5423C39.1404 42.4648 38.8775 43.2254 38.3518 43.8239C37.826 44.4224 37.0682 44.8024 36.0785 44.9639L39.2261 49.7797H37.0368ZM32.6773 43.689H34.8107C36.3729 43.689 37.1533 43.0069 37.1522 41.6426C37.1522 40.9945 36.9627 40.4882 36.5839 40.1238C36.2044 39.7606 35.6151 39.5789 34.8107 39.5789H32.6773V43.689ZM48.0289 47.2126H42.9735L42.0572 49.7797H39.9885L44.3987 38.119H46.6213L51.0139 49.7797H48.9435L48.0289 47.2126ZM47.4851 45.7371L45.5004 40.2017L43.5156 45.7371H47.4851ZM60.7838 38.8732C61.7331 39.5667 62.401 40.5727 62.6671 41.7101H60.6317C60.378 41.0799 59.9294 40.5452 59.3499 40.1826C58.7182 39.7915 57.9842 39.5929 57.2392 39.6118C56.5336 39.6004 55.8383 39.7799 55.2282 40.1307C54.6314 40.4806 54.1489 40.9928 53.838 41.6063C53.4924 42.3078 53.3237 43.0818 53.3467 43.862C53.324 44.669 53.4986 45.4695 53.8555 46.1955C54.1721 46.8208 54.671 47.3378 55.2877 47.6797C55.9455 48.0333 56.6848 48.2121 57.4333 48.1986C58.3729 48.2148 59.285 47.8843 59.9916 47.2714C60.7028 46.6625 61.1324 45.8265 61.2804 44.7632H56.8825V43.3534H62.9032V45.1818C62.7762 46.034 62.4544 46.8462 61.9624 47.5569C61.4633 48.2741 60.7937 48.8592 60.0126 49.2607C59.1554 49.6961 58.2026 49.9148 57.2392 49.8973C56.1585 49.9192 55.0917 49.6527 54.1511 49.1258C53.2689 48.6229 52.5509 47.8803 52.0824 46.986C51.6025 46.0112 51.3531 44.9411 51.3531 43.8568C51.3531 42.7725 51.6025 41.7024 52.0824 40.7275C52.549 39.837 53.2638 39.0974 54.1423 38.5964C55.0816 38.0749 56.1448 37.8115 57.2217 37.8335C58.6475 37.8335 59.8348 38.1801 60.7838 38.8732V38.8732ZM76.5586 38.119V49.7797H74.6071V41.0389L71.1989 49.7797H69.5027L66.0753 41.0389V49.7797H64.143V38.119H66.4827L70.384 47.4306L74.2171 38.119H76.5586ZM86.0224 47.2126H80.9758L80.0594 49.7797H77.9838L82.3939 38.119H84.6147L89.0092 49.7797H86.9387L86.0224 47.2126ZM85.4803 45.7371L83.4956 40.2017L81.5108 45.7371H85.4803ZM97.2857 37.9339V39.4769H93.9439V49.7797H91.9924V39.4769H88.6699V37.9339H97.2857ZM100.253 37.9339V49.7797H98.3209V37.9339H100.253ZM111.195 38.9233C112.176 39.6753 112.87 40.7348 113.162 41.928H111.109C110.847 41.2367 110.376 40.6419 109.761 40.2242C109.089 39.7889 108.299 39.569 107.496 39.5945C106.823 39.5839 106.161 39.7639 105.588 40.1134C105.016 40.4761 104.557 40.9903 104.265 41.5976C103.946 42.3056 103.782 43.0717 103.782 43.8464C103.782 44.6211 103.946 45.3872 104.265 46.0952C104.557 46.7033 105.015 47.2182 105.588 47.5811C106.161 47.9307 106.823 48.1107 107.496 48.1C108.298 48.126 109.089 47.9067 109.761 47.4721C110.373 47.0583 110.843 46.4701 111.109 45.7855H113.162C112.871 46.9767 112.177 48.0334 111.195 48.7798C110.222 49.5133 109.001 49.88 107.531 49.88C106.479 49.8997 105.441 49.6354 104.529 49.1154C103.663 48.612 102.962 47.872 102.511 46.9843C102.041 46.0066 101.797 44.9376 101.797 43.855C101.797 42.7725 102.041 41.7035 102.511 40.7258C102.964 39.837 103.664 39.0946 104.529 38.586C105.439 38.0615 106.478 37.7946 107.531 37.8145C109 37.8157 110.221 38.1853 111.195 38.9233ZM122.285 45.1818V49.7797H120.352V37.9339H124.423C125.801 37.9339 126.839 38.2585 127.536 38.9078C128.233 39.557 128.583 40.4461 128.585 41.5751C128.585 42.6949 128.229 43.576 127.517 44.2183C126.804 44.8606 125.776 45.1818 124.43 45.1818H122.285ZM126.616 41.5751C126.616 40.904 126.427 40.3919 126.048 40.0391C125.669 39.6862 125.061 39.5103 124.224 39.5115H122.285V43.6215H124.219C125.817 43.6215 126.616 42.9394 126.616 41.5751V41.5751ZM131.902 48.2868H136.042V49.7797H129.968V37.9339H131.902V48.2868ZM144.895 47.2126H139.841L138.925 49.7797H136.855L141.267 38.119H143.487L147.882 49.7797H145.811L144.895 47.2126ZM144.353 45.7371L142.368 40.2017L140.384 45.7371H144.353ZM155.644 37.9339L151.659 45.4672V49.7797H149.713V45.4672L145.71 37.9339H147.95L150.699 43.4209L153.446 37.9339H155.644Z" fill="#848DA5"/>
</g>
<path d="M160.615 37.1816H115.03V53.8959H160.615V37.1816Z" fill="#010C28"/>
<path d="M127.674 48.7487L127.214 51.3535H118.634L120.473 39.6572H123.537L122.107 48.7487H127.674Z" fill="#848DA5"/>
<path d="M128.799 51.3037L130.689 39.6074H133.753L131.863 51.3037H128.799Z" fill="#848DA5"/>
<path d="M137.635 51.3037L134.826 39.6074H138.146L139.883 47.7284L144.224 39.6074H147.544L140.904 51.3037H137.635Z" fill="#848DA5"/>
<path d="M151.016 42.211L150.71 44.2029H155.715L155.358 46.5524H150.352L150.046 48.7487H155.818L155.358 51.3535H146.471L148.36 39.6572H157.094L156.635 42.2621H151.016V42.211Z" fill="#848DA5"/>
<defs>
<clipPath id="clip0_1077_16421">
<rect width="138.857" height="63" fill="white" transform="translate(20.8213 2)"/>
</clipPath>
</defs>
</svg>
