<svg width="180" height="76" viewBox="0 0 180 76" fill="none" xmlns="http://www.w3.org/2000/svg">
<g clip-path="url(#clip0_1077_16414)">
<path d="M140.007 25.2579C133.113 25.6818 136.209 34.5626 143.829 34.0939C151.284 33.6355 147.351 24.8065 140.007 25.2579Z" fill="#848DA5"/>
<path d="M137.096 19.773C132.704 19.773 128.41 21.0615 124.758 23.4754C121.106 25.8894 118.259 29.3204 116.578 33.3347C114.897 37.3489 114.458 41.7661 115.314 46.0276C116.171 50.2891 118.286 54.2036 121.392 57.2759C124.498 60.3483 128.455 62.4406 132.763 63.2883C137.071 64.136 141.537 63.7009 145.595 62.0381C149.653 60.3754 153.121 57.5596 155.561 53.9469C158.002 50.3341 159.304 46.0867 159.304 41.7417C159.304 35.9152 156.964 30.3274 152.799 26.2075C148.635 22.0876 142.986 19.773 137.096 19.773V19.773ZM137.096 61.408C133.165 61.4087 129.322 60.2562 126.053 58.0962C122.784 55.9362 120.236 52.8658 118.731 49.2733C117.226 45.6807 116.832 41.7274 117.598 37.9133C118.365 34.0992 120.258 30.5956 123.037 27.8456C125.817 25.0956 129.358 23.2227 133.214 22.4638C137.069 21.7049 141.066 22.0941 144.698 23.5821C148.33 25.0701 151.434 27.5901 153.618 30.8234C155.802 34.0567 156.968 37.8582 156.968 41.7469C156.968 46.9608 154.874 51.9611 151.148 55.6482C147.421 59.3353 142.367 61.4071 137.096 61.408V61.408ZM136.426 4.43644C131.154 8.37869 132.07 14.4244 132.07 14.4244C132.07 14.4244 128.756 5.91543 124.453 0.713867C123.872 7.41 125.994 16.2822 125.994 16.2822C125.994 16.2822 123.299 10.7814 116.696 10.4735C122.173 13.5872 124.297 19.197 124.783 20.7019C128.047 18.709 131.78 17.5917 135.613 17.4602C135.181 16.0591 133.646 10.1552 136.426 4.43644V4.43644Z" fill="#848DA5"/>
<path d="M22.5053 43.8957V48.4935H20.5713V36.6477H24.6422C26.0225 36.6477 27.06 36.9724 27.7549 37.6216C28.4497 38.2709 28.7994 39.16 28.8041 40.289C28.8041 41.4088 28.4479 42.2898 27.7356 42.9322C27.0233 43.5745 25.9945 43.8957 24.6492 43.8957H22.5053ZM26.8298 40.289C26.8298 39.6178 26.6404 39.1058 26.2615 38.7529C25.8826 38.4 25.2752 38.2242 24.4394 38.2253H22.5053V42.3354H24.4394C26.0318 42.3354 26.8286 41.6533 26.8298 40.289V40.289ZM36.7868 48.4935L33.8018 43.7625H32.4273V48.4935H30.4933V36.6477H34.7181C36.0855 36.6477 37.1231 36.9776 37.8307 37.6372C38.5384 38.2968 38.8916 39.1698 38.8904 40.2561C38.8904 41.1787 38.6275 41.9393 38.1018 42.5378C37.576 43.1363 36.8182 43.5163 35.8285 43.6777L38.9761 48.4935H36.7868ZM32.4273 42.4028H34.5607C36.1229 42.4028 36.9033 41.7207 36.9022 40.3565C36.9022 39.7084 36.7127 39.2021 36.3339 38.8377C35.9544 38.4744 35.3651 38.2928 34.5607 38.2928H32.4273V42.4028ZM47.7789 45.9265H42.7235L41.8072 48.4935H39.7385L44.1487 36.8328H46.3713L50.7639 48.4935H48.6935L47.7789 45.9265ZM47.2351 44.451L45.2504 38.9155L43.2656 44.451H47.2351ZM60.5338 37.587C61.4831 38.2806 62.151 39.2866 62.4171 40.4239H60.3817C60.128 39.7938 59.6794 39.2591 59.0999 38.8965C58.4682 38.5053 57.7342 38.3068 56.9892 38.3257C56.2836 38.3143 55.5883 38.4937 54.9782 38.8446C54.3814 39.1944 53.8989 39.7066 53.588 40.3201C53.2424 41.0217 53.0737 41.7957 53.0967 42.5758C53.074 43.3828 53.2486 44.1834 53.6055 44.9094C53.9221 45.5347 54.421 46.0517 55.0377 46.3935C55.6955 46.7471 56.4348 46.9259 57.1833 46.9125C58.1229 46.9287 59.035 46.5982 59.7416 45.9853C60.4528 45.3764 60.8824 44.5403 61.0304 43.4771H56.6325V42.0673H62.6532V43.8957C62.5262 44.7478 62.2044 45.5601 61.7124 46.2707C61.2133 46.988 60.5437 47.5731 59.7626 47.9746C58.9054 48.41 57.9526 48.6287 56.9892 48.6112C55.9085 48.6331 54.8417 48.3666 53.9011 47.8397C53.0189 47.3367 52.3009 46.5941 51.8324 45.6999C51.3525 44.725 51.1031 43.6549 51.1031 42.5706C51.1031 41.4863 51.3525 40.4163 51.8324 39.4414C52.299 38.5508 53.0138 37.8112 53.8923 37.3103C54.8316 36.7888 55.8948 36.5254 56.9717 36.5474C58.3975 36.5474 59.5848 36.894 60.5338 37.587V37.587ZM76.3086 36.8328V48.4935H74.3571V39.7528L70.9489 48.4935H69.2527L65.8253 39.7528V48.4935H63.893V36.8328H66.2327L70.134 46.1444L73.9671 36.8328H76.3086ZM85.7724 45.9265H80.7258L79.8094 48.4935H77.7338L82.1439 36.8328H84.3647L88.7592 48.4935H86.6887L85.7724 45.9265ZM85.2303 44.451L83.2456 38.9155L81.2608 44.451H85.2303ZM97.0357 36.6477V38.1907H93.6939V48.4935H91.7424V38.1907H88.4199V36.6477H97.0357ZM100.003 36.6477V48.4935H98.0709V36.6477H100.003ZM110.945 37.6372C111.926 38.3891 112.62 39.4486 112.912 40.6419H110.859C110.597 39.9506 110.126 39.3558 109.511 38.938C108.839 38.5028 108.049 38.2829 107.246 38.3084C106.573 38.2977 105.911 38.4778 105.338 38.8273C104.766 39.19 104.307 39.7041 104.015 40.3115C103.696 41.0194 103.532 41.7855 103.532 42.5603C103.532 43.335 103.696 44.1011 104.015 44.809C104.307 45.4172 104.765 45.932 105.338 46.2949C105.911 46.6445 106.573 46.8246 107.246 46.8139C108.048 46.8399 108.839 46.6206 109.511 46.186C110.123 45.7722 110.593 45.1839 110.859 44.4994H112.912C112.621 45.6905 111.927 46.7473 110.945 47.4937C109.972 48.2272 108.751 48.5939 107.281 48.5939C106.229 48.6136 105.191 48.3493 104.279 47.8293C103.413 47.3259 102.712 46.5859 102.261 45.6982C101.791 44.7204 101.547 43.6515 101.547 42.5689C101.547 41.4864 101.791 40.4174 102.261 39.4397C102.714 38.5509 103.414 37.8085 104.279 37.2999C105.189 36.7754 106.228 36.5085 107.281 36.5284C108.75 36.5295 109.971 36.8991 110.945 37.6372ZM122.035 43.8957V48.4935H120.102V36.6477H124.173C125.551 36.6477 126.589 36.9724 127.286 37.6216C127.983 38.2709 128.333 39.16 128.335 40.289C128.335 41.4088 127.979 42.2898 127.267 42.9322C126.554 43.5745 125.526 43.8957 124.18 43.8957H122.035ZM126.366 40.289C126.366 39.6178 126.177 39.1058 125.798 38.7529C125.419 38.4 124.811 38.2242 123.974 38.2253H122.035V42.3354H123.969C125.567 42.3354 126.366 41.6533 126.366 40.289V40.289ZM131.652 47.0007H135.792V48.4935H129.718V36.6477H131.652V47.0007ZM144.645 45.9265H139.591L138.675 48.4935H136.605L141.017 36.8328H143.237L147.632 48.4935H145.561L144.645 45.9265ZM144.103 44.451L142.118 38.9155L140.134 44.451H144.103ZM155.394 36.6477L151.409 44.1811V48.4935H149.463V44.1811L145.46 36.6477H147.7L150.449 42.1347L153.196 36.6477H155.394Z" fill="#848DA5"/>
</g>
<defs>
<clipPath id="clip0_1077_16414">
<rect width="138.857" height="63" fill="white" transform="translate(20.5713 0.713867)"/>
</clipPath>
</defs>
</svg>
