<svg width="180" height="65" viewBox="0 0 180 65" fill="none" xmlns="http://www.w3.org/2000/svg">
<path d="M23.2612 35.4147C22.7481 34.8457 21.6697 32.9491 21.1946 32.0719H40.2218C36.8012 40.5499 30.055 46.7947 27.1094 48.8573C13.2559 38.8429 10.1251 22.3989 10.2913 15.4287H43.7137C43.6567 22.1429 42.2172 27.0932 41.5046 28.729H19.6981C19.185 27.7048 18.6766 26.1211 18.4866 25.4573H39.1529C40.008 23.0106 40.2218 19.9333 40.2218 18.7004H13.7832C14.6384 31.7874 23.0237 41.5077 27.1094 44.7321C31.6703 40.6353 34.1407 36.8135 34.8058 35.4147H23.2612Z" fill="#848DA5"/>
<path d="M55.2852 38.412V27.1539H60.063C60.9815 27.1539 61.764 27.317 62.4105 27.6432C63.057 27.9657 63.5498 28.4146 63.8888 28.99C64.2317 29.5617 64.4032 30.2213 64.4032 30.9689C64.4032 31.7165 64.2298 32.3762 63.8829 32.9479C63.536 33.5196 63.0333 33.9648 62.375 34.2837C61.7206 34.6025 60.9283 34.7619 59.9979 34.7619H56.9527V32.8544H59.584C60.0768 32.8544 60.4828 32.7756 60.8021 32.6181C61.1254 32.4568 61.3658 32.2351 61.5235 31.9529C61.6852 31.6671 61.766 31.3391 61.766 30.9689C61.766 30.5951 61.6852 30.269 61.5235 29.9904C61.3658 29.7082 61.1254 29.4902 60.8021 29.3363C60.4789 29.1787 60.0689 29.0999 59.5722 29.0999H57.8455V38.412H55.2852Z" fill="#848DA5"/>
<path d="M73.2134 27.1539H75.7738V34.4651C75.7738 35.286 75.5629 36.0043 75.1411 36.62C74.7232 37.2356 74.1378 37.7157 73.3849 38.0602C72.6319 38.401 71.7548 38.5714 70.7535 38.5714C69.7483 38.5714 68.8692 38.401 68.1163 38.0602C67.3633 37.7157 66.7779 37.2356 66.3601 36.62C65.9422 36.0043 65.7333 35.286 65.7333 34.4651V27.1539H68.2937V34.2617C68.2937 34.6905 68.3942 35.0716 68.5952 35.4051C68.8002 35.7386 69.088 36.0006 69.4586 36.1912C69.8291 36.3817 70.2608 36.477 70.7535 36.477C71.2502 36.477 71.6819 36.3817 72.0485 36.1912C72.4191 36.0006 72.7049 35.7386 72.9059 35.4051C73.1109 35.0716 73.2134 34.6905 73.2134 34.2617V27.1539Z" fill="#848DA5"/>
<path d="M84.1168 30.3917C84.0695 29.9483 83.8665 29.6038 83.5078 29.3583C83.149 29.1127 82.6622 28.99 82.0472 28.99C81.6294 28.99 81.2766 29.0449 80.9888 29.1549C80.701 29.2611 80.4802 29.4096 80.3265 29.6001C80.1767 29.7907 80.1018 30.0069 80.1018 30.2488C80.0939 30.4504 80.1393 30.6263 80.2378 30.7765C80.3403 30.9268 80.4802 31.0569 80.6576 31.1668C80.835 31.2731 81.04 31.3665 81.2726 31.4472C81.5052 31.5241 81.7535 31.5901 82.0177 31.6451L83.1057 31.8869C83.6339 31.9969 84.1188 32.1435 84.5603 32.3267C85.0018 32.5099 85.3842 32.7353 85.7075 33.0029C86.0307 33.2704 86.281 33.5855 86.4584 33.9484C86.6398 34.3112 86.7324 34.7271 86.7364 35.1962C86.7324 35.8852 86.5432 36.4825 86.1687 36.9883C85.7981 37.4903 85.262 37.8806 84.5603 38.1591C83.8626 38.434 83.0209 38.5714 82.0354 38.5714C81.0578 38.5714 80.2063 38.4322 79.4809 38.1537C78.7595 37.8751 78.1958 37.4628 77.7898 36.9168C77.3877 36.3671 77.1768 35.6873 77.1571 34.8774H79.6347C79.6623 35.2548 79.7786 35.57 79.9835 35.8229C80.1925 36.0721 80.4704 36.2608 80.8173 36.3891C81.1681 36.5137 81.5643 36.576 82.0058 36.576C82.4395 36.576 82.8159 36.5173 83.1353 36.4001C83.4585 36.2828 83.7088 36.1197 83.8862 35.9108C84.0636 35.7019 84.1523 35.4619 84.1523 35.1907C84.1523 34.9378 84.0715 34.7253 83.9099 34.553C83.7522 34.3808 83.5196 34.2342 83.2121 34.1133C82.9086 33.9923 82.5361 33.8824 82.0945 33.7834L80.7759 33.4756C79.7549 33.2447 78.9487 32.8837 78.3574 32.3927C77.7661 31.9016 77.4724 31.2401 77.4764 30.4082C77.4724 29.7266 77.6676 29.131 78.0618 28.6217C78.4599 28.1123 79.0059 27.7146 79.6997 27.4288C80.3935 27.1429 81.1819 27 82.065 27C82.9638 27 83.7482 27.1429 84.4184 27.4288C85.0925 27.7146 85.6168 28.1123 85.9913 28.6217C86.3658 29.131 86.559 29.7211 86.5708 30.3917H84.1168Z" fill="#848DA5"/>
<path d="M88.1255 38.412V27.1539H90.6859V31.799H95.8836V27.1539H98.4381V38.412H95.8836V33.7615H90.6859V38.412H88.1255Z" fill="#848DA5"/>
<path d="M111.767 30.793C111.684 30.5255 111.568 30.2891 111.418 30.0839C111.268 29.875 111.085 29.6991 110.868 29.5562C110.655 29.4096 110.411 29.2978 110.135 29.2208C109.863 29.1439 109.561 29.1054 109.23 29.1054C108.611 29.1054 108.067 29.2483 107.598 29.5342C107.133 29.82 106.77 30.236 106.51 30.782C106.25 31.3244 106.12 31.9877 106.12 32.772C106.12 33.5562 106.248 34.2232 106.504 34.7729C106.76 35.3226 107.123 35.7422 107.592 36.0318C108.061 36.3176 108.615 36.4605 109.254 36.4605C109.833 36.4605 110.328 36.3653 110.738 36.1747C111.152 35.9805 111.467 35.7074 111.684 35.3556C111.905 35.0038 112.015 34.5879 112.015 34.1078L112.536 34.1792H109.414V32.3872H114.481V33.8054C114.481 34.7949 114.256 35.6451 113.807 36.3561C113.358 37.0634 112.739 37.6094 111.95 37.9942C111.162 38.3754 110.259 38.5659 109.242 38.5659C108.107 38.5659 107.109 38.3332 106.25 37.8678C105.391 37.3987 104.72 36.7336 104.24 35.8723C103.763 35.0075 103.524 33.9813 103.524 32.794C103.524 31.8814 103.666 31.0679 103.95 30.3532C104.238 29.635 104.64 29.0266 105.156 28.5282C105.672 28.0298 106.274 27.6505 106.96 27.3903C107.645 27.1301 108.389 27 109.189 27C109.875 27 110.513 27.0935 111.105 27.2804C111.696 27.4636 112.22 27.7238 112.678 28.0609C113.139 28.3981 113.515 28.7994 113.807 29.2648C114.099 29.7266 114.286 30.236 114.369 30.793H111.767Z" fill="#848DA5"/>
<path d="M117.785 38.412H115.041L119.222 27.1539H122.521L126.696 38.412H123.952L120.919 29.7266H120.824L117.785 38.412ZM117.613 33.9868H124.094V35.8449H117.613V33.9868Z" fill="#848DA5"/>
<path d="M127.82 27.1539H130.978L134.313 34.718H134.455L137.79 27.1539H140.947V38.412H138.464V31.0844H138.363L135.229 38.357H133.538L130.404 31.0569H130.304V38.412H127.82V27.1539Z" fill="#848DA5"/>
<path d="M145.284 27.1539V38.412H142.724V27.1539H145.284Z" fill="#848DA5"/>
<path d="M157.187 27.1539V38.412H154.976L149.707 31.3262H149.618V38.412H147.058V27.1539H149.305L154.532 34.2342H154.639V27.1539H157.187Z" fill="#848DA5"/>
<path d="M167 30.793C166.917 30.5255 166.8 30.2891 166.651 30.0839C166.501 29.875 166.318 29.6991 166.101 29.5562C165.888 29.4096 165.643 29.2978 165.368 29.2208C165.096 29.1439 164.794 29.1054 164.463 29.1054C163.844 29.1054 163.3 29.2483 162.831 29.5342C162.366 29.82 162.003 30.236 161.743 30.782C161.483 31.3244 161.353 31.9877 161.353 32.772C161.353 33.5562 161.481 34.2232 161.737 34.7729C161.993 35.3226 162.356 35.7422 162.825 36.0318C163.294 36.3176 163.848 36.4605 164.486 36.4605C165.066 36.4605 165.561 36.3653 165.971 36.1747C166.385 35.9805 166.7 35.7074 166.917 35.3556C167.138 35.0038 167.248 34.5879 167.248 34.1078L167.768 34.1792H164.646V32.3872H169.714V33.8054C169.714 34.7949 169.489 35.6451 169.04 36.3561C168.59 37.0634 167.971 37.6094 167.183 37.9942C166.394 38.3754 165.492 38.5659 164.475 38.5659C163.339 38.5659 162.342 38.3332 161.483 37.8678C160.623 37.3987 159.953 36.7336 159.472 35.8723C158.995 35.0075 158.757 33.9813 158.757 32.794C158.757 31.8814 158.899 31.0679 159.182 30.3532C159.47 29.635 159.872 29.0266 160.389 28.5282C160.905 28.0298 161.506 27.6505 162.192 27.3903C162.878 27.1301 163.621 27 164.421 27C165.107 27 165.746 27.0935 166.337 27.2804C166.929 27.4636 167.453 27.7238 167.91 28.0609C168.371 28.3981 168.748 28.7994 169.04 29.2648C169.331 29.7266 169.519 30.236 169.601 30.793H167Z" fill="#848DA5"/>
</svg>
