<svg width="181" height="65" viewBox="0 0 181 65" fill="none" xmlns="http://www.w3.org/2000/svg">
<path d="M52.002 20.7609C52.002 19.1857 49.1891 19.8158 48.8741 19.8158C47.929 19.8158 46.9838 20.4459 46.3537 20.4459C45.7237 20.4459 44.7785 20.1308 44.1484 20.1308C46.6688 20.4459 49.7967 19.5008 51.9795 18.2406C52.9246 17.9255 53.8698 18.2406 53.8698 19.5008C53.8698 21.076 53.5547 22.3136 52.2945 23.2588C52.2945 23.5738 52.2945 23.8889 51.9795 24.2039L52.9246 23.5738C52.9246 24.834 52.2945 25.149 51.3494 25.4641C51.3494 25.149 51.3494 24.2039 50.4043 23.5738L52.002 20.7609Z" fill="#848DA5"/>
<path d="M27.5188 23.573C26.8887 23.888 26.5737 24.5181 26.2586 25.1482C25.3135 24.8332 24.6834 24.5181 24.6834 23.258L25.6285 23.888C25.6285 23.573 25.3135 23.258 25.3135 22.9429C24.0533 21.9978 23.7383 20.7376 23.7383 19.1849C23.7383 18.2398 24.6834 17.6097 25.6285 17.9247C28.1489 19.1849 31.2768 20.13 33.7747 19.815C33.1446 20.13 32.5145 20.4451 31.5693 20.13C30.6242 20.13 29.6791 19.4999 28.7565 19.4999C28.1264 19.4999 25.6285 18.8699 25.6285 20.4451L27.5188 23.573Z" fill="#848DA5"/>
<path d="M37.8717 40.518C35.0588 40.833 33.1686 42.4082 32.8535 44.276C33.1686 44.276 33.4836 43.6459 33.7986 43.6459C34.1137 43.3309 34.4287 43.0158 34.7438 43.3309C35.0588 43.3309 34.7438 44.276 34.7438 44.591C36.634 45.8512 38.8168 45.5362 38.8168 44.276C38.8168 45.2211 39.4469 45.2211 40.077 45.2211C41.0221 45.2211 41.9673 44.9061 42.8899 44.276C42.5748 43.3309 42.8899 43.0158 43.835 43.3309C44.1501 43.6459 44.4651 43.6459 44.7801 43.961L45.4102 44.276C44.1501 41.4631 41.6522 40.2029 37.8717 40.518Z" fill="#848DA5"/>
<path d="M34.743 39.5726C36.0032 39.2575 36.9483 38.9425 38.186 38.3124C38.5011 38.3124 38.5011 37.9974 38.5011 37.6823C38.5011 37.3673 38.5011 37.0522 38.5011 36.7372C38.5011 36.4221 38.186 35.7921 37.871 35.7921C36.9258 35.7921 35.9807 35.162 35.3506 34.2168C35.0356 33.9018 35.0356 33.2717 34.7205 32.6416C34.7205 32.0115 34.7205 31.6965 35.0356 31.0664C34.0905 31.0664 34.0905 31.3815 33.7754 32.0115C33.4604 32.9567 34.4055 33.5868 33.1453 33.9018C33.7754 34.2168 34.4055 35.477 35.0356 36.1071C33.7754 36.4221 33.1453 35.162 32.2227 34.8469C32.5377 36.4221 34.113 36.7372 34.743 37.3448L32.2227 36.7147C32.8528 37.9748 34.428 37.3448 35.3506 38.2899C34.4055 38.92 33.4604 38.6049 32.8303 38.2899C32.5152 38.2899 32.5152 38.2899 32.2002 38.6049C32.2002 38.92 32.5152 38.92 32.5152 39.235C32.8303 39.235 33.1453 39.5501 33.7754 39.5501C34.113 39.8876 34.428 39.8876 34.743 39.5726Z" fill="#848DA5"/>
<path d="M41.6498 32.0557C41.6498 32.3707 41.6498 32.6857 40.7047 33.0008C40.0746 33.0008 39.4445 33.3158 39.1295 33.3158C37.2392 33.3158 36.3166 33.3158 36.3166 32.0557C36.0016 32.0557 36.0016 32.3707 35.6865 32.6857C36.0016 33.6309 36.0016 33.6309 36.0016 33.6309C36.3166 33.9459 37.5768 33.9459 37.5768 33.9459C39.152 33.9459 39.7821 33.9459 41.0198 33.9459C41.3348 33.9459 41.6498 33.9459 41.6498 33.6309C41.6498 33.3158 41.6498 33.0008 41.6498 33.0008C41.9649 32.6632 41.6498 32.3707 41.6498 32.0557Z" fill="#848DA5"/>
<path d="M44.7772 28.5908C45.7223 28.2758 45.4072 27.3307 45.4072 27.0156C45.0922 27.0156 44.7772 27.0156 44.4621 27.0156C44.1471 27.3307 43.832 27.6457 43.832 27.9608C43.832 28.5908 44.1471 28.9059 44.7772 28.5908Z" fill="#848DA5"/>
<path d="M45.7237 36.7596L43.2033 37.3897C44.1485 36.4446 45.4086 36.4446 45.7237 34.8918C44.7785 35.5219 44.1485 36.4671 42.9108 36.152L45.4311 34.2618C44.171 33.9467 44.171 33.0016 44.171 32.3715C44.171 32.0565 44.171 32.0565 43.8559 31.7414C43.5409 31.7414 43.2258 31.4264 42.9108 31.1113C42.9108 31.4264 42.9108 31.7414 42.9108 32.0565C42.9108 32.3715 42.9108 32.6865 42.9108 33.0016C42.9108 33.6317 42.9108 33.6317 42.5957 33.9467C41.9657 34.8918 41.0205 35.5219 40.0754 35.837C39.7604 36.152 39.4453 36.4671 39.4453 36.4671C39.4453 36.7821 39.4453 37.4122 39.4453 37.7272C39.4453 38.3573 39.4453 38.3573 39.7604 38.6724C41.0205 38.9874 41.9657 39.6175 42.8883 39.9325C43.2033 39.9325 43.5184 39.9325 43.8334 39.9325C44.4635 39.6175 44.7785 39.6175 45.0936 39.3024C45.0936 39.3024 45.4086 38.9874 45.4086 38.6724C45.0936 38.6724 45.0936 38.6724 44.7785 38.6724C44.1485 38.6724 43.5184 38.6724 43.2033 38.3573C44.1485 37.6822 45.0936 37.9973 45.7237 36.7596Z" fill="#848DA5"/>
<path d="M32.2207 27.3544C32.2207 27.6695 32.2207 28.2996 32.8508 28.6146C33.1658 28.6146 33.7959 28.2996 33.7959 27.6695C33.7959 27.6695 33.4809 27.3544 33.1658 27.3544C32.5357 27.0394 32.2207 27.0394 32.2207 27.3544Z" fill="#848DA5"/>
<path d="M27.5198 23.5733C27.5198 23.5733 24.9995 19.5003 28.78 19.8153L31.9079 20.4454C31.2778 20.4454 30.9628 20.7604 30.3327 20.4454C29.7026 20.4454 29.0725 20.1304 28.1274 20.1304C27.8124 20.1304 27.4973 20.1304 27.4973 20.4454C28.1274 20.7604 29.7026 21.3905 29.7026 21.3905C29.3876 21.3905 28.4424 21.0755 28.1274 21.0755C28.4424 21.7056 27.8124 23.5733 29.3876 26.4087C30.0177 27.6689 30.9628 28.9066 31.9079 29.5366C32.538 30.1667 33.7982 30.4818 34.7208 30.1667C34.7208 29.8517 34.4058 29.8517 34.0907 29.5366C33.7757 29.2216 33.4606 29.2216 32.8305 28.9066C31.2553 28.5915 30.3102 27.0163 29.3876 25.7786C29.3876 25.1485 29.3876 24.8335 29.3876 24.2034H29.7026C29.7026 24.5185 30.0177 24.8335 30.0177 25.1485C30.0177 25.4636 30.6477 25.7786 31.2778 25.7786C32.853 25.7786 34.0907 26.0937 35.0358 27.6689C35.3509 28.299 35.981 29.2441 36.6111 29.5591C36.6111 29.5591 36.6111 28.614 36.296 28.299C36.9261 27.9839 36.6111 27.3538 36.296 27.0388C35.981 26.7238 35.3509 26.0937 34.7208 25.4636C35.3509 25.4636 35.981 24.8335 35.981 24.8335H33.1681C34.1132 24.8335 35.6884 24.2034 35.6884 23.8884C34.4283 22.9432 32.8755 23.5733 31.3003 23.2583C32.2455 22.9432 33.1906 22.6282 34.1132 22.6282C35.0358 22.6282 36.6336 21.6831 36.6336 21.6831H32.8755C34.1357 21.053 35.0808 20.1079 36.6336 20.1079C37.8937 20.1079 39.4464 20.1079 40.7066 20.1079C42.2818 20.1079 43.5195 20.7379 44.7797 21.368H41.3367C41.3367 21.368 43.227 22.3132 43.857 22.3132C44.8022 22.6282 45.7473 22.9432 46.3774 23.2583C45.1172 23.5733 43.5645 23.2583 41.9893 23.8884C42.6194 24.8335 43.8795 24.2034 44.8022 24.8335H41.6742C41.6742 24.8335 42.3043 25.4636 42.9344 25.4636C42.3043 26.0937 41.9893 26.7238 41.3592 27.3538C41.0442 27.6689 41.0442 27.9839 41.3592 28.299C41.3592 28.614 41.0442 29.5591 41.0442 29.5591C41.3592 29.2441 41.6742 28.9291 41.9893 28.9291C42.6194 28.299 42.9344 27.9839 43.2495 27.6689C43.8795 26.0937 45.4548 26.0937 46.6924 26.0937C47.6376 26.0937 47.9526 25.7786 48.2676 25.1485C47.9526 24.5185 48.2676 24.2034 48.2676 24.2034C48.5827 25.1485 48.2676 25.7786 47.9526 26.4087C47.3225 27.9839 45.7473 28.9066 43.8795 29.5366C43.5645 29.5366 43.2495 29.8517 42.9344 30.4818C43.2495 30.4818 43.8795 30.4818 44.1946 30.4818C45.7698 30.1667 47.0075 29.2216 47.9526 27.9839C47.9526 27.9839 48.2676 27.3538 48.2676 27.0388C48.8977 25.7786 49.2128 24.541 49.2128 22.9657C49.2128 22.3357 49.2128 22.0206 49.2128 21.3905C49.2128 21.7056 48.5827 21.7056 48.2676 22.0206C48.8977 21.3905 49.5278 20.7604 50.4729 20.7604C50.4729 20.7604 49.5278 20.4454 48.8977 20.4454C47.9526 20.4454 47.0075 20.7604 46.3774 20.7604C46.0623 20.7604 46.0623 20.7604 45.7473 20.7604L49.1903 19.8153C52.9258 19.5003 50.4279 23.5733 50.4279 23.5733C52.9483 21.0755 53.8709 18.2401 49.4828 19.1852C46.9625 19.8153 45.4098 20.1304 44.7797 20.1304C44.7797 20.1304 40.0765 18.8702 34.1132 20.1304H33.4831C32.853 20.1304 31.2778 20.1304 28.4649 19.5003C24.0768 18.2401 25.022 21.0755 27.5198 23.5733Z" fill="#848DA5"/>
<path d="M53.555 33.2942C53.555 33.2942 53.2399 32.9791 53.555 33.2942C53.2399 33.2942 53.2399 33.2942 53.2399 33.2942C53.2399 33.9243 53.2399 34.5544 53.2399 35.1844C52.9249 37.6823 52.2948 39.8876 50.4271 41.7778C50.112 42.0929 49.797 42.4079 49.4819 42.4079H49.1669C49.1669 42.4079 49.1669 42.4079 49.1669 42.0929C49.797 41.1477 50.112 39.8876 50.7421 38.965C51.3722 38.0198 51.6872 36.7597 52.0023 35.522V35.2069C51.6872 35.2069 51.3722 35.522 51.0571 35.522H50.7421C50.7421 34.2618 52.0023 31.1339 52.0023 31.1339L51.3722 32.079C50.7421 33.0241 50.4271 33.3392 49.797 34.5769C49.797 34.8919 49.4819 35.2069 49.4819 35.522V35.837C50.4271 36.4671 49.4819 38.0423 49.1669 38.3349C48.8518 38.965 48.5368 39.595 48.2218 40.5402C48.2218 40.8552 48.2218 40.8552 47.9067 41.1703C47.9067 41.1703 47.9067 41.4853 47.5917 41.1703C47.5917 41.1703 47.5917 41.1703 47.5917 40.8552C47.5917 39.9101 47.9067 38.3574 48.2218 38.0423C48.8518 38.0423 48.5368 36.1521 47.9067 35.837C47.5917 35.522 47.2766 35.522 47.5917 34.8919V34.5769L45.0713 33.3167V33.0016C46.0165 33.0016 46.6465 33.3167 47.5917 33.6317C47.9067 33.9468 48.8518 33.6317 49.1669 33.3167V33.0016V32.6866V32.3716C47.9067 32.0565 47.5917 32.0565 47.5917 31.7415C47.5917 31.7415 47.5917 31.4264 47.9067 31.4264C48.2218 31.4264 48.8518 31.4264 49.1669 31.4264C49.4819 31.1114 49.4819 30.7963 49.4819 30.4813V30.1663C48.8518 30.1663 48.8518 30.1663 48.5368 30.1663V29.8512C48.5368 29.8512 48.5368 29.8512 48.8518 29.5362C49.797 28.9061 51.0571 25.1481 51.0571 23.8879V23.5729C51.0571 23.5729 51.0571 23.2578 50.7421 23.2578C50.7421 23.2578 50.7421 23.2578 50.4271 23.2578C49.797 25.1481 48.8518 29.5362 44.4637 30.1663C44.1487 30.1663 43.8337 30.1663 43.2036 30.1663H42.8885V31.4264C42.8885 31.7415 42.8885 32.0565 42.8885 32.0565C42.8885 32.6866 43.2036 33.0016 43.5186 33.3167C47.5917 34.8919 46.9616 38.3349 46.6465 38.965C44.1262 40.5402 45.3864 43.6681 45.7014 44.6132V44.9283C45.3864 44.9283 45.0713 44.9283 44.7563 44.9283C44.1262 44.6132 43.1811 44.9283 42.551 45.5584L41.9209 45.8734C42.551 44.9283 43.8112 45.2433 44.7338 45.5584C45.3639 45.5584 45.6789 45.8734 46.309 46.1884H46.624C46.624 45.8734 46.624 45.2433 46.624 44.9283C46.624 44.6132 46.624 43.9831 47.2541 43.9831C47.8842 43.9831 47.8842 44.6132 47.8842 44.9283C47.8842 45.5584 47.8842 46.1884 47.8842 46.8185C47.8842 46.8185 47.8842 47.1336 48.1993 47.1336C48.1993 47.1336 48.1993 47.1336 48.5143 47.1336C48.5143 46.5035 48.8293 45.5584 49.1444 44.9283C49.1444 44.9283 49.1444 44.9283 49.1444 44.6132H49.797C49.797 44.6132 49.797 44.9283 50.112 44.6132C51.3722 43.038 52.6324 41.1703 53.555 39.595C53.555 39.595 53.87 39.28 53.87 38.965C54.1851 37.0747 53.87 36.4671 53.87 34.8919C53.87 34.5543 53.555 33.9243 53.555 33.2942Z" fill="#848DA5"/>
<path d="M24.3902 33.2942C24.3902 33.2942 24.3902 32.9791 24.3902 33.2942C24.7052 33.2942 24.7052 33.2942 24.7052 33.2942C24.7052 33.9243 24.7052 34.5544 24.7052 35.1844C25.0203 37.6823 25.6504 39.8876 27.2256 41.7778C27.5406 42.0929 27.8557 42.0929 28.1707 42.4079H28.4857C28.4857 42.4079 28.4857 42.4079 28.4857 42.0929C27.8557 41.1477 27.5406 40.2026 26.9105 38.965C26.5955 38.0198 26.2804 36.7597 25.9654 35.522V35.2069C26.5955 35.522 26.9105 35.522 26.9105 35.522H27.2256C26.9105 34.2618 25.9654 31.1339 25.9654 31.1339L26.5955 32.079C27.2256 33.0241 27.5406 33.3392 27.8557 34.5769C28.1707 34.8919 28.1707 35.522 28.1707 35.522V35.837C27.2256 36.4671 28.1707 38.0423 28.4857 38.3349C29.1158 38.965 29.4309 39.595 29.4309 40.5402C29.4309 40.8552 29.4309 40.8552 29.7459 41.1703C29.7459 41.1703 29.7459 41.4853 30.061 41.1703C30.061 41.1703 30.061 41.1703 30.061 40.8552C30.061 39.9101 30.061 38.6499 29.7459 38.3574C29.1158 38.0423 29.1158 36.1521 29.7459 35.8595C30.376 35.567 30.376 35.5445 30.061 34.9144V34.5994L32.5813 33.3392V33.0241C31.6362 32.7091 31.0061 33.0241 30.376 33.6542C29.7459 33.9693 29.1158 33.6542 28.8008 33.3392V33.0241V32.7091V32.3941C30.061 32.079 30.061 32.079 30.061 31.764C30.061 31.764 30.061 31.4489 29.7459 31.4489C29.4309 31.4489 28.8008 31.4489 28.4857 31.4489C28.4857 31.1339 28.4857 30.8188 28.1707 30.5038V30.1888C28.4857 30.5038 28.8008 30.5038 28.8008 30.1888V29.8737C28.8008 29.8737 28.8008 29.8737 28.4857 29.5587C28.1707 28.9286 26.9105 25.1706 26.9105 23.9104V23.5729C26.9105 23.2578 27.2256 23.2578 27.2256 23.2578C27.2256 23.2578 27.5406 23.2578 27.5406 23.5729C28.1707 25.4631 28.8008 29.5362 33.5039 30.1663C33.819 30.1663 34.134 30.1663 34.7641 30.1663H35.0791L35.3942 31.4264C35.3942 31.7415 35.3942 32.0565 35.3942 32.0565C35.3942 32.6866 35.0791 33.0016 34.7641 33.3167C30.061 34.8919 31.3211 38.3349 31.6362 38.965C33.8415 40.2251 32.8963 43.6681 32.5813 44.6132V44.9283C32.8963 44.9283 33.2114 44.9283 33.2114 44.9283C34.1565 44.6132 35.1016 44.9283 35.7317 45.5584C34.4716 44.9283 34.1565 45.2433 33.2114 45.5584C32.5813 45.5584 31.9512 45.8734 31.6362 46.1884H31.3211C31.3211 45.8734 31.3211 45.2433 31.3211 44.9283C31.3211 44.6132 31.3211 43.9831 30.691 43.9831C30.061 43.9831 30.061 44.6132 30.061 44.9283C30.061 45.5584 30.061 46.1884 30.061 46.8185C30.061 46.8185 30.061 47.1336 29.7459 47.1336C29.7459 47.1336 29.7459 47.1336 29.4309 47.1336C29.4309 46.5035 28.8008 45.5584 28.4857 44.9283C28.4857 44.9283 28.4857 44.9283 28.4857 44.6132H27.8557C27.8557 44.6132 27.8557 44.9283 27.5406 44.6132C26.2804 43.038 25.3353 41.1703 24.0976 39.595C24.0976 39.595 23.7826 39.28 23.7826 38.965C23.4676 37.0747 23.7826 36.4671 23.7826 34.8919C24.0751 34.5543 24.0751 33.9243 24.3902 33.2942Z" fill="#848DA5"/>
<path d="M69.5526 39.887H64.8494L61.4064 34.2387V39.887H57.6484V25.1475H63.2967C64.8719 25.1475 66.1096 25.4625 67.0547 26.4076C67.9998 27.0377 68.3149 28.2979 68.3149 29.8506C68.3149 30.7957 67.9998 31.7409 67.3698 32.6635C66.7397 33.2936 65.7945 33.9237 64.8494 34.2387L69.5526 39.887ZM61.0914 31.7409H61.4064C61.7215 31.7409 62.0365 31.7409 62.3516 31.7409C62.6666 31.7409 62.9817 31.7409 63.2967 31.4258C63.6117 31.4258 63.6117 31.1108 63.9268 30.7957C64.2418 30.1656 64.2418 29.5356 63.9268 28.9055C63.9268 28.5904 63.6117 28.5904 63.2967 28.2754C62.9817 28.2754 62.6666 27.9603 62.3516 27.9603C62.0365 27.9603 61.7215 27.9603 61.4064 27.9603H61.0914V31.7409Z" fill="#848DA5"/>
<path d="M74.2576 28.2754V30.7957H78.6457V33.9237H74.2576V36.759H78.6457V39.887H70.1846V25.1475H78.6457V28.2754H74.2576Z" fill="#848DA5"/>
<path d="M81.1631 25.1475H86.4963C87.4414 25.1475 88.3866 25.4625 89.3092 25.7775C90.2318 26.0926 90.8844 26.7227 91.8295 27.3528C92.4596 27.9828 93.0897 28.928 93.4048 29.8506C93.7198 30.7957 94.0348 31.7409 94.0348 32.6635C94.0348 33.5861 93.7198 34.5537 93.4048 35.4764C93.0897 36.4215 92.4596 37.0516 91.8295 37.6817C91.1995 38.3118 90.2543 38.9418 89.3092 39.2569C88.6791 39.5719 87.734 39.887 86.7889 39.887H81.4556V25.1475H81.1631ZM84.9211 36.759H85.8662C86.4963 36.759 87.1264 36.759 87.4414 36.444C88.0715 36.444 88.3866 36.129 88.7016 35.8139C89.0167 35.4989 89.3317 34.8688 89.6467 34.5537C89.9618 33.9237 89.9618 33.2936 89.9618 32.6635C89.9618 31.4033 89.6467 30.4582 88.7016 29.5356C87.7565 28.9055 86.8114 28.2754 85.5737 28.5904H84.6286L84.9211 36.759Z" fill="#848DA5"/>
<path d="M108.462 39.887H104.682V28.2754H101.554V25.1475H111.59V28.2754H108.462V39.887Z" fill="#848DA5"/>
<path d="M116.923 39.887H113.165V25.1475H116.923V39.887Z" fill="#848DA5"/>
<path d="M133.866 31.741C133.866 32.6861 133.866 33.9463 133.551 34.869C133.551 35.8141 132.921 36.7592 132.291 37.3668C131.66 38.3119 130.715 38.942 129.77 39.5721C128.825 40.2022 127.565 40.2022 126.327 40.2022C125.382 40.2022 124.122 39.8871 123.199 39.5721C122.254 39.257 121.309 38.627 120.679 37.9969C120.049 37.3668 119.419 36.4217 119.104 35.499C118.789 34.5539 118.474 33.2937 118.474 32.3711C118.474 31.1109 118.789 30.1658 119.104 29.2432C119.419 28.2981 120.049 27.3529 120.679 26.7453C121.309 26.1153 122.254 25.4852 123.199 25.1701C124.144 24.8551 125.405 24.54 126.327 24.54C127.587 24.54 129.14 24.8551 130.4 25.4852C131.66 26.1153 132.606 27.3754 132.921 28.6131L129.163 30.1883C128.848 29.5582 128.533 28.9281 127.902 28.6131C127.272 28.298 126.642 27.983 126.012 27.983C125.382 27.983 124.752 27.983 124.437 28.2981C123.807 28.6131 123.492 28.9281 123.177 29.2432C122.862 29.5582 122.547 30.1883 122.547 30.8184C122.232 32.0786 122.232 33.0237 122.547 34.2614C122.862 34.8915 122.862 35.2065 123.177 35.8366C123.807 36.1516 124.122 36.4667 124.752 36.7817C125.382 37.0968 125.697 37.0968 126.327 37.0968C126.957 37.0968 127.902 36.7817 128.533 36.4667C129.163 36.1516 129.478 35.2065 129.478 34.5764H126.35V31.4485L133.866 31.741Z" fill="#848DA5"/>
<path d="M139.515 28.2754V30.7957H143.904V33.9237H139.515V36.759H143.904V39.887H135.42V25.1475H143.904V28.2754H139.515Z" fill="#848DA5"/>
<path d="M158.644 39.887H153.941L150.498 34.2387V39.887H146.74V25.1475H152.389C153.964 25.1475 155.201 25.4625 156.147 26.4076C157.092 27.3528 157.407 28.2979 157.407 29.8506C157.407 30.7957 157.092 31.7409 156.462 32.6635C155.831 33.2936 154.886 33.9237 153.941 34.2387L158.644 39.887ZM150.183 31.7409H150.498C150.813 31.7409 151.128 31.7409 151.443 31.7409C151.758 31.7409 152.073 31.7409 152.389 31.4258C152.704 31.4258 152.704 31.1108 153.019 30.7957C153.334 30.1656 153.334 29.5356 153.019 28.9055C153.019 28.5904 152.704 28.5904 152.389 28.2754C152.073 28.2754 151.758 27.9603 151.443 27.9603C151.128 27.9603 150.813 27.9603 150.498 27.9603H150.183V31.7409Z" fill="#848DA5"/>
</svg>
