<svg width="181" height="65" viewBox="0 0 181 65" fill="none" xmlns="http://www.w3.org/2000/svg">
<path fill-rule="evenodd" clip-rule="evenodd" d="M13.2333 19.1505H25.4859C26.1789 19.1467 26.869 19.2407 27.5357 19.4297L27.5464 19.4329C32.2063 20.7881 35.5426 23.7205 37.6797 28.0677C37.7899 28.2915 38.0295 28.5853 37.7824 28.8004C37.5352 29.0156 37.2958 28.7214 37.0765 28.5947C35.7174 27.8096 34.2876 27.2285 32.7101 27.1024C28.7329 26.7844 24.7483 27.0352 20.7678 26.9592C20.2904 26.9502 20.1251 27.1843 20.0948 27.6496C20.0433 28.4422 20.5108 28.5086 21.1121 28.5086C25.176 28.4984 29.24 28.4968 33.3039 28.5036C33.8113 28.4934 34.3185 28.5316 34.8187 28.6177C36.6315 28.9457 37.9412 30.5366 37.9149 32.3787C37.9176 36.5447 37.9176 40.7112 37.9149 44.8783C37.9149 45.9829 37.9061 45.99 36.7853 45.9908C33.149 45.9931 29.5127 45.9931 25.8764 45.9908C20.3542 45.9881 14.5312 42.0552 12.4467 36.9192C12.3595 36.7045 12.1399 36.4453 12.3394 36.2507C12.5915 36.0049 12.8294 36.3008 13.0394 36.427C14.6047 37.3687 16.2775 37.9848 18.1138 38.0005C21.8289 38.0322 25.5461 38.0219 29.2624 38.0303C29.7501 38.0316 30.0862 37.9107 30.0946 37.3144C30.1036 36.6744 29.7407 36.5681 29.2227 36.5479C25.8549 36.4159 22.486 36.5082 19.1179 36.4945C17.9697 36.4897 16.8226 36.6018 15.673 36.4775C13.7833 36.2739 12.1809 34.6756 12.1663 32.7762C12.1341 28.587 12.1663 24.3971 12.1777 20.2075C12.1784 19.6245 12.6504 19.1519 13.2333 19.1505Z" fill="#848DA5"/>
<path fill-rule="evenodd" clip-rule="evenodd" d="M52.1721 25.9609C50.6053 25.9609 49.3021 26.3128 48.3201 27.0757C47.3211 27.8378 46.8235 28.8983 46.8235 30.1987C46.8235 30.5393 46.8622 30.8649 46.9433 31.173L46.9452 31.1797C47.018 31.442 47.0992 31.6863 47.1895 31.9119L47.1974 31.9318L47.207 31.9509C47.329 32.195 47.497 32.4266 47.7015 32.6469L47.708 32.6539L47.7147 32.6606C47.8973 32.8431 48.0617 33.0006 48.2075 33.1318L48.2165 33.1399L48.2259 33.1475C48.4205 33.3068 48.6663 33.451 48.9485 33.5847L48.9576 33.5888C49.2338 33.713 49.4582 33.8113 49.6292 33.8825C49.8175 33.961 50.0767 34.0491 50.3972 34.1467L50.4096 34.1504L50.4222 34.1536C50.7509 34.2358 50.9864 34.2964 51.1316 34.336C51.2907 34.3793 51.5443 34.4426 51.8875 34.525L51.8989 34.5278L51.9104 34.53C52.264 34.598 52.4814 34.643 52.5774 34.6667C52.7419 34.7113 53.0112 34.7748 53.3771 34.8561C53.7472 34.9384 54.0197 34.9998 54.1959 35.0404L54.2038 35.0421C54.3683 35.0774 54.6081 35.1459 54.9306 35.2534C55.2485 35.3594 55.4702 35.4513 55.6106 35.5269C55.7568 35.6056 55.9389 35.7256 56.1591 35.894L56.1669 35.9L56.175 35.9057C56.357 36.0341 56.4676 36.1622 56.532 36.283L56.5419 36.3014L56.5532 36.319C56.6425 36.4579 56.7274 36.6484 56.7999 36.9022L56.804 36.9167L56.809 36.9308C56.8835 37.1438 56.9241 37.3872 56.9241 37.6661C56.9241 38.6814 56.5525 39.4359 55.8139 39.9902C55.0701 40.5449 53.9867 40.8547 52.5013 40.8547C50.9221 40.8547 49.7883 40.4703 49.0223 39.7759C48.2629 39.0741 47.8521 38.0544 47.8521 36.6375V36.0615H46.4121V36.8432C46.4121 38.5784 46.9696 39.9639 48.1479 40.9066L48.1539 40.9112C49.3075 41.8067 50.7781 42.2329 52.5218 42.2329C54.2493 42.2329 55.675 41.8623 56.7399 41.0597L56.7437 41.0568C57.8249 40.2263 58.3641 39.0769 58.3641 37.6661C58.3641 36.8513 58.1747 36.1252 57.769 35.5146C57.3639 34.9049 56.768 34.4478 56.0167 34.1286C55.5254 33.9142 54.5343 33.6453 53.0983 33.32C52.9211 33.2726 52.6321 33.2158 52.2492 33.1496C51.8792 33.0704 51.5904 33.0099 51.3841 32.9685C51.1888 32.916 50.9198 32.8373 50.5748 32.7311C50.2364 32.627 49.9845 32.5341 49.8098 32.4537C49.6281 32.356 49.4156 32.2249 49.1711 32.0576C48.9482 31.9051 48.8001 31.762 48.7072 31.6341C48.5991 31.4705 48.4951 31.2654 48.3984 31.0134C48.3241 30.7866 48.2841 30.5302 48.2841 30.2398C48.2841 29.3305 48.6105 28.6658 49.2521 28.1818C49.9143 27.6822 50.8742 27.4009 52.1927 27.4009C53.7296 27.4009 54.8044 27.7241 55.4992 28.2887C56.178 28.8401 56.5717 29.6859 56.6159 30.9165L56.6337 31.4124H58.0953L58.0758 30.8792C58.0167 29.2684 57.4537 27.9947 56.3266 27.1534C55.24 26.3423 53.8396 25.9609 52.1721 25.9609ZM78.3685 26.2695H76.908V29.3964H78.3685V26.2695ZM171.52 26.2695H170.08V41.9449H171.52V26.2695ZM64.1514 45.6067V40.7647C64.3259 40.9702 64.5185 41.1602 64.7296 41.334L64.7381 41.3408C65.5575 41.9868 66.567 42.2947 67.7309 42.2947C69.2602 42.2947 70.5202 41.7256 71.4603 40.5852L71.4624 40.5826C72.3914 39.4404 72.8326 37.9652 72.8326 36.2055C72.8326 34.4094 72.3936 32.9178 71.4616 31.7863C70.5346 30.644 69.2802 30.0752 67.7514 30.0752C66.6344 30.0752 65.6616 30.3734 64.8673 30.9978C64.5965 31.2107 64.3513 31.4576 64.1309 31.7366V30.3838H62.7114V45.6067H64.1514ZM64.1309 36.2672C64.1309 34.6461 64.4742 33.4718 65.0911 32.6759C65.7074 31.8979 66.5709 31.4947 67.7514 31.4947C68.8986 31.4947 69.7591 31.9005 70.3933 32.699L70.3956 32.702C71.0393 33.5006 71.3926 34.6408 71.3926 36.1849C71.3926 37.7102 71.0347 38.86 70.3744 39.6893C69.7236 40.4931 68.8665 40.8958 67.7514 40.8958C66.5059 40.8958 65.6424 40.4624 65.0685 39.637C64.4523 38.7366 64.1309 37.6226 64.1309 36.2672ZM101.2 40.8341C100.023 40.8341 99.1158 40.4255 98.4263 39.6188C97.7419 38.7886 97.3741 37.6548 97.3741 36.1644C97.3741 34.72 97.7462 33.6061 98.4453 32.7734C99.1515 31.9485 100.061 31.5358 101.221 31.5358C102.378 31.5358 103.262 31.953 103.926 32.7828L103.931 32.789C104.616 33.6188 104.986 34.76 104.986 36.2672C104.986 37.7304 104.618 38.8349 103.936 39.6368C103.26 40.4308 102.366 40.8341 101.2 40.8341ZM101.242 30.1164C99.6646 30.1164 98.3592 30.6797 97.376 31.8165C96.399 32.9462 95.9341 34.4198 95.9341 36.1849C95.9341 37.9587 96.3825 39.4374 97.3296 40.5678L97.3345 40.5735C98.3056 41.6987 99.6053 42.2535 101.18 42.2535C102.763 42.2535 104.064 41.709 105.024 40.5952C105.99 39.4907 106.446 38.0289 106.446 36.2672C106.446 34.4689 105.999 32.9759 105.051 31.8442C104.096 30.6895 102.808 30.1164 101.242 30.1164ZM118.986 30.8319C118.616 31.1014 118.302 31.4407 118.041 31.8423C117.828 31.483 117.558 31.1704 117.231 30.9094C116.586 30.3819 115.779 30.1369 114.851 30.1369C113.881 30.1369 113.035 30.3886 112.348 30.9248C112.183 31.0537 112.03 31.1971 111.888 31.3541V30.3838H110.448V41.9449H111.888V35.2798C111.888 34.0891 112.182 33.1937 112.718 32.5411L112.721 32.5376C113.253 31.8783 113.928 31.5564 114.789 31.5564C115.689 31.5564 116.248 31.8174 116.587 32.2456C116.961 32.7196 117.175 33.3843 117.175 34.2924V41.9449H118.615V34.5598C118.615 33.6053 118.879 32.8887 119.363 32.3581C119.857 31.8318 120.509 31.5564 121.372 31.5564C122.25 31.5564 122.813 31.8009 123.165 32.2036L123.17 32.209C123.557 32.6388 123.779 33.251 123.779 34.1072V41.9449H125.239V34.2512C125.239 33.0451 124.944 32.0286 124.294 31.2642C123.618 30.47 122.615 30.1164 121.392 30.1164C120.469 30.1164 119.656 30.3448 118.986 30.8319ZM163.799 34.7902C163.76 34.8162 163.709 34.8434 163.643 34.8699C163.563 34.8883 163.441 34.9096 163.271 34.9325C163.083 34.946 162.908 34.9595 162.746 34.973C162.587 34.9863 162.312 35.0064 161.918 35.0336C161.534 35.0474 161.192 35.0682 160.895 35.0963C159.467 35.1961 158.314 35.5236 157.508 36.1421C156.673 36.7822 156.268 37.6905 156.268 38.7975C156.268 39.8445 156.626 40.7175 157.376 41.3504L157.381 41.3548C158.12 41.9627 159.116 42.2329 160.3 42.2329C161.411 42.2329 162.384 41.9709 163.192 41.4179C163.508 41.2022 163.791 40.9463 164.045 40.6525L164.069 40.8245L164.072 40.8462L164.077 40.8674C164.125 41.076 164.203 41.2984 164.348 41.4719L164.378 41.5078L164.414 41.5377C164.536 41.64 164.683 41.729 164.842 41.8084L164.869 41.8216L164.896 41.8317C165.12 41.913 165.369 41.9449 165.628 41.9449C165.901 41.9449 166.166 41.9127 166.418 41.8453L166.8 41.7435V40.2786L166.132 40.4872C165.949 40.5445 165.803 40.5667 165.689 40.5667C165.576 40.5667 165.517 40.5502 165.492 40.5398L165.49 40.539C165.458 40.4581 165.422 40.2905 165.422 39.9907V33.6341C165.422 32.4903 165.049 31.5595 164.226 30.9575C163.454 30.3802 162.466 30.1164 161.308 30.1164C160.053 30.1164 158.999 30.4426 158.207 31.1531C157.426 31.8537 157.011 32.8554 156.907 34.0846L156.86 34.6421H158.28L158.323 34.175C158.411 33.2157 158.712 32.5723 159.163 32.164C159.615 31.7551 160.292 31.5152 161.266 31.5152C162.284 31.5152 162.951 31.7435 163.362 32.1098C163.761 32.4661 164.002 33.03 164.002 33.9015C164.002 34.2218 163.969 34.4466 163.92 34.5949C163.872 34.741 163.823 34.775 163.814 34.7806L163.799 34.7902ZM160.32 40.8547C159.405 40.8547 158.767 40.6514 158.34 40.3115C157.927 39.9692 157.708 39.4995 157.708 38.8387C157.708 38.3636 157.793 37.9971 157.938 37.7177C158.081 37.4416 158.285 37.2372 158.561 37.0941C158.896 36.9206 159.224 36.8001 159.547 36.7284L159.565 36.7239C159.898 36.6376 160.312 36.5726 160.813 36.5331L160.824 36.5321C161.081 36.5064 161.431 36.4865 161.879 36.4729L161.894 36.472C162.347 36.4446 162.671 36.4238 162.866 36.4099L162.882 36.4088L162.898 36.4067C163.109 36.3786 163.346 36.3437 163.609 36.3021L163.622 36.3L163.635 36.2973C163.764 36.2703 163.887 36.239 164.002 36.2022V37.2341C164.002 38.2591 163.604 39.1641 162.762 39.9686L162.761 39.9697C162.16 40.5482 161.363 40.8547 160.32 40.8547ZM84.3113 30.3838V31.6057C84.4957 31.4036 84.7001 31.2166 84.9246 31.045L84.9284 31.0421C85.7349 30.4372 86.6672 30.1369 87.7056 30.1369C89.0379 30.1369 90.1359 30.5171 90.9171 31.3459C91.686 32.1479 92.0461 33.2117 92.0461 34.4775V41.9449H90.5856V34.6215C90.5856 33.6414 90.3358 32.9035 89.8819 32.3587L89.8778 32.3538C89.4726 31.855 88.8027 31.5564 87.7467 31.5564C86.5455 31.5564 85.7317 31.9562 85.2033 32.6981L85.2012 32.7011C84.6276 33.4943 84.3318 34.4485 84.3318 35.5884V41.9449H82.8713V30.3838H84.3113ZM148.121 30.1369C149.454 30.1369 150.552 30.5173 151.333 31.3465C152.102 32.1484 152.462 33.212 152.462 34.4775V41.9449H151.001V34.6215C151.001 33.6414 150.752 32.9035 150.298 32.3587L150.294 32.3538C149.888 31.855 149.218 31.5564 148.162 31.5564C146.961 31.5564 146.147 31.9562 145.619 32.6981L145.617 32.7011C145.043 33.4943 144.748 34.4485 144.748 35.5884V41.9449H143.287V30.3838H144.727V31.6057C144.911 31.4036 145.116 31.2166 145.34 31.045L145.344 31.0421C146.151 30.4372 147.083 30.1369 148.121 30.1369ZM136.995 32.7945C137.539 33.5052 137.856 34.3353 137.938 35.3004H130.654C130.77 34.3209 131.125 33.4902 131.709 32.7913L131.711 32.7884C132.376 31.9819 133.248 31.5769 134.38 31.5769C135.555 31.5769 136.4 31.9897 136.99 32.7878L136.995 32.7945ZM131.591 39.5921C131.032 38.7958 130.707 37.8443 130.632 36.7198H139.399V35.7941C139.399 34.3169 138.968 33.0113 138.099 31.9007C137.209 30.7314 135.946 30.1575 134.38 30.1575C132.822 30.1575 131.536 30.7407 130.57 31.9057C129.611 33.0478 129.154 34.5249 129.154 36.2878C129.154 38.0362 129.604 39.4951 130.552 40.6116L130.555 40.6147C131.524 41.7375 132.808 42.2947 134.359 42.2947C135.692 42.2947 136.826 41.8862 137.716 41.0429L137.72 41.0396C138.592 40.1977 139.112 39.1217 139.291 37.84L139.373 37.2547H137.889L137.839 37.7129C137.742 38.5946 137.378 39.3423 136.735 39.9733C136.112 40.5843 135.333 40.8958 134.359 40.8958C133.087 40.8958 132.194 40.4493 131.591 39.5921ZM78.3685 30.3838H76.908V41.9449H78.3685V30.3838Z" fill="#848DA5"/>
</svg>
