<svg width="180" height="65" viewBox="0 0 180 65" fill="none" xmlns="http://www.w3.org/2000/svg">
<path d="M22.3745 25.2234L12.1996 25.5426C12.0208 25.549 11.8549 25.6256 11.74 25.7596C11.6187 25.8937 11.5612 26.066 11.574 26.2384L11.7591 29.0087C11.7847 29.3534 12.0719 29.6215 12.4166 29.6151L15.1806 29.5832L15.8061 42.5923C15.8125 42.7646 15.8955 42.9306 16.0231 43.0455C16.1572 43.1604 16.3295 43.2242 16.5019 43.2115L19.6233 43.0008C19.9744 42.9753 20.2425 42.6817 20.2297 42.3306L19.8659 29.513L22.6043 29.4811C22.783 29.4811 22.949 29.4045 23.0703 29.2704C23.1916 29.1364 23.2554 28.964 23.2426 28.7853L23.0447 25.8298C23.0256 25.4851 22.7256 25.217 22.3745 25.2234ZM34.2218 26.0724L31.1451 25.9064C30.7876 25.9001 30.5068 26.1745 30.4876 26.5256L30.443 33.311L29.1025 33.5983L28.7642 25.9001C28.7514 25.5554 28.4641 25.2809 28.1194 25.2809L25.0874 25.3575C24.9087 25.3575 24.7427 25.4277 24.6214 25.549C24.4937 25.6766 24.4299 25.8426 24.4299 26.0213L24.9853 43.1349C24.9916 43.486 25.2789 43.7732 25.63 43.7796L28.662 43.703C28.8408 43.703 29.0067 43.6392 29.128 43.5115C29.2493 43.3902 29.3195 43.2179 29.3195 43.0455L28.9876 37.3133L30.1749 37.3963L30.3855 42.5285C30.3791 42.7072 30.443 42.8795 30.5642 43.0072C30.6855 43.1349 30.8515 43.2115 31.0302 43.2115L34.1963 43.4285C34.2091 43.4285 34.2218 43.4285 34.2346 43.4285C34.5729 43.4157 34.841 43.1413 34.8538 42.7966L34.8666 26.749C34.8729 26.5703 34.8091 26.4043 34.6878 26.2767C34.5665 26.149 34.4006 26.0724 34.2218 26.0724ZM45.6287 24.6362L42.8265 24.8468C42.4882 24.8723 42.2265 25.1532 42.2265 25.4915C42.2265 25.4915 42.252 36.2026 42.2137 37.6006C42.1882 38.4304 42.3031 39.8283 41.3903 39.8666C40.7647 39.8922 40.5477 38.9794 40.5349 37.6836C40.5221 36.2282 40.6434 26.2639 40.6434 26.1618C40.6498 25.8235 40.3945 25.5426 40.0625 25.5043L36.8837 25.166C36.6986 25.1468 36.5134 25.2043 36.3794 25.3319C36.239 25.4596 36.1624 25.6383 36.1687 25.8235C36.1687 25.8235 36.29 38.373 36.2964 38.8134C36.3347 40.4411 37.5858 43.3583 41.1158 43.2625C45.0734 43.154 45.7883 40.7986 46.0309 38.0474C46.133 36.9048 46.3181 26.4426 46.3309 25.2809C46.3309 25.0958 46.2543 24.9234 46.1266 24.8021C45.999 24.6808 45.8075 24.617 45.6287 24.6362ZM57.9293 25.3192L55.0249 25.4596C54.8526 25.466 54.6866 25.549 54.5717 25.6766C54.4568 25.8107 54.3993 25.983 54.4057 26.1554L54.8845 34.1919L51.878 25.8873C51.7758 25.6064 51.495 25.4341 51.2013 25.466L48.2906 25.7852C47.9586 25.8235 47.7033 26.1043 47.7097 26.4426L48.1884 42.2859C48.1884 42.6242 48.4565 42.9115 48.7948 42.9306L51.712 43.1476C51.8971 43.1604 52.0822 43.0966 52.2163 42.9625C52.3503 42.8349 52.4205 42.6497 52.4142 42.4646L51.9609 35.5324L54.4823 42.7327C54.5717 42.9753 54.7951 43.1413 55.0568 43.1604H58.1272C58.1527 43.1604 58.1719 43.1604 58.1974 43.1604C58.3506 43.154 58.5038 43.0902 58.6187 42.9817C58.7464 42.854 58.823 42.6817 58.823 42.5029L58.6378 25.9703C58.6378 25.7915 58.5612 25.6256 58.4336 25.5043C58.2804 25.3702 58.108 25.3064 57.9293 25.3192ZM61.8231 24.9809C61.6188 24.9809 61.4146 24.9809 61.2039 24.9872C60.8592 24.9936 60.5784 25.2745 60.572 25.6192L60.0485 42.0816C60.0358 42.4327 60.3039 42.7263 60.6486 42.7519C60.6613 42.7519 61.0316 42.7838 61.6124 42.7838C63.6551 42.7838 68.5383 42.4136 69.6617 38.9794C70.6001 36.126 70.4469 32.2259 70.2107 30.3683C69.7447 26.7426 66.9999 24.9809 61.8231 24.9809ZM66.1701 35.826C65.8254 38.6091 64.9509 38.7815 63.9934 39.1134L64.4402 28.7725C64.7722 28.8619 65.1935 28.8491 65.7296 29.564C66.5212 30.6109 66.5084 33.1068 66.1701 35.826ZM79.7345 39.8539L75.9173 40.1539L75.7386 36.592L78.2089 36.4516C78.5281 36.4324 78.7834 36.1835 78.8154 35.8707L79.0452 33.6813C79.0643 33.4898 79.0005 33.2983 78.8728 33.1642C78.7388 33.0238 78.5536 32.9536 78.3621 32.9599L75.6812 33.1004V29.2257H79.6388H79.6452C80.009 29.2321 80.2963 28.9321 80.2963 28.5746C80.2963 28.5236 80.2899 28.4789 80.2835 28.4278L80.0601 26.1043C80.0282 25.7596 79.7409 25.5107 79.3898 25.5171L72.1385 25.6958C71.781 25.7086 71.5001 26.0022 71.5065 26.3533L71.7363 42.637C71.7427 42.9944 72.0299 43.2817 72.3874 43.2817H79.7218C80.0729 43.2817 80.3665 43.0008 80.3729 42.6497L80.4303 40.5241C80.4367 40.339 80.3601 40.1603 80.2261 40.0326C80.1048 39.9049 79.9197 39.8411 79.7345 39.8539ZM91.5947 30.3045C91.4351 28.0193 90.6435 24.9872 85.671 24.9872C84.605 24.9872 83.3539 25.1277 81.9495 25.4022C81.6431 25.4596 81.4197 25.7341 81.4261 26.0533L81.6559 41.9859C81.6623 42.3242 81.924 42.5987 82.2559 42.6242L84.5411 42.8029C84.7199 42.8221 84.8986 42.7583 85.0326 42.6306C85.1667 42.5093 85.2433 42.337 85.2433 42.1519V37.0133L86.4051 36.9495L87.6945 42.4519C87.7519 42.7646 88.0264 42.9817 88.3328 42.9817C88.3519 42.9817 88.3647 42.9817 88.3839 42.9817L90.6691 42.8029C90.8542 42.7902 91.0202 42.7008 91.1351 42.554C91.25 42.4072 91.2946 42.2221 91.2627 42.0433L89.6414 35.9218C90.7712 35.0473 91.8244 33.477 91.5947 30.3045ZM87.4711 32.5514C86.8838 33.1834 85.8752 33.3749 85.2369 33.4259V28.7278C85.4412 28.6832 85.6582 28.6576 85.8625 28.6576C86.737 28.6576 87.803 29.047 87.9434 30.9173C88.0009 31.6131 87.8477 32.1493 87.4711 32.5514ZM100.301 34.9707C101.246 33.7259 103.633 30.8407 103.385 25.7915C103.378 25.6192 103.295 25.4532 103.168 25.3383C103.04 25.2234 102.868 25.1596 102.689 25.1724L99.9759 25.3511C99.6184 25.3766 99.3439 25.683 99.3695 26.0469C99.4652 27.4767 98.5205 30.5279 97.1609 32.4493L97.3587 26.2384C97.3651 26.0596 97.2949 25.8873 97.1673 25.766C97.0396 25.6383 96.8736 25.5681 96.6949 25.5745L93.1969 25.6256C93.0245 25.6256 92.8585 25.7022 92.7373 25.8235C92.616 25.9511 92.5521 26.1171 92.5585 26.2894L92.9096 42.7774C92.916 42.9625 92.9926 43.1349 93.1394 43.2562C93.2798 43.3774 93.4713 43.4349 93.6501 43.4094L96.3757 43.0455C96.6949 43.0008 96.9375 42.7327 96.9438 42.4072L96.9885 37.5751C97.5439 37.907 99.1652 40.256 99.4397 42.5795C99.478 42.9115 99.7589 43.1604 100.091 43.154L102.963 43.1413C102.976 43.1413 102.989 43.1413 103.002 43.1413C103.161 43.1285 103.314 43.0647 103.423 42.9434C103.544 42.8157 103.614 42.6497 103.608 42.471C103.582 41.8965 102.606 36.8282 100.301 34.9707ZM108.434 24.834L105.325 25.2362C105 25.2745 104.757 25.5554 104.757 25.8809L104.731 42.037C104.731 42.2157 104.808 42.3944 104.942 42.5157C105.07 42.637 105.242 42.7008 105.414 42.688C105.421 42.688 105.427 42.688 105.434 42.688L108.817 42.4391C109.161 42.4136 109.423 42.1263 109.423 41.7816L109.181 25.4788C109.174 25.2936 109.098 25.1149 108.957 24.9936C108.81 24.866 108.619 24.8085 108.434 24.834ZM115.047 25.3064C114.102 25.3702 111.013 25.9192 110.757 30.4769C110.725 31.0577 110.693 31.6067 110.661 32.1301C110.476 35.226 110.342 37.4665 110.738 39.407C110.981 40.5688 111.945 43.2562 115.781 43.2562C116.017 43.2562 116.266 43.2434 116.515 43.2242C118.117 43.0902 119.304 42.5795 120.038 41.6986C121.092 40.4475 120.951 38.8453 120.875 37.9836L120.862 37.8112C120.836 37.4602 120.536 37.1984 120.185 37.2112L117.766 37.3197C117.581 37.3261 117.409 37.4155 117.287 37.5623C117.172 37.7091 117.121 37.8942 117.147 38.0793C117.198 38.4049 117.255 39.439 116.834 39.9496C116.726 40.0773 116.528 40.256 116.074 40.2624H116.043C115.691 40.2624 115.43 40.1603 115.226 39.9369C114.874 39.5666 114.479 38.6538 114.587 36.4388C114.613 35.9218 114.638 35.3218 114.664 34.6834C114.728 33.0238 114.804 31.1343 114.957 29.9534L114.964 29.9151C115.079 29.0151 115.251 28.6321 116.004 28.6002C116.54 28.5746 116.917 28.6832 117.115 28.9257C117.37 29.2321 117.338 29.7492 117.306 29.9215C117.268 30.113 117.319 30.3109 117.441 30.4577C117.562 30.6109 117.747 30.7003 117.938 30.7003L120.856 30.7386C121.2 30.7386 121.5 30.4641 121.513 30.1066C121.519 30.03 121.564 28.2555 120.224 26.8639C119.094 25.683 117.345 25.1532 115.047 25.3064ZM134.433 41.8263C134.388 41.6348 133.131 36.6942 130.571 34.3579C131.822 33.177 134.382 30.8407 133.526 25.5298C133.469 25.1851 133.156 24.9489 132.811 24.9872L129.441 25.3639C129.262 25.383 129.103 25.4788 128.994 25.6192C128.886 25.7596 128.841 25.9384 128.873 26.1171C128.879 26.1682 129.569 30.0045 126.958 32.3089L127.022 25.766C127.022 25.5809 126.945 25.4022 126.805 25.2745C126.664 25.1532 126.479 25.0894 126.294 25.1149L122.924 25.4915C122.585 25.5298 122.336 25.8171 122.343 26.1554L122.739 42.5349C122.745 42.7136 122.822 42.8923 122.962 43.0072C123.09 43.1157 123.249 43.1732 123.415 43.1668C123.434 43.1668 123.447 43.1668 123.466 43.1604L126.313 42.8412C126.632 42.8029 126.875 42.5476 126.894 42.2285L127.13 37.1091C128.024 38.041 129.537 40.422 129.779 42.42C129.824 42.7774 130.143 43.0264 130.501 42.9881L133.865 42.6115C134.05 42.5923 134.216 42.4902 134.324 42.3434C134.439 42.1965 134.471 42.005 134.433 41.8263Z" fill="#848DA5"/>
<path d="M165.547 35.6413L166.427 29.4942L162.744 21.7832L160.242 22.6386L156.98 19.1406L151.216 16L149.952 20.6598L149.059 18.215L144.629 22.5429L142.152 26.8707L142.043 31.3581L140.301 30.5283L141.488 37.7159L144.188 42.3437L150.552 44.5268L155.767 44.7183L164.755 41.4309L167.34 35.0349L165.547 35.6413ZM161.659 32.2263L156.565 32.3667L156.38 38.0989L156.106 41.4948L151.663 41.4501V38.1946L151.299 32.5071L145.976 32.7369L145.79 27.2346L153.635 27.1899L161.755 26.9601L161.895 27.6941L161.659 32.2263Z" fill="#848DA5"/>
</svg>
