<svg width="181" height="65" viewBox="0 0 181 65" fill="none" xmlns="http://www.w3.org/2000/svg">
<path fill-rule="evenodd" clip-rule="evenodd" d="M35.0229 40.3748L21.3227 26.4617C20.7906 25.9203 21.1631 25.0271 21.9079 25.0271H35.6081C36.0604 25.0271 36.4328 25.406 36.4328 25.8662V39.7793C36.4328 40.5102 35.5549 40.8891 35.0229 40.3748M38.1087 39.7793V25.8662C38.1087 25.406 38.4812 25.0271 38.9334 25.0271H52.6336C53.3785 25.0271 53.7509 25.9203 53.2189 26.4617L39.5187 40.3748C38.9866 40.8891 38.1087 40.5102 38.1087 39.7793ZM54.8948 39.7793V25.8662C54.8948 25.406 55.2672 25.0271 55.7195 25.0271H69.4197C70.1645 25.0271 70.537 25.9203 70.0049 26.4617L56.3047 40.3748C55.7727 40.8891 54.8948 40.5102 54.8948 39.7793M89.0522 25V34.6093L85.7535 27.8151H83.8647L80.5128 34.6905V25H77.5334V40.6184H80.4862L84.7692 32.119L89.0788 40.6184H92.0051V25H89.0522Z" fill="#848DA5"/>
<path d="M100.28 29.4933L102.009 34.9882H98.5244L100.28 29.4933V29.4933ZM98.7904 25L93.4434 40.5914H96.7687L97.6997 37.6409H102.834L103.765 40.5914H107.09L101.743 25H98.7904Z" fill="#848DA5"/>
<path fill-rule="evenodd" clip-rule="evenodd" d="M107.699 25V27.7068H113.951L107.699 38.5342V40.6184H118.074V37.9387H111.663L117.861 27.0843V25H107.699Z" fill="#848DA5"/>
<path d="M128.344 33.8243V31.7942C128.344 29.1144 127.626 27.7068 125.551 27.7068H123.21V37.9387H125.551C127.626 37.9387 128.344 36.5311 128.344 33.8243V33.8243ZM120.098 40.6184V25.0271H125.551C129.036 25.0271 131.457 26.8406 131.457 31.8212V33.8514C131.457 38.8049 129.036 40.6455 125.551 40.6455H120.098V40.6184ZM138.799 29.4933L140.528 34.9882H137.043L138.799 29.4933V29.4933ZM137.309 25L131.962 40.5914H135.288L136.219 37.6409H141.353L142.284 40.5914H145.609L140.289 25H137.309Z" fill="#848DA5"/>
<path fill-rule="evenodd" clip-rule="evenodd" d="M155.69 25V34.7987L149.678 25H147.098V40.6184H150.051V30.955L156.036 40.6184H158.643V25H155.69Z" fill="#848DA5"/>
</svg>
