<svg width="180" height="65" viewBox="0 0 180 65" fill="none" xmlns="http://www.w3.org/2000/svg">
<path d="M35.5505 17.7993C36.7077 17.3493 37.9077 17.0279 39.1291 16.8564C39.3648 19.2564 40.0505 21.5707 41.1434 23.6921C42.2362 21.5707 42.9434 19.235 43.2005 16.8564C44.4219 17.0279 45.6219 17.3493 46.7791 17.7993C46.5219 19.7493 46.0291 21.6564 45.3219 23.4779C47.2933 22.7493 49.0505 21.5493 50.4648 19.9421C51.4505 20.7136 52.329 21.5921 53.1005 22.5779C50.679 25.3207 47.4648 27.1421 43.9291 27.785C45.0005 28.9421 46.1791 29.9493 47.4648 30.8064C49.6505 28.6207 52.2862 26.9707 55.179 26.0064C55.6933 27.1636 56.0576 28.3636 56.3147 29.585C54.3647 30.2278 52.5648 31.2564 51.0005 32.585C52.8005 33.2278 54.6647 33.5921 56.5719 33.6564C56.4862 34.9207 56.2719 36.1635 55.9076 37.3849C50.2719 37.0207 44.9791 34.4278 41.1434 30.1635C37.3077 34.4492 32.0148 37.0421 26.3791 37.3849C26.0148 36.1635 25.8006 34.9207 25.7148 33.6564C27.622 33.5921 29.5077 33.2064 31.3077 32.5207C29.722 31.1921 27.922 30.1635 25.9934 29.4993C26.2506 28.2778 26.6363 27.0993 27.1291 25.9636C30.022 26.9278 32.6577 28.5778 34.8434 30.7635C36.1505 29.9064 37.3291 28.8778 38.4005 27.7207C34.8648 27.0778 31.6291 25.235 29.2291 22.4921C30.0005 21.5064 30.9005 20.6279 31.8863 19.8564C33.2791 21.4636 35.0577 22.6636 37.0291 23.3921C36.3005 21.6136 35.8077 19.7279 35.5505 17.7993ZM34.072 36.0992C35.2077 35.585 36.3005 34.985 37.3291 34.2778C38.6148 35.9707 39.9005 37.7064 41.1434 39.3992C42.4291 37.7064 43.7148 35.9921 44.9576 34.2778C45.9862 34.9635 47.0791 35.585 48.2148 36.0992C46.5005 38.4778 44.6791 40.7921 42.9862 43.1492C42.9862 44.9064 42.9862 46.6849 42.9862 48.4421C41.7648 48.5921 40.5434 48.5921 39.3434 48.4421V43.1492L34.072 36.0992Z" fill="#848DA5"/>
<path d="M133.416 26.6064C134.466 25.9421 135.73 25.685 136.93 25.9207C138.066 26.0707 139.159 26.5421 140.059 27.2921L138.795 29.1779C137.873 28.4064 136.695 28.0207 135.516 28.085C134.98 28.1493 134.402 28.5564 134.487 29.1564C134.573 29.7564 134.937 29.9707 135.345 30.1207C136.673 30.635 138.152 30.7636 139.309 31.6636C140.53 32.7564 140.745 34.6207 139.823 35.9921C139.223 36.8278 138.302 37.3635 137.295 37.4921C135.237 37.7921 133.18 37.1493 131.637 35.735L133.052 33.9778C133.887 34.7493 134.916 35.2207 136.03 35.3493C136.63 35.4564 137.252 35.3064 137.745 34.9207C137.937 34.7064 138.023 34.385 137.98 34.085C137.916 33.785 137.745 33.5278 137.466 33.3993C136.073 32.6493 134.359 32.6707 133.073 31.6421C132.387 31.0636 132.023 30.1636 132.087 29.2636C132.109 28.235 132.602 27.2279 133.416 26.6064ZM76.6734 26.6064C78.0877 25.8779 79.7162 25.7064 81.2591 26.1136C82.2019 26.3493 83.1019 26.7993 83.8305 27.4636L82.2877 29.3707C81.5805 28.685 80.6805 28.2779 79.7162 28.235C78.7091 28.1493 77.702 28.5779 77.0591 29.3707C75.7948 30.9564 75.9448 33.2707 77.402 34.6636C78.7091 35.6921 80.5091 35.7564 81.8591 34.7921C81.8591 34.385 81.8591 33.9778 81.8591 33.5707H80.702C80.702 32.9278 80.702 32.285 80.702 31.6207H84.1734V35.9278C82.6519 37.2778 80.6377 37.9207 78.6448 37.685C77.1662 37.535 75.8163 36.785 74.8734 35.6064C73.802 34.1707 73.4163 32.3278 73.7805 30.5493C74.1448 28.8564 75.1948 27.4207 76.6734 26.6064ZM88.4591 26.8207C89.9591 25.9207 91.7591 25.6636 93.4305 26.1136C94.3519 26.3493 95.2305 26.7993 95.9376 27.4421C95.4233 28.0636 94.909 28.7064 94.4162 29.3279C93.6876 28.6207 92.7662 28.2136 91.7591 28.1921C90.6876 28.1279 89.6376 28.6207 89.0162 29.5421C87.9019 31.1707 88.1591 33.3993 89.6162 34.7064C90.9233 35.6278 92.6591 35.6278 93.9876 34.7064V33.5278H92.8519V31.5778H96.3233C96.3233 33.0136 96.3233 34.4493 96.3233 35.9064C95.059 37.0207 93.4519 37.6421 91.7805 37.6635C90.1733 37.7493 88.6091 37.1707 87.4305 36.035C86.2948 34.8564 85.7162 33.2278 85.8019 31.5778C85.8662 29.6493 86.8519 27.8707 88.4591 26.8207ZM63.0234 26.1136C63.9663 26.1136 64.9091 26.1136 65.852 26.1136C66.7091 27.8064 67.6091 29.4993 68.4877 31.1921L71.1448 26.1136H73.8877C72.4948 28.7064 71.0377 31.2564 69.6448 33.8707C69.6448 35.0707 69.6448 36.3135 69.6448 37.5135H67.2663C67.2663 36.3135 67.2663 35.0921 67.2663 33.8921C65.8734 31.2778 64.4163 28.7064 63.0234 26.1136ZM98.2733 26.1136H102.002C104.059 26.0064 106.03 27.0564 107.145 28.8564C108.066 30.485 108.195 32.4778 107.445 34.2136C106.545 36.1635 104.638 37.4493 102.538 37.5135C101.123 37.5135 99.6876 37.5135 98.2519 37.5135C98.2733 33.6993 98.2733 29.9064 98.2733 26.1136ZM100.695 28.3207C100.695 30.6136 100.695 32.9278 100.695 35.2207C101.788 35.2207 102.966 35.3493 103.93 34.7064C104.873 34.0207 105.409 32.9278 105.409 31.7493C105.409 30.5707 104.83 29.4778 103.888 28.8136C102.945 28.235 101.788 28.3636 100.695 28.3207ZM109.502 26.1136C111.173 26.1136 112.845 26.1136 114.495 26.1136C115.888 26.0707 117.195 26.7993 117.923 28.0207C118.673 29.5421 118.416 31.385 117.28 32.6064C116.895 32.9707 116.445 33.2278 115.973 33.4207L118.673 37.4921H115.845C115.073 36.2707 114.28 35.0707 113.488 33.8493H112.845V31.6421C113.659 31.5993 114.559 31.8136 115.288 31.3207C115.738 30.9778 115.973 30.4207 115.909 29.8421C115.845 29.2636 115.502 28.7707 114.988 28.535C113.98 28.3421 112.952 28.2779 111.923 28.3636V37.5135H109.523C109.502 33.6993 109.502 29.9064 109.502 26.1136ZM119.466 37.535L124.18 26.0707H126.409L131.123 37.535H128.552C128.209 36.6564 127.866 35.8207 127.545 34.9635H123.859L124.716 32.7778H126.688L125.23 29.0707C124.116 31.8993 123.002 34.7278 121.888 37.5564H119.466V37.535ZM142.287 26.1136H144.687V37.5135H142.287V26.1136ZM146.702 26.1136H149.145C149.145 29.1564 149.145 32.1993 149.145 35.2421H154.287V37.5135H146.702C146.702 33.6993 146.68 29.9064 146.702 26.1136Z" fill="#848DA5"/>
</svg>
