<svg width="101" height="95" viewBox="0 0 101 95" fill="none" xmlns="http://www.w3.org/2000/svg">
<path fill-rule="evenodd" clip-rule="evenodd" d="M92.522 0.0642619C91.711 0.252285 91.0848 0.598354 90.5843 1.13513C89.5483 2.24614 89.593 3.95542 90.6932 5.29419L90.9991 5.66641L90.5505 5.97348C89.999 6.35101 89.4023 6.92855 89.1226 7.35541C88.6515 8.07473 88.4768 9.06435 88.66 9.97706C89.0078 11.7102 90.4145 12.7898 92.6165 13.0133C94.1019 13.164 95.4786 12.8289 96.5073 12.0661L96.861 11.8039L97.3017 12.2619L97.7425 12.72L99.3713 12.7036L101 12.6873L99.7815 11.4132C99.033 10.6305 98.5784 10.1129 98.6027 10.0714C98.6245 10.0342 98.6997 9.92658 98.7698 9.83237C98.9834 9.54517 99.4052 8.60431 99.5504 8.09089C99.7046 7.54589 99.8455 6.74001 99.9024 6.07819L99.9405 5.63569H98.7205H97.5005L97.4612 6.07819C97.4396 6.32155 97.3863 6.70056 97.3427 6.92039C97.2582 7.34668 96.9214 8.31928 96.8582 8.31928C96.8121 8.31928 94.9336 6.31446 94.9336 6.26519C94.9336 6.24595 95.1878 6.02007 95.4985 5.76324C96.1397 5.2332 96.4473 4.86949 96.7268 4.31102C97.6048 2.55675 96.8691 0.834511 94.9614 0.177944C94.5652 0.0415944 94.4042 0.0196117 93.6852 0.00362435C93.1265 -0.00882296 92.7532 0.0106472 92.522 0.0642619ZM94.0246 2.167C94.7567 2.54339 94.8541 3.36759 94.2483 4.06179C94.0429 4.2972 93.3474 4.84911 93.2886 4.82336C93.174 4.77328 92.4588 3.91436 92.3723 3.72291C92.166 3.26636 92.2724 2.66409 92.6162 2.34138C92.9585 2.02003 93.5873 1.94221 94.0246 2.167ZM94.8493 9.73679C95.4238 10.3368 95.4224 10.2913 94.8769 10.5728C93.319 11.377 91.4389 10.7285 91.2133 9.30901C91.1279 8.77195 91.4825 8.13006 92.1747 7.56862L92.5018 7.30328L93.4206 8.25379C93.926 8.77658 94.5689 9.44393 94.8493 9.73679ZM13.079 46.1544C5.93236 66.1158 0.076889 82.4828 0.0667884 82.5256C0.0513539 82.5911 1.56808 82.6034 9.61525 82.6034H19.1821L19.2376 82.475C19.2681 82.4043 23.0209 70.3988 27.5771 55.796C32.1334 41.1933 35.8806 29.2007 35.9044 29.1457C35.9331 29.0794 38.7007 38.0396 44.1449 55.8246L52.3421 82.6034H62.0686H71.7951L71.7618 82.475C71.7435 82.4043 66.0021 66.0373 59.0031 46.1037L46.2778 9.86092H36.1753H26.0728L13.079 46.1544ZM34.9263 62.5654C31.7737 62.8933 29.0029 64.578 27.2778 67.2156C26.4862 68.4261 25.9637 69.7741 25.6955 71.2981C25.5777 71.9678 25.5962 74.0393 25.7264 74.7525C26.0189 76.3551 26.6607 77.8429 27.6363 79.1801C28.1085 79.8272 29.2417 80.9444 29.9049 81.4167C31.7765 82.7493 33.9559 83.4045 36.2598 83.3269C37.9309 83.2706 39.3753 82.8953 40.7426 82.162C45.258 79.7404 47.341 74.5007 45.7313 69.6137C44.5413 66.0011 41.4363 63.3224 37.6865 62.6735C36.9228 62.5413 35.6403 62.4911 34.9263 62.5654ZM5.80865 85.8828C4.95312 86.0783 4.29499 86.4529 3.70848 87.0784C2.81351 88.0327 2.39008 89.4651 2.55294 90.9873C2.74502 92.7825 3.69237 94.1341 5.15626 94.7016C5.74141 94.9285 6.18867 95.0017 6.97935 95C9.2871 94.995 10.6304 93.8094 10.9811 91.468C11.027 91.1617 11.0647 90.7117 11.0648 90.468L11.0652 90.0248L8.89471 90.0397L6.72423 90.0547V90.7399V91.425L7.87955 91.4405L9.03492 91.456L8.99475 91.726C8.83422 92.8043 8.21417 93.4217 7.1737 93.5391C6.1948 93.6496 5.27486 93.1503 4.87765 92.293C4.59075 91.6737 4.51579 91.2794 4.51732 90.3973C4.51925 89.2768 4.74475 88.5068 5.23752 87.9381C5.95477 87.1102 7.51366 87.025 8.33214 87.7691C8.54902 87.9663 8.90889 88.5787 8.90889 88.7506C8.90889 88.8116 9.10965 88.8271 9.90192 88.8271C10.4896 88.8271 10.895 88.805 10.895 88.7729C10.895 88.7432 10.8178 88.5056 10.7235 88.2448C10.3115 87.1057 9.4647 86.3159 8.2843 85.9698C7.73632 85.8092 6.34512 85.7603 5.80865 85.8828ZM0 86.8001V87.628H0.993029H1.98606V86.8001V85.9722H0.993029H0V86.8001ZM11.6035 86.0397C11.5877 86.0811 11.5815 88.0677 11.5896 90.4544L11.6043 94.7938L13.8457 94.8096C16.3562 94.8271 16.6633 94.7965 17.3913 94.4558C17.9556 94.1918 18.336 93.8252 18.5971 93.2935C18.8053 92.8699 18.8108 92.8421 18.8108 92.2274C18.8108 91.6652 18.7946 91.5621 18.6625 91.2823C18.4591 90.8513 18.152 90.5614 17.6396 90.3167L17.2061 90.1096L17.5407 89.9513C17.9605 89.7529 18.2443 89.4701 18.4349 89.0604C18.5637 88.7833 18.5833 88.6664 18.5836 88.1705C18.5838 87.6601 18.5669 87.5649 18.4246 87.2732C18.1542 86.7191 17.5959 86.3212 16.7864 86.1057C16.2995 85.9761 11.6501 85.9169 11.6035 86.0397ZM22.5343 86.1007C22.0099 87.5274 19.4634 94.704 19.4634 94.7552C19.4634 94.8084 19.6088 94.8222 20.0397 94.8101L20.616 94.7938L21.0469 93.5091L21.4778 92.2244L23.2945 92.2093L25.1113 92.1943L25.5631 93.5083L26.015 94.8223H26.6045C27.1852 94.8223 27.1935 94.8205 27.1691 94.6939C27.1287 94.4844 24.1636 86.1214 24.1021 86.0436C24.0623 85.9931 23.8315 85.9722 23.3137 85.9722C22.6062 85.9722 22.5799 85.9765 22.5343 86.1007ZM28.202 90.3967V94.8223H28.8061H29.4103L29.3691 92.9103L29.3279 90.9983L31.3327 90.9833L33.3374 90.9682L33.3539 90.4972L33.3704 90.0261H31.3447H29.319L29.3563 88.9892C29.3769 88.4189 29.3937 87.7255 29.3937 87.4483V86.9443L31.479 86.9293L33.5644 86.9143V86.4575V86.0007L30.8832 85.9859L28.202 85.9711V90.3967ZM34.5962 86.0145C34.5822 86.0383 34.5711 88.0298 34.5714 90.4401L34.5721 94.8223H35.1667H35.7614L35.7411 92.9096L35.7207 90.9968H37.7209H39.7212V90.5115V90.0261H37.6987H35.6761L35.7126 89.6752C35.7327 89.4822 35.7491 88.7887 35.7491 88.1343V86.9443L37.8344 86.9293L39.9198 86.9143V86.4575V86.0007L37.2707 85.9859C35.8136 85.9777 34.6101 85.9906 34.5962 86.0145ZM40.9637 85.9844C40.9605 85.9934 40.9541 87.9856 40.9495 90.4115L40.9412 94.8223H41.5181H42.0949L42.0855 90.4115L42.0761 86.0007L41.5228 85.9844C41.2186 85.9754 40.9669 85.9754 40.9637 85.9844ZM43.1235 85.9865C43.1222 85.9943 43.1158 87.9856 43.1093 90.4115L43.0975 94.8223H45.6935H48.2896V94.3663V93.9103L46.2894 93.8952L44.2891 93.8802L44.2745 89.9262L44.2599 85.9722H43.6929C43.381 85.9722 43.1248 85.9786 43.1235 85.9865ZM49.306 85.9844C49.3032 85.9934 49.2968 87.9856 49.2918 90.4115L49.2826 94.8223H49.8615H50.4404L50.4289 90.4115L50.4175 86.0007L49.8643 85.9844C49.56 85.9754 49.3087 85.9754 49.306 85.9844ZM54.5455 86.0721C54.524 86.1271 53.8119 88.1119 52.963 90.4829L51.4197 94.7938L51.9918 94.8102C52.3065 94.8192 52.5823 94.8064 52.6047 94.7816C52.627 94.7569 52.8333 94.1646 53.0628 93.4655L53.4803 92.1943L55.2968 92.2093L57.1134 92.2244L57.5605 93.5234L58.0076 94.8223H58.5961C58.9704 94.8223 59.1846 94.8005 59.1846 94.7622C59.1846 94.6709 56.1643 86.1255 56.103 86.0436C56.0652 85.9929 55.8369 85.9722 55.3172 85.9722C54.6723 85.9722 54.58 85.9841 54.5455 86.0721ZM59.2086 86.0488C59.1923 86.0914 59.1866 86.3036 59.196 86.5203L59.2129 86.9143L60.4897 86.9429L61.7664 86.9714L61.7649 90.8969L61.7634 94.8223H62.3646H62.9658L62.9403 91.0886C62.9262 89.0351 62.932 87.2627 62.953 87.1499L62.9911 86.945L64.2514 86.9297L65.5116 86.9143V86.4575V86.0007L62.3748 85.986C59.775 85.9737 59.2331 85.9845 59.2086 86.0488ZM66.5078 90.3968L66.5076 94.8223H69.3149H72.1223V94.3656V93.9088H69.9093H67.6962V93.1185C67.6962 92.6838 67.6795 91.9387 67.659 91.4627L67.6218 90.5971H69.6734H71.7251V90.1118V89.6264H69.6736H67.622L67.6589 88.8985C67.6792 88.498 67.6959 87.8946 67.696 87.5573L67.6962 86.9442L69.8667 86.9293L72.0372 86.9143V86.4575V86.0007L69.2727 85.986L66.5081 85.9711L66.5078 90.3968ZM24.0318 89.0135C24.4217 90.1624 24.7406 91.1171 24.7406 91.1352C24.7406 91.1533 24.0868 91.1681 23.2876 91.1681C22.1497 91.1681 21.8399 91.1526 21.8594 91.0967C21.873 91.0575 22.1984 90.0931 22.5824 88.9537C22.9664 87.8143 23.2901 86.8918 23.3017 86.9035C23.3134 86.9152 23.6419 87.8647 24.0318 89.0135ZM56.0303 89.0249C56.4231 90.1857 56.7445 91.1427 56.7445 91.1518C56.7445 91.1607 56.0934 91.1681 55.2976 91.1681C54.5017 91.1681 53.8506 91.1573 53.8506 91.1442C53.8506 91.123 55.169 87.1498 55.2427 86.949C55.2587 86.9052 55.2818 86.8795 55.294 86.8919C55.3062 86.9042 55.6376 87.8641 56.0303 89.0249ZM16.178 87.5857C16.4845 87.7906 16.6372 88.1501 16.6138 88.6111C16.5923 89.0344 16.4939 89.2209 16.1783 89.4371C15.9382 89.6016 15.6012 89.6362 14.4415 89.6153L13.4768 89.5979L13.4614 88.5273L13.446 87.4567H14.7156C15.9388 87.4567 15.9922 87.4615 16.178 87.5857ZM0 91.5678V94.8223H0.993029H1.98606V91.5678V88.3132H0.993029H0V91.5678ZM16.2071 90.9918C16.6514 91.1948 16.8796 91.6665 16.8437 92.3073C16.8159 92.8016 16.6377 93.0945 16.2469 93.2881C15.9844 93.4181 15.924 93.4234 14.7252 93.4234H13.4768L13.4616 92.153L13.4463 90.8826L14.7099 90.8839C15.8213 90.8849 16.0017 90.898 16.2071 90.9918Z" fill="#F0F0F0"/>
</svg>
