<svg width="1390" height="29" viewBox="0 0 1390 29" fill="none" xmlns="http://www.w3.org/2000/svg">
<path fill-rule="evenodd" clip-rule="evenodd" d="M524.5 20.5H0V19.5H524.5V20.5Z" fill="#828FA1"/>
<path fill-rule="evenodd" clip-rule="evenodd" d="M531.149 19.5H524.5V20.5H531.149C535.063 20.5 538.895 19.3798 542.192 17.2717L562.84 4.07082C565.976 2.06558 569.621 1 573.343 1H580.5V0H573.343C569.43 0 565.598 1.12022 562.301 3.2283L541.653 16.4292C538.517 18.4344 534.872 19.5 531.149 19.5Z" fill="#828FA1"/>
<path fill-rule="evenodd" clip-rule="evenodd" d="M809.5 1H580.5V0H809.5V1Z" fill="#828FA1"/>
<path d="M620.477 22L624.688 10.5469H626.992L631.141 22H628.969L627.836 18.7656H623.828L622.688 22H620.477ZM624.359 17.1875H627.297C626.359 14.1823 625.878 12.6302 625.852 12.5312L624.359 17.1875ZM632.999 22V10.5547H636.57C638.085 10.5547 639.216 10.776 639.96 11.2188C640.705 11.6615 641.078 12.3984 641.078 13.4297C641.078 13.5964 641.067 13.7604 641.046 13.9219C641.025 14.0833 640.979 14.2682 640.906 14.4766C640.833 14.6797 640.736 14.8646 640.617 15.0312C640.497 15.1979 640.33 15.362 640.117 15.5234C639.903 15.6797 639.653 15.8021 639.367 15.8906C640.075 16.0625 640.617 16.3932 640.992 16.8828C641.367 17.3672 641.554 17.9661 641.554 18.6797C641.554 19.7578 641.171 20.5807 640.406 21.1484C639.645 21.7161 638.591 22 637.242 22H632.999ZM635.117 20.4688H636.953C638.578 20.4688 639.39 19.8333 639.39 18.5625C639.39 17.9219 639.187 17.4609 638.781 17.1797C638.374 16.8984 637.747 16.7578 636.898 16.7578H635.117V20.4688ZM635.117 15.2812H636.929C638.33 15.2812 639.031 14.7474 639.031 13.6797C639.031 13.0807 638.828 12.6693 638.421 12.4453C638.02 12.2214 637.38 12.1094 636.499 12.1094H635.117V15.2812ZM646.671 19.3516C647.238 20.0755 648.077 20.4375 649.186 20.4375C650.296 20.4375 651.132 20.0781 651.694 19.3594C652.262 18.6354 652.546 17.6146 652.546 16.2969C652.546 14.9635 652.262 13.9297 651.694 13.1953C651.132 12.4609 650.298 12.0938 649.194 12.0938C648.085 12.0938 647.244 12.4635 646.671 13.2031C646.103 13.9375 645.819 14.9688 645.819 16.2969C645.819 17.6094 646.103 18.6276 646.671 19.3516ZM649.178 22.1641C647.454 22.1641 646.093 21.6432 645.093 20.6016C644.098 19.5547 643.6 18.112 643.6 16.2734C643.6 14.4245 644.1 12.9818 645.1 11.9453C646.1 10.9089 647.462 10.3906 649.186 10.3906C650.91 10.3906 652.27 10.9115 653.264 11.9531C654.259 12.9896 654.757 14.4323 654.757 16.2812C654.757 18.1094 654.257 19.5469 653.257 20.5938C652.257 21.6406 650.897 22.1641 649.178 22.1641ZM661.873 22.1641C660.373 22.1641 659.235 21.7917 658.459 21.0469C657.683 20.2969 657.295 19.2422 657.295 17.8828V10.5547H659.42V17.7031C659.42 18.6562 659.613 19.3516 659.998 19.7891C660.389 20.2266 661.027 20.4453 661.912 20.4453C662.782 20.4453 663.412 20.2266 663.803 19.7891C664.193 19.3464 664.389 18.6484 664.389 17.6953V10.5547H666.506V17.8984C666.506 19.2474 666.11 20.2969 665.318 21.0469C664.527 21.7917 663.378 22.1641 661.873 22.1641ZM671.724 22V12.25H668.388V10.5547H677.169V12.25H673.849V22H671.724ZM686.637 19.3516C687.205 20.0755 688.043 20.4375 689.153 20.4375C690.262 20.4375 691.098 20.0781 691.66 19.3594C692.228 18.6354 692.512 17.6146 692.512 16.2969C692.512 14.9635 692.228 13.9297 691.66 13.1953C691.098 12.4609 690.264 12.0938 689.16 12.0938C688.051 12.0938 687.21 12.4635 686.637 13.2031C686.069 13.9375 685.785 14.9688 685.785 16.2969C685.785 17.6094 686.069 18.6276 686.637 19.3516ZM689.145 22.1641C687.421 22.1641 686.059 21.6432 685.059 20.6016C684.064 19.5547 683.567 18.112 683.567 16.2734C683.567 14.4245 684.067 12.9818 685.067 11.9453C686.067 10.9089 687.429 10.3906 689.153 10.3906C690.876 10.3906 692.236 10.9115 693.231 11.9531C694.225 12.9896 694.723 14.4323 694.723 16.2812C694.723 18.1094 694.223 19.5469 693.223 20.5938C692.223 21.6406 690.863 22.1641 689.145 22.1641ZM701.839 22.1641C700.339 22.1641 699.201 21.7917 698.425 21.0469C697.649 20.2969 697.261 19.2422 697.261 17.8828V10.5547H699.386V17.7031C699.386 18.6562 699.579 19.3516 699.964 19.7891C700.355 20.2266 700.993 20.4453 701.878 20.4453C702.748 20.4453 703.378 20.2266 703.769 19.7891C704.16 19.3464 704.355 18.6484 704.355 17.6953V10.5547H706.472V17.8984C706.472 19.2474 706.076 20.2969 705.285 21.0469C704.493 21.7917 703.345 22.1641 701.839 22.1641ZM709.425 22V10.5234H713.667C714.245 10.5234 714.745 10.5495 715.167 10.6016C715.594 10.6536 715.998 10.75 716.378 10.8906C716.763 11.026 717.073 11.2109 717.308 11.4453C717.547 11.6797 717.735 11.987 717.87 12.3672C718.011 12.7422 718.081 13.1875 718.081 13.7031C718.081 15.224 717.391 16.224 716.011 16.7031C716.292 17.0208 716.641 17.6094 717.058 18.4688L718.761 22H716.448L715.112 19.0078C714.607 17.9349 714.294 17.2995 714.175 17.1016C714.086 17.0964 713.792 17.0938 713.292 17.0938L711.518 17.0781V22H709.425ZM713.854 15.5625C714.667 15.5625 715.25 15.4193 715.604 15.1328C715.959 14.8411 716.136 14.375 716.136 13.7344C716.136 13.1719 715.956 12.7578 715.597 12.4922C715.237 12.2266 714.688 12.0938 713.948 12.0938H711.518V15.5547C711.597 15.5547 711.985 15.5573 712.683 15.5625C713.38 15.5625 713.771 15.5625 713.854 15.5625ZM728.095 22V12.25H724.759V10.5547H733.541V12.25H730.22V22H728.095ZM735.415 22V10.5547H742.353L742.267 12.2344H737.532V15.1875H742.032V16.8672H737.532V20.3125H742.438L742.368 22H735.415ZM743.797 22L748.008 10.5469H750.313L754.461 22H752.289L751.157 18.7656H747.149L746.008 22H743.797ZM747.68 17.1875H750.618C749.68 14.1823 749.198 12.6302 749.172 12.5312L747.68 17.1875ZM756.242 22V10.5547H758.742L762.203 18.8203L765.687 10.5547H768.156V22H766.203V16.3438L766.265 13.1016L765.976 13.9609L763.047 21.2188H761.234L758.367 13.9219L758.078 13.0625L758.148 16.375V22H756.242Z" fill="#00FFFF"/>
<path fill-rule="evenodd" clip-rule="evenodd" d="M816.149 1H809.5V0H816.149C820.063 0 823.895 1.12022 827.192 3.2283L847.84 16.4292C850.976 18.4344 854.621 19.5 858.343 19.5H865.5V20.5H858.343C854.43 20.5 850.598 19.3798 847.301 17.2717L826.653 4.07082C823.517 2.06557 819.872 1 816.149 1Z" fill="#828FA1"/>
<path fill-rule="evenodd" clip-rule="evenodd" d="M1390 20.5H865.5V19.5H1390V20.5Z" fill="#828FA1"/>
</svg>
