<svg width="1390" height="29" viewBox="0 0 1390 29" fill="none" xmlns="http://www.w3.org/2000/svg">
<path fill-rule="evenodd" clip-rule="evenodd" d="M560.5 20.5H0V19.5H560.5V20.5Z" fill="#828FA1"/>
<path fill-rule="evenodd" clip-rule="evenodd" d="M567.149 19.5H560.5V20.5H567.149C571.063 20.5 574.895 19.3798 578.192 17.2717L598.84 4.07082C601.976 2.06558 605.621 1 609.343 1H616.5V0H609.343C605.43 0 601.598 1.12022 598.301 3.2283L577.653 16.4292C574.517 18.4344 570.872 19.5 567.149 19.5Z" fill="#828FA1"/>
<path fill-rule="evenodd" clip-rule="evenodd" d="M773.5 1H616.5V0H773.5V1Z" fill="#828FA1"/>
<path d="M657.734 22V10.5547H661.305C662.82 10.5547 663.951 10.776 664.695 11.2188C665.44 11.6615 665.812 12.3984 665.812 13.4297C665.812 13.5964 665.802 13.7604 665.781 13.9219C665.76 14.0833 665.714 14.2682 665.641 14.4766C665.568 14.6797 665.471 14.8646 665.352 15.0312C665.232 15.1979 665.065 15.362 664.852 15.5234C664.638 15.6797 664.388 15.8021 664.102 15.8906C664.81 16.0625 665.352 16.3932 665.727 16.8828C666.102 17.3672 666.289 17.9661 666.289 18.6797C666.289 19.7578 665.906 20.5807 665.141 21.1484C664.38 21.7161 663.326 22 661.977 22H657.734ZM659.852 20.4688H661.688C663.312 20.4688 664.125 19.8333 664.125 18.5625C664.125 17.9219 663.922 17.4609 663.516 17.1797C663.109 16.8984 662.482 16.7578 661.633 16.7578H659.852V20.4688ZM659.852 15.2812H661.664C663.065 15.2812 663.766 14.7474 663.766 13.6797C663.766 13.0807 663.562 12.6693 663.156 12.4453C662.755 12.2214 662.115 12.1094 661.234 12.1094H659.852V15.2812ZM668.796 22V10.5547H675.734L675.648 12.2344H670.913V15.1875H675.413V16.8672H670.913V20.3125H675.82L675.749 22H668.796ZM678.436 22V10.5547H680.686C681.093 11.1901 681.918 12.4714 683.163 14.3984C684.408 16.3255 685.165 17.4974 685.436 17.9141C685.514 18.0339 685.647 18.237 685.835 18.5234C686.027 18.8047 686.163 19.0052 686.241 19.125C686.204 17.3385 686.186 16.4115 686.186 16.3438V10.5547H688.116V22H685.835L680.671 13.9531L680.296 13.3359C680.337 14.7109 680.358 15.6771 680.358 16.2344V22H678.436ZM691.217 22V10.5547H698.154L698.068 12.2344H693.334V15.1875H697.834V16.8672H693.334V20.3125H698.24L698.17 22H691.217ZM700.857 22V10.5547H707.63L707.552 12.2344H702.958V15.4844H707.326V17.1484H702.958V22H700.857ZM710.177 22V10.5547H712.294V22H710.177ZM717.676 22V12.25H714.34V10.5547H723.121V12.25H719.801V22H717.676ZM728.316 22.1562C726.936 22.1562 725.699 21.8385 724.605 21.2031L725.121 19.5234C725.61 19.7943 726.141 20.013 726.714 20.1797C727.293 20.3464 727.855 20.4297 728.402 20.4297C729.074 20.4297 729.582 20.2865 729.925 20C730.269 19.7083 730.441 19.2917 730.441 18.75C730.441 18.0312 729.962 17.5339 729.003 17.2578C728.936 17.237 728.746 17.1823 728.433 17.0938C728.121 17 727.826 16.9115 727.55 16.8281C727.279 16.7396 727.084 16.6719 726.964 16.625C725.428 16.0833 724.66 15.0729 724.66 13.5938C724.66 12.5573 725.027 11.7578 725.761 11.1953C726.501 10.6328 727.48 10.3516 728.699 10.3516C730.079 10.3516 731.269 10.6354 732.269 11.2031L731.628 12.75C730.608 12.2917 729.66 12.0625 728.785 12.0625C728.154 12.0625 727.678 12.1745 727.355 12.3984C727.037 12.6172 726.868 12.9844 726.847 13.5C726.847 14.1354 727.162 14.5495 727.793 14.7422C727.918 14.7891 728.225 14.8906 728.714 15.0469C729.204 15.2031 729.522 15.3047 729.668 15.3516C730.714 15.6953 731.462 16.1224 731.91 16.6328C732.363 17.1432 732.589 17.8542 732.589 18.7656C732.589 19.8542 732.204 20.6927 731.433 21.2812C730.662 21.8646 729.623 22.1562 728.316 22.1562Z" fill="#00FFFF"/>
<path fill-rule="evenodd" clip-rule="evenodd" d="M780.149 1H773.5V0H780.149C784.063 0 787.895 1.12022 791.192 3.2283L811.84 16.4292C814.976 18.4344 818.621 19.5 822.343 19.5H829.5V20.5H822.343C818.43 20.5 814.598 19.3798 811.301 17.2717L790.653 4.07082C787.517 2.06557 783.872 1 780.149 1Z" fill="#828FA1"/>
<path fill-rule="evenodd" clip-rule="evenodd" d="M1390 20.5H829.5V19.5H1390V20.5Z" fill="#828FA1"/>
</svg>
