<svg width="1390" height="29" viewBox="0 0 1390 29" fill="none" xmlns="http://www.w3.org/2000/svg">
<path fill-rule="evenodd" clip-rule="evenodd" d="M519.5 20.5H0V19.5H519.5V20.5Z" fill="#828FA1"/>
<path fill-rule="evenodd" clip-rule="evenodd" d="M526.149 19.5H519.5V20.5H526.149C530.063 20.5 533.895 19.3798 537.192 17.2717L557.84 4.07082C560.976 2.06557 564.621 1 568.343 1H575.5V0H568.343C564.43 0 560.598 1.12022 557.301 3.2283L536.653 16.4292C533.517 18.4344 529.872 19.5 526.149 19.5Z" fill="#828FA1"/>
<path fill-rule="evenodd" clip-rule="evenodd" d="M814.5 1H575.5V0H814.5V1Z" fill="#828FA1"/>
<path d="M618.859 20.3047H620.375C621.682 20.3047 622.677 19.9635 623.359 19.2812C624.042 18.5938 624.383 17.5938 624.383 16.2812C624.383 14.875 624.031 13.8542 623.328 13.2188C622.625 12.5781 621.565 12.2578 620.148 12.2578H618.859V20.3047ZM616.742 22V10.5547H620.055C621.055 10.5547 621.951 10.6693 622.742 10.8984C623.534 11.1276 624.214 11.474 624.781 11.9375C625.354 12.3958 625.792 12.9896 626.094 13.7188C626.401 14.4427 626.555 15.2812 626.555 16.2344C626.555 18.0833 625.997 19.5078 624.883 20.5078C623.768 21.5026 622.224 22 620.25 22H616.742ZM633.671 22.1641C632.171 22.1641 631.033 21.7917 630.257 21.0469C629.481 20.2969 629.093 19.2422 629.093 17.8828V10.5547H631.218V17.7031C631.218 18.6562 631.411 19.3516 631.796 19.7891C632.187 20.2266 632.825 20.4453 633.71 20.4453C634.58 20.4453 635.21 20.2266 635.601 19.7891C635.992 19.3464 636.187 18.6484 636.187 17.6953V10.5547H638.304V17.8984C638.304 19.2474 637.908 20.2969 637.117 21.0469C636.325 21.7917 635.176 22.1641 633.671 22.1641ZM639.991 22L643.999 16.1406L640.288 10.5547H642.671L645.366 14.8203L648.139 10.5547H650.397L646.608 16.1719L650.6 22H648.155L645.264 17.5469L642.311 22H639.991ZM657.514 22.1641C655.769 22.1641 654.404 21.638 653.42 20.5859C652.441 19.5339 651.951 18.0938 651.951 16.2656C651.951 15.1042 652.18 14.0833 652.639 13.2031C653.097 12.3177 653.772 11.6276 654.662 11.1328C655.553 10.638 656.605 10.3906 657.818 10.3906C659.209 10.3906 660.402 10.6901 661.397 11.2891L660.709 12.8672C659.761 12.3568 658.811 12.1016 657.857 12.1016C656.701 12.1016 655.792 12.4766 655.131 13.2266C654.469 13.9766 654.139 14.9974 654.139 16.2891C654.139 17.5703 654.433 18.5833 655.022 19.3281C655.61 20.0729 656.472 20.4453 657.607 20.4453C658.337 20.4453 658.998 20.3307 659.592 20.1016V17.4453H657.193L657.209 15.7812H661.584V21.3047C660.876 21.5964 660.204 21.8125 659.568 21.9531C658.938 22.0938 658.253 22.1641 657.514 22.1641ZM664.443 22V10.5234H668.685C669.263 10.5234 669.763 10.5495 670.185 10.6016C670.612 10.6536 671.016 10.75 671.396 10.8906C671.781 11.026 672.091 11.2109 672.326 11.4453C672.565 11.6797 672.753 11.987 672.888 12.3672C673.029 12.7422 673.099 13.1875 673.099 13.7031C673.099 15.224 672.409 16.224 671.029 16.7031C671.31 17.0208 671.659 17.6094 672.076 18.4688L673.779 22H671.466L670.13 19.0078C669.625 17.9349 669.313 17.2995 669.193 17.1016C669.104 17.0964 668.81 17.0938 668.31 17.0938L666.537 17.0781V22H664.443ZM668.873 15.5625C669.685 15.5625 670.268 15.4193 670.623 15.1328C670.977 14.8411 671.154 14.375 671.154 13.7344C671.154 13.1719 670.974 12.7578 670.615 12.4922C670.255 12.2266 669.706 12.0938 668.966 12.0938H666.537V15.5547C666.615 15.5547 667.003 15.5573 667.701 15.5625C668.399 15.5625 668.789 15.5625 668.873 15.5625ZM678.606 19.3516C679.174 20.0755 680.013 20.4375 681.122 20.4375C682.231 20.4375 683.067 20.0781 683.63 19.3594C684.197 18.6354 684.481 17.6146 684.481 16.2969C684.481 14.9635 684.197 13.9297 683.63 13.1953C683.067 12.4609 682.234 12.0938 681.13 12.0938C680.02 12.0938 679.179 12.4635 678.606 13.2031C678.039 13.9375 677.755 14.9688 677.755 16.2969C677.755 17.6094 678.039 18.6276 678.606 19.3516ZM681.114 22.1641C679.39 22.1641 678.028 21.6432 677.028 20.6016C676.033 19.5547 675.536 18.112 675.536 16.2734C675.536 14.4245 676.036 12.9818 677.036 11.9453C678.036 10.9089 679.398 10.3906 681.122 10.3906C682.846 10.3906 684.205 10.9115 685.2 11.9531C686.195 12.9896 686.692 14.4323 686.692 16.2812C686.692 18.1094 686.192 19.5469 685.192 20.5938C684.192 21.6406 682.833 22.1641 681.114 22.1641ZM693.809 22.1641C692.309 22.1641 691.171 21.7917 690.395 21.0469C689.619 20.2969 689.231 19.2422 689.231 17.8828V10.5547H691.356V17.7031C691.356 18.6562 691.548 19.3516 691.934 19.7891C692.324 20.2266 692.962 20.4453 693.848 20.4453C694.718 20.4453 695.348 20.2266 695.738 19.7891C696.129 19.3464 696.324 18.6484 696.324 17.6953V10.5547H698.442V17.8984C698.442 19.2474 698.046 20.2969 697.254 21.0469C696.462 21.7917 695.314 22.1641 693.809 22.1641ZM701.394 22V10.5234H705.207C706.108 10.5234 706.878 10.6406 707.519 10.875C708.16 11.1042 708.665 11.4792 709.035 12C709.41 12.5208 709.597 13.1745 709.597 13.9609C709.597 14.5078 709.527 14.9948 709.386 15.4219C709.246 15.8438 709.014 16.2292 708.691 16.5781C708.368 16.9219 707.912 17.1875 707.324 17.375C706.74 17.5625 706.035 17.6562 705.207 17.6562C704.498 17.6562 703.923 17.6354 703.48 17.5938V22H701.394ZM704.98 16.125C705.412 16.125 705.787 16.0833 706.105 16C706.428 15.9167 706.678 15.8099 706.855 15.6797C707.037 15.5495 707.181 15.388 707.285 15.1953C707.394 15.0026 707.464 14.8177 707.496 14.6406C707.532 14.4583 707.55 14.2552 707.55 14.0312C707.55 13.401 707.347 12.9219 706.941 12.5938C706.535 12.2656 705.962 12.1016 705.222 12.1016H703.48V16.1094C703.543 16.1198 704.043 16.125 704.98 16.125ZM716.698 22V10.5547H723.471L723.393 12.2344H718.799V15.4844H723.166V17.1484H718.799V22H716.698ZM724.236 22L728.447 10.5469H730.752L734.9 22H732.728L731.595 18.7656H727.588L726.447 22H724.236ZM728.119 17.1875H731.056C730.119 14.1823 729.637 12.6302 729.611 12.5312L728.119 17.1875ZM736.681 22V10.5547H739.181L742.642 18.8203L746.126 10.5547H748.595V22H746.642V16.3438L746.704 13.1016L746.415 13.9609L743.485 21.2188H741.673L738.806 13.9219L738.517 13.0625L738.587 16.375V22H736.681ZM751.766 22V10.5547H753.883V22H751.766ZM757.054 22V10.5547H759.172V20.3125H763.961L763.898 22H757.054ZM767.694 22V17.4609L763.733 10.5547H766.03L768.757 15.5078L771.499 10.5547H773.765L769.819 17.4219V22H767.694Z" fill="#00FFFF"/>
<path fill-rule="evenodd" clip-rule="evenodd" d="M821.149 1H814.5V0H821.149C825.063 0 828.895 1.12022 832.192 3.2283L852.84 16.4292C855.976 18.4344 859.621 19.5 863.343 19.5H870.5V20.5H863.343C859.43 20.5 855.598 19.3798 852.301 17.2717L831.653 4.07082C828.517 2.06557 824.872 1 821.149 1Z" fill="#828FA1"/>
<path fill-rule="evenodd" clip-rule="evenodd" d="M1390 20.5H870.5V19.5H1390V20.5Z" fill="#828FA1"/>
</svg>
