<svg width="1409" height="448" viewBox="0 0 1409 448" fill="none" xmlns="http://www.w3.org/2000/svg">
<path fill-rule="evenodd" clip-rule="evenodd" d="M1477.28 145.592C1492.9 283.763 1393.67 408.451 1255.64 424.09C1117.61 439.729 993.048 340.397 977.425 202.226C961.801 64.0545 1061.03 -60.6336 1199.06 -76.2727C1337.09 -91.9118 1461.65 7.4203 1477.28 145.592ZM1478.37 145.467C1494.07 284.246 1394.4 409.482 1255.76 425.19C1117.13 440.898 992.018 341.129 976.326 202.35C960.634 63.5715 1060.3 -61.6647 1198.94 -77.3726C1337.57 -93.0804 1462.68 6.68837 1478.37 145.467ZM1213.83 54.3953C1246.48 50.6959 1276.06 74.9101 1279.86 108.577C1283.67 142.243 1260.25 172.462 1227.6 176.161C1194.95 179.86 1165.38 155.646 1161.57 121.98C1157.76 88.3131 1181.18 58.0947 1213.83 54.3953ZM1120.59 299.181L1118.84 283.763C1115.85 257.316 1133.46 237.951 1157.21 224.53C1180.94 211.126 1210.47 203.871 1230.48 201.604C1250.48 199.338 1280.89 199.802 1307.01 207.558C1333.16 215.324 1354.64 230.261 1357.63 256.708L1359.37 272.126C1360.28 280.148 1354.7 287.314 1346.97 288.19L1136.26 312.063C1128.54 312.939 1121.49 307.203 1120.59 299.181ZM1280.96 108.452C1277.09 74.2068 1246.99 49.5241 1213.71 53.2955C1180.42 57.0668 1156.6 87.8587 1160.47 122.104C1164.34 156.35 1194.44 181.032 1227.72 177.261C1261.01 173.49 1284.83 142.698 1280.96 108.452ZM1117.75 283.887L1119.49 299.305C1120.46 307.906 1128.03 314.111 1136.39 313.163L1347.1 289.29C1355.46 288.342 1361.44 280.602 1360.47 272.001L1358.73 256.583C1352.6 202.348 1270.57 195.948 1230.35 200.504C1190.14 205.061 1111.61 229.652 1117.75 283.887Z" fill="url(#paint0_linear_737_12060)"/>
<path fill-rule="evenodd" clip-rule="evenodd" d="M967.258 354.042C953.935 417.255 891.942 457.687 828.795 444.349C765.647 431.012 725.256 368.956 738.58 305.743C751.904 242.531 813.896 202.099 877.044 215.437C940.192 228.774 980.582 290.83 967.258 354.042ZM968.34 354.271C954.891 418.081 892.312 458.896 828.566 445.432C764.821 431.969 724.048 369.325 737.498 305.515C750.948 241.704 813.527 200.89 877.272 214.353C941.018 227.817 981.79 290.46 968.34 354.271ZM864.377 275.518C879.057 278.619 888.416 293.381 885.218 308.557C882.019 323.733 867.499 333.452 852.82 330.351C838.14 327.251 828.781 312.489 831.979 297.313C835.178 282.136 849.698 272.418 864.377 275.518ZM787.766 369.8L789.261 362.711C791.749 350.903 802.089 345.004 814.508 342.573C826.896 340.147 840.966 341.274 850.11 343.205C859.254 345.136 872.58 349.796 882.933 357.025C893.313 364.271 900.39 373.849 897.901 385.657L896.407 392.746C895.693 396.131 892.466 398.262 889.248 397.582L792.363 377.119C789.145 376.44 787.053 373.185 787.766 369.8ZM886.3 308.786C889.618 293.039 879.91 277.668 864.606 274.435C849.301 271.203 834.216 281.338 830.897 297.084C827.579 312.83 837.287 328.202 852.591 331.434C867.896 334.667 882.981 324.532 886.3 308.786ZM788.179 362.483L786.684 369.572C785.851 373.527 788.291 377.391 792.135 378.202L889.019 398.665C892.863 399.477 896.655 396.929 897.489 392.975L898.983 385.885C904.239 360.948 868.829 346.027 850.339 342.122C831.848 338.217 793.435 337.545 788.179 362.483Z" fill="url(#paint1_linear_737_12060)"/>
<path fill-rule="evenodd" clip-rule="evenodd" d="M784.112 135.518C791.617 170.74 769.176 205.384 733.99 212.897C698.803 220.41 664.195 197.946 656.69 162.724C649.185 127.501 671.625 92.857 706.812 85.3443C741.998 77.8315 776.607 100.295 784.112 135.518ZM785.193 135.287C792.825 171.107 770.004 206.339 734.22 213.979C698.436 221.62 663.241 198.775 655.608 162.954C647.976 127.134 670.797 91.902 706.581 84.2617C742.365 76.6215 777.561 99.4661 785.193 135.287ZM713.998 119.073C721.964 117.372 729.882 122.63 731.644 130.9C733.406 139.169 728.32 147.204 720.354 148.905C712.387 150.606 704.469 145.348 702.707 137.078C700.945 128.809 706.031 120.774 713.998 119.073ZM696.527 184.374L695.679 180.395C694.328 174.056 698.089 168.838 703.854 164.794C709.592 160.769 717.005 158.156 722.094 157.07C727.182 155.983 735.015 155.341 741.895 156.672C748.806 158.01 754.366 161.237 755.717 167.576L756.565 171.556C756.916 173.206 755.898 174.769 754.365 175.096L699.978 186.708C698.445 187.036 696.879 186.025 696.527 184.374ZM732.726 130.669C730.842 121.83 722.358 116.156 713.767 117.991C705.175 119.825 699.742 128.47 701.625 137.309C703.509 146.148 711.993 151.822 720.585 149.988C729.176 148.153 734.609 139.508 732.726 130.669ZM694.598 180.626L695.445 184.605C695.918 186.825 698.051 188.252 700.209 187.791L754.596 176.179C756.753 175.718 758.119 173.545 757.646 171.325L756.798 167.345C753.816 153.346 732.243 153.771 721.863 155.987C711.483 158.203 691.615 166.627 694.598 180.626Z" fill="url(#paint2_linear_737_12060)"/>
<path fill-rule="evenodd" clip-rule="evenodd" d="M106.029 165C94.6674 192.884 62.8755 206.269 35.0198 194.896C7.16404 183.523 -6.2071 151.698 5.15447 123.814C16.5161 95.9298 48.308 82.545 76.1637 93.9182C104.019 105.291 117.391 137.116 106.029 165ZM107.053 165.418C95.4606 193.869 63.0234 207.525 34.6022 195.921C6.18095 184.317 -7.46163 151.846 4.13059 123.396C15.7228 94.9457 48.1601 81.2892 76.5813 92.8933C105.002 104.497 118.645 136.968 107.053 165.418ZM65.2468 120.705C71.4788 123.25 74.4546 130.531 71.8138 137.012C69.1731 143.493 61.9592 146.613 55.7272 144.069C49.4952 141.525 46.5195 134.244 49.1602 127.763C51.801 121.281 59.0148 118.161 65.2468 120.705ZM22.5781 157.648L23.866 154.487C25.8763 149.553 30.8481 147.72 36.7277 147.639C42.5749 147.558 48.9241 149.24 52.9504 150.884C56.9767 152.528 62.6898 155.771 66.8126 159.922C70.9581 164.097 73.2313 168.887 71.2209 173.821L69.933 176.982C69.4344 178.206 68.0927 178.759 66.9706 178.301L23.7741 160.664C22.652 160.206 22.0795 158.871 22.5781 157.648ZM72.8377 137.43C75.6982 130.409 72.4882 122.467 65.6644 119.68C58.8407 116.894 50.9969 120.324 48.1363 127.345C45.2758 134.365 48.4858 142.308 55.3096 145.094C62.1333 147.88 69.9772 144.45 72.8377 137.43ZM22.8421 154.069L21.5542 157.23C20.8358 158.993 21.6427 160.989 23.3565 161.689L66.553 179.326C68.2668 180.026 70.2385 179.163 70.9569 177.4L72.2448 174.239C76.7751 163.121 61.6121 153.225 53.3681 149.859C45.124 146.493 27.3724 142.95 22.8421 154.069Z" fill="url(#paint3_linear_737_12060)"/>
<path fill-rule="evenodd" clip-rule="evenodd" d="M485.321 160.087C485.321 242.005 418.982 308.412 337.147 308.412C255.313 308.412 188.974 242.005 188.974 160.087C188.974 78.1688 255.313 11.7611 337.147 11.7611C418.982 11.7611 485.321 78.1688 485.321 160.087ZM486.427 160.087C486.427 242.616 419.592 309.519 337.147 309.519C254.703 309.519 187.868 242.616 187.868 160.087C187.868 77.5574 254.703 10.6542 337.147 10.6542C419.592 10.6542 486.427 77.5574 486.427 160.087ZM337.145 89.4664C356.3 89.4664 371.866 105.437 371.866 125.22C371.866 145.002 356.3 160.973 337.145 160.973C317.989 160.973 302.423 145.002 302.423 125.22C302.423 105.437 317.989 89.4664 337.145 89.4664ZM266.596 226.539V217.37C266.596 201.919 278 191.835 292.781 185.56C307.533 179.298 325.291 177.009 337.145 177.009C348.999 177.009 366.757 179.298 381.508 185.56C396.29 191.835 407.693 201.919 407.693 217.37V226.539C407.693 231.071 404.13 234.693 399.797 234.693H274.492C270.16 234.693 266.596 231.071 266.596 226.539ZM372.972 125.22C372.972 104.854 356.939 88.3595 337.145 88.3595C317.35 88.3595 301.318 104.854 301.318 125.22C301.318 145.585 317.35 162.08 337.145 162.08C356.939 162.08 372.972 145.585 372.972 125.22ZM265.491 217.37V226.539C265.491 231.653 269.521 235.8 274.492 235.8H399.797C404.769 235.8 408.799 231.653 408.799 226.539V217.37C408.799 185.117 361.059 175.902 337.145 175.902C313.23 175.902 265.491 185.117 265.491 217.37Z" fill="url(#paint4_linear_737_12060)"/>
<defs>
<linearGradient id="paint0_linear_737_12060" x1="1128.63" y1="468.536" x2="1254.37" y2="32.377" gradientUnits="userSpaceOnUse">
<stop stop-color="#0745F9" stop-opacity="0.42"/>
<stop offset="1" stop-color="#00FFFF"/>
</linearGradient>
<linearGradient id="paint1_linear_737_12060" x1="1128.63" y1="468.536" x2="1254.37" y2="32.377" gradientUnits="userSpaceOnUse">
<stop stop-color="#0745F9" stop-opacity="0.42"/>
<stop offset="1" stop-color="#00FFFF"/>
</linearGradient>
<linearGradient id="paint2_linear_737_12060" x1="1128.63" y1="468.536" x2="1254.37" y2="32.377" gradientUnits="userSpaceOnUse">
<stop stop-color="#0745F9" stop-opacity="0.42"/>
<stop offset="1" stop-color="#00FFFF"/>
</linearGradient>
<linearGradient id="paint3_linear_737_12060" x1="1128.63" y1="468.536" x2="1254.37" y2="32.377" gradientUnits="userSpaceOnUse">
<stop stop-color="#0745F9" stop-opacity="0.42"/>
<stop offset="1" stop-color="#00FFFF"/>
</linearGradient>
<linearGradient id="paint4_linear_737_12060" x1="1128.63" y1="468.536" x2="1254.37" y2="32.377" gradientUnits="userSpaceOnUse">
<stop stop-color="#0745F9" stop-opacity="0.42"/>
<stop offset="1" stop-color="#00FFFF"/>
</linearGradient>
</defs>
</svg>
