<svg width="1390" height="29" viewBox="0 0 1390 29" fill="none" xmlns="http://www.w3.org/2000/svg">
<path fill-rule="evenodd" clip-rule="evenodd" d="M567 20.5H0V19.5H567V20.5Z" fill="#828FA1"/>
<path fill-rule="evenodd" clip-rule="evenodd" d="M573.649 19.5H567V20.5H573.649C577.563 20.5 581.395 19.3798 584.692 17.2717L605.34 4.07082C608.476 2.06557 612.121 1 615.843 1H623V0H615.843C611.93 0 608.098 1.12022 604.801 3.2283L584.153 16.4292C581.017 18.4344 577.372 19.5 573.649 19.5Z" fill="#828FA1"/>
<path fill-rule="evenodd" clip-rule="evenodd" d="M767 1H623V0H767V1Z" fill="#828FA1"/>
<path d="M669.227 22.1641C667.555 22.1641 666.229 21.638 665.25 20.5859C664.271 19.5339 663.781 18.0807 663.781 16.2266C663.781 14.4661 664.292 13.0547 665.312 11.9922C666.339 10.9245 667.68 10.3906 669.336 10.3906C670.674 10.3906 671.807 10.7005 672.734 11.3203L672.07 12.9219C671.18 12.375 670.284 12.1016 669.383 12.1016C668.331 12.1016 667.497 12.4818 666.883 13.2422C666.273 13.9974 665.969 15.013 665.969 16.2891C665.969 17.612 666.263 18.6354 666.852 19.3594C667.445 20.0833 668.289 20.4453 669.383 20.4453C670.341 20.4453 671.292 20.2057 672.234 19.7266L672.516 21.3828C671.641 21.9036 670.544 22.1641 669.227 22.1641ZM673.788 22L677.999 10.5469H680.304L684.453 22H682.281L681.148 18.7656H677.14L675.999 22H673.788ZM677.671 17.1875H680.609C679.671 14.1823 679.189 12.6302 679.163 12.5312L677.671 17.1875ZM686.178 22V10.5234H690.421C690.999 10.5234 691.499 10.5495 691.921 10.6016C692.348 10.6536 692.751 10.75 693.132 10.8906C693.517 11.026 693.827 11.2109 694.061 11.4453C694.301 11.6797 694.488 11.987 694.624 12.3672C694.764 12.7422 694.835 13.1875 694.835 13.7031C694.835 15.224 694.145 16.224 692.764 16.7031C693.046 17.0208 693.395 17.6094 693.811 18.4688L695.514 22H693.202L691.866 19.0078C691.361 17.9349 691.048 17.2995 690.928 17.1016C690.84 17.0964 690.546 17.0938 690.046 17.0938L688.272 17.0781V22H686.178ZM690.608 15.5625C691.421 15.5625 692.004 15.4193 692.358 15.1328C692.712 14.8411 692.889 14.375 692.889 13.7344C692.889 13.1719 692.71 12.7578 692.35 12.4922C691.991 12.2266 691.441 12.0938 690.702 12.0938H688.272V15.5547C688.35 15.5547 688.738 15.5573 689.436 15.5625C690.134 15.5625 690.525 15.5625 690.608 15.5625ZM697.67 22V10.5547H704.607L704.522 12.2344H699.787V15.1875H704.287V16.8672H699.787V20.3125H704.693L704.623 22H697.67ZM707.31 22V10.5547H714.248L714.162 12.2344H709.427V15.1875H713.927V16.8672H709.427V20.3125H714.333L714.263 22H707.31ZM716.895 22V10.5234H721.138C721.716 10.5234 722.216 10.5495 722.638 10.6016C723.065 10.6536 723.468 10.75 723.848 10.8906C724.234 11.026 724.544 11.2109 724.778 11.4453C725.018 11.6797 725.205 11.987 725.341 12.3672C725.481 12.7422 725.552 13.1875 725.552 13.7031C725.552 15.224 724.861 16.224 723.481 16.7031C723.763 17.0208 724.111 17.6094 724.528 18.4688L726.231 22H723.919L722.583 19.0078C722.078 17.9349 721.765 17.2995 721.645 17.1016C721.557 17.0964 721.263 17.0938 720.763 17.0938L718.989 17.0781V22H716.895ZM721.325 15.5625C722.138 15.5625 722.721 15.4193 723.075 15.1328C723.429 14.8411 723.606 14.375 723.606 13.7344C723.606 13.1719 723.427 12.7578 723.067 12.4922C722.708 12.2266 722.158 12.0938 721.419 12.0938H718.989V15.5547C719.067 15.5547 719.455 15.5573 720.153 15.5625C720.851 15.5625 721.242 15.5625 721.325 15.5625Z" fill="#00FFFF"/>
<path fill-rule="evenodd" clip-rule="evenodd" d="M773.649 1H767V0H773.649C777.563 0 781.395 1.12022 784.692 3.2283L805.34 16.4292C808.476 18.4344 812.121 19.5 815.843 19.5H823V20.5H815.843C811.93 20.5 808.098 19.3798 804.801 17.2717L784.153 4.07082C781.017 2.06557 777.372 1 773.649 1Z" fill="#828FA1"/>
<path fill-rule="evenodd" clip-rule="evenodd" d="M1390 20.5H823V19.5H1390V20.5Z" fill="#828FA1"/>
</svg>
