<svg width="1390" height="29" viewBox="0 0 1390 29" fill="none" xmlns="http://www.w3.org/2000/svg">
<path fill-rule="evenodd" clip-rule="evenodd" d="M472.5 20.5H0V19.5H472.5V20.5Z" fill="#828FA1"/>
<path fill-rule="evenodd" clip-rule="evenodd" d="M479.149 19.5H472.5V20.5H479.149C483.063 20.5 486.895 19.3798 490.192 17.2717L510.84 4.07082C513.976 2.06557 517.621 1 521.343 1H528.5V0H521.343C517.43 0 513.598 1.12022 510.301 3.2283L489.653 16.4292C486.517 18.4344 482.872 19.5 479.149 19.5Z" fill="#828FA1"/>
<path fill-rule="evenodd" clip-rule="evenodd" d="M861.5 1H528.5V0H861.5V1Z" fill="#828FA1"/>
<path d="M569.789 22V10.5547H571.906V22H569.789ZM575.077 22V10.5547H577.327C577.734 11.1901 578.559 12.4714 579.804 14.3984C581.049 16.3255 581.807 17.4974 582.077 17.9141C582.156 18.0339 582.288 18.237 582.476 18.5234C582.669 18.8047 582.804 19.0052 582.882 19.125C582.846 17.3385 582.827 16.4115 582.827 16.3438V10.5547H584.757V22H582.476L577.312 13.9531L576.937 13.3359C576.979 14.7109 576.999 15.6771 576.999 16.2344V22H575.077ZM590.069 22V12.25H586.733V10.5547H595.514V12.25H592.194V22H590.069ZM597.389 22V10.5547H604.326L604.24 12.2344H599.506V15.1875H604.006V16.8672H599.506V20.3125H604.412L604.342 22H597.389ZM606.974 22V10.5234H611.216C611.794 10.5234 612.294 10.5495 612.716 10.6016C613.143 10.6536 613.547 10.75 613.927 10.8906C614.313 11.026 614.623 11.2109 614.857 11.4453C615.096 11.6797 615.284 11.987 615.419 12.3672C615.56 12.7422 615.63 13.1875 615.63 13.7031C615.63 15.224 614.94 16.224 613.56 16.7031C613.841 17.0208 614.19 17.6094 614.607 18.4688L616.31 22H613.998L612.662 19.0078C612.156 17.9349 611.844 17.2995 611.724 17.1016C611.636 17.0964 611.341 17.0938 610.841 17.0938L609.068 17.0781V22H606.974ZM611.404 15.5625C612.216 15.5625 612.8 15.4193 613.154 15.1328C613.508 14.8411 613.685 14.375 613.685 13.7344C613.685 13.1719 613.505 12.7578 613.146 12.4922C612.787 12.2266 612.237 12.0938 611.498 12.0938H609.068V15.5547C609.146 15.5547 609.534 15.5573 610.232 15.5625C610.93 15.5625 611.32 15.5625 611.404 15.5625ZM621.333 22L617.169 10.5547H619.348L621.77 17.625C621.864 17.8698 622.08 18.5859 622.419 19.7734C622.44 19.6901 622.536 19.349 622.708 18.75C622.88 18.1458 622.992 17.776 623.044 17.6406C623.106 17.4635 623.502 16.2891 624.231 14.1172C624.96 11.9401 625.359 10.7526 625.427 10.5547H627.583L623.473 22H621.333ZM629.473 22V10.5547H631.59V22H629.473ZM634.761 22V10.5547H641.699L641.613 12.2344H636.878V15.1875H641.378V16.8672H636.878V20.3125H641.785L641.714 22H634.761ZM646.354 22L643.245 10.5547H645.354L647.573 19.4609L650.183 10.6094H652.206L654.683 19.4922L656.948 10.5547H659.058L655.854 22H653.659L651.214 13.6172L648.534 22H646.354ZM665.892 22V10.5234H669.705C670.606 10.5234 671.377 10.6406 672.017 10.875C672.658 11.1042 673.163 11.4792 673.533 12C673.908 12.5208 674.095 13.1745 674.095 13.9609C674.095 14.5078 674.025 14.9948 673.884 15.4219C673.744 15.8438 673.512 16.2292 673.189 16.5781C672.866 16.9219 672.41 17.1875 671.822 17.375C671.239 17.5625 670.533 17.6562 669.705 17.6562C668.996 17.6562 668.421 17.6354 667.978 17.5938V22H665.892ZM669.478 16.125C669.91 16.125 670.285 16.0833 670.603 16C670.926 15.9167 671.176 15.8099 671.353 15.6797C671.535 15.5495 671.679 15.388 671.783 15.1953C671.892 15.0026 671.963 14.8177 671.994 14.6406C672.03 14.4583 672.048 14.2552 672.048 14.0312C672.048 13.401 671.845 12.9219 671.439 12.5938C671.033 12.2656 670.46 12.1016 669.72 12.1016H667.978V16.1094C668.041 16.1198 668.541 16.125 669.478 16.125ZM676.267 22V10.5234H680.509C681.087 10.5234 681.587 10.5495 682.009 10.6016C682.436 10.6536 682.839 10.75 683.22 10.8906C683.605 11.026 683.915 11.2109 684.149 11.4453C684.389 11.6797 684.576 11.987 684.712 12.3672C684.853 12.7422 684.923 13.1875 684.923 13.7031C684.923 15.224 684.233 16.224 682.853 16.7031C683.134 17.0208 683.483 17.6094 683.899 18.4688L685.603 22H683.29L681.954 19.0078C681.449 17.9349 681.136 17.2995 681.017 17.1016C680.928 17.0964 680.634 17.0938 680.134 17.0938L678.36 17.0781V22H676.267ZM680.696 15.5625C681.509 15.5625 682.092 15.4193 682.446 15.1328C682.8 14.8411 682.978 14.375 682.978 13.7344C682.978 13.1719 682.798 12.7578 682.438 12.4922C682.079 12.2266 681.53 12.0938 680.79 12.0938H678.36V15.5547C678.438 15.5547 678.826 15.5573 679.524 15.5625C680.222 15.5625 680.613 15.5625 680.696 15.5625ZM690.43 19.3516C690.998 20.0755 691.836 20.4375 692.946 20.4375C694.055 20.4375 694.891 20.0781 695.453 19.3594C696.021 18.6354 696.305 17.6146 696.305 16.2969C696.305 14.9635 696.021 13.9297 695.453 13.1953C694.891 12.4609 694.058 12.0938 692.953 12.0938C691.844 12.0938 691.003 12.4635 690.43 13.2031C689.862 13.9375 689.578 14.9688 689.578 16.2969C689.578 17.6094 689.862 18.6276 690.43 19.3516ZM692.938 22.1641C691.214 22.1641 689.852 21.6432 688.852 20.6016C687.857 19.5547 687.36 18.112 687.36 16.2734C687.36 14.4245 687.86 12.9818 688.86 11.9453C689.86 10.9089 691.222 10.3906 692.946 10.3906C694.67 10.3906 696.029 10.9115 697.024 11.9531C698.019 12.9896 698.516 14.4323 698.516 16.2812C698.516 18.1094 698.016 19.5469 697.016 20.5938C696.016 21.6406 694.657 22.1641 692.938 22.1641ZM706.156 22.1641C704.484 22.1641 703.159 21.638 702.179 20.5859C701.2 19.5339 700.711 18.0807 700.711 16.2266C700.711 14.4661 701.221 13.0547 702.242 11.9922C703.268 10.9245 704.609 10.3906 706.265 10.3906C707.604 10.3906 708.737 10.7005 709.664 11.3203L709 12.9219C708.109 12.375 707.213 12.1016 706.312 12.1016C705.26 12.1016 704.427 12.4818 703.812 13.2422C703.203 13.9974 702.898 15.013 702.898 16.2891C702.898 17.612 703.192 18.6354 703.781 19.3594C704.375 20.0833 705.218 20.4453 706.312 20.4453C707.271 20.4453 708.221 20.2057 709.164 19.7266L709.445 21.3828C708.57 21.9036 707.474 22.1641 706.156 22.1641ZM711.976 22V10.5547H718.913L718.827 12.2344H714.093V15.1875H718.593V16.8672H714.093V20.3125H718.999L718.929 22H711.976ZM724.827 22.1562C723.446 22.1562 722.209 21.8385 721.116 21.2031L721.631 19.5234C722.121 19.7943 722.652 20.013 723.225 20.1797C723.803 20.3464 724.366 20.4297 724.913 20.4297C725.584 20.4297 726.092 20.2865 726.436 20C726.78 19.7083 726.952 19.2917 726.952 18.75C726.952 18.0312 726.472 17.5339 725.514 17.2578C725.446 17.237 725.256 17.1823 724.944 17.0938C724.631 17 724.337 16.9115 724.061 16.8281C723.79 16.7396 723.595 16.6719 723.475 16.625C721.939 16.0833 721.17 15.0729 721.17 13.5938C721.17 12.5573 721.538 11.7578 722.272 11.1953C723.011 10.6328 723.991 10.3516 725.209 10.3516C726.59 10.3516 727.78 10.6354 728.78 11.2031L728.139 12.75C727.118 12.2917 726.17 12.0625 725.295 12.0625C724.665 12.0625 724.189 12.1745 723.866 12.3984C723.548 12.6172 723.379 12.9844 723.358 13.5C723.358 14.1354 723.673 14.5495 724.303 14.7422C724.428 14.7891 724.735 14.8906 725.225 15.0469C725.715 15.2031 726.032 15.3047 726.178 15.3516C727.225 15.6953 727.972 16.1224 728.42 16.6328C728.873 17.1432 729.1 17.8542 729.1 18.7656C729.1 19.8542 728.715 20.6927 727.944 21.2812C727.173 21.8646 726.134 22.1562 724.827 22.1562ZM734.763 22.1562C733.383 22.1562 732.146 21.8385 731.053 21.2031L731.568 19.5234C732.058 19.7943 732.589 20.013 733.162 20.1797C733.74 20.3464 734.303 20.4297 734.849 20.4297C735.521 20.4297 736.029 20.2865 736.373 20C736.717 19.7083 736.888 19.2917 736.888 18.75C736.888 18.0312 736.409 17.5339 735.451 17.2578C735.383 17.237 735.193 17.1823 734.881 17.0938C734.568 17 734.274 16.9115 733.998 16.8281C733.727 16.7396 733.532 16.6719 733.412 16.625C731.875 16.0833 731.107 15.0729 731.107 13.5938C731.107 12.5573 731.474 11.7578 732.209 11.1953C732.948 10.6328 733.928 10.3516 735.146 10.3516C736.526 10.3516 737.717 10.6354 738.717 11.2031L738.076 12.75C737.055 12.2917 736.107 12.0625 735.232 12.0625C734.602 12.0625 734.125 12.1745 733.803 12.3984C733.485 12.6172 733.316 12.9844 733.295 13.5C733.295 14.1354 733.61 14.5495 734.24 14.7422C734.365 14.7891 734.672 14.8906 735.162 15.0469C735.651 15.2031 735.969 15.3047 736.115 15.3516C737.162 15.6953 737.909 16.1224 738.357 16.6328C738.81 17.1432 739.037 17.8542 739.037 18.7656C739.037 19.8542 738.651 20.6927 737.881 21.2812C737.11 21.8646 736.071 22.1562 734.763 22.1562ZM748.575 22V12.25H745.239V10.5547H754.02V12.25H750.7V22H748.575ZM756.058 22V10.5547H758.176V22H756.058ZM761.347 22V10.5547H763.847L767.308 18.8203L770.792 10.5547H773.261V22H771.308V16.3438L771.37 13.1016L771.081 13.9609L768.152 21.2188H766.339L763.472 13.9219L763.183 13.0625L763.253 16.375V22H761.347ZM776.378 22V10.5547H783.315L783.229 12.2344H778.495V15.1875H782.995V16.8672H778.495V20.3125H783.401L783.331 22H776.378ZM786.018 22V10.5547H788.135V20.3125H792.924L792.861 22H786.018ZM795.087 22V10.5547H797.204V22H795.087ZM800.376 22V10.5547H802.626C803.032 11.1901 803.857 12.4714 805.102 14.3984C806.347 16.3255 807.105 17.4974 807.376 17.9141C807.454 18.0339 807.587 18.237 807.774 18.5234C807.967 18.8047 808.102 19.0052 808.18 19.125C808.144 17.3385 808.126 16.4115 808.126 16.3438V10.5547H810.055V22H807.774L802.61 13.9531L802.235 13.3359C802.277 14.7109 802.298 15.6771 802.298 16.2344V22H800.376ZM813.156 22V10.5547H820.094L820.008 12.2344H815.273V15.1875H819.773V16.8672H815.273V20.3125H820.18L820.109 22H813.156Z" fill="#00FFFF"/>
<path fill-rule="evenodd" clip-rule="evenodd" d="M868.149 1H861.5V0H868.149C872.063 0 875.895 1.12022 879.192 3.2283L899.84 16.4292C902.976 18.4344 906.621 19.5 910.343 19.5H917.5V20.5H910.343C906.43 20.5 902.598 19.3798 899.301 17.2717L878.653 4.07082C875.517 2.06557 871.872 1 868.149 1Z" fill="#828FA1"/>
<path fill-rule="evenodd" clip-rule="evenodd" d="M1390 20.5H917.5V19.5H1390V20.5Z" fill="#828FA1"/>
</svg>
