<svg width="288" height="29" viewBox="0 0 288 29" fill="none" xmlns="http://www.w3.org/2000/svg">
<path fill-rule="evenodd" clip-rule="evenodd" d="M16.5 20.5H0V19.5H16.5V20.5Z" fill="#828FA1"/>
<path fill-rule="evenodd" clip-rule="evenodd" d="M23.1494 19.5H16.5V20.5H23.1494C27.0629 20.5 30.8947 19.3798 34.192 17.2717L54.8395 4.07082C57.9759 2.06557 61.6208 1 65.3434 1H72.5V0H65.3434C61.4299 0 57.5981 1.12022 54.3008 3.2283L33.6533 16.4292C30.5169 18.4344 26.872 19.5 23.1494 19.5Z" fill="#828FA1"/>
<path fill-rule="evenodd" clip-rule="evenodd" d="M215.5 1H72.5V0H215.5V1Z" fill="#828FA1"/>
<path d="M95.3828 16.0137C95.8086 16.5566 96.4375 16.8281 97.2695 16.8281C98.1016 16.8281 98.7285 16.5586 99.1504 16.0195C99.5762 15.4766 99.7891 14.7109 99.7891 13.7227C99.7891 12.7227 99.5762 11.9473 99.1504 11.3965C98.7285 10.8457 98.1035 10.5703 97.2754 10.5703C96.4434 10.5703 95.8125 10.8477 95.3828 11.4023C94.957 11.9531 94.7441 12.7266 94.7441 13.7227C94.7441 14.707 94.957 15.4707 95.3828 16.0137ZM97.2637 18.123C95.9707 18.123 94.9492 17.7324 94.1992 16.9512C93.4531 16.166 93.0801 15.084 93.0801 13.7051C93.0801 12.3184 93.4551 11.2363 94.2051 10.459C94.9551 9.68164 95.9766 9.29297 97.2695 9.29297C98.5625 9.29297 99.582 9.68359 100.328 10.4648C101.074 11.2422 101.447 12.3242 101.447 13.7109C101.447 15.082 101.072 16.1602 100.322 16.9453C99.5723 17.7305 98.5527 18.123 97.2637 18.123ZM106.785 18.123C105.66 18.123 104.806 17.8438 104.224 17.2852C103.642 16.7227 103.351 15.9316 103.351 14.9121V9.41602H104.945V14.7773C104.945 15.4922 105.089 16.0137 105.378 16.3418C105.671 16.6699 106.15 16.834 106.814 16.834C107.466 16.834 107.939 16.6699 108.232 16.3418C108.525 16.0098 108.671 15.4863 108.671 14.7715V9.41602H110.259V14.9238C110.259 15.9355 109.962 16.7227 109.369 17.2852C108.775 17.8438 107.914 18.123 106.785 18.123ZM112.474 18V9.39258H115.655C116.089 9.39258 116.464 9.41211 116.78 9.45117C117.101 9.49023 117.403 9.5625 117.689 9.66797C117.978 9.76953 118.21 9.9082 118.386 10.084C118.565 10.2598 118.706 10.4902 118.808 10.7754C118.913 11.0566 118.966 11.3906 118.966 11.7773C118.966 12.918 118.448 13.668 117.413 14.0273C117.624 14.2656 117.886 14.707 118.198 15.3516L119.476 18H117.741L116.739 15.7559C116.36 14.9512 116.126 14.4746 116.036 14.3262C115.97 14.3223 115.749 14.3203 115.374 14.3203L114.044 14.3086V18H112.474ZM115.796 13.1719C116.405 13.1719 116.843 13.0645 117.108 12.8496C117.374 12.6309 117.507 12.2812 117.507 11.8008C117.507 11.3789 117.372 11.0684 117.103 10.8691C116.833 10.6699 116.421 10.5703 115.866 10.5703H114.044V13.166C114.103 13.166 114.394 13.168 114.917 13.1719C115.44 13.1719 115.733 13.1719 115.796 13.1719ZM124.777 18V9.39258H127.637C128.313 9.39258 128.891 9.48047 129.371 9.65625C129.852 9.82812 130.231 10.1094 130.508 10.5C130.789 10.8906 130.93 11.3809 130.93 11.9707C130.93 12.3809 130.877 12.7461 130.772 13.0664C130.666 13.3828 130.492 13.6719 130.25 13.9336C130.008 14.1914 129.666 14.3906 129.225 14.5312C128.787 14.6719 128.258 14.7422 127.637 14.7422C127.106 14.7422 126.674 14.7266 126.342 14.6953V18H124.777ZM127.467 13.5938C127.791 13.5938 128.072 13.5625 128.311 13.5C128.553 13.4375 128.74 13.3574 128.873 13.2598C129.01 13.1621 129.117 13.041 129.195 12.8965C129.277 12.752 129.33 12.6133 129.354 12.4805C129.381 12.3438 129.395 12.1914 129.395 12.0234C129.395 11.5508 129.242 11.1914 128.938 10.9453C128.633 10.6992 128.203 10.5762 127.649 10.5762H126.342V13.582C126.389 13.5898 126.764 13.5938 127.467 13.5938ZM132.558 18V9.39258H135.74C136.173 9.39258 136.548 9.41211 136.865 9.45117C137.185 9.49023 137.488 9.5625 137.773 9.66797C138.062 9.76953 138.295 9.9082 138.47 10.084C138.65 10.2598 138.791 10.4902 138.892 10.7754C138.998 11.0566 139.05 11.3906 139.05 11.7773C139.05 12.918 138.533 13.668 137.498 14.0273C137.709 14.2656 137.97 14.707 138.283 15.3516L139.56 18H137.826L136.824 15.7559C136.445 14.9512 136.211 14.4746 136.121 14.3262C136.054 14.3223 135.834 14.3203 135.459 14.3203L134.129 14.3086V18H132.558ZM135.88 13.1719C136.49 13.1719 136.927 13.0645 137.193 12.8496C137.459 12.6309 137.591 12.2812 137.591 11.8008C137.591 11.3789 137.457 11.0684 137.187 10.8691C136.918 10.6699 136.505 10.5703 135.951 10.5703H134.129V13.166C134.187 13.166 134.478 13.168 135.002 13.1719C135.525 13.1719 135.818 13.1719 135.88 13.1719ZM141.288 18V9.41602H142.876V18H141.288ZM145.255 18V9.41602H146.942C147.247 9.89258 147.866 10.8535 148.799 12.2988C149.733 13.7441 150.301 14.623 150.505 14.9355C150.563 15.0254 150.663 15.1777 150.803 15.3926C150.948 15.6035 151.049 15.7539 151.108 15.8438C151.081 14.5039 151.067 13.8086 151.067 13.7578V9.41602H152.514V18H150.803L146.93 11.9648L146.649 11.502C146.68 12.5332 146.696 13.2578 146.696 13.6758V18H145.255ZM158.584 18.123C157.33 18.123 156.336 17.7285 155.602 16.9395C154.867 16.1504 154.5 15.0605 154.5 13.6699C154.5 12.3496 154.883 11.291 155.649 10.4941C156.418 9.69336 157.424 9.29297 158.666 9.29297C159.67 9.29297 160.52 9.52539 161.215 9.99023L160.717 11.1914C160.049 10.7812 159.377 10.5762 158.701 10.5762C157.912 10.5762 157.287 10.8613 156.826 11.4316C156.369 11.998 156.141 12.7598 156.141 13.7168C156.141 14.709 156.361 15.4766 156.803 16.0195C157.248 16.5625 157.881 16.834 158.701 16.834C159.42 16.834 160.133 16.6543 160.84 16.2949L161.051 17.5371C160.395 17.9277 159.572 18.123 158.584 18.123ZM162.99 18V9.41602H164.578V18H162.99ZM166.915 18V9.39258H169.775C170.45 9.39258 171.029 9.48047 171.509 9.65625C171.989 9.82812 172.368 10.1094 172.646 10.5C172.927 10.8906 173.068 11.3809 173.068 11.9707C173.068 12.3809 173.015 12.7461 172.909 13.0664C172.804 13.3828 172.63 13.6719 172.388 13.9336C172.146 14.1914 171.804 14.3906 171.363 14.5312C170.925 14.6719 170.396 14.7422 169.775 14.7422C169.243 14.7422 168.812 14.7266 168.48 14.6953V18H166.915ZM169.605 13.5938C169.929 13.5938 170.21 13.5625 170.448 13.5C170.691 13.4375 170.878 13.3574 171.011 13.2598C171.148 13.1621 171.255 13.041 171.333 12.8965C171.415 12.752 171.468 12.6133 171.491 12.4805C171.519 12.3438 171.532 12.1914 171.532 12.0234C171.532 11.5508 171.38 11.1914 171.075 10.9453C170.771 10.6992 170.341 10.5762 169.786 10.5762H168.48V13.582C168.527 13.5898 168.902 13.5938 169.605 13.5938ZM174.737 18V9.41602H176.325V16.7344H179.917L179.87 18H174.737ZM181.498 18V9.41602H186.701L186.637 10.6758H183.086V12.8906H186.461V14.1504H183.086V16.7344H186.766L186.713 18H181.498ZM191.136 18.1172C190.101 18.1172 189.174 17.8789 188.353 17.4023L188.74 16.1426C189.107 16.3457 189.506 16.5098 189.935 16.6348C190.369 16.7598 190.791 16.8223 191.201 16.8223C191.705 16.8223 192.086 16.7148 192.344 16.5C192.601 16.2812 192.73 15.9688 192.73 15.5625C192.73 15.0234 192.371 14.6504 191.652 14.4434C191.601 14.4277 191.459 14.3867 191.224 14.3203C190.99 14.25 190.769 14.1836 190.562 14.1211C190.359 14.0547 190.213 14.0039 190.123 13.9688C188.97 13.5625 188.394 12.8047 188.394 11.6953C188.394 10.918 188.67 10.3184 189.22 9.89648C189.775 9.47461 190.51 9.26367 191.424 9.26367C192.459 9.26367 193.351 9.47656 194.101 9.90234L193.621 11.0625C192.855 10.7188 192.144 10.5469 191.488 10.5469C191.015 10.5469 190.658 10.6309 190.416 10.7988C190.177 10.9629 190.051 11.2383 190.035 11.625C190.035 12.1016 190.271 12.4121 190.744 12.5566C190.838 12.5918 191.068 12.668 191.435 12.7852C191.802 12.9023 192.041 12.9785 192.15 13.0137C192.935 13.2715 193.496 13.5918 193.832 13.9746C194.172 14.3574 194.342 14.8906 194.342 15.5742C194.342 16.3906 194.052 17.0195 193.474 17.4609C192.896 17.8984 192.117 18.1172 191.136 18.1172Z" fill="#00FFFF"/>
<path fill-rule="evenodd" clip-rule="evenodd" d="M222.149 1H215.5V0H222.149C226.063 0 229.895 1.12022 233.192 3.2283L253.84 16.4292C256.976 18.4344 260.621 19.5 264.343 19.5H271.5V20.5H264.343C260.43 20.5 256.598 19.3798 253.301 17.2717L232.653 4.07082C229.517 2.06557 225.872 1 222.149 1Z" fill="#828FA1"/>
<path fill-rule="evenodd" clip-rule="evenodd" d="M288 20.5H271.5V19.5H288V20.5Z" fill="#828FA1"/>
</svg>
