<svg width="1390" height="29" viewBox="0 0 1390 29" fill="none" xmlns="http://www.w3.org/2000/svg">
<path fill-rule="evenodd" clip-rule="evenodd" d="M530.5 20.5H0V19.5H530.5V20.5Z" fill="#828FA1"/>
<path fill-rule="evenodd" clip-rule="evenodd" d="M537.149 19.5H530.5V20.5H537.149C541.063 20.5 544.895 19.3798 548.192 17.2717L568.84 4.07082C571.976 2.06557 575.621 1 579.343 1H586.5V0H579.343C575.43 0 571.598 1.12022 568.301 3.2283L547.653 16.4292C544.517 18.4344 540.872 19.5 537.149 19.5Z" fill="#828FA1"/>
<path fill-rule="evenodd" clip-rule="evenodd" d="M803.5 1H586.5V0H803.5V1Z" fill="#828FA1"/>
<path d="M630.344 19.3516C630.911 20.0755 631.75 20.4375 632.859 20.4375C633.969 20.4375 634.805 20.0781 635.367 19.3594C635.935 18.6354 636.219 17.6146 636.219 16.2969C636.219 14.9635 635.935 13.9297 635.367 13.1953C634.805 12.4609 633.971 12.0938 632.867 12.0938C631.758 12.0938 630.917 12.4635 630.344 13.2031C629.776 13.9375 629.492 14.9688 629.492 16.2969C629.492 17.6094 629.776 18.6276 630.344 19.3516ZM632.852 22.1641C631.128 22.1641 629.766 21.6432 628.766 20.6016C627.771 19.5547 627.273 18.112 627.273 16.2734C627.273 14.4245 627.773 12.9818 628.773 11.9453C629.773 10.9089 631.135 10.3906 632.859 10.3906C634.583 10.3906 635.943 10.9115 636.938 11.9531C637.932 12.9896 638.43 14.4323 638.43 16.2812C638.43 18.1094 637.93 19.5469 636.93 20.5938C635.93 21.6406 634.57 22.1641 632.852 22.1641ZM645.546 22.1641C644.046 22.1641 642.908 21.7917 642.132 21.0469C641.356 20.2969 640.968 19.2422 640.968 17.8828V10.5547H643.093V17.7031C643.093 18.6562 643.286 19.3516 643.671 19.7891C644.062 20.2266 644.7 20.4453 645.585 20.4453C646.455 20.4453 647.085 20.2266 647.476 19.7891C647.867 19.3464 648.062 18.6484 648.062 17.6953V10.5547H650.179V17.8984C650.179 19.2474 649.783 20.2969 648.992 21.0469C648.2 21.7917 647.051 22.1641 645.546 22.1641ZM653.132 22V10.5234H657.374C657.952 10.5234 658.452 10.5495 658.874 10.6016C659.301 10.6536 659.704 10.75 660.085 10.8906C660.47 11.026 660.78 11.2109 661.014 11.4453C661.254 11.6797 661.441 11.987 661.577 12.3672C661.718 12.7422 661.788 13.1875 661.788 13.7031C661.788 15.224 661.098 16.224 659.718 16.7031C659.999 17.0208 660.348 17.6094 660.764 18.4688L662.468 22H660.155L658.819 19.0078C658.314 17.9349 658.001 17.2995 657.882 17.1016C657.793 17.0964 657.499 17.0938 656.999 17.0938L655.225 17.0781V22H653.132ZM657.561 15.5625C658.374 15.5625 658.957 15.4193 659.311 15.1328C659.665 14.8411 659.843 14.375 659.843 13.7344C659.843 13.1719 659.663 12.7578 659.303 12.4922C658.944 12.2266 658.395 12.0938 657.655 12.0938H655.225V15.5547C655.303 15.5547 655.691 15.5573 656.389 15.5625C657.087 15.5625 657.478 15.5625 657.561 15.5625ZM669.537 22V10.5234H673.349C674.25 10.5234 675.021 10.6406 675.662 10.875C676.302 11.1042 676.807 11.4792 677.177 12C677.552 12.5208 677.74 13.1745 677.74 13.9609C677.74 14.5078 677.669 14.9948 677.529 15.4219C677.388 15.8438 677.156 16.2292 676.833 16.5781C676.511 16.9219 676.055 17.1875 675.466 17.375C674.883 17.5625 674.177 17.6562 673.349 17.6562C672.641 17.6562 672.065 17.6354 671.623 17.5938V22H669.537ZM673.123 16.125C673.555 16.125 673.93 16.0833 674.248 16C674.57 15.9167 674.82 15.8099 674.998 15.6797C675.18 15.5495 675.323 15.388 675.427 15.1953C675.537 15.0026 675.607 14.8177 675.638 14.6406C675.675 14.4583 675.693 14.2552 675.693 14.0312C675.693 13.401 675.49 12.9219 675.083 12.5938C674.677 12.2656 674.104 12.1016 673.365 12.1016H671.623V16.1094C671.685 16.1198 672.185 16.125 673.123 16.125ZM679.911 22V10.5234H684.153C684.731 10.5234 685.231 10.5495 685.653 10.6016C686.08 10.6536 686.484 10.75 686.864 10.8906C687.249 11.026 687.559 11.2109 687.794 11.4453C688.033 11.6797 688.221 11.987 688.356 12.3672C688.497 12.7422 688.567 13.1875 688.567 13.7031C688.567 15.224 687.877 16.224 686.497 16.7031C686.778 17.0208 687.127 17.6094 687.544 18.4688L689.247 22H686.934L685.598 19.0078C685.093 17.9349 684.781 17.2995 684.661 17.1016C684.572 17.0964 684.278 17.0938 683.778 17.0938L682.005 17.0781V22H679.911ZM684.341 15.5625C685.153 15.5625 685.736 15.4193 686.091 15.1328C686.445 14.8411 686.622 14.375 686.622 13.7344C686.622 13.1719 686.442 12.7578 686.083 12.4922C685.723 12.2266 685.174 12.0938 684.434 12.0938H682.005V15.5547C682.083 15.5547 682.471 15.5573 683.169 15.5625C683.867 15.5625 684.257 15.5625 684.341 15.5625ZM691.551 22V10.5547H693.668V22H691.551ZM696.839 22V10.5547H699.089C699.496 11.1901 700.321 12.4714 701.566 14.3984C702.811 16.3255 703.569 17.4974 703.839 17.9141C703.918 18.0339 704.05 18.237 704.238 18.5234C704.431 18.8047 704.566 19.0052 704.644 19.125C704.608 17.3385 704.589 16.4115 704.589 16.3438V10.5547H706.519V22H704.238L699.074 13.9531L698.699 13.3359C698.74 14.7109 698.761 15.6771 698.761 16.2344V22H696.839ZM714.612 22.1641C712.94 22.1641 711.615 21.638 710.636 20.5859C709.656 19.5339 709.167 18.0807 709.167 16.2266C709.167 14.4661 709.677 13.0547 710.698 11.9922C711.724 10.9245 713.065 10.3906 714.722 10.3906C716.06 10.3906 717.193 10.7005 718.12 11.3203L717.456 12.9219C716.565 12.375 715.669 12.1016 714.768 12.1016C713.716 12.1016 712.883 12.4818 712.268 13.2422C711.659 13.9974 711.354 15.013 711.354 16.2891C711.354 17.612 711.649 18.6354 712.237 19.3594C712.831 20.0833 713.675 20.4453 714.768 20.4453C715.727 20.4453 716.677 20.2057 717.62 19.7266L717.901 21.3828C717.026 21.9036 715.93 22.1641 714.612 22.1641ZM720.487 22V10.5547H722.604V22H720.487ZM725.72 22V10.5234H729.533C730.434 10.5234 731.205 10.6406 731.845 10.875C732.486 11.1042 732.991 11.4792 733.361 12C733.736 12.5208 733.923 13.1745 733.923 13.9609C733.923 14.5078 733.853 14.9948 733.713 15.4219C733.572 15.8438 733.34 16.2292 733.017 16.5781C732.694 16.9219 732.239 17.1875 731.65 17.375C731.067 17.5625 730.361 17.6562 729.533 17.6562C728.824 17.6562 728.249 17.6354 727.806 17.5938V22H725.72ZM729.306 16.125C729.739 16.125 730.114 16.0833 730.431 16C730.754 15.9167 731.004 15.8099 731.181 15.6797C731.364 15.5495 731.507 15.388 731.611 15.1953C731.72 15.0026 731.791 14.8177 731.822 14.6406C731.858 14.4583 731.877 14.2552 731.877 14.0312C731.877 13.401 731.673 12.9219 731.267 12.5938C730.861 12.2656 730.288 12.1016 729.548 12.1016H727.806V16.1094C727.869 16.1198 728.369 16.125 729.306 16.125ZM736.149 22V10.5547H738.267V20.3125H743.056L742.993 22H736.149ZM745.164 22V10.5547H752.102L752.016 12.2344H747.282V15.1875H751.782V16.8672H747.282V20.3125H752.188L752.118 22H745.164ZM758.015 22.1562C756.635 22.1562 755.398 21.8385 754.304 21.2031L754.82 19.5234C755.31 19.7943 755.841 20.013 756.414 20.1797C756.992 20.3464 757.554 20.4297 758.101 20.4297C758.773 20.4297 759.281 20.2865 759.625 20C759.968 19.7083 760.14 19.2917 760.14 18.75C760.14 18.0312 759.661 17.5339 758.703 17.2578C758.635 17.237 758.445 17.1823 758.132 17.0938C757.82 17 757.526 16.9115 757.25 16.8281C756.979 16.7396 756.784 16.6719 756.664 16.625C755.127 16.0833 754.359 15.0729 754.359 13.5938C754.359 12.5573 754.726 11.7578 755.461 11.1953C756.2 10.6328 757.179 10.3516 758.398 10.3516C759.778 10.3516 760.968 10.6354 761.968 11.2031L761.328 12.75C760.307 12.2917 759.359 12.0625 758.484 12.0625C757.854 12.0625 757.377 12.1745 757.054 12.3984C756.737 12.6172 756.567 12.9844 756.547 13.5C756.547 14.1354 756.862 14.5495 757.492 14.7422C757.617 14.7891 757.924 14.8906 758.414 15.0469C758.903 15.2031 759.221 15.3047 759.367 15.3516C760.414 15.6953 761.161 16.1224 761.609 16.6328C762.062 17.1432 762.289 17.8542 762.289 18.7656C762.289 19.8542 761.903 20.6927 761.132 21.2812C760.362 21.8646 759.323 22.1562 758.015 22.1562Z" fill="#00FFFF"/>
<path fill-rule="evenodd" clip-rule="evenodd" d="M810.149 1H803.5V0H810.149C814.063 0 817.895 1.12022 821.192 3.2283L841.84 16.4292C844.976 18.4344 848.621 19.5 852.343 19.5H859.5V20.5H852.343C848.43 20.5 844.598 19.3798 841.301 17.2717L820.653 4.07082C817.517 2.06557 813.872 1 810.149 1Z" fill="#828FA1"/>
<path fill-rule="evenodd" clip-rule="evenodd" d="M1390 20.5H859.5V19.5H1390V20.5Z" fill="#828FA1"/>
</svg>
