<svg width="1390" height="29" viewBox="0 0 1390 29" fill="none" xmlns="http://www.w3.org/2000/svg">
<path fill-rule="evenodd" clip-rule="evenodd" d="M543.5 20.5H0V19.5H543.5V20.5Z" fill="#828FA1"/>
<path fill-rule="evenodd" clip-rule="evenodd" d="M550.149 19.5H543.5V20.5H550.149C554.063 20.5 557.895 19.3798 561.192 17.2717L581.84 4.07082C584.976 2.06557 588.621 1 592.343 1H599.5V0H592.343C588.43 0 584.598 1.12022 581.301 3.2283L560.653 16.4292C557.517 18.4344 553.872 19.5 550.149 19.5Z" fill="#828FA1"/>
<path fill-rule="evenodd" clip-rule="evenodd" d="M790.5 1H599.5V0H790.5V1Z" fill="#828FA1"/>
<path d="M643.344 19.3516C643.911 20.0755 644.75 20.4375 645.859 20.4375C646.969 20.4375 647.805 20.0781 648.367 19.3594C648.935 18.6354 649.219 17.6146 649.219 16.2969C649.219 14.9635 648.935 13.9297 648.367 13.1953C647.805 12.4609 646.971 12.0938 645.867 12.0938C644.758 12.0938 643.917 12.4635 643.344 13.2031C642.776 13.9375 642.492 14.9688 642.492 16.2969C642.492 17.6094 642.776 18.6276 643.344 19.3516ZM645.852 22.1641C644.128 22.1641 642.766 21.6432 641.766 20.6016C640.771 19.5547 640.273 18.112 640.273 16.2734C640.273 14.4245 640.773 12.9818 641.773 11.9453C642.773 10.9089 644.135 10.3906 645.859 10.3906C647.583 10.3906 648.943 10.9115 649.938 11.9531C650.932 12.9896 651.43 14.4323 651.43 16.2812C651.43 18.1094 650.93 19.5469 649.93 20.5938C648.93 21.6406 647.57 22.1641 645.852 22.1641ZM658.546 22.1641C657.046 22.1641 655.908 21.7917 655.132 21.0469C654.356 20.2969 653.968 19.2422 653.968 17.8828V10.5547H656.093V17.7031C656.093 18.6562 656.286 19.3516 656.671 19.7891C657.062 20.2266 657.7 20.4453 658.585 20.4453C659.455 20.4453 660.085 20.2266 660.476 19.7891C660.867 19.3464 661.062 18.6484 661.062 17.6953V10.5547H663.179V17.8984C663.179 19.2474 662.783 20.2969 661.992 21.0469C661.2 21.7917 660.051 22.1641 658.546 22.1641ZM666.132 22V10.5234H670.374C670.952 10.5234 671.452 10.5495 671.874 10.6016C672.301 10.6536 672.704 10.75 673.085 10.8906C673.47 11.026 673.78 11.2109 674.014 11.4453C674.254 11.6797 674.441 11.987 674.577 12.3672C674.718 12.7422 674.788 13.1875 674.788 13.7031C674.788 15.224 674.098 16.224 672.718 16.7031C672.999 17.0208 673.348 17.6094 673.764 18.4688L675.468 22H673.155L671.819 19.0078C671.314 17.9349 671.001 17.2995 670.882 17.1016C670.793 17.0964 670.499 17.0938 669.999 17.0938L668.225 17.0781V22H666.132ZM670.561 15.5625C671.374 15.5625 671.957 15.4193 672.311 15.1328C672.665 14.8411 672.843 14.375 672.843 13.7344C672.843 13.1719 672.663 12.7578 672.303 12.4922C671.944 12.2266 671.395 12.0938 670.655 12.0938H668.225V15.5547C668.303 15.5547 668.691 15.5573 669.389 15.5625C670.087 15.5625 670.478 15.5625 670.561 15.5625ZM682.591 22V10.5547H686.162C687.677 10.5547 688.807 10.776 689.552 11.2188C690.297 11.6615 690.669 12.3984 690.669 13.4297C690.669 13.5964 690.659 13.7604 690.638 13.9219C690.617 14.0833 690.57 14.2682 690.498 14.4766C690.425 14.6797 690.328 14.8646 690.208 15.0312C690.089 15.1979 689.922 15.362 689.708 15.5234C689.495 15.6797 689.245 15.8021 688.958 15.8906C689.667 16.0625 690.208 16.3932 690.583 16.8828C690.958 17.3672 691.146 17.9661 691.146 18.6797C691.146 19.7578 690.763 20.5807 689.998 21.1484C689.237 21.7161 688.182 22 686.833 22H682.591ZM684.708 20.4688H686.544C688.169 20.4688 688.982 19.8333 688.982 18.5625C688.982 17.9219 688.779 17.4609 688.373 17.1797C687.966 16.8984 687.339 16.7578 686.49 16.7578H684.708V20.4688ZM684.708 15.2812H686.521C687.922 15.2812 688.623 14.7474 688.623 13.6797C688.623 13.0807 688.419 12.6693 688.013 12.4453C687.612 12.2214 686.971 12.1094 686.091 12.1094H684.708V15.2812ZM693.598 22V10.5234H697.841C698.419 10.5234 698.919 10.5495 699.341 10.6016C699.768 10.6536 700.171 10.75 700.552 10.8906C700.937 11.026 701.247 11.2109 701.481 11.4453C701.721 11.6797 701.908 11.987 702.044 12.3672C702.184 12.7422 702.255 13.1875 702.255 13.7031C702.255 15.224 701.565 16.224 700.184 16.7031C700.466 17.0208 700.815 17.6094 701.231 18.4688L702.934 22H700.622L699.286 19.0078C698.781 17.9349 698.468 17.2995 698.348 17.1016C698.26 17.0964 697.966 17.0938 697.466 17.0938L695.692 17.0781V22H693.598ZM698.028 15.5625C698.841 15.5625 699.424 15.4193 699.778 15.1328C700.132 14.8411 700.309 14.375 700.309 13.7344C700.309 13.1719 700.13 12.7578 699.77 12.4922C699.411 12.2266 698.861 12.0938 698.122 12.0938H695.692V15.5547C695.77 15.5547 696.158 15.5573 696.856 15.5625C697.554 15.5625 697.945 15.5625 698.028 15.5625ZM703.926 22L708.137 10.5469H710.442L714.59 22H712.418L711.285 18.7656H707.277L706.137 22H703.926ZM707.809 17.1875H710.746C709.809 14.1823 709.327 12.6302 709.301 12.5312L707.809 17.1875ZM716.371 22V10.5547H718.621C719.027 11.1901 719.852 12.4714 721.097 14.3984C722.342 16.3255 723.1 17.4974 723.371 17.9141C723.449 18.0339 723.582 18.237 723.769 18.5234C723.962 18.8047 724.097 19.0052 724.175 19.125C724.139 17.3385 724.121 16.4115 724.121 16.3438V10.5547H726.05V22H723.769L718.605 13.9531L718.23 13.3359C718.272 14.7109 718.293 15.6771 718.293 16.2344V22H716.371ZM731.276 20.3047H732.792C734.099 20.3047 735.094 19.9635 735.776 19.2812C736.459 18.5938 736.8 17.5938 736.8 16.2812C736.8 14.875 736.448 13.8542 735.745 13.2188C735.042 12.5781 733.982 12.2578 732.565 12.2578H731.276V20.3047ZM729.159 22V10.5547H732.472C733.472 10.5547 734.367 10.6693 735.159 10.8984C735.951 11.1276 736.63 11.474 737.198 11.9375C737.771 12.3958 738.209 12.9896 738.511 13.7188C738.818 14.4427 738.972 15.2812 738.972 16.2344C738.972 18.0833 738.414 19.5078 737.3 20.5078C736.185 21.5026 734.641 22 732.667 22H729.159ZM744.83 22.1562C743.45 22.1562 742.213 21.8385 741.119 21.2031L741.635 19.5234C742.125 19.7943 742.656 20.013 743.229 20.1797C743.807 20.3464 744.369 20.4297 744.916 20.4297C745.588 20.4297 746.096 20.2865 746.44 20C746.783 19.7083 746.955 19.2917 746.955 18.75C746.955 18.0312 746.476 17.5339 745.518 17.2578C745.45 17.237 745.26 17.1823 744.948 17.0938C744.635 17 744.341 16.9115 744.065 16.8281C743.794 16.7396 743.599 16.6719 743.479 16.625C741.942 16.0833 741.174 15.0729 741.174 13.5938C741.174 12.5573 741.541 11.7578 742.276 11.1953C743.015 10.6328 743.994 10.3516 745.213 10.3516C746.593 10.3516 747.783 10.6354 748.783 11.2031L748.143 12.75C747.122 12.2917 746.174 12.0625 745.299 12.0625C744.669 12.0625 744.192 12.1745 743.869 12.3984C743.552 12.6172 743.382 12.9844 743.362 13.5C743.362 14.1354 743.677 14.5495 744.307 14.7422C744.432 14.7891 744.739 14.8906 745.229 15.0469C745.718 15.2031 746.036 15.3047 746.182 15.3516C747.229 15.6953 747.976 16.1224 748.424 16.6328C748.877 17.1432 749.104 17.8542 749.104 18.7656C749.104 19.8542 748.718 20.6927 747.948 21.2812C747.177 21.8646 746.138 22.1562 744.83 22.1562Z" fill="#00FFFF"/>
<path fill-rule="evenodd" clip-rule="evenodd" d="M797.149 1H790.5V0H797.149C801.063 0 804.895 1.12022 808.192 3.2283L828.84 16.4292C831.976 18.4344 835.621 19.5 839.343 19.5H846.5V20.5H839.343C835.43 20.5 831.598 19.3798 828.301 17.2717L807.653 4.07082C804.517 2.06557 800.872 1 797.149 1Z" fill="#828FA1"/>
<path fill-rule="evenodd" clip-rule="evenodd" d="M1390 20.5H846.5V19.5H1390V20.5Z" fill="#828FA1"/>
</svg>
