<svg width="249" height="44" viewBox="0 0 249 44" fill="none" xmlns="http://www.w3.org/2000/svg">
<path d="M61.0981 33.7593C60.8805 33.7593 60.6953 33.6834 60.543 33.5318C60.3907 33.3801 60.3145 33.1958 60.3145 32.9791V11.8156C60.3145 11.5772 60.3798 11.3821 60.5104 11.2304C60.6627 11.0787 60.8586 11.0028 61.0981 11.0028H69.0651C75.4649 11.0028 78.7301 13.9503 78.8607 19.8454C78.9042 21.1023 78.926 21.9476 78.926 22.3811C78.926 22.7928 78.9042 23.6273 78.8607 24.8843C78.7736 27.9185 77.9573 30.1617 76.4118 31.6137C74.8662 33.0441 72.4718 33.7593 69.2284 33.7593H61.0981ZM69.0651 30.0208C70.8936 30.0208 72.2106 29.6198 73.016 28.8179C73.8214 27.9943 74.2458 26.6507 74.2894 24.7868C74.333 23.4864 74.3547 22.6737 74.3547 22.3486C74.3547 22.0018 74.333 21.1999 74.2894 19.9429C74.2458 18.1657 73.7887 16.8545 72.918 16.0093C72.0691 15.164 70.7304 14.7414 68.9019 14.7414H64.853V30.0208H69.0651ZM93.0357 34.0844C90.097 34.0844 87.8114 33.3367 86.1788 31.8413C84.5462 30.3458 83.7299 28.0811 83.7299 25.0468V11.8156C83.7299 11.5772 83.7952 11.3821 83.9258 11.2304C84.0782 11.0787 84.2741 11.0028 84.5136 11.0028H87.4849C87.7242 11.0028 87.9094 11.0787 88.04 11.2304C88.1923 11.3821 88.2685 11.5772 88.2685 11.8156V25.0468C88.2685 26.7807 88.6821 28.0918 89.5093 28.9805C90.3364 29.8473 91.5118 30.2808 93.0357 30.2808C94.5594 30.2808 95.7239 29.8473 96.5294 28.9805C97.3565 28.0918 97.7702 26.7807 97.7702 25.0468V11.8156C97.7702 11.5772 97.8463 11.3821 97.9988 11.2304C98.1511 11.0787 98.347 11.0028 98.5865 11.0028H101.525C101.765 11.0028 101.95 11.0787 102.08 11.2304C102.233 11.3821 102.309 11.5772 102.309 11.8156V25.0468C102.309 28.0811 101.493 30.3458 99.8599 31.8413C98.249 33.3367 95.9743 34.0844 93.0357 34.0844ZM106.487 33.7593C106.291 33.7593 106.128 33.6943 105.997 33.5643C105.866 33.4342 105.801 33.2717 105.801 33.0766C105.801 32.9466 105.834 32.8166 105.899 32.6865L113.213 22.1535L106.356 12.0756C106.291 11.9673 106.258 11.8372 106.258 11.6855C106.258 11.4905 106.324 11.3279 106.454 11.1979C106.585 11.0678 106.748 11.0028 106.944 11.0028H110.274C110.666 11.0028 111.004 11.2087 111.287 11.6205L116.086 18.6425L120.919 11.6205C121.202 11.2087 121.539 11.0028 121.931 11.0028H125.098C125.294 11.0028 125.458 11.0678 125.588 11.1979C125.718 11.3279 125.784 11.4905 125.784 11.6855C125.784 11.8372 125.741 11.9673 125.653 12.0756L118.829 22.1535L126.143 32.6865C126.231 32.8599 126.274 32.99 126.274 33.0766C126.274 33.2717 126.198 33.4342 126.045 33.5643C125.914 33.6943 125.762 33.7593 125.588 33.7593H122.127C121.713 33.7593 121.387 33.5643 121.147 33.1742L115.923 25.8271L110.797 33.1742C110.514 33.5643 110.176 33.7593 109.785 33.7593H106.487ZM137.955 34.0844C134.951 34.0844 132.622 33.3151 130.968 31.7763C129.335 30.2374 128.465 28.0702 128.356 25.2744C128.334 24.6892 128.323 23.7356 128.323 22.4136C128.323 21.0698 128.334 20.0945 128.356 19.4878C128.465 16.7136 129.347 14.5572 131.001 13.0184C132.677 11.458 134.995 10.6777 137.955 10.6777C139.893 10.6777 141.58 11.0137 143.016 11.6855C144.453 12.3357 145.563 13.2351 146.347 14.3838C147.131 15.5107 147.544 16.7895 147.588 18.2199V18.2849C147.588 18.4583 147.511 18.61 147.359 18.74C147.228 18.8484 147.077 18.9026 146.902 18.9026H143.8C143.539 18.9026 143.343 18.8484 143.212 18.74C143.082 18.6316 142.972 18.4258 142.886 18.1224C142.538 16.757 141.96 15.8033 141.155 15.2615C140.35 14.698 139.273 14.4163 137.923 14.4163C134.788 14.4163 133.156 16.1609 133.025 19.6503C133.004 20.2355 132.992 21.1348 132.992 22.3486C132.992 23.5623 133.004 24.4833 133.025 25.1119C133.156 28.6012 134.788 30.3459 137.923 30.3459C139.273 30.3459 140.35 30.0641 141.155 29.5006C141.983 28.9371 142.559 27.9836 142.886 26.6398C142.951 26.3363 143.049 26.1305 143.18 26.0221C143.332 25.9137 143.539 25.8596 143.8 25.8596H146.902C147.098 25.8596 147.261 25.9246 147.392 26.0546C147.544 26.1847 147.609 26.3472 147.588 26.5423C147.544 27.9727 147.131 29.2622 146.347 30.4109C145.563 31.5378 144.453 32.4373 143.016 33.1091C141.58 33.7593 139.893 34.0844 137.955 34.0844ZM150.453 33.7593C150.28 33.7593 150.117 33.6943 149.964 33.5643C149.833 33.4342 149.768 33.2717 149.768 33.0766L149.833 32.784L157.702 11.8156C157.855 11.2737 158.236 11.0028 158.845 11.0028H162.404C162.97 11.0028 163.351 11.2737 163.547 11.8156L171.416 32.784C171.439 32.8491 171.449 32.9466 171.449 33.0766C171.449 33.2717 171.383 33.4342 171.253 33.5643C171.122 33.6943 170.97 33.7593 170.796 33.7593H167.955C167.672 33.7593 167.455 33.6943 167.302 33.5643C167.15 33.4342 167.052 33.2933 167.008 33.1416L165.473 29.1755H155.776L154.241 33.1416C154.068 33.5534 153.751 33.7593 153.294 33.7593H150.453ZM164.33 25.4369L160.608 15.3916L156.919 25.4369H164.33ZM182.766 34.0844C180.828 34.0844 179.163 33.7918 177.77 33.2067C176.378 32.6215 175.322 31.8522 174.603 30.8985C173.885 29.9449 173.504 28.9154 173.46 27.8101C173.46 27.6151 173.526 27.4525 173.656 27.3225C173.787 27.1924 173.95 27.1274 174.146 27.1274H177.052C177.313 27.1274 177.509 27.1816 177.64 27.29C177.792 27.3766 177.934 27.5284 178.064 27.7451C178.282 28.4819 178.783 29.0996 179.566 29.5981C180.35 30.0967 181.416 30.3459 182.766 30.3459C184.312 30.3459 185.476 30.0967 186.26 29.5981C187.044 29.078 187.435 28.3628 187.435 27.4525C187.435 26.8457 187.228 26.3472 186.815 25.9571C186.423 25.567 185.824 25.231 185.019 24.9493C184.236 24.6676 183.06 24.3208 181.493 23.909C178.925 23.3022 177.041 22.5002 175.844 21.5033C174.669 20.4847 174.081 19.0435 174.081 17.1796C174.081 15.9226 174.419 14.8064 175.093 13.8311C175.79 12.8559 176.78 12.0865 178.064 11.523C179.37 10.9595 180.884 10.6777 182.603 10.6777C184.387 10.6777 185.933 10.992 187.239 11.6205C188.546 12.249 189.536 13.04 190.211 13.9937C190.908 14.9256 191.277 15.8576 191.321 16.7895C191.321 16.9845 191.256 17.1471 191.125 17.2771C190.994 17.4072 190.831 17.4722 190.635 17.4722H187.599C187.142 17.4722 186.826 17.2662 186.652 16.8545C186.521 16.1609 186.085 15.5866 185.346 15.1315C184.606 14.6547 183.692 14.4163 182.603 14.4163C181.384 14.4163 180.427 14.6439 179.73 15.099C179.033 15.5541 178.685 16.2152 178.685 17.0821C178.685 17.6889 178.859 18.1874 179.207 18.5775C179.555 18.9676 180.1 19.3143 180.84 19.6178C181.602 19.9212 182.69 20.2571 184.105 20.6256C186.02 21.0591 187.545 21.5467 188.676 22.0885C189.83 22.6303 190.679 23.313 191.223 24.1366C191.767 24.9602 192.039 26.0112 192.039 27.29C192.039 28.677 191.647 29.8907 190.864 30.931C190.102 31.9497 189.014 32.7299 187.599 33.2717C186.206 33.8135 184.595 34.0844 182.766 34.0844ZM197.218 33.7593C197 33.7593 196.815 33.6834 196.663 33.5318C196.51 33.3801 196.435 33.1958 196.435 32.9791V11.783C196.435 11.5446 196.51 11.3604 196.663 11.2304C196.815 11.0787 197 11.0028 197.218 11.0028H200.288C200.526 11.0028 200.712 11.0787 200.843 11.2304C200.995 11.3604 201.071 11.5446 201.071 11.783V32.9791C201.071 33.1958 200.995 33.3801 200.843 33.5318C200.712 33.6834 200.526 33.7593 200.288 33.7593H197.218ZM207.628 33.7593C207.411 33.7593 207.225 33.6834 207.073 33.5318C206.921 33.3801 206.844 33.1958 206.844 32.9791V11.8156C206.844 11.5772 206.91 11.3821 207.04 11.2304C207.192 11.0787 207.388 11.0028 207.628 11.0028H210.142C210.403 11.0028 210.599 11.057 210.73 11.1654C210.861 11.2521 210.98 11.3713 211.089 11.523L220.493 26.0871V11.8156C220.493 11.5772 220.558 11.3821 220.689 11.2304C220.841 11.0787 221.037 11.0028 221.276 11.0028H224.019C224.259 11.0028 224.455 11.0787 224.607 11.2304C224.759 11.3821 224.835 11.5772 224.835 11.8156V32.9466C224.835 33.185 224.759 33.3801 224.607 33.5318C224.455 33.6834 224.269 33.7593 224.052 33.7593H221.505C221.135 33.7593 220.819 33.5859 220.558 33.2392L211.187 19.0001V32.9791C211.187 33.2175 211.11 33.4126 210.958 33.5643C210.807 33.6943 210.611 33.7593 210.371 33.7593H207.628ZM239.367 34.0844C236.407 34.0844 234.099 33.3367 232.445 31.8413C230.791 30.3458 229.919 28.1243 229.832 25.1769C229.811 24.5483 229.8 23.6273 229.8 22.4136C229.8 21.1782 229.811 20.2463 229.832 19.6178C229.919 16.7353 230.812 14.5247 232.51 12.9859C234.208 11.4471 236.493 10.6777 239.367 10.6777C242.24 10.6777 244.526 11.4471 246.224 12.9859C247.943 14.5247 248.847 16.7353 248.934 19.6178C248.978 20.8748 248.999 21.8068 248.999 22.4136C248.999 22.9988 248.978 23.9199 248.934 25.1769C248.824 28.1243 247.943 30.3458 246.289 31.8413C244.635 33.3367 242.327 34.0844 239.367 34.0844ZM239.367 30.3459C240.825 30.3459 241.99 29.9124 242.861 29.0455C243.731 28.1569 244.199 26.8132 244.265 25.0143C244.309 23.714 244.33 22.8362 244.33 22.3811C244.33 21.8826 244.309 21.0048 244.265 19.7478C244.199 17.9489 243.731 16.6161 242.861 15.7492C241.99 14.8606 240.825 14.4163 239.367 14.4163C237.93 14.4163 236.776 14.8606 235.906 15.7492C235.035 16.6161 234.567 17.9489 234.502 19.7478C234.48 20.3764 234.469 21.2541 234.469 22.3811C234.469 23.4864 234.48 24.3641 234.502 25.0143C234.567 26.8132 235.024 28.1569 235.873 29.0455C236.743 29.9124 237.909 30.3459 239.367 30.3459Z" fill="white"/>
<path d="M6.61616 5.77051L0 12.6957L13.2323 25.3917C13.2323 23.3944 13.9673 21.7849 15.0701 20.6307C16.3401 19.3015 17.8073 18.4666 18.7458 18.4666L6.61616 5.77051Z" fill="white"/>
<path d="M18.5899 1.02734L8.60547 4.5122L18.5899 14.9613V1.02734Z" fill="white"/>
<path d="M23.6268 25.0567C23.6268 22.872 21.9342 21.1006 19.8466 21.1006C17.7589 21.1006 16.0664 22.872 16.0664 25.0567C16.0664 26.777 17.1217 28.2259 18.5865 28.7709V34.0143C17.5909 34.6159 16.0664 35.8062 16.0664 37.4533C16.0664 39.1391 17.9847 42.1919 18.8093 43.4426C19.2997 44.1852 20.3934 44.1852 20.8838 43.4426C21.7084 42.1921 23.6268 39.1391 23.6268 37.4536C23.6268 35.8062 22.1022 34.6159 21.1066 34.0143V28.7709C22.5714 28.2259 23.6268 26.777 23.6268 25.0567Z" fill="white"/>
<path d="M42.7433 25.0074L42.7419 25.006C42.7114 24.9427 39.3972 18.7302 33.2874 14.9852C29.2858 12.5304 23.7257 10.9797 21.1074 10.7139V14.1949C21.1075 14.249 21.1472 14.2445 21.6351 14.4083C24.0236 15.2098 30.9938 17.4523 35.5314 22.2012C36.1944 22.8953 36.8006 23.6137 37.365 24.3393C39.6094 24.8466 41.4139 24.9706 42.2155 24.9984L42.7433 25.0074Z" fill="white"/>
<path d="M44.6038 14.7444C44.3419 14.461 41.4432 11.2533 37.0478 8.75257C34.5047 7.30568 28.3912 6.44109 27.0011 6.25186C25.4107 6.03535 22.6056 5.94129 21.1074 5.94141V9.34853C23.9354 9.60747 30.0972 10.4571 34.6466 13.2477C35.8752 14.0011 36.9905 14.8409 38.0012 15.7104C41.0319 15.6396 43.4173 15.0823 44.2964 14.8423L44.6038 14.7444Z" fill="white"/>
<path d="M45.2106 3.95244C44.8575 3.72819 39.5595 0 29.9279 0C26.5763 0 23.8615 0 21.1074 0.446364V4.62863C22.3189 4.45384 23.7296 4.31818 25.3195 4.31818C27.7242 4.31818 31.3839 4.61833 33.5474 5.21074C35.1717 5.65409 36.736 6.2623 38.0994 6.92579C41.703 5.94085 44.3055 4.50055 44.9681 4.10836L45.2106 3.95244Z" fill="white"/>
<path d="M33.6654 24.6038C29.627 20.3773 23.3782 17.0386 21.1074 16.2549V18.5957C23.9796 19.2084 26.1477 21.8719 26.1477 25.0558C26.1477 26.2179 25.8344 27.2945 25.3277 28.2437C25.8422 28.9049 26.3711 29.5652 26.976 30.1981C32.3076 35.7795 40.5912 37.5851 40.8777 37.6582C40.8003 37.3262 38.9863 30.1724 33.6654 24.6038Z" fill="white"/>
</svg>
