<svg width="167" height="30" viewBox="0 0 167 30" fill="none" xmlns="http://www.w3.org/2000/svg">
<path d="M15.6506 30C20.9853 30 25.1733 27.8292 28.1712 24.5293V13.4152H14.1519V18.7988H21.9111V22.272C20.7208 23.3572 18.2516 24.486 15.6506 24.486C10.3163 24.486 6.43667 20.4483 6.43667 14.9784C6.43667 9.50769 10.3163 5.47032 15.6506 5.47032C18.781 5.47032 21.2937 7.2067 22.6163 9.24723L27.8187 6.46892C25.6144 3.03911 21.7788 0 15.6506 0C7.05396 0 0 5.81774 0 14.9784C0 24.0953 7.05396 30 15.6506 30ZM43.0282 29.9564C46.3348 29.9564 49.6854 28.9578 51.8015 27.0475L49.3326 23.4878C47.9662 24.7902 45.453 25.5716 43.6455 25.5716C40.0304 25.5716 37.8704 23.3572 37.5176 20.7092H53.3448V19.4934C53.3448 12.6337 49.0242 7.94485 42.6758 7.94485C36.1948 7.94485 31.654 12.8509 31.654 18.9292C31.654 25.6585 36.5476 29.9564 43.0282 29.9564ZM47.9219 16.9752H37.4294C37.6939 14.8914 39.1929 12.3299 42.6758 12.3299C46.3791 12.3299 47.7896 14.9784 47.9219 16.9752ZM64.5425 29.9564C66.8791 29.9564 68.3782 29.3485 69.2156 28.6103L68.0254 24.4428C67.7169 24.7465 66.923 25.0506 66.0855 25.0506C64.851 25.0506 64.1458 24.052 64.1458 22.7496V13.2849H68.4664V8.46577H64.1458V2.73498H58.5026V8.46577H54.9758V13.2849H58.5026V24.2255C58.5026 27.9595 60.6186 29.9564 64.5425 29.9564Z" fill="#EDD938"/>
<path d="M82.8837 29.957C90.819 29.957 94.6546 25.9629 94.6546 20.6662C94.6546 9.85577 77.7692 12.9385 77.7692 8.33623C77.7692 6.59982 79.2684 5.42732 81.9575 5.42732C84.9558 5.42732 88.13 6.42592 90.5105 8.597L93.9932 4.08165C91.083 1.43326 87.2038 0.0439453 82.5309 0.0439453C75.609 0.0439453 71.3769 4.03836 71.3769 8.85715C71.3769 19.7545 88.3061 16.2377 88.3061 21.361C88.3061 23.0108 86.6305 24.5736 83.1922 24.5736C79.1361 24.5736 75.9177 22.7936 73.8457 20.6662L70.4512 25.3551C73.1845 28.0904 77.2403 29.957 82.8837 29.957ZM104.353 29.4361V0.477952H98.7542V29.4361H104.353ZM119.784 29.957C126.837 29.957 131.07 24.9211 131.07 18.9298C131.07 12.9818 126.837 7.94546 119.784 7.94546C112.774 7.94546 108.542 12.9818 108.542 18.9298C108.542 24.9211 112.774 29.957 119.784 29.957ZM119.784 25.0513C116.301 25.0513 114.361 22.229 114.361 18.9298C114.361 15.6735 116.301 12.8515 119.784 12.8515C123.266 12.8515 125.25 15.6735 125.25 18.9298C125.25 22.229 123.266 25.0513 119.784 25.0513ZM142.356 29.957C144.692 29.957 146.191 29.3491 147.029 28.611L145.838 24.4434C145.53 24.7472 144.737 25.0513 143.899 25.0513C142.665 25.0513 141.959 24.0527 141.959 22.7503V13.2855H146.28V8.46646H141.959V2.73563H136.316V8.46646H132.789V13.2855H136.316V24.2262C136.316 27.9602 138.432 29.957 142.356 29.957ZM157.786 29.957C163.694 29.957 167 27.0482 167 23.2276C167 14.7618 154.391 17.3665 154.391 14.2408C154.391 13.0688 155.714 12.1567 157.742 12.1567C160.342 12.1567 162.767 13.2422 164.046 14.5879L166.295 10.8111C164.179 9.16123 161.313 7.94546 157.698 7.94546C152.099 7.94546 148.969 11.0278 148.969 14.5446C148.969 22.7936 161.622 19.9717 161.622 23.4448C161.622 24.7472 160.476 25.7025 158.051 25.7025C155.405 25.7025 152.231 24.2695 150.688 22.8369L148.263 26.7007C150.512 28.7412 154.083 29.957 157.786 29.957Z" fill="#FEFEFE"/>
</svg>
