<svg width="1390" height="29" viewBox="0 0 1390 29" fill="none" xmlns="http://www.w3.org/2000/svg">
<path fill-rule="evenodd" clip-rule="evenodd" d="M491.5 20.5H0V19.5H491.5V20.5Z" fill="#828FA1"/>
<path fill-rule="evenodd" clip-rule="evenodd" d="M498.149 19.5H491.5V20.5H498.149C502.063 20.5 505.895 19.3798 509.192 17.2717L529.84 4.07082C532.976 2.06558 536.621 1 540.343 1H547.5V0H540.343C536.43 0 532.598 1.12022 529.301 3.2283L508.653 16.4292C505.517 18.4344 501.872 19.5 498.149 19.5Z" fill="#828FA1"/>
<path fill-rule="evenodd" clip-rule="evenodd" d="M842.5 1H547.5V0H842.5V1Z" fill="#828FA1"/>
<path d="M590.688 22L587.578 10.5547H589.688L591.906 19.4609L594.516 10.6094H596.539L599.016 19.4922L601.281 10.5547H603.391L600.188 22H597.992L595.547 13.6172L592.867 22H590.688ZM605.249 22V10.5547H607.367V15.2344H612.538V10.5547H614.656V22H612.538V16.9062H607.367V22H605.249ZM616.507 22L620.718 10.5469H623.022L627.171 22H624.999L623.866 18.7656H619.858L618.718 22H616.507ZM620.389 17.1875H623.327C622.389 14.1823 621.908 12.6302 621.882 12.5312L620.389 17.1875ZM630.537 22V12.25H627.201V10.5547H635.982V12.25H632.662V22H630.537ZM642.841 22V10.5547H645.341L648.802 18.8203L652.286 10.5547H654.755V22H652.802V16.3438L652.864 13.1016L652.575 13.9609L649.645 21.2188H647.833L644.966 13.9219L644.677 13.0625L644.747 16.375V22H642.841ZM656.613 22L660.824 10.5469H663.129L667.277 22H665.106L663.973 18.7656H659.965L658.824 22H656.613ZM660.496 17.1875H663.434C662.496 14.1823 662.014 12.6302 661.988 12.5312L660.496 17.1875ZM669.05 22V10.5547H671.175V15.7109C671.545 15.2214 672.3 14.3073 673.441 12.9688C674.587 11.6302 675.269 10.8255 675.488 10.5547H677.996L673.668 15.7031L678.269 22H675.785L672.05 16.8672L671.175 17.6016V22H669.05ZM679.776 22V10.5547H686.714L686.628 12.2344H681.893V15.1875H686.393V16.8672H681.893V20.3125H686.8L686.729 22H679.776ZM692.627 22.1562C691.247 22.1562 690.01 21.8385 688.916 21.2031L689.432 19.5234C689.921 19.7943 690.453 20.013 691.026 20.1797C691.604 20.3464 692.166 20.4297 692.713 20.4297C693.385 20.4297 693.893 20.2865 694.237 20C694.58 19.7083 694.752 19.2917 694.752 18.75C694.752 18.0312 694.273 17.5339 693.315 17.2578C693.247 17.237 693.057 17.1823 692.744 17.0938C692.432 17 692.138 16.9115 691.862 16.8281C691.591 16.7396 691.395 16.6719 691.276 16.625C689.739 16.0833 688.971 15.0729 688.971 13.5938C688.971 12.5573 689.338 11.7578 690.073 11.1953C690.812 10.6328 691.791 10.3516 693.01 10.3516C694.39 10.3516 695.58 10.6354 696.58 11.2031L695.94 12.75C694.919 12.2917 693.971 12.0625 693.096 12.0625C692.466 12.0625 691.989 12.1745 691.666 12.3984C691.349 12.6172 691.179 12.9844 691.158 13.5C691.158 14.1354 691.474 14.5495 692.104 14.7422C692.229 14.7891 692.536 14.8906 693.026 15.0469C693.515 15.2031 693.833 15.3047 693.979 15.3516C695.026 15.6953 695.773 16.1224 696.221 16.6328C696.674 17.1432 696.901 17.8542 696.901 18.7656C696.901 19.8542 696.515 20.6927 695.744 21.2812C694.974 21.8646 693.934 22.1562 692.627 22.1562ZM708.696 22.1641C707.196 22.1641 706.058 21.7917 705.282 21.0469C704.506 20.2969 704.118 19.2422 704.118 17.8828V10.5547H706.243V17.7031C706.243 18.6562 706.436 19.3516 706.821 19.7891C707.212 20.2266 707.85 20.4453 708.735 20.4453C709.605 20.4453 710.235 20.2266 710.626 19.7891C711.017 19.3464 711.212 18.6484 711.212 17.6953V10.5547H713.329V17.8984C713.329 19.2474 712.933 20.2969 712.142 21.0469C711.35 21.7917 710.201 22.1641 708.696 22.1641ZM719.547 22.1562C718.167 22.1562 716.93 21.8385 715.836 21.2031L716.352 19.5234C716.841 19.7943 717.373 20.013 717.946 20.1797C718.524 20.3464 719.086 20.4297 719.633 20.4297C720.305 20.4297 720.813 20.2865 721.157 20C721.5 19.7083 721.672 19.2917 721.672 18.75C721.672 18.0312 721.193 17.5339 720.235 17.2578C720.167 17.237 719.977 17.1823 719.664 17.0938C719.352 17 719.058 16.9115 718.782 16.8281C718.511 16.7396 718.315 16.6719 718.196 16.625C716.659 16.0833 715.891 15.0729 715.891 13.5938C715.891 12.5573 716.258 11.7578 716.993 11.1953C717.732 10.6328 718.711 10.3516 719.93 10.3516C721.31 10.3516 722.5 10.6354 723.5 11.2031L722.86 12.75C721.839 12.2917 720.891 12.0625 720.016 12.0625C719.386 12.0625 718.909 12.1745 718.586 12.3984C718.269 12.6172 718.099 12.9844 718.078 13.5C718.078 14.1354 718.394 14.5495 719.024 14.7422C719.149 14.7891 719.456 14.8906 719.946 15.0469C720.435 15.2031 720.753 15.3047 720.899 15.3516C721.946 15.6953 722.693 16.1224 723.141 16.6328C723.594 17.1432 723.821 17.8542 723.821 18.7656C723.821 19.8542 723.435 20.6927 722.664 21.2812C721.894 21.8646 720.854 22.1562 719.547 22.1562ZM735.616 22.1641C734.116 22.1641 732.978 21.7917 732.202 21.0469C731.426 20.2969 731.038 19.2422 731.038 17.8828V10.5547H733.163V17.7031C733.163 18.6562 733.356 19.3516 733.741 19.7891C734.132 20.2266 734.77 20.4453 735.655 20.4453C736.525 20.4453 737.155 20.2266 737.546 19.7891C737.937 19.3464 738.132 18.6484 738.132 17.6953V10.5547H740.249V17.8984C740.249 19.2474 739.853 20.2969 739.062 21.0469C738.27 21.7917 737.121 22.1641 735.616 22.1641ZM743.256 22V10.5547H745.506C745.913 11.1901 746.738 12.4714 747.983 14.3984C749.228 16.3255 749.985 17.4974 750.256 17.9141C750.334 18.0339 750.467 18.237 750.655 18.5234C750.847 18.8047 750.983 19.0052 751.061 19.125C751.024 17.3385 751.006 16.4115 751.006 16.3438V10.5547H752.936V22H750.655L745.491 13.9531L745.116 13.3359C745.157 14.7109 745.178 15.6771 745.178 16.2344V22H743.256ZM756.092 22V10.5547H758.209V22H756.092ZM769.927 25.7344C769.495 25.4219 769.005 24.9062 768.458 24.1875C767.916 23.4688 767.474 22.7839 767.13 22.1328C766.859 22.1536 766.648 22.1641 766.497 22.1641C764.773 22.1641 763.411 21.6432 762.411 20.6016C761.416 19.5547 760.919 18.112 760.919 16.2734C760.919 14.4245 761.419 12.9818 762.419 11.9453C763.419 10.9089 764.781 10.3906 766.505 10.3906C768.229 10.3906 769.588 10.9115 770.583 11.9531C771.578 12.9896 772.075 14.4323 772.075 16.2812C772.075 17.5938 771.812 18.7135 771.286 19.6406C770.76 20.5625 770.015 21.237 769.052 21.6641C769.849 22.9557 770.594 23.9193 771.286 24.5547L769.927 25.7344ZM763.989 19.3516C764.557 20.0755 765.396 20.4375 766.505 20.4375C767.614 20.4375 768.45 20.0781 769.013 19.3594C769.581 18.6354 769.864 17.6146 769.864 16.2969C769.864 14.9635 769.581 13.9297 769.013 13.1953C768.45 12.4609 767.617 12.0938 766.513 12.0938C765.403 12.0938 764.562 12.4635 763.989 13.2031C763.422 13.9375 763.138 14.9688 763.138 16.2969C763.138 17.6094 763.422 18.6276 763.989 19.3516ZM779.192 22.1641C777.692 22.1641 776.554 21.7917 775.778 21.0469C775.002 20.2969 774.614 19.2422 774.614 17.8828V10.5547H776.739V17.7031C776.739 18.6562 776.931 19.3516 777.317 19.7891C777.708 20.2266 778.346 20.4453 779.231 20.4453C780.101 20.4453 780.731 20.2266 781.122 19.7891C781.512 19.3464 781.708 18.6484 781.708 17.6953V10.5547H783.825V17.8984C783.825 19.2474 783.429 20.2969 782.637 21.0469C781.846 21.7917 780.697 22.1641 779.192 22.1641ZM786.832 22V10.5547H793.769L793.683 12.2344H788.949V15.1875H793.449V16.8672H788.949V20.3125H793.855L793.785 22H786.832ZM797.761 18.5C797.813 18.0885 797.925 17.6719 798.097 17.25C798.269 16.8281 798.456 16.4479 798.659 16.1094C798.868 15.7708 799.071 15.4427 799.269 15.125C799.472 14.8073 799.639 14.4922 799.769 14.1797C799.904 13.862 799.972 13.5703 799.972 13.3047C799.967 12.8464 799.821 12.4844 799.534 12.2188C799.253 11.9531 798.86 11.8203 798.355 11.8203C798.032 11.8203 797.719 11.862 797.417 11.9453C797.115 12.0234 796.883 12.1016 796.722 12.1797C796.566 12.2578 796.386 12.3594 796.183 12.4844L795.636 11.1875C796.063 10.9115 796.506 10.7057 796.964 10.5703C797.422 10.4297 797.959 10.3594 798.573 10.3594C798.943 10.3594 799.303 10.4167 799.652 10.5312C800.006 10.6406 800.329 10.8021 800.62 11.0156C800.917 11.224 801.154 11.5026 801.331 11.8516C801.514 12.2005 801.605 12.5938 801.605 13.0312C801.605 13.3854 801.542 13.7344 801.417 14.0781C801.292 14.4219 801.12 14.7604 800.902 15.0938C800.683 15.4271 800.451 15.7526 800.206 16.0703C799.967 16.388 799.696 16.7682 799.394 17.2109C799.097 17.6484 798.842 18.0781 798.628 18.5H797.761ZM798.175 22.1406C797.836 22.1406 797.55 22.0234 797.316 21.7891C797.081 21.5547 796.964 21.276 796.964 20.9531C796.964 20.625 797.081 20.3411 797.316 20.1016C797.55 19.862 797.836 19.7422 798.175 19.7422C798.508 19.7422 798.79 19.862 799.019 20.1016C799.248 20.3411 799.363 20.625 799.363 20.9531C799.363 21.276 799.248 21.5547 799.019 21.7891C798.79 22.0234 798.508 22.1406 798.175 22.1406Z" fill="#00FFFF"/>
<path fill-rule="evenodd" clip-rule="evenodd" d="M849.149 1H842.5V0H849.149C853.063 0 856.895 1.12022 860.192 3.2283L880.84 16.4292C883.976 18.4344 887.621 19.5 891.343 19.5H898.5V20.5H891.343C887.43 20.5 883.598 19.3798 880.301 17.2717L859.653 4.07082C856.517 2.06557 852.872 1 849.149 1Z" fill="#828FA1"/>
<path fill-rule="evenodd" clip-rule="evenodd" d="M1390 20.5H898.5V19.5H1390V20.5Z" fill="#828FA1"/>
</svg>
