<svg width="242" height="35" viewBox="0 0 242 35" fill="none" xmlns="http://www.w3.org/2000/svg">
<path d="M65.623 18.1526C65.623 12.3512 70.2823 7.63965 76.0903 7.63965C80.1273 7.63965 83.6696 9.9634 85.3925 13.3769L80.9092 15.6685C80.0315 13.8897 78.2603 12.7679 76.0903 12.7679C72.9944 12.7679 70.6811 15.0596 70.6811 18.1526C70.6811 21.2455 72.9944 23.5372 76.0903 23.5372C78.2603 23.5372 80.0315 22.4154 80.9092 20.6365L85.3925 22.9282C83.6533 26.3417 80.1273 28.6654 76.0903 28.6654C70.2823 28.6654 65.623 23.9539 65.623 18.1526Z" fill="white"/>
<path d="M102.977 12.464H97.9826V28.3936H92.8125V12.464H87.8184V7.92871H102.977V12.464Z" fill="white"/>
<path d="M42.7578 18.1526C42.7578 12.3512 47.417 7.63965 53.2252 7.63965C59.0015 7.63965 63.6927 12.3512 63.6927 18.1526C63.6927 23.9539 59.0015 28.6654 53.2252 28.6654C47.4011 28.6654 42.7578 23.9539 42.7578 18.1526ZM58.5865 18.1526C58.5865 15.0435 56.2729 12.7679 53.2252 12.7679C50.1297 12.7679 47.816 15.0596 47.816 18.1526C47.816 21.2455 50.1297 23.5372 53.2252 23.5372C56.2729 23.5532 58.5865 21.2615 58.5865 18.1526Z" fill="white"/>
<path d="M104.748 18.1526C104.748 12.3512 109.407 7.63965 115.215 7.63965C120.991 7.63965 125.683 12.3512 125.683 18.1526C125.683 23.9539 120.991 28.6654 115.215 28.6654C109.407 28.6654 104.748 23.9539 104.748 18.1526ZM120.577 18.1526C120.577 15.0435 118.263 12.7679 115.215 12.7679C112.12 12.7679 109.806 15.0596 109.806 18.1526C109.806 21.2455 112.12 23.5372 115.215 23.5372C118.279 23.5532 120.577 21.2615 120.577 18.1526Z" fill="white"/>
<path d="M220.504 17.7678C220.504 11.9665 225.163 7.25488 230.971 7.25488C236.747 7.25488 241.439 11.9665 241.439 17.7678C241.439 23.5691 236.747 28.2807 230.971 28.2807C225.147 28.2807 220.504 23.5691 220.504 17.7678ZM236.332 17.7678C236.332 14.6588 234.019 12.3832 230.971 12.3832C227.875 12.3832 225.562 14.6748 225.562 17.7678C225.562 20.8608 227.875 23.1525 230.971 23.1525C234.019 23.1685 236.332 20.8768 236.332 17.7678Z" fill="white"/>
<path d="M128.598 17.7678C128.598 11.9665 133.257 7.25488 139.065 7.25488C143.102 7.25488 146.644 9.57864 148.368 12.9921L143.884 15.2838C143.006 13.505 141.235 12.3832 139.065 12.3832C135.97 12.3832 133.656 14.6748 133.656 17.7678C133.656 20.8608 135.97 23.1525 139.065 23.1525C141.235 23.1525 143.006 22.0306 143.884 20.2518L148.368 22.5435C146.629 25.957 143.102 28.2807 139.065 28.2807C133.257 28.2807 128.598 23.5691 128.598 17.7678Z" fill="white"/>
<path d="M163.046 24.4194H155.914L154.797 28.0092H149.18L156.552 7.52832H162.36L169.732 28.0092H164.163L163.046 24.4194ZM161.754 20.1886L159.472 12.961L157.222 20.1886H161.754Z" fill="white"/>
<path d="M170.367 23.5691L174.611 20.9089C175.329 22.4473 176.75 23.3929 178.521 23.3929C179.845 23.3929 180.531 22.8159 180.531 21.9986C180.531 18.8896 171.261 20.6044 171.261 13.505C171.261 9.12995 174.835 7.25488 178.058 7.25488C180.611 7.25488 183.021 8.40876 184.616 10.2838L181.218 13.6011C180.133 12.4473 179.016 11.8223 177.994 11.8223C177.181 11.8223 176.495 12.2389 176.495 13.1203C176.495 16.2293 185.733 14.2742 185.733 22.0627C185.733 25.989 182.366 28.2807 178.457 28.2807C174.707 28.2807 171.723 26.1653 170.367 23.5691Z" fill="white"/>
<path d="M188.512 7.52832H193.713V28.0092H188.512V7.52832Z" fill="white"/>
<path d="M217.422 7.52832V28.0092H211.949L202.774 15.445V28.0092H197.572V7.52832H203.013L212.22 20.0444V7.52832H217.422Z" fill="white"/>
<path d="M34.0523 13.9896C32.6394 11.8309 31.9266 10.7452 30.8573 8.94842C29.7881 7.15173 26.4913 6.23399 25.3075 5.9755C25.3075 5.9755 25.3075 5.9755 25.2948 5.9755C24.7856 5.79451 24.251 5.62647 23.7037 5.49721C17.9247 4.13999 12.3622 6.71227 9.86727 11.9214C8.13617 15.5407 8.73439 19.9743 11.3439 22.6887C13.8896 25.3385 18.0393 25.5195 20.5723 23.0894C23.0035 20.7499 22.9781 17.5571 20.5851 15.4244C18.6757 13.7181 14.5643 14.7005 14.0296 17.0401C13.9533 17.3503 13.9205 17.5339 13.9915 17.6347C14.0296 17.7107 14.0079 17.7909 14.073 17.8438C14.2639 17.9989 14.7297 18.1388 15.2643 17.583C15.9772 16.8591 16.3336 17.221 16.6773 17.221C17.021 17.221 17.3901 16.8591 17.7465 16.8591C18.1029 16.8591 17.9502 17.221 18.4593 17.221C19.1721 17.221 18.8158 17.583 19.1721 17.9449C19.5616 18.3088 18.9518 18.6188 19.1721 19.0307C19.5286 19.3926 19.5286 19.7545 19.1721 20.1164C18.6468 20.4785 18.8158 20.8403 18.4593 21.2022C18.1029 21.5642 17.3901 21.2022 17.0464 21.5642C16.7027 21.9131 16.3972 22.0295 15.6844 21.9778C14.1187 21.6288 12.7822 20.3233 12.4004 18.5265C11.8148 15.7345 13.9915 12.7745 16.9319 12.3738C21.056 11.8051 24.5183 15.3338 24.0346 19.6382C23.5636 23.8909 19.8468 26.8767 15.4935 26.476C11.6748 26.127 8.58165 23.2704 7.56337 19.147C6.34138 14.2093 8.46712 8.80625 12.7695 5.89794C16.8937 3.10591 21.2979 2.82154 25.8803 4.42435C27.0005 4.81214 28.8588 5.60067 28.0965 4.67081C28.0965 4.67081 26.866 3.53494 25.8095 2.81109C24.7403 2.08724 22.4573 1.30035 21.3881 0.951348C20.3189 0.58942 17.2373 -0.133494 14.8323 0.021455C12.3929 0.178615 11.2721 0.719755 10.2584 1.2613C9.49608 1.66852 8.53591 2.10022 7.97147 2.34613C6.90419 2.81107 6.75175 2.96603 5.98941 3.74091C5.14744 4.5968 4.70726 5.24564 4.31235 5.75563C3.7025 6.54319 2.02844 8.23529 1.428 10.0471C1.428 9.94005 1.36436 10.3703 1.428 10.0471C-1.62695 17.2986 0.234247 26.7768 6.90419 31.4818C9.78094 33.4983 10.5947 34.4264 14.073 34.7363C15.8482 34.8945 20.1685 35.2012 22.6108 34.1164C25.9953 32.6132 26.5804 31.9954 28.7061 30.5606C30.8319 29.1258 31.9011 28.0401 32.6012 25.5195C33.314 22.999 33.6704 21.9261 34.3705 20.1164C34.8048 18.5265 34.9573 15.8251 34.0523 13.9896ZM11.2802 16.6264C10.6692 17.2727 9.91818 17.0401 9.74002 16.1611C9.53631 15.1271 9.81635 14.2093 10.3764 13.5243C11.1657 12.7357 11.8658 12.9038 12.0694 13.8215C12.2985 14.8944 12.0058 15.8509 11.2802 16.6264ZM18.192 9.86616C17.3392 10.8873 16.2318 11.3915 14.9334 11.4561C14.246 11.4949 13.5714 11.3398 13.2914 10.6288C13.0241 9.95668 13.4823 9.45255 13.8896 8.98723C14.8443 8.10823 15.939 7.61706 17.2373 7.69462C17.772 7.72047 18.3066 7.86264 18.5484 8.44434C18.7648 8.98723 18.5484 9.43965 18.192 9.86616ZM21.8962 11.6499C21.7052 11.3526 21.387 10.9649 21.1833 10.5125C20.6869 9.45255 21.1069 8.5219 22.2143 8.1729C22.4308 8.10823 22.6472 8.04363 22.8762 8.04363C25.1929 7.99192 27.1023 8.85795 28.4515 10.7969C29.3808 12.1282 28.7952 13.4337 27.1914 13.6406C25.1548 13.8991 23.4872 13.0589 21.8962 11.6499ZM31.4429 20.7239C30.9464 23.0894 29.2662 24.731 27.6751 24.3949C26.0839 24.0589 25.1929 21.8615 25.6894 19.496C26.1858 17.1306 27.866 15.489 29.4572 15.8251C31.0482 16.1611 31.9266 18.3585 31.4429 20.7239Z" fill="white"/>
</svg>
