<svg width="1159" height="433" viewBox="0 0 1159 433" fill="none" xmlns="http://www.w3.org/2000/svg">
<mask id="path-1-outside-1_1077_16322" maskUnits="userSpaceOnUse" x="-49.58" y="-825.138" width="1296.34" height="1296.34" fill="black">
<rect fill="white" x="-49.58" y="-825.138" width="1296.34" height="1296.34"/>
<path fill-rule="evenodd" clip-rule="evenodd" d="M1152.67 60.3309C1152.84 59.8788 1153.02 59.4266 1153.2 58.974C1157.41 48.1211 1161.34 37.1215 1164.97 25.9863C1184.07 -32.5794 1194.91 -94.8941 1196.18 -159.323C1196.39 -169.914 1196.34 -180.562 1196.03 -191.259L975.993 -171.876C980.197 -96.7208 977.129 -24.2687 967.747 43.3602C966.231 54.2871 964.55 65.0881 962.709 75.7543L1152.55 59.0307L1152.67 60.3309ZM1000.25 40.497L1130.34 29.0372C1150.82 -29.2574 1162.64 -91.7164 1164.28 -156.513L1009.1 -142.843C1011.05 -79.3103 1007.92 -17.7834 1000.25 40.497ZM44.9044 -413.631L44.8042 -414.769C44.6493 -414.373 44.4949 -413.977 44.3409 -413.581C40.1214 -402.728 36.1912 -391.728 32.5595 -380.593C13.4569 -322.023 2.60954 -259.702 1.33265 -195.266C1.12278 -184.675 1.17146 -174.027 1.48453 -163.329L221.182 -182.683C216.977 -257.844 220.046 -330.302 229.43 -397.936C230.946 -408.863 232.627 -419.664 234.469 -430.33L44.9044 -413.631ZM196.927 -395.072L67.1947 -383.644C46.7018 -325.345 34.8776 -262.88 33.2312 -198.076L188.071 -211.716C186.127 -275.255 189.254 -336.787 196.927 -395.072ZM94.8558 153.413C94.6225 153.031 94.3895 152.649 94.1569 152.266C88.1064 142.318 82.3151 132.174 76.7939 121.845C47.7548 67.5197 26.1868 8.05978 13.6704 -55.1543C11.6129 -65.5454 9.80006 -76.0381 8.23877 -86.6261L227.939 -105.98C236.938 -31.2464 252.626 39.5536 273.687 104.501C277.09 114.994 280.633 125.335 284.311 135.515L94.7502 152.214L94.8558 153.413ZM241.183 107.364C223.441 51.3224 209.607 -8.71054 200.414 -71.6047L45.5687 -57.9642C58.5129 5.54732 81.0675 64.9787 111.427 118.794L241.183 107.364ZM912.859 -490.09C916.537 -479.91 920.08 -469.569 923.483 -459.075C944.547 -394.124 960.236 -323.319 969.236 -248.58L1189.27 -267.962C1187.71 -278.55 1185.89 -289.043 1183.83 -299.434C1171.31 -362.654 1149.74 -422.119 1120.69 -476.447C1115.17 -486.776 1109.37 -496.92 1103.32 -506.868C1103.08 -507.263 1102.84 -507.659 1102.6 -508.054L1102.71 -506.814L912.859 -490.09ZM1086.05 -473.396L955.987 -461.939C973.731 -405.893 987.567 -345.854 996.761 -282.955L1151.94 -296.624C1138.98 -360.142 1116.42 -419.578 1086.05 -473.396ZM715.544 350.603C746.264 326.666 777.984 286.597 805.799 225.115C809.777 216.322 813.606 207.218 817.275 197.814L702.972 207.883L715.544 350.603ZM718.772 387.243C708.607 393.677 698.382 398.809 688.183 402.696L668.475 178.972L863.42 161.799C859.969 173.068 856.305 184.046 852.44 194.717C846.954 209.86 841.063 224.383 834.796 238.233C801.215 312.462 760.509 360.826 718.772 387.243ZM856.156 53.1903C865.671 -3.5157 870.237 -65.3121 868.734 -130.478L674.671 -113.382L690.629 67.7719L856.156 53.1903ZM640.174 -142.294L899.248 -165.116C899.823 -154.427 900.24 -143.811 900.502 -133.276C902.429 -56.0517 896.089 16.8518 883.116 82.7656L661.718 102.269L640.174 -142.294ZM819.568 402.324C842.223 393.13 864.157 382.544 885.283 370.676C969.851 323.165 1041.48 255.096 1094.6 173.384C1101.76 162.376 1108.58 151.12 1115.05 139.633L945.554 154.564C925.894 228.573 897.86 293.808 863.131 346.555C849.595 367.115 835.04 385.778 819.568 402.324ZM920.827 310.388C971.956 273.788 1016.81 228.627 1053.64 176.993L970.277 184.336C956.949 229.724 940.382 272.074 920.827 310.388ZM563.471 -135.537L585.015 109.026L363.903 128.504C339.607 65.873 320.618 -4.7995 309.015 -81.1715C307.432 -91.5903 305.986 -102.115 304.684 -112.74L563.471 -135.537ZM340.784 -83.97C350.696 -19.5453 365.995 40.5014 385.277 94.6707L550.518 80.1145L534.56 -101.04L340.784 -83.97ZM145.818 225.014C154.198 235.192 162.882 245.083 171.853 254.67C238.309 325.694 320.536 380.117 411.887 412.136C434.771 420.157 458.227 426.772 482.151 431.89C464.022 418.283 446.426 402.43 429.502 384.53C386.164 338.695 347.226 279.44 314.98 210.112L145.818 225.014ZM212.812 251.062C257.953 295.317 309.819 331.846 366.343 358.917C340.479 324.685 316.839 285.985 295.842 243.748L212.812 251.062ZM397.113 202.877C402.481 213.368 408.008 223.537 413.679 233.368C421.728 247.319 430.067 260.588 438.658 273.13C484.599 340.198 533.022 380.669 578.647 399.438C589.781 404.018 600.748 407.305 611.472 409.372L591.772 185.729L397.113 202.877ZM448.844 230.27C454.101 238.887 459.462 247.182 464.916 255.143C502.938 310.651 541.063 344.524 575.416 362.76L562.86 220.226L448.844 230.27ZM892.491 -241.819C891.189 -252.444 889.743 -262.969 888.16 -273.388C876.555 -349.766 857.565 -420.444 833.266 -483.078L611.872 -463.576L633.417 -218.997L892.491 -241.819ZM662.329 -253.494L856.391 -270.589C846.478 -335.02 831.177 -395.072 811.892 -449.245L646.369 -434.664L662.329 -253.494ZM621.456 -717.479L634.027 -574.776L748.322 -584.844C743.068 -593.456 737.709 -601.746 732.259 -609.703C694.124 -665.376 655.888 -699.282 621.456 -717.479ZM605.115 -540.279L800.054 -557.451C794.686 -567.943 789.159 -578.112 783.487 -587.942C775.441 -601.888 767.104 -615.152 758.517 -627.689C712.475 -694.904 663.941 -735.406 618.228 -754.12C607.095 -758.678 596.13 -761.943 585.409 -763.987L605.115 -540.279ZM1051.65 -579.614C1043.27 -589.793 1034.58 -599.683 1025.61 -609.271C959.041 -680.394 876.659 -734.864 785.135 -766.852C762.265 -774.845 738.825 -781.435 714.917 -786.529C733.036 -772.941 750.622 -757.109 767.538 -739.232C810.926 -693.381 849.91 -634.08 882.188 -564.686L1051.65 -579.614ZM984.644 -605.662C939.38 -650.025 887.357 -686.621 830.659 -713.706C856.588 -679.421 880.284 -640.648 901.325 -598.322L984.644 -605.662ZM379.907 -552.39L493.915 -562.433L481.36 -704.951C450.724 -680.99 419.109 -640.974 391.376 -579.674C387.401 -570.887 383.574 -561.788 379.907 -552.39ZM344.741 -549.292C340.876 -538.622 337.212 -527.643 333.76 -516.375L528.412 -533.522L508.712 -757.149C498.515 -753.24 488.291 -748.085 478.129 -741.629C436.488 -715.173 395.887 -666.859 362.378 -592.793C356.115 -578.947 350.225 -564.43 344.741 -549.292ZM341.021 -407.766C331.504 -351.055 326.938 -289.253 328.441 -224.082L522.217 -241.152L506.257 -422.322L341.021 -407.766ZM296.672 -221.283C296.935 -210.748 297.352 -200.132 297.927 -189.443L556.714 -212.24L535.169 -456.819L314.062 -437.341C301.087 -371.423 294.745 -298.514 296.672 -221.283ZM377.377 -756.638C354.722 -747.415 332.789 -736.8 311.666 -724.902C227.365 -677.419 155.955 -609.494 102.955 -527.993C95.7963 -516.985 88.9733 -505.728 82.4998 -494.241L251.626 -509.14C271.246 -582.997 299.207 -648.115 333.839 -700.804C347.367 -721.385 361.913 -740.069 377.377 -756.638ZM143.918 -531.602C180.609 -583.025 225.259 -628.026 276.141 -664.541C256.678 -626.339 240.183 -584.134 226.903 -538.912L143.918 -531.602Z"/>
</mask>
<path fill-rule="evenodd" clip-rule="evenodd" d="M1152.67 60.3309C1152.84 59.8788 1153.02 59.4266 1153.2 58.974C1157.41 48.1211 1161.34 37.1215 1164.97 25.9863C1184.07 -32.5794 1194.91 -94.8941 1196.18 -159.323C1196.39 -169.914 1196.34 -180.562 1196.03 -191.259L975.993 -171.876C980.197 -96.7208 977.129 -24.2687 967.747 43.3602C966.231 54.2871 964.55 65.0881 962.709 75.7543L1152.55 59.0307L1152.67 60.3309ZM1000.25 40.497L1130.34 29.0372C1150.82 -29.2574 1162.64 -91.7164 1164.28 -156.513L1009.1 -142.843C1011.05 -79.3103 1007.92 -17.7834 1000.25 40.497ZM44.9044 -413.631L44.8042 -414.769C44.6493 -414.373 44.4949 -413.977 44.3409 -413.581C40.1214 -402.728 36.1912 -391.728 32.5595 -380.593C13.4569 -322.023 2.60954 -259.702 1.33265 -195.266C1.12278 -184.675 1.17146 -174.027 1.48453 -163.329L221.182 -182.683C216.977 -257.844 220.046 -330.302 229.43 -397.936C230.946 -408.863 232.627 -419.664 234.469 -430.33L44.9044 -413.631ZM196.927 -395.072L67.1947 -383.644C46.7018 -325.345 34.8776 -262.88 33.2312 -198.076L188.071 -211.716C186.127 -275.255 189.254 -336.787 196.927 -395.072ZM94.8558 153.413C94.6225 153.031 94.3895 152.649 94.1569 152.266C88.1064 142.318 82.3151 132.174 76.7939 121.845C47.7548 67.5197 26.1868 8.05978 13.6704 -55.1543C11.6129 -65.5454 9.80006 -76.0381 8.23877 -86.6261L227.939 -105.98C236.938 -31.2464 252.626 39.5536 273.687 104.501C277.09 114.994 280.633 125.335 284.311 135.515L94.7502 152.214L94.8558 153.413ZM241.183 107.364C223.441 51.3224 209.607 -8.71054 200.414 -71.6047L45.5687 -57.9642C58.5129 5.54732 81.0675 64.9787 111.427 118.794L241.183 107.364ZM912.859 -490.09C916.537 -479.91 920.08 -469.569 923.483 -459.075C944.547 -394.124 960.236 -323.319 969.236 -248.58L1189.27 -267.962C1187.71 -278.55 1185.89 -289.043 1183.83 -299.434C1171.31 -362.654 1149.74 -422.119 1120.69 -476.447C1115.17 -486.776 1109.37 -496.92 1103.32 -506.868C1103.08 -507.263 1102.84 -507.659 1102.6 -508.054L1102.71 -506.814L912.859 -490.09ZM1086.05 -473.396L955.987 -461.939C973.731 -405.893 987.567 -345.854 996.761 -282.955L1151.94 -296.624C1138.98 -360.142 1116.42 -419.578 1086.05 -473.396ZM715.544 350.603C746.264 326.666 777.984 286.597 805.799 225.115C809.777 216.322 813.606 207.218 817.275 197.814L702.972 207.883L715.544 350.603ZM718.772 387.243C708.607 393.677 698.382 398.809 688.183 402.696L668.475 178.972L863.42 161.799C859.969 173.068 856.305 184.046 852.44 194.717C846.954 209.86 841.063 224.383 834.796 238.233C801.215 312.462 760.509 360.826 718.772 387.243ZM856.156 53.1903C865.671 -3.5157 870.237 -65.3121 868.734 -130.478L674.671 -113.382L690.629 67.7719L856.156 53.1903ZM640.174 -142.294L899.248 -165.116C899.823 -154.427 900.24 -143.811 900.502 -133.276C902.429 -56.0517 896.089 16.8518 883.116 82.7656L661.718 102.269L640.174 -142.294ZM819.568 402.324C842.223 393.13 864.157 382.544 885.283 370.676C969.851 323.165 1041.48 255.096 1094.6 173.384C1101.76 162.376 1108.58 151.12 1115.05 139.633L945.554 154.564C925.894 228.573 897.86 293.808 863.131 346.555C849.595 367.115 835.04 385.778 819.568 402.324ZM920.827 310.388C971.956 273.788 1016.81 228.627 1053.64 176.993L970.277 184.336C956.949 229.724 940.382 272.074 920.827 310.388ZM563.471 -135.537L585.015 109.026L363.903 128.504C339.607 65.873 320.618 -4.7995 309.015 -81.1715C307.432 -91.5903 305.986 -102.115 304.684 -112.74L563.471 -135.537ZM340.784 -83.97C350.696 -19.5453 365.995 40.5014 385.277 94.6707L550.518 80.1145L534.56 -101.04L340.784 -83.97ZM145.818 225.014C154.198 235.192 162.882 245.083 171.853 254.67C238.309 325.694 320.536 380.117 411.887 412.136C434.771 420.157 458.227 426.772 482.151 431.89C464.022 418.283 446.426 402.43 429.502 384.53C386.164 338.695 347.226 279.44 314.98 210.112L145.818 225.014ZM212.812 251.062C257.953 295.317 309.819 331.846 366.343 358.917C340.479 324.685 316.839 285.985 295.842 243.748L212.812 251.062ZM397.113 202.877C402.481 213.368 408.008 223.537 413.679 233.368C421.728 247.319 430.067 260.588 438.658 273.13C484.599 340.198 533.022 380.669 578.647 399.438C589.781 404.018 600.748 407.305 611.472 409.372L591.772 185.729L397.113 202.877ZM448.844 230.27C454.101 238.887 459.462 247.182 464.916 255.143C502.938 310.651 541.063 344.524 575.416 362.76L562.86 220.226L448.844 230.27ZM892.491 -241.819C891.189 -252.444 889.743 -262.969 888.16 -273.388C876.555 -349.766 857.565 -420.444 833.266 -483.078L611.872 -463.576L633.417 -218.997L892.491 -241.819ZM662.329 -253.494L856.391 -270.589C846.478 -335.02 831.177 -395.072 811.892 -449.245L646.369 -434.664L662.329 -253.494ZM621.456 -717.479L634.027 -574.776L748.322 -584.844C743.068 -593.456 737.709 -601.746 732.259 -609.703C694.124 -665.376 655.888 -699.282 621.456 -717.479ZM605.115 -540.279L800.054 -557.451C794.686 -567.943 789.159 -578.112 783.487 -587.942C775.441 -601.888 767.104 -615.152 758.517 -627.689C712.475 -694.904 663.941 -735.406 618.228 -754.12C607.095 -758.678 596.13 -761.943 585.409 -763.987L605.115 -540.279ZM1051.65 -579.614C1043.27 -589.793 1034.58 -599.683 1025.61 -609.271C959.041 -680.394 876.659 -734.864 785.135 -766.852C762.265 -774.845 738.825 -781.435 714.917 -786.529C733.036 -772.941 750.622 -757.109 767.538 -739.232C810.926 -693.381 849.91 -634.08 882.188 -564.686L1051.65 -579.614ZM984.644 -605.662C939.38 -650.025 887.357 -686.621 830.659 -713.706C856.588 -679.421 880.284 -640.648 901.325 -598.322L984.644 -605.662ZM379.907 -552.39L493.915 -562.433L481.36 -704.951C450.724 -680.99 419.109 -640.974 391.376 -579.674C387.401 -570.887 383.574 -561.788 379.907 -552.39ZM344.741 -549.292C340.876 -538.622 337.212 -527.643 333.76 -516.375L528.412 -533.522L508.712 -757.149C498.515 -753.24 488.291 -748.085 478.129 -741.629C436.488 -715.173 395.887 -666.859 362.378 -592.793C356.115 -578.947 350.225 -564.43 344.741 -549.292ZM341.021 -407.766C331.504 -351.055 326.938 -289.253 328.441 -224.082L522.217 -241.152L506.257 -422.322L341.021 -407.766ZM296.672 -221.283C296.935 -210.748 297.352 -200.132 297.927 -189.443L556.714 -212.24L535.169 -456.819L314.062 -437.341C301.087 -371.423 294.745 -298.514 296.672 -221.283ZM377.377 -756.638C354.722 -747.415 332.789 -736.8 311.666 -724.902C227.365 -677.419 155.955 -609.494 102.955 -527.993C95.7963 -516.985 88.9733 -505.728 82.4998 -494.241L251.626 -509.14C271.246 -582.997 299.207 -648.115 333.839 -700.804C347.367 -721.385 361.913 -740.069 377.377 -756.638ZM143.918 -531.602C180.609 -583.025 225.259 -628.026 276.141 -664.541C256.678 -626.339 240.183 -584.134 226.903 -538.912L143.918 -531.602Z" stroke="url(#paint0_linear_1077_16322)" stroke-width="1.97344" mask="url(#path-1-outside-1_1077_16322)"/>
<defs>
<linearGradient id="paint0_linear_1077_16322" x1="572.809" y1="1.5984" x2="752.916" y2="395.549" gradientUnits="userSpaceOnUse">
<stop stop-color="#0745F9" stop-opacity="0.42"/>
<stop offset="1" stop-color="#00FFFF"/>
</linearGradient>
</defs>
</svg>
