<svg width="232" height="33" viewBox="0 0 232 33" fill="none" xmlns="http://www.w3.org/2000/svg">
<path d="M25.0024 14.6281C25.0024 21.0464 20.3172 25.031 12.8623 25.031H8.07361V32.4386H0.333984V4.17188H12.8365C20.3172 4.17188 25.0024 8.18325 25.0024 14.6281ZM17.1852 14.6281C17.1852 12.0074 15.5803 10.4831 12.3705 10.4831H8.07361V18.7466H12.3705C15.5803 18.7466 17.1852 17.2222 17.1852 14.6281Z" fill="#1CC68D"/>
<path d="M27.7676 4.06485C27.7676 1.765 29.5536 0 32.2974 0C35.0412 0 36.8274 1.65803 36.8274 3.95788C36.8274 6.39145 35.0412 8.15645 32.2974 8.15645C29.5536 8.12971 27.7676 6.36471 27.7676 4.06485ZM28.5959 10.5633H35.999V32.4386H28.57V10.5633H28.5959Z" fill="#1CC68D"/>
<path d="M63.3642 19.9228V32.4382H55.9352V21.1796C55.9352 18.024 54.6151 16.6869 52.4666 16.6869C50.0852 16.6869 48.2473 18.2112 48.2473 21.8482V32.4382H40.8184V10.5629H47.8849V12.943C49.5675 11.1244 51.9489 10.1885 54.6151 10.1885C59.585 10.1885 63.3642 13.1569 63.3642 19.9228Z" fill="#1CC68D"/>
<path d="M93.2871 18.3183C93.2871 9.73401 99.6548 3.63672 108.327 3.63672C113.374 3.63672 117.438 5.53544 120.078 8.95848L115.16 13.5582C113.451 11.4187 111.329 10.2421 108.714 10.2421C104.21 10.2421 101.104 13.478 101.104 18.3183C101.104 23.1588 104.237 26.3945 108.714 26.3945C111.329 26.3945 113.451 25.2179 115.16 23.0785L120.078 27.6782C117.412 31.1013 113.348 32.9999 108.327 32.9999C99.6548 32.9999 93.2871 26.9027 93.2871 18.3183Z" fill="white"/>
<path d="M142.933 20.2975V32.4386H136.022V29.6039C134.961 31.6898 132.864 32.7862 129.783 32.7862C124.711 32.7862 121.889 29.8446 121.889 26.0472C121.889 22.009 124.736 19.4953 131.311 19.4953H135.53C135.401 17.2756 133.977 16.0188 131.026 16.0188C129.007 16.0188 126.729 16.7408 125.279 17.9174L122.769 12.7027C125.202 11.0447 128.774 10.1621 132.114 10.1621C138.999 10.1889 142.933 13.3445 142.933 20.2975ZM135.53 25.4053V23.5066H132.32C129.939 23.5066 129.085 24.3891 129.085 25.7262C129.085 27.0099 130.095 27.9459 131.854 27.9459C133.485 27.9459 134.935 27.1436 135.53 25.4053Z" fill="white"/>
<path d="M145.963 30.5394L148.189 25.298C150.131 26.5548 153.004 27.3036 155.566 27.3036C158.078 27.3036 158.88 26.742 158.88 25.8061C158.88 22.8644 146.377 26.2072 146.377 17.4624C146.377 13.3441 150.053 10.1885 156.679 10.1885C159.656 10.1885 162.917 10.8303 165.04 12.0338L162.815 17.2485C160.692 16.0451 158.596 15.644 156.731 15.644C154.221 15.644 153.341 16.366 153.341 17.1683C153.341 20.1902 165.791 16.9276 165.791 25.5921C165.791 29.6302 162.193 32.7859 155.334 32.7859C151.736 32.8126 148.034 31.8766 145.963 30.5394Z" fill="white"/>
<path d="M168.172 4.06485C168.172 1.765 169.958 0 172.701 0C175.445 0 177.232 1.65803 177.232 3.95788C177.232 6.39145 175.445 8.15645 172.701 8.15645C169.983 8.12971 168.172 6.36471 168.172 4.06485ZM169 10.5633H176.429V32.4386H169V10.5633Z" fill="white"/>
<path d="M203.764 19.9228V32.4382H196.336V21.1796C196.336 18.024 195.016 16.6869 192.866 16.6869C190.485 16.6869 188.647 18.2112 188.647 21.8482V32.4382H181.219V10.5629H188.285V12.943C189.968 11.1244 192.35 10.1885 195.016 10.1885C199.986 10.1885 203.764 13.1569 203.764 19.9228Z" fill="white"/>
<path d="M207.416 21.4471C207.416 14.8684 212.463 10.1885 219.375 10.1885C226.364 10.1885 231.334 14.8684 231.334 21.4471C231.334 28.0792 226.364 32.7859 219.375 32.7859C212.438 32.8126 207.416 28.0792 207.416 21.4471ZM223.827 21.4471C223.827 18.131 221.912 16.2858 219.375 16.2858C216.865 16.2858 214.923 18.131 214.923 21.4471C214.923 24.7899 216.865 26.6886 219.375 26.6886C221.912 26.7154 223.827 24.8166 223.827 21.4471Z" fill="white"/>
<path d="M78.9198 10.2695C72.0084 10.2695 66.9609 14.9494 66.9609 21.5281C66.9609 28.1603 72.0084 32.8669 78.9198 32.8669C85.9087 32.8669 90.8787 28.1335 90.8787 21.5281C90.8787 14.9494 85.9346 10.2695 78.9198 10.2695ZM83.9415 24.7372C83.3462 25.3523 82.5437 25.6732 81.6895 25.6732H81.6636C80.7835 25.6732 79.9811 25.2988 79.3857 24.657C79.4893 25.1116 79.5669 25.6464 79.6964 25.9941C80.1622 27.3044 80.9388 27.8661 80.8871 27.8661H76.9784C76.9266 27.8661 77.7031 27.3044 78.1691 25.9941C78.2986 25.6464 78.3762 25.1116 78.4797 24.657C77.8844 25.2988 77.0819 25.6732 76.2018 25.6732H76.176C75.3217 25.6732 74.5193 25.3255 73.924 24.7372C73.3286 24.1222 72.9921 23.3198 73.018 22.4908C73.018 21.0468 73.9499 20.298 75.1406 19.3352C75.3735 19.148 75.6064 18.9608 75.8395 18.7469C77.5737 17.2493 78.9457 15.2436 78.9457 15.2436C78.9457 15.2436 80.3175 17.2493 82.0518 18.7469C82.2848 18.9608 82.5178 19.148 82.7507 19.3352C83.9156 20.298 84.8475 21.0468 84.8733 22.4908C84.8733 23.3465 84.5369 24.1489 83.9415 24.7372Z" fill="#1CC68D"/>
</svg>
