<svg width="151" height="150" viewBox="0 0 151 150" fill="none" xmlns="http://www.w3.org/2000/svg">
<path d="M46.2008 81.4905C48.5044 81.4905 50.313 80.5513 51.6075 79.1234V74.3144H45.5536V76.6439H48.9042V78.1467C48.3902 78.6162 47.3239 79.1047 46.2008 79.1047C43.8973 79.1047 42.2219 77.3576 42.2219 74.9908C42.2219 72.6237 43.8973 70.8767 46.2008 70.8767C47.5526 70.8767 48.6376 71.628 49.2087 72.511L51.4553 71.3088C50.5034 69.8248 48.8471 68.5098 46.2008 68.5098C42.4885 68.5098 39.4424 71.0271 39.4424 74.9908C39.4424 78.9356 42.4885 81.4905 46.2008 81.4905ZM58.0232 81.4717C59.4511 81.4717 60.898 81.0396 61.8117 80.213L60.7456 78.6727C60.1556 79.2363 59.0703 79.5744 58.2898 79.5744C56.7287 79.5744 55.7959 78.6162 55.6436 77.4705H62.4782V76.9444C62.4782 73.9763 60.6124 71.9474 57.871 71.9474C55.0723 71.9474 53.1115 74.0703 53.1115 76.7003C53.1115 79.612 55.2247 81.4717 58.0232 81.4717ZM60.1364 75.8548H55.6055C55.7197 74.9532 56.367 73.8448 57.871 73.8448C59.4702 73.8448 60.0793 74.9908 60.1364 75.8548ZM67.3137 81.4717C68.3227 81.4717 68.97 81.2086 69.3317 80.8892L68.8177 79.086C68.6845 79.2174 68.3416 79.349 67.98 79.349C67.4469 79.349 67.1424 78.9169 67.1424 78.3533V74.258H69.0081V72.1728H67.1424V69.6932H64.7055V72.1728H63.1825V74.258H64.7055V78.992C64.7055 80.6076 65.6193 81.4717 67.3137 81.4717Z" fill="#EDD938"/>
<path d="M75.234 81.4715C78.6606 81.4715 80.3169 79.7433 80.3169 77.4514C80.3169 72.7738 73.0254 74.1077 73.0254 72.1163C73.0254 71.365 73.6727 70.8577 74.834 70.8577C76.1287 70.8577 77.4995 71.2898 78.5274 72.2292L80.0314 70.2754C78.7747 69.1295 77.0995 68.5283 75.0816 68.5283C72.0925 68.5283 70.265 70.2567 70.265 72.3417C70.265 77.0569 77.5755 75.5352 77.5755 77.752C77.5755 78.4659 76.8519 79.1421 75.3672 79.1421C73.6156 79.1421 72.2259 78.3719 71.3311 77.4514L69.8652 79.4803C71.0455 80.6638 72.797 81.4715 75.234 81.4715ZM84.5052 81.2461V68.7161H82.0873V81.2461H84.5052ZM91.1685 81.4715C94.2143 81.4715 96.0422 79.2925 96.0422 76.7001C96.0422 74.1264 94.2143 71.9472 91.1685 71.9472C88.1414 71.9472 86.3139 74.1264 86.3139 76.7001C86.3139 79.2925 88.1414 81.4715 91.1685 81.4715ZM91.1685 79.3488C89.6645 79.3488 88.8269 78.1276 88.8269 76.7001C88.8269 75.2911 89.6645 74.0701 91.1685 74.0701C92.6724 74.0701 93.5291 75.2911 93.5291 76.7001C93.5291 78.1276 92.6724 79.3488 91.1685 79.3488ZM100.916 81.4715C101.925 81.4715 102.572 81.2084 102.934 80.8891L102.42 79.0858C102.286 79.2172 101.944 79.3488 101.582 79.3488C101.049 79.3488 100.744 78.9167 100.744 78.3532V74.2579H102.61V72.1727H100.744V69.693H98.3077V72.1727H96.7846V74.2579H98.3077V78.9918C98.3077 80.6075 99.2213 81.4715 100.916 81.4715ZM107.579 81.4715C110.13 81.4715 111.558 80.2128 111.558 78.5597C111.558 74.8966 106.113 76.0237 106.113 74.6712C106.113 74.1641 106.684 73.7694 107.56 73.7694C108.683 73.7694 109.73 74.2391 110.282 74.8214L111.253 73.1872C110.34 72.4733 109.102 71.9472 107.541 71.9472C105.123 71.9472 103.771 73.281 103.771 74.8026C103.771 78.3719 109.235 77.1509 109.235 78.6537C109.235 79.2172 108.74 79.6306 107.693 79.6306C106.551 79.6306 105.18 79.0105 104.514 78.3907L103.467 80.0625C104.438 80.9454 105.98 81.4715 107.579 81.4715Z" fill="#FEFEFE"/>
<rect x="1" y="0.5" width="149" height="149" rx="74.5" stroke="#828FA1"/>
</svg>
