<svg width="151" height="150" viewBox="0 0 151 150" fill="none" xmlns="http://www.w3.org/2000/svg">
<path d="M47.7759 75.2957C47.7759 72.666 50.1085 70.5303 53.0162 70.5303C55.0372 70.5303 56.8106 71.5836 57.6732 73.1309L55.4287 74.1697C54.9893 73.3634 54.1025 72.8549 53.0162 72.8549C51.4663 72.8549 50.3081 73.8937 50.3081 75.2957C50.3081 76.6978 51.4663 77.7366 53.0162 77.7366C54.1025 77.7366 54.9893 77.2281 55.4287 76.4217L57.6732 77.4605C56.8025 79.0079 55.0372 80.0612 53.0162 80.0612C50.1085 80.0612 47.7759 77.9255 47.7759 75.2957Z" fill="white"/>
<path d="M66.4761 72.717H63.9758V79.9378H61.3875V72.717H58.8872V70.6611H66.4761V72.717Z" fill="white"/>
<path d="M36.3281 75.2957C36.3281 72.666 38.6607 70.5303 41.5685 70.5303C44.4603 70.5303 46.8089 72.666 46.8089 75.2957C46.8089 77.9255 44.4603 80.0612 41.5685 80.0612C38.6527 80.0612 36.3281 77.9255 36.3281 75.2957ZM44.2525 75.2957C44.2525 73.8864 43.0942 72.8549 41.5685 72.8549C40.0187 72.8549 38.8604 73.8937 38.8604 75.2957C38.8604 76.6978 40.0187 77.7366 41.5685 77.7366C43.0942 77.7438 44.2525 76.705 44.2525 75.2957Z" fill="white"/>
<path d="M67.3633 75.2957C67.3633 72.666 69.6959 70.5303 72.6036 70.5303C75.4953 70.5303 77.8439 72.666 77.8439 75.2957C77.8439 77.9255 75.4953 80.0612 72.6036 80.0612C69.6959 80.0612 67.3633 77.9255 67.3633 75.2957ZM75.2878 75.2957C75.2878 73.8864 74.1294 72.8549 72.6036 72.8549C71.054 72.8549 69.8955 73.8937 69.8955 75.2957C69.8955 76.6978 71.054 77.7366 72.6036 77.7366C74.1375 77.7438 75.2878 76.705 75.2878 75.2957Z" fill="white"/>
<path d="M125.314 75.1219C125.314 72.4922 127.647 70.3564 130.554 70.3564C133.446 70.3564 135.795 72.4922 135.795 75.1219C135.795 77.7516 133.446 79.8874 130.554 79.8874C127.638 79.8874 125.314 77.7516 125.314 75.1219ZM133.238 75.1219C133.238 73.7126 132.08 72.6811 130.554 72.6811C129.004 72.6811 127.846 73.7199 127.846 75.1219C127.846 76.5239 129.004 77.5628 130.554 77.5628C132.08 77.57 133.238 76.5312 133.238 75.1219Z" fill="white"/>
<path d="M79.3027 75.1219C79.3027 72.4922 81.6353 70.3564 84.543 70.3564C86.5641 70.3564 88.3375 71.4098 89.2003 72.9571L86.9555 73.9959C86.5161 73.1896 85.6294 72.6811 84.543 72.6811C82.9934 72.6811 81.835 73.7199 81.835 75.1219C81.835 76.5239 82.9934 77.5628 84.543 77.5628C85.6294 77.5628 86.5161 77.0542 86.9555 76.2479L89.2003 77.2867C88.3296 78.834 86.5641 79.8874 84.543 79.8874C81.6353 79.8874 79.3027 77.7516 79.3027 75.1219Z" fill="white"/>
<path d="M96.5484 78.1362H92.9777L92.4186 79.7634H89.6064L93.2971 70.4795H96.2049L99.8955 79.7634H97.1075L96.5484 78.1362ZM95.9014 76.2184L94.759 72.9421L93.6328 76.2184H95.9014Z" fill="white"/>
<path d="M100.214 77.7516L102.339 76.5457C102.699 77.2431 103.41 77.6717 104.297 77.6717C104.959 77.6717 105.303 77.4102 105.303 77.0397C105.303 75.6304 100.662 76.4077 100.662 73.1896C100.662 71.2064 102.451 70.3564 104.065 70.3564C105.343 70.3564 106.549 70.8795 107.348 71.7294L105.646 73.2332C105.103 72.7101 104.544 72.4268 104.033 72.4268C103.625 72.4268 103.282 72.6157 103.282 73.0152C103.282 74.4245 107.907 73.5383 107.907 77.0688C107.907 78.8486 106.222 79.8874 104.265 79.8874C102.387 79.8874 100.893 78.9285 100.214 77.7516Z" fill="white"/>
<path d="M109.298 70.4795H111.902V79.7634H109.298V70.4795Z" fill="white"/>
<path d="M123.772 70.4795V79.7634H121.032L116.438 74.0681V79.7634H113.834V70.4795H116.558L121.167 76.153V70.4795H123.772Z" fill="white"/>
<path d="M31.9702 73.4088C31.2628 72.4303 30.9059 71.9381 30.3706 71.1237C29.8354 70.3092 28.1849 69.8932 27.5922 69.7761C27.5922 69.7761 27.5922 69.7761 27.5858 69.7761C27.3309 69.694 27.0633 69.6178 26.7893 69.5593C23.8961 68.944 21.1113 70.11 19.8623 72.4713C18.9956 74.1119 19.2951 76.1217 20.6015 77.3521C21.876 78.5533 23.9535 78.6353 25.2216 77.5337C26.4388 76.4732 26.426 75.026 25.228 74.0592C24.2721 73.2858 22.2138 73.7311 21.9461 74.7916C21.9079 74.9322 21.8915 75.0154 21.927 75.0611C21.9461 75.0956 21.9352 75.132 21.9678 75.1559C22.0634 75.2262 22.2966 75.2896 22.5642 75.0377C22.9211 74.7096 23.0995 74.8736 23.2716 74.8736C23.4437 74.8736 23.6285 74.7096 23.8069 74.7096C23.9853 74.7096 23.9088 74.8736 24.1638 74.8736C24.5206 74.8736 24.3422 75.0377 24.5206 75.2017C24.7156 75.3667 24.4103 75.5072 24.5206 75.6939C24.6991 75.858 24.6991 76.0221 24.5206 76.1861C24.2576 76.3502 24.3422 76.5142 24.1638 76.6783C23.9853 76.8424 23.6285 76.6783 23.4564 76.8424C23.2843 77.0005 23.1314 77.0533 22.7745 77.0298C21.9907 76.8716 21.3216 76.2799 21.1304 75.4654C20.8373 74.1998 21.927 72.858 23.3991 72.6764C25.4638 72.4186 27.1971 74.0182 26.9549 75.9693C26.7192 77.897 24.8584 79.2505 22.6789 79.0689C20.7672 78.9107 19.2186 77.6158 18.7089 75.7467C18.0971 73.5084 19.1613 71.0592 21.3152 69.7409C23.3799 68.4753 25.5848 68.3464 27.879 69.0729C28.4398 69.2487 29.3701 69.6062 28.9885 69.1846C28.9885 69.1846 28.3725 68.6698 27.8435 68.3416C27.3082 68.0135 26.1653 67.6568 25.63 67.4986C25.0947 67.3346 23.552 67.0069 22.3479 67.0771C21.1267 67.1483 20.5656 67.3936 20.0581 67.6391C19.6764 67.8237 19.1957 68.0194 18.9132 68.1309C18.3788 68.3416 18.3025 68.4119 17.9209 68.7631C17.4994 69.1511 17.279 69.4452 17.0813 69.6764C16.776 70.0334 15.9379 70.8004 15.6373 71.6217C15.6373 71.5732 15.6054 71.7682 15.6373 71.6217C14.1079 74.9088 15.0396 79.2052 18.3788 81.338C19.8191 82.252 20.2264 82.6727 21.9678 82.8132C22.8565 82.885 25.0194 83.024 26.2422 82.5322C27.9365 81.8508 28.2295 81.5708 29.2937 80.9204C30.3579 80.27 30.8932 79.7779 31.2437 78.6353C31.6005 77.4927 31.779 77.0064 32.1294 76.1861C32.3469 75.4654 32.4232 74.2408 31.9702 73.4088ZM20.5696 74.6041C20.2637 74.8971 19.8878 74.7916 19.7986 74.3932C19.6966 73.9244 19.8368 73.5084 20.1172 73.1979C20.5123 72.8404 20.8628 72.9166 20.9647 73.3326C21.0794 73.8189 20.9329 74.2526 20.5696 74.6041ZM24.0299 71.5397C23.603 72.0026 23.0486 72.2311 22.3986 72.2604C22.0544 72.278 21.7167 72.2077 21.5765 71.8854C21.4427 71.5807 21.6721 71.3522 21.876 71.1413C22.354 70.7428 22.902 70.5202 23.552 70.5553C23.8197 70.567 24.0873 70.6315 24.2084 70.8952C24.3167 71.1413 24.2084 71.3463 24.0299 71.5397ZM25.8844 72.3483C25.7888 72.2135 25.6295 72.0377 25.5275 71.8326C25.279 71.3522 25.4893 70.9303 26.0437 70.7721C26.152 70.7428 26.2603 70.7135 26.375 70.7135C27.5348 70.6901 28.4907 71.0827 29.1662 71.9616C29.6314 72.5651 29.3383 73.1568 28.5353 73.2506C27.5157 73.3678 26.6809 72.9869 25.8844 72.3483ZM30.6638 76.4615C30.4152 77.5337 29.5741 78.2779 28.7775 78.1255C27.9809 77.9732 27.5348 76.9771 27.7834 75.9049C28.0319 74.8326 28.8731 74.0885 29.6697 74.2408C30.4662 74.3932 30.9059 75.3892 30.6638 76.4615Z" fill="white"/>
<rect x="1" y="0.5" width="149" height="149" rx="74.5" stroke="#828FA1"/>
</svg>
