<svg width="150" height="150" viewBox="0 0 150 150" fill="none" xmlns="http://www.w3.org/2000/svg">
<path d="M46.355 80.0107C46.2567 80.0107 46.1731 79.9784 46.1042 79.9137C46.0354 79.8491 46.001 79.7706 46.001 79.6782V70.6597C46.001 70.5581 46.0305 70.475 46.0895 70.4103C46.1583 70.3457 46.2468 70.3133 46.355 70.3133H49.9546C52.846 70.3133 54.3213 71.5694 54.3803 74.0815C54.4 74.6171 54.4098 74.9773 54.4098 75.162C54.4098 75.3375 54.4 75.6931 54.3803 76.2287C54.341 77.5217 53.9722 78.4776 53.2739 79.0964C52.5756 79.7059 51.4938 80.0107 50.0284 80.0107H46.355ZM49.9546 78.4176C50.7807 78.4176 51.3758 78.2467 51.7396 77.905C52.1035 77.554 52.2953 76.9815 52.315 76.1872C52.3347 75.633 52.3445 75.2867 52.3445 75.1482C52.3445 75.0004 52.3347 74.6587 52.315 74.123C52.2953 73.3657 52.0887 72.8069 51.6954 72.4468C51.3118 72.0866 50.707 71.9065 49.8808 71.9065H48.0515V78.4176H49.9546ZM60.7847 80.1492C59.457 80.1492 58.4243 79.8306 57.6867 79.1934C56.9491 78.5561 56.5803 77.591 56.5803 76.298V70.6597C56.5803 70.5581 56.6098 70.475 56.6688 70.4103C56.7376 70.3457 56.8261 70.3133 56.9343 70.3133H58.2768C58.3849 70.3133 58.4686 70.3457 58.5276 70.4103C58.5964 70.475 58.6308 70.5581 58.6308 70.6597V76.298C58.6308 77.0369 58.8177 77.5956 59.1914 77.9743C59.5651 78.3437 60.0962 78.5284 60.7847 78.5284C61.4731 78.5284 61.9992 78.3437 62.3632 77.9743C62.7369 77.5956 62.9238 77.0369 62.9238 76.298V70.6597C62.9238 70.5581 62.9581 70.475 63.027 70.4103C63.0958 70.3457 63.1844 70.3133 63.2926 70.3133H64.6203C64.7284 70.3133 64.812 70.3457 64.8711 70.4103C64.9399 70.475 64.9743 70.5581 64.9743 70.6597V76.298C64.9743 77.591 64.6055 78.5561 63.8679 79.1934C63.1401 79.8306 62.1124 80.1492 60.7847 80.1492ZM66.862 80.0107C66.7735 80.0107 66.6997 79.983 66.6407 79.9276C66.5817 79.8722 66.5522 79.8029 66.5522 79.7198C66.5522 79.6644 66.567 79.609 66.5965 79.5535L69.901 75.0651L66.803 70.7705C66.7735 70.7243 66.7587 70.6689 66.7587 70.6043C66.7587 70.5211 66.7882 70.4519 66.8472 70.3965C66.9063 70.341 66.98 70.3133 67.0685 70.3133H68.5733C68.7503 70.3133 68.9028 70.4011 69.0306 70.5766L71.1992 73.5689L73.3825 70.5766C73.5104 70.4011 73.6628 70.3133 73.8398 70.3133H75.2708C75.3593 70.3133 75.4331 70.341 75.492 70.3965C75.551 70.4519 75.5805 70.5211 75.5805 70.6043C75.5805 70.6689 75.5612 70.7243 75.5215 70.7705L72.4384 75.0651L75.7428 79.5535C75.7825 79.6275 75.8018 79.6829 75.8018 79.7198C75.8018 79.8029 75.7677 79.8722 75.6985 79.9276C75.6395 79.983 75.5709 80.0107 75.492 80.0107H73.9284C73.7415 80.0107 73.594 79.9276 73.4858 79.7614L71.1254 76.6305L68.8093 79.7614C68.6815 79.9276 68.529 80.0107 68.352 80.0107H66.862ZM81.0797 80.1492C79.7225 80.1492 78.67 79.8214 77.9227 79.1657C77.1851 78.5099 76.7919 77.5864 76.7425 76.395C76.7329 76.1456 76.7278 75.7392 76.7278 75.1759C76.7278 74.6033 76.7329 74.1877 76.7425 73.9291C76.7919 72.7469 77.1902 71.828 77.9375 71.1722C78.6949 70.5073 79.7424 70.1748 81.0797 70.1748C81.9552 70.1748 82.7172 70.318 83.3663 70.6043C84.0154 70.8813 84.517 71.2646 84.8711 71.7541C85.2251 72.2343 85.4118 72.7792 85.4316 73.3888V73.4165C85.4316 73.4904 85.397 73.555 85.3284 73.6104C85.2694 73.6566 85.2007 73.6797 85.1218 73.6797H83.7204C83.6024 73.6797 83.5138 73.6566 83.4548 73.6104C83.3958 73.5642 83.3465 73.4765 83.3073 73.3472C83.1501 72.7654 82.8891 72.359 82.5254 72.1281C82.1617 71.888 81.6749 71.7679 81.065 71.7679C79.6487 71.7679 78.9111 72.5114 78.8521 73.9983C78.8425 74.2477 78.8374 74.631 78.8374 75.1482C78.8374 75.6654 78.8425 76.0579 78.8521 76.3257C78.9111 77.8127 79.6487 78.5561 81.065 78.5561C81.6749 78.5561 82.1617 78.4361 82.5254 78.1959C82.8994 77.9558 83.1598 77.5494 83.3073 76.9768C83.3368 76.8475 83.3811 76.7598 83.4401 76.7136C83.5087 76.6674 83.6024 76.6443 83.7204 76.6443H85.1218C85.2104 76.6443 85.2841 76.672 85.3431 76.7275C85.4118 76.7829 85.4413 76.8521 85.4316 76.9353C85.4118 77.5448 85.2251 78.0943 84.8711 78.5838C84.517 79.064 84.0154 79.4474 83.3663 79.7336C82.7172 80.0107 81.9552 80.1492 81.0797 80.1492ZM86.7264 80.0107C86.6481 80.0107 86.5744 79.983 86.5052 79.9276C86.4461 79.8722 86.4166 79.8029 86.4166 79.7198L86.4461 79.5951L90.0015 70.6597C90.0707 70.4288 90.2426 70.3133 90.5178 70.3133H92.1258C92.3817 70.3133 92.5536 70.4288 92.6421 70.6597L96.1974 79.5951C96.2076 79.6228 96.2122 79.6644 96.2122 79.7198C96.2122 79.8029 96.1827 79.8722 96.1237 79.9276C96.0647 79.983 95.996 80.0107 95.9171 80.0107H94.6337C94.506 80.0107 94.4079 79.983 94.3386 79.9276C94.27 79.8722 94.2257 79.8121 94.2059 79.7475L93.5125 78.0574H89.1311L88.4377 79.7475C88.3594 79.923 88.2164 80.0107 88.0099 80.0107H86.7264ZM92.9962 76.4642L91.3144 72.1835L89.6474 76.4642H92.9962ZM101.326 80.1492C100.45 80.1492 99.6977 80.0246 99.0685 79.7752C98.4392 79.5258 97.962 79.198 97.6375 78.7916C97.3129 78.3852 97.141 77.9466 97.1211 77.4755C97.1211 77.3924 97.1507 77.3232 97.2097 77.2677C97.2687 77.2123 97.3424 77.1846 97.4309 77.1846H98.7439C98.8619 77.1846 98.9504 77.2077 99.0094 77.2539C99.0781 77.2908 99.1422 77.3555 99.2012 77.4478C99.2994 77.7618 99.5258 78.025 99.8798 78.2375C100.234 78.4499 100.716 78.5561 101.326 78.5561C102.024 78.5561 102.55 78.4499 102.904 78.2375C103.258 78.0158 103.435 77.711 103.435 77.3232C103.435 77.0646 103.342 76.8521 103.155 76.6859C102.978 76.5197 102.707 76.3765 102.343 76.2564C101.989 76.1364 101.458 75.9886 100.75 75.8131C99.5899 75.5546 98.7388 75.2128 98.1981 74.788C97.667 74.3539 97.4014 73.7398 97.4014 72.9455C97.4014 72.4098 97.5541 71.9342 97.8588 71.5186C98.1737 71.103 98.6208 70.7751 99.2012 70.535C99.7913 70.2949 100.475 70.1748 101.252 70.1748C102.058 70.1748 102.757 70.3087 103.347 70.5766C103.937 70.8444 104.384 71.1815 104.689 71.5879C105.004 71.985 105.171 72.3821 105.191 72.7792C105.191 72.8624 105.161 72.9316 105.102 72.987C105.043 73.0425 104.969 73.0702 104.881 73.0702H103.509C103.302 73.0702 103.16 72.9824 103.081 72.8069C103.022 72.5114 102.825 72.2667 102.491 72.0727C102.157 71.8696 101.744 71.7679 101.252 71.7679C100.701 71.7679 100.268 71.8649 99.9536 72.0589C99.6387 72.2528 99.4815 72.5345 99.4815 72.9039C99.4815 73.1625 99.5604 73.3749 99.7176 73.5412C99.8747 73.7074 100.121 73.8552 100.455 73.9845C100.8 74.1138 101.291 74.2569 101.93 74.4139C102.796 74.5987 103.485 74.8065 103.996 75.0373C104.517 75.2682 104.901 75.5591 105.146 75.9101C105.392 76.2611 105.515 76.709 105.515 77.2539C105.515 77.8449 105.338 78.3622 104.984 78.8055C104.64 79.2396 104.148 79.572 103.509 79.8029C102.88 80.0338 102.152 80.1492 101.326 80.1492ZM107.855 80.0107C107.756 80.0107 107.673 79.9784 107.604 79.9137C107.535 79.8491 107.501 79.7706 107.501 79.6782V70.6458C107.501 70.5442 107.535 70.4657 107.604 70.4103C107.673 70.3457 107.756 70.3133 107.855 70.3133H109.242C109.35 70.3133 109.434 70.3457 109.493 70.4103C109.561 70.4657 109.596 70.5442 109.596 70.6458V79.6782C109.596 79.7706 109.561 79.8491 109.493 79.9137C109.434 79.9784 109.35 80.0107 109.242 80.0107H107.855ZM112.558 80.0107C112.46 80.0107 112.376 79.9784 112.308 79.9137C112.239 79.8491 112.204 79.7706 112.204 79.6782V70.6597C112.204 70.5581 112.234 70.475 112.293 70.4103C112.361 70.3457 112.45 70.3133 112.558 70.3133H113.694C113.812 70.3133 113.901 70.3364 113.96 70.3826C114.019 70.4195 114.073 70.4703 114.122 70.535L118.371 76.7413V70.6597C118.371 70.5581 118.4 70.475 118.459 70.4103C118.528 70.3457 118.616 70.3133 118.725 70.3133H119.964C120.072 70.3133 120.161 70.3457 120.23 70.4103C120.298 70.475 120.333 70.5581 120.333 70.6597V79.6644C120.333 79.766 120.298 79.8491 120.23 79.9137C120.161 79.9784 120.077 80.0107 119.979 80.0107H118.828C118.661 80.0107 118.518 79.9368 118.4 79.7891L114.166 73.7213V79.6782C114.166 79.7798 114.132 79.863 114.063 79.9276C113.994 79.983 113.906 80.0107 113.798 80.0107H112.558ZM126.898 80.1492C125.561 80.1492 124.518 79.8306 123.771 79.1934C123.023 78.5561 122.63 77.6094 122.59 76.3534C122.581 76.0856 122.576 75.6931 122.576 75.1759C122.576 74.6494 122.581 74.2523 122.59 73.9845C122.63 72.7562 123.033 71.8141 123.8 71.1584C124.567 70.5027 125.6 70.1748 126.898 70.1748C128.196 70.1748 129.229 70.5027 129.996 71.1584C130.773 71.8141 131.181 72.7562 131.221 73.9845C131.24 74.5201 131.25 74.9173 131.25 75.1759C131.25 75.4252 131.24 75.8178 131.221 76.3534C131.171 77.6094 130.773 78.5561 130.026 79.1934C129.278 79.8306 128.235 80.1492 126.898 80.1492ZM126.898 78.5561C127.557 78.5561 128.083 78.3714 128.477 78.002C128.87 77.6233 129.081 77.0507 129.111 76.2841C129.131 75.73 129.14 75.356 129.14 75.162C129.14 74.9496 129.131 74.5755 129.111 74.0399C129.081 73.2733 128.87 72.7053 128.477 72.3359C128.083 71.9573 127.557 71.7679 126.898 71.7679C126.249 71.7679 125.728 71.9573 125.334 72.3359C124.941 72.7053 124.73 73.2733 124.7 74.0399C124.69 74.3078 124.685 74.6818 124.685 75.162C124.685 75.633 124.69 76.0071 124.7 76.2841C124.73 77.0507 124.936 77.6233 125.32 78.002C125.713 78.3714 126.239 78.5561 126.898 78.5561Z" fill="white"/>
<path d="M21.7392 68.084L18.75 71.0351L24.7284 76.4453C24.7284 75.5942 25.0605 74.9083 25.5588 74.4165C26.1326 73.85 26.7955 73.4943 27.2195 73.4943L21.7392 68.084Z" fill="white"/>
<path d="M27.1488 66.0625L22.6377 67.5475L27.1488 72.0003V66.0625Z" fill="white"/>
<path d="M29.4246 76.303C29.4246 75.372 28.6599 74.6172 27.7167 74.6172C26.7735 74.6172 26.0088 75.372 26.0088 76.303C26.0088 77.0361 26.4856 77.6535 27.1474 77.8858V80.1202C26.6976 80.3766 26.0088 80.8838 26.0088 81.5857C26.0088 82.3041 26.8755 83.6049 27.248 84.1379C27.4696 84.4544 27.9638 84.4544 28.1853 84.1379C28.5579 83.6051 29.4246 82.3041 29.4246 81.5858C29.4246 80.8838 28.7358 80.3766 28.286 80.1202V77.8858C28.9478 77.6535 29.4246 77.0361 29.4246 76.303Z" fill="white"/>
<path d="M38.0614 76.2814L38.0607 76.2808C38.0469 76.2539 36.5496 73.6065 33.7891 72.0106C31.9812 70.9645 29.4691 70.3037 28.2861 70.1904V71.6738C28.2862 71.6969 28.3041 71.695 28.5246 71.7648C29.6037 72.1063 32.7529 73.0619 34.803 75.0856C35.1026 75.3814 35.3764 75.6875 35.6314 75.9967C36.6455 76.2129 37.4608 76.2657 37.8229 76.2776L38.0614 76.2814Z" fill="white"/>
<path d="M38.902 71.9085C38.7837 71.7877 37.474 70.4208 35.4881 69.3552C34.3391 68.7386 31.577 68.3702 30.9489 68.2895C30.2304 68.1973 28.963 68.1572 28.2861 68.1572V69.6091C29.5639 69.7195 32.3478 70.0815 34.4032 71.2707C34.9583 71.5918 35.4622 71.9496 35.9189 72.3201C37.2882 72.29 38.3659 72.0525 38.7631 71.9502L38.902 71.9085Z" fill="white"/>
<path d="M39.1761 67.3093C39.0166 67.2137 36.6229 65.625 32.2713 65.625C30.757 65.625 29.5304 65.625 28.2861 65.8152V67.5974C28.8335 67.5229 29.4709 67.4651 30.1892 67.4651C31.2756 67.4651 32.9291 67.593 33.9066 67.8455C34.6405 68.0344 35.3472 68.2936 35.9632 68.5763C37.5914 68.1566 38.7672 67.5428 39.0666 67.3757L39.1761 67.3093Z" fill="white"/>
<path d="M33.9599 76.1095C32.1354 74.3085 29.3121 72.8857 28.2861 72.5518V73.5493C29.5838 73.8103 30.5634 74.9454 30.5634 76.3021C30.5634 76.7973 30.4218 77.2562 30.1929 77.6606C30.4253 77.9424 30.6643 78.2238 30.9376 78.4935C33.3465 80.8719 37.0891 81.6413 37.2185 81.6725C37.1835 81.531 36.3639 78.4825 33.9599 76.1095Z" fill="white"/>
<rect x="0.5" y="0.5" width="149" height="149" rx="74.5" stroke="#828FA1"/>
</svg>
