<svg width="150" height="150" viewBox="0 0 150 150" fill="none" xmlns="http://www.w3.org/2000/svg">
<path d="M40.8949 74.6648C40.8949 77.0492 39.1543 78.5295 36.3848 78.5295H34.6058V81.2815H31.7305V70.7803H36.3752C39.1543 70.7803 40.8949 72.2705 40.8949 74.6648ZM37.9907 74.6648C37.9907 73.6912 37.3945 73.1249 36.2021 73.1249H34.6058V76.1948H36.2021C37.3945 76.1948 37.9907 75.6285 37.9907 74.6648Z" fill="#1CC68D"/>
<path d="M41.9224 70.7406C41.9224 69.8862 42.5859 69.2305 43.6052 69.2305C44.6246 69.2305 45.2881 69.8464 45.2881 70.7008C45.2881 71.6049 44.6246 72.2606 43.6052 72.2606C42.5859 72.2507 41.9224 71.595 41.9224 70.7406ZM42.2301 73.1548H44.9804V81.2815H42.2205V73.1548H42.2301Z" fill="#1CC68D"/>
<path d="M55.1468 76.631V81.2805H52.387V77.0979C52.387 75.9256 51.8965 75.4288 51.0983 75.4288C50.2137 75.4288 49.5309 75.9951 49.5309 77.3463V81.2805H46.771V73.1537H49.3963V74.038C50.0213 73.3624 50.906 73.0146 51.8965 73.0146C53.7429 73.0146 55.1468 74.1174 55.1468 76.631Z" fill="#1CC68D"/>
<path d="M66.2627 76.0353C66.2627 72.8462 68.6283 70.5811 71.85 70.5811C73.7251 70.5811 75.2346 71.2864 76.2157 72.5581L74.3886 74.2669C73.7538 73.4721 72.9652 73.035 71.994 73.035C70.3208 73.035 69.1668 74.2371 69.1668 76.0353C69.1668 77.8336 70.3306 79.0357 71.994 79.0357C72.9652 79.0357 73.7538 78.5985 74.3886 77.8038L76.2157 79.5126C75.2252 80.7842 73.7153 81.4896 71.85 81.4896C68.6283 81.4896 66.2627 79.2245 66.2627 76.0353Z" fill="white"/>
<path d="M84.7067 76.7712V81.2816H82.1394V80.2285C81.7451 81.0035 80.9659 81.4108 79.8216 81.4108C77.937 81.4108 76.8887 80.318 76.8887 78.9072C76.8887 77.407 77.9465 76.4732 80.389 76.4732H81.9564C81.9084 75.6486 81.3795 75.1816 80.2832 75.1816C79.5331 75.1816 78.6871 75.4499 78.1483 75.887L77.2157 73.9497C78.1196 73.3337 79.4466 73.0059 80.6873 73.0059C83.2452 73.0158 84.7067 74.1881 84.7067 76.7712ZM81.9564 78.6688V77.9634H80.7641C79.8794 77.9634 79.5622 78.2912 79.5622 78.788C79.5622 79.2649 79.9373 79.6126 80.5909 79.6126C81.1969 79.6126 81.7353 79.3146 81.9564 78.6688Z" fill="white"/>
<path d="M85.8325 80.5751L86.6597 78.6279C87.381 79.0948 88.4482 79.373 89.4002 79.373C90.3332 79.373 90.6311 79.1643 90.6311 78.8166C90.6311 77.7238 85.9864 78.9657 85.9864 75.7169C85.9864 74.187 87.3519 73.0146 89.8138 73.0146C90.9196 73.0146 92.1312 73.2531 92.9198 73.7002L92.093 75.6375C91.3044 75.1904 90.5256 75.0414 89.833 75.0414C88.9004 75.0414 88.5734 75.3096 88.5734 75.6077C88.5734 76.7303 93.1988 75.5183 93.1988 78.7372C93.1988 80.2373 91.862 81.4097 89.314 81.4097C87.9772 81.4196 86.6019 81.0719 85.8325 80.5751Z" fill="white"/>
<path d="M94.083 70.7406C94.083 69.8862 94.7465 69.2305 95.7657 69.2305C96.7849 69.2305 97.4488 69.8464 97.4488 70.7008C97.4488 71.6049 96.7849 72.2606 95.7657 72.2606C94.7559 72.2507 94.083 71.595 94.083 70.7406ZM94.3907 73.1548H97.1505V81.2815H94.3907V73.1548Z" fill="white"/>
<path d="M107.306 76.631V81.2805H104.546V77.0979C104.546 75.9256 104.056 75.4288 103.257 75.4288C102.373 75.4288 101.69 75.9951 101.69 77.3463V81.2805H98.9302V73.1537H101.555V74.038C102.181 73.3624 103.065 73.0146 104.056 73.0146C105.902 73.0146 107.306 74.1174 107.306 76.631Z" fill="white"/>
<path d="M108.662 77.1972C108.662 74.7533 110.537 73.0146 113.105 73.0146C115.701 73.0146 117.548 74.7533 117.548 77.1972C117.548 79.6611 115.701 81.4097 113.105 81.4097C110.528 81.4196 108.662 79.6611 108.662 77.1972ZM114.759 77.1972C114.759 75.9653 114.047 75.2798 113.105 75.2798C112.172 75.2798 111.451 75.9653 111.451 77.1972C111.451 78.4391 112.172 79.1445 113.105 79.1445C114.047 79.1545 114.759 78.4491 114.759 77.1972Z" fill="white"/>
<path d="M60.9252 73.0449C58.3576 73.0449 56.4824 74.7835 56.4824 77.2275C56.4824 79.6914 58.3576 81.4399 60.9252 81.4399C63.5216 81.4399 65.368 79.6815 65.368 77.2275C65.368 74.7835 63.5312 73.0449 60.9252 73.0449ZM62.7907 78.4197C62.5696 78.6482 62.2715 78.7674 61.9541 78.7674H61.9445C61.6175 78.7674 61.3195 78.6283 61.0983 78.3899C61.1367 78.5588 61.1656 78.7575 61.2137 78.8866C61.3867 79.3734 61.6752 79.5821 61.656 79.5821H60.2039C60.1847 79.5821 60.4732 79.3734 60.6463 78.8866C60.6944 78.7575 60.7232 78.5588 60.7617 78.3899C60.5405 78.6283 60.2424 78.7674 59.9155 78.7674H59.9058C59.5885 78.7674 59.2904 78.6383 59.0692 78.4197C58.848 78.1912 58.723 77.8931 58.7326 77.5852C58.7326 77.0487 59.0788 76.7705 59.5212 76.4128C59.6077 76.3433 59.6943 76.2738 59.7808 76.1943C60.4251 75.6379 60.9348 74.8928 60.9348 74.8928C60.9348 74.8928 61.4444 75.6379 62.0887 76.1943C62.1753 76.2738 62.2619 76.3433 62.3484 76.4128C62.7811 76.7705 63.1273 77.0487 63.1369 77.5852C63.1369 77.9031 63.0119 78.2012 62.7907 78.4197Z" fill="#1CC68D"/>
<rect x="0.5" y="0.5" width="149" height="149" rx="74.5" stroke="#828FA1"/>
</svg>
