<svg width="150" height="150" viewBox="0 0 150 150" fill="none" xmlns="http://www.w3.org/2000/svg">
<path d="M65.7119 76.8048L61.7075 73.0484C61.4041 72.7638 60.8884 72.7638 60.5547 73.0484L56.5503 76.8048C56.2469 77.0894 56.2469 77.5732 56.5503 77.8862L60.5547 81.6426C60.8581 81.9272 61.3738 81.9272 61.7075 81.6426L65.7119 77.8862C66.0153 77.5732 66.0153 77.0894 65.7119 76.8048ZM59.3412 78.0854C59.0986 78.3131 58.7345 78.3131 58.4918 78.0854C58.2491 77.8577 58.2491 77.5163 58.4918 77.2886C58.7345 77.0609 59.0986 77.0609 59.3412 77.2886C59.5839 77.5163 59.5839 77.8577 59.3412 78.0854ZM59.766 76.8902C59.5233 76.6625 59.5233 76.321 59.766 76.0934C60.0087 75.8657 60.3727 75.8657 60.6154 76.0934C60.8581 76.321 60.8581 76.6625 60.6154 76.8902C60.3727 77.1178 60.0087 77.1178 59.766 76.8902ZM61.2221 79.8498C60.9794 80.0774 60.6154 80.0774 60.3727 79.8498C60.13 79.6221 60.13 79.2806 60.3727 79.053C60.6154 78.8253 60.9794 78.8253 61.2221 79.053C61.4648 79.2806 61.4648 79.6221 61.2221 79.8498ZM61.0098 75.7234C60.7671 75.4958 60.7671 75.1543 61.0098 74.9266C61.2525 74.6989 61.6165 74.6989 61.8592 74.9266C62.1019 75.1543 62.1019 75.4958 61.8592 75.7234C61.6165 75.9226 61.2525 75.9226 61.0098 75.7234ZM62.4963 78.6546C62.2536 78.8822 61.8895 78.8822 61.6468 78.6546C61.4041 78.4269 61.4041 78.0854 61.6468 77.8577C61.8895 77.6301 62.2536 77.6301 62.4963 77.8577C62.7086 78.0854 62.7086 78.4554 62.4963 78.6546ZM63.7401 77.4878C63.4974 77.7155 63.1333 77.7155 62.8906 77.4878C62.6479 77.2601 62.6479 76.9186 62.8906 76.691C63.1333 76.4633 63.4974 76.4633 63.7401 76.691C63.9828 76.9186 63.9828 77.2601 63.7401 77.4878Z" fill="#E45809"/>
<path d="M69.3221 68.8652H63.6492C63.1941 68.8652 62.8301 69.2067 62.8301 69.6336V73.0201L65.7121 75.7235H69.3221C69.7772 75.7235 70.1412 75.382 70.1412 74.9552V69.6336C70.1412 69.2067 69.7772 68.8652 69.3221 68.8652ZM65.5907 71.4264C65.348 71.6541 64.984 71.6541 64.7413 71.4264C64.4986 71.1988 64.4986 70.8573 64.7413 70.6296C64.984 70.4019 65.348 70.4019 65.5907 70.6296C65.8334 70.8573 65.8031 71.2272 65.5907 71.4264ZM66.8345 72.6216C66.5918 72.8493 66.2278 72.8493 65.9851 72.6216C65.7424 72.394 65.7424 72.0525 65.9851 71.8248C66.2278 71.5972 66.5918 71.5972 66.8345 71.8248C67.0772 72.0525 67.0772 72.394 66.8345 72.6216ZM68.0783 73.7884C67.8356 74.0161 67.4716 74.0161 67.2289 73.7884C66.9862 73.5608 66.9862 73.2193 67.2289 72.9916C67.4716 72.7639 67.8356 72.7639 68.0783 72.9916C68.321 73.2193 68.321 73.5608 68.0783 73.7884Z" fill="#E45809"/>
<path d="M29.0829 70.7939V79.9286H27.2411L22.4081 74.3825V79.9286H20.1924V70.7939H22.048L26.8672 76.34V70.7939H29.0829Z" fill="white"/>
<path d="M31.3349 70.7939H33.5783V79.9286H31.3349V70.7939Z" fill="white"/>
<path d="M44.7278 70.7939V79.9286H42.886L38.053 74.3825V79.9286H35.8373V70.7939H37.6929L42.5121 76.34V70.7939H44.7278Z" fill="white"/>
<path d="M54.4855 78.2321V79.9286H46.9798V70.7939H54.3054V72.4904H49.2093V74.4739H53.71V76.1181H49.2093V78.2321H54.4855Z" fill="white"/>
<path d="M77.4231 80.0818C76.3983 80.0818 75.4692 79.8818 74.6359 79.4818C73.8122 79.0731 73.1609 78.5123 72.682 77.7993C72.2127 77.0776 71.978 76.2646 71.978 75.3602C71.978 74.4559 72.2127 73.6473 72.682 72.9342C73.1609 72.2125 73.8122 71.6517 74.6359 71.2517C75.4692 70.843 76.403 70.6387 77.4375 70.6387C78.3091 70.6387 79.0945 70.7778 79.7936 71.056C80.5024 71.3343 81.0962 71.7343 81.5751 72.256L80.081 73.5081C79.4009 72.7951 78.5581 72.4386 77.5524 72.4386C76.9298 72.4386 76.3743 72.5647 75.8858 72.8169C75.3974 73.0603 75.0142 73.4038 74.7365 73.8472C74.4683 74.2907 74.3342 74.795 74.3342 75.3602C74.3342 75.9254 74.4683 76.4298 74.7365 76.8732C75.0142 77.3167 75.3974 77.6645 75.8858 77.9167C76.3743 78.1601 76.9298 78.2819 77.5524 78.2819C78.5581 78.2819 79.4009 77.921 80.081 77.1993L81.5751 78.4514C81.0962 78.9818 80.5024 79.3862 79.7936 79.6644C79.0849 79.9427 78.2947 80.0818 77.4231 80.0818Z" fill="white"/>
<path d="M89.5305 77.9688H84.8612L83.9705 79.9253H81.5856L86.0681 70.7952H88.3668L92.8636 79.9253H90.4212L89.5305 77.9688ZM88.7978 76.3645L87.2031 72.869L85.6083 76.3645H88.7978Z" fill="white"/>
<path d="M97.1683 80.0818C96.3734 80.0818 95.6023 79.9862 94.8552 79.7949C94.1177 79.5949 93.5239 79.3384 93.0737 79.0253L93.8639 77.4341C94.2949 77.721 94.8074 77.9514 95.4012 78.1254C95.995 78.2993 96.5889 78.3862 97.1827 78.3862C97.8436 78.3862 98.332 78.2993 98.6481 78.1254C98.9642 77.9428 99.1222 77.7036 99.1222 77.408C99.1222 77.1906 99.0264 77.0124 98.8349 76.8732C98.6529 76.7254 98.4135 76.608 98.1165 76.5211C97.8292 76.4341 97.4365 76.3385 96.9384 76.2341C96.1722 76.0689 95.5449 75.9037 95.0564 75.7385C94.5679 75.5733 94.1465 75.3081 93.7921 74.9429C93.4473 74.5777 93.2749 74.0907 93.2749 73.482C93.2749 72.9516 93.4329 72.4734 93.749 72.0473C94.0651 71.6125 94.5392 71.2691 95.1713 71.0169C95.813 70.7648 96.5936 70.6387 97.5131 70.6387C98.1549 70.6387 98.7822 70.7082 99.3952 70.8474C100.008 70.9865 100.545 71.1865 101.004 71.4473L100.286 73.0516C99.3569 72.5734 98.4278 72.3343 97.4988 72.3343C96.8475 72.3343 96.3638 72.4299 96.0477 72.6212C95.7412 72.8125 95.588 73.0647 95.588 73.3777C95.588 73.6907 95.7652 73.9255 96.1195 74.082C96.4835 74.2298 97.0342 74.3777 97.7717 74.5255C98.538 74.6907 99.1653 74.8559 99.6538 75.0211C100.142 75.1863 100.559 75.4472 100.904 75.8037C101.258 76.1602 101.435 76.6428 101.435 77.2515C101.435 77.7732 101.272 78.2514 100.947 78.6862C100.631 79.1123 100.152 79.4514 99.5101 79.7036C98.8684 79.9557 98.0878 80.0818 97.1683 80.0818Z" fill="white"/>
<path d="M102.983 70.7952H105.31V79.9253H102.983V70.7952Z" fill="white"/>
<path d="M116.877 70.7952V79.9253H114.966L109.952 74.382V79.9253H107.654V70.7952H109.579L114.578 76.3385V70.7952H116.877Z" fill="white"/>
<path d="M124.084 80.0818C123.04 80.0818 122.096 79.8775 121.254 79.4688C120.42 79.0601 119.764 78.4993 119.285 77.7862C118.816 77.0645 118.581 76.2559 118.581 75.3602C118.581 74.4646 118.816 73.6603 119.285 72.9473C119.764 72.2256 120.42 71.6604 121.254 71.2517C122.096 70.843 123.04 70.6387 124.084 70.6387C125.128 70.6387 126.067 70.843 126.9 71.2517C127.733 71.6604 128.389 72.2256 128.868 72.9473C129.347 73.6603 129.586 74.4646 129.586 75.3602C129.586 76.2559 129.347 77.0645 128.868 77.7862C128.389 78.4993 127.733 79.0601 126.9 79.4688C126.067 79.8775 125.128 80.0818 124.084 80.0818ZM124.084 78.2819C124.678 78.2819 125.214 78.1601 125.693 77.9167C126.172 77.6645 126.545 77.3167 126.814 76.8732C127.091 76.4298 127.23 75.9254 127.23 75.3602C127.23 74.795 127.091 74.2907 126.814 73.8472C126.545 73.4038 126.172 73.0603 125.693 72.8169C125.214 72.5647 124.678 72.4386 124.084 72.4386C123.49 72.4386 122.954 72.5647 122.475 72.8169C121.996 73.0603 121.618 73.4038 121.34 73.8472C121.072 74.2907 120.938 74.795 120.938 75.3602C120.938 75.9254 121.072 76.4298 121.34 76.8732C121.618 77.3167 121.996 77.6645 122.475 77.9167C122.954 78.1601 123.49 78.2819 124.084 78.2819Z" fill="white"/>
<rect x="0.5" y="0.5" width="149" height="149" rx="74.5" stroke="#828FA1"/>
</svg>
