<svg width="1390" height="29" viewBox="0 0 1390 29" fill="none" xmlns="http://www.w3.org/2000/svg">
<path fill-rule="evenodd" clip-rule="evenodd" d="M505.5 20.5H0V19.5H505.5V20.5Z" fill="#828FA1"/>
<path fill-rule="evenodd" clip-rule="evenodd" d="M512.149 19.5H505.5V20.5H512.149C516.063 20.5 519.895 19.3798 523.192 17.2717L543.84 4.07082C546.976 2.06557 550.621 1 554.343 1H561.5V0H554.343C550.43 0 546.598 1.12022 543.301 3.2283L522.653 16.4292C519.517 18.4344 515.872 19.5 512.149 19.5Z" fill="#828FA1"/>
<path fill-rule="evenodd" clip-rule="evenodd" d="M828.5 1H561.5V0H828.5V1Z" fill="#828FA1"/>
<path d="M602.789 22V10.5547H604.906V22H602.789ZM608.077 22V10.5547H610.327C610.734 11.1901 611.559 12.4714 612.804 14.3984C614.049 16.3255 614.807 17.4974 615.077 17.9141C615.156 18.0339 615.288 18.237 615.476 18.5234C615.669 18.8047 615.804 19.0052 615.882 19.125C615.846 17.3385 615.827 16.4115 615.827 16.3438V10.5547H617.757V22H615.476L610.312 13.9531L609.937 13.3359C609.979 14.7109 609.999 15.6771 609.999 16.2344V22H608.077ZM623.069 22V12.25H619.733V10.5547H628.514V12.25H625.194V22H623.069ZM630.334 22V10.5234H634.576C635.154 10.5234 635.654 10.5495 636.076 10.6016C636.503 10.6536 636.907 10.75 637.287 10.8906C637.673 11.026 637.983 11.2109 638.217 11.4453C638.456 11.6797 638.644 11.987 638.779 12.3672C638.92 12.7422 638.99 13.1875 638.99 13.7031C638.99 15.224 638.3 16.224 636.92 16.7031C637.201 17.0208 637.55 17.6094 637.967 18.4688L639.67 22H637.358L636.022 19.0078C635.516 17.9349 635.204 17.2995 635.084 17.1016C634.996 17.0964 634.701 17.0938 634.201 17.0938L632.428 17.0781V22H630.334ZM634.764 15.5625C635.576 15.5625 636.16 15.4193 636.514 15.1328C636.868 14.8411 637.045 14.375 637.045 13.7344C637.045 13.1719 636.865 12.7578 636.506 12.4922C636.147 12.2266 635.597 12.0938 634.858 12.0938H632.428V15.5547C632.506 15.5547 632.894 15.5573 633.592 15.5625C634.29 15.5625 634.68 15.5625 634.764 15.5625ZM644.498 19.3516C645.065 20.0755 645.904 20.4375 647.013 20.4375C648.123 20.4375 648.958 20.0781 649.521 19.3594C650.089 18.6354 650.373 17.6146 650.373 16.2969C650.373 14.9635 650.089 13.9297 649.521 13.1953C648.958 12.4609 648.125 12.0938 647.021 12.0938C645.912 12.0938 645.07 12.4635 644.498 13.2031C643.93 13.9375 643.646 14.9688 643.646 16.2969C643.646 17.6094 643.93 18.6276 644.498 19.3516ZM647.005 22.1641C645.281 22.1641 643.919 21.6432 642.919 20.6016C641.925 19.5547 641.427 18.112 641.427 16.2734C641.427 14.4245 641.927 12.9818 642.927 11.9453C643.927 10.9089 645.289 10.3906 647.013 10.3906C648.737 10.3906 650.096 10.9115 651.091 11.9531C652.086 12.9896 652.583 14.4323 652.583 16.2812C652.583 18.1094 652.083 19.5469 651.083 20.5938C650.083 21.6406 648.724 22.1641 647.005 22.1641ZM657.356 20.3047H658.872C660.179 20.3047 661.174 19.9635 661.856 19.2812C662.539 18.5938 662.88 17.5938 662.88 16.2812C662.88 14.875 662.528 13.8542 661.825 13.2188C661.122 12.5781 660.062 12.2578 658.645 12.2578H657.356V20.3047ZM655.239 22V10.5547H658.552C659.552 10.5547 660.447 10.6693 661.239 10.8984C662.031 11.1276 662.71 11.474 663.278 11.9375C663.851 12.3958 664.289 12.9896 664.591 13.7188C664.898 14.4427 665.052 15.2812 665.052 16.2344C665.052 18.0833 664.494 19.5078 663.38 20.5078C662.265 21.5026 660.721 22 658.747 22H655.239ZM672.168 22.1641C670.668 22.1641 669.53 21.7917 668.754 21.0469C667.978 20.2969 667.59 19.2422 667.59 17.8828V10.5547H669.715V17.7031C669.715 18.6562 669.908 19.3516 670.293 19.7891C670.684 20.2266 671.322 20.4453 672.207 20.4453C673.077 20.4453 673.707 20.2266 674.098 19.7891C674.488 19.3464 674.684 18.6484 674.684 17.6953V10.5547H676.801V17.8984C676.801 19.2474 676.405 20.2969 675.613 21.0469C674.822 21.7917 673.673 22.1641 672.168 22.1641ZM684.8 22.1641C683.128 22.1641 681.803 21.638 680.824 20.5859C679.845 19.5339 679.355 18.0807 679.355 16.2266C679.355 14.4661 679.865 13.0547 680.886 11.9922C681.912 10.9245 683.253 10.3906 684.91 10.3906C686.248 10.3906 687.381 10.7005 688.308 11.3203L687.644 12.9219C686.753 12.375 685.858 12.1016 684.957 12.1016C683.904 12.1016 683.071 12.4818 682.457 13.2422C681.847 13.9974 681.543 15.013 681.543 16.2891C681.543 17.612 681.837 18.6354 682.425 19.3594C683.019 20.0833 683.863 20.4453 684.957 20.4453C685.915 20.4453 686.865 20.2057 687.808 19.7266L688.089 21.3828C687.214 21.9036 686.118 22.1641 684.8 22.1641ZM690.62 22V10.5547H697.558L697.472 12.2344H692.737V15.1875H697.237V16.8672H692.737V20.3125H697.643L697.573 22H690.62ZM707.744 22V17.4609L703.783 10.5547H706.08L708.806 15.5078L711.548 10.5547H713.814L709.869 17.4219V22H707.744ZM718.118 19.3516C718.686 20.0755 719.524 20.4375 720.634 20.4375C721.743 20.4375 722.579 20.0781 723.142 19.3594C723.709 18.6354 723.993 17.6146 723.993 16.2969C723.993 14.9635 723.709 13.9297 723.142 13.1953C722.579 12.4609 721.746 12.0938 720.642 12.0938C719.532 12.0938 718.691 12.4635 718.118 13.2031C717.55 13.9375 717.267 14.9688 717.267 16.2969C717.267 17.6094 717.55 18.6276 718.118 19.3516ZM720.626 22.1641C718.902 22.1641 717.54 21.6432 716.54 20.6016C715.545 19.5547 715.048 18.112 715.048 16.2734C715.048 14.4245 715.548 12.9818 716.548 11.9453C717.548 10.9089 718.91 10.3906 720.634 10.3906C722.358 10.3906 723.717 10.9115 724.712 11.9531C725.707 12.9896 726.204 14.4323 726.204 16.2812C726.204 18.1094 725.704 19.5469 724.704 20.5938C723.704 21.6406 722.345 22.1641 720.626 22.1641ZM733.321 22.1641C731.821 22.1641 730.683 21.7917 729.907 21.0469C729.131 20.2969 728.743 19.2422 728.743 17.8828V10.5547H730.868V17.7031C730.868 18.6562 731.06 19.3516 731.446 19.7891C731.836 20.2266 732.474 20.4453 733.36 20.4453C734.229 20.4453 734.86 20.2266 735.25 19.7891C735.641 19.3464 735.836 18.6484 735.836 17.6953V10.5547H737.953V17.8984C737.953 19.2474 737.558 20.2969 736.766 21.0469C735.974 21.7917 734.826 22.1641 733.321 22.1641ZM740.906 22V10.5234H745.148C745.726 10.5234 746.226 10.5495 746.648 10.6016C747.075 10.6536 747.479 10.75 747.859 10.8906C748.244 11.026 748.554 11.2109 748.789 11.4453C749.028 11.6797 749.216 11.987 749.351 12.3672C749.492 12.7422 749.562 13.1875 749.562 13.7031C749.562 15.224 748.872 16.224 747.492 16.7031C747.773 17.0208 748.122 17.6094 748.539 18.4688L750.242 22H747.929L746.593 19.0078C746.088 17.9349 745.776 17.2995 745.656 17.1016C745.567 17.0964 745.273 17.0938 744.773 17.0938L743 17.0781V22H740.906ZM745.336 15.5625C746.148 15.5625 746.731 15.4193 747.086 15.1328C747.44 14.8411 747.617 14.375 747.617 13.7344C747.617 13.1719 747.437 12.7578 747.078 12.4922C746.718 12.2266 746.169 12.0938 745.429 12.0938H743V15.5547C743.078 15.5547 743.466 15.5573 744.164 15.5625C744.862 15.5625 745.252 15.5625 745.336 15.5625ZM755.702 22.1562C754.322 22.1562 753.085 21.8385 751.991 21.2031L752.507 19.5234C752.996 19.7943 753.528 20.013 754.101 20.1797C754.679 20.3464 755.241 20.4297 755.788 20.4297C756.46 20.4297 756.968 20.2865 757.312 20C757.655 19.7083 757.827 19.2917 757.827 18.75C757.827 18.0312 757.348 17.5339 756.39 17.2578C756.322 17.237 756.132 17.1823 755.819 17.0938C755.507 17 755.213 16.9115 754.937 16.8281C754.666 16.7396 754.47 16.6719 754.351 16.625C752.814 16.0833 752.046 15.0729 752.046 13.5938C752.046 12.5573 752.413 11.7578 753.148 11.1953C753.887 10.6328 754.866 10.3516 756.085 10.3516C757.465 10.3516 758.655 10.6354 759.655 11.2031L759.015 12.75C757.994 12.2917 757.046 12.0625 756.171 12.0625C755.541 12.0625 755.064 12.1745 754.741 12.3984C754.424 12.6172 754.254 12.9844 754.233 13.5C754.233 14.1354 754.549 14.5495 755.179 14.7422C755.304 14.7891 755.611 14.8906 756.101 15.0469C756.59 15.2031 756.908 15.3047 757.054 15.3516C758.101 15.6953 758.848 16.1224 759.296 16.6328C759.749 17.1432 759.976 17.8542 759.976 18.7656C759.976 19.8542 759.59 20.6927 758.819 21.2812C758.049 21.8646 757.009 22.1562 755.702 22.1562ZM762.428 22V10.5547H769.366L769.28 12.2344H764.545V15.1875H769.045V16.8672H764.545V20.3125H769.452L769.381 22H762.428ZM772.068 22V10.5547H774.185V20.3125H778.974L778.912 22H772.068ZM781.083 22V10.5547H787.857L787.778 12.2344H783.185V15.4844H787.552V17.1484H783.185V22H781.083Z" fill="#00FFFF"/>
<path fill-rule="evenodd" clip-rule="evenodd" d="M835.149 1H828.5V0H835.149C839.063 0 842.895 1.12022 846.192 3.2283L866.84 16.4292C869.976 18.4344 873.621 19.5 877.343 19.5H884.5V20.5H877.343C873.43 20.5 869.598 19.3798 866.301 17.2717L845.653 4.07082C842.517 2.06557 838.872 1 835.149 1Z" fill="#828FA1"/>
<path fill-rule="evenodd" clip-rule="evenodd" d="M1390 20.5H884.5V19.5H1390V20.5Z" fill="#828FA1"/>
</svg>
