<svg width="288" height="29" viewBox="0 0 288 29" fill="none" xmlns="http://www.w3.org/2000/svg">
<path fill-rule="evenodd" clip-rule="evenodd" d="M7.5 20.5H0V19.5H7.5V20.5Z" fill="#828FA1"/>
<path fill-rule="evenodd" clip-rule="evenodd" d="M14.1494 19.5H7.5V20.5H14.1494C18.0629 20.5 21.8947 19.3798 25.192 17.2717L45.8395 4.07082C48.9759 2.06557 52.6208 1 56.3434 1H63.5V0H56.3434C52.4299 0 48.5981 1.12022 45.3008 3.2283L24.6533 16.4292C21.5169 18.4344 17.872 19.5 14.1494 19.5Z" fill="#828FA1"/>
<path fill-rule="evenodd" clip-rule="evenodd" d="M224.5 1H63.5V0H224.5V1Z" fill="#828FA1"/>
<path d="M74.4668 18V9.41602H76.0547V18H74.4668ZM78.4331 18V9.41602H80.1206C80.4253 9.89258 81.0445 10.8535 81.978 12.2988C82.9116 13.7441 83.48 14.623 83.6831 14.9355C83.7417 15.0254 83.8413 15.1777 83.982 15.3926C84.1265 15.6035 84.228 15.7539 84.2866 15.8438C84.2593 14.5039 84.2456 13.8086 84.2456 13.7578V9.41602H85.6929V18H83.982L80.1089 11.9648L79.8277 11.502C79.8589 12.5332 79.8745 13.2578 79.8745 13.6758V18H78.4331ZM89.6768 18V10.6875H87.1748V9.41602H93.7608V10.6875H91.2705V18H89.6768ZM95.1255 18V9.39258H98.3072C98.7408 9.39258 99.1158 9.41211 99.4322 9.45117C99.7525 9.49023 100.055 9.5625 100.34 9.66797C100.629 9.76953 100.862 9.9082 101.038 10.084C101.217 10.2598 101.358 10.4902 101.46 10.7754C101.565 11.0566 101.618 11.3906 101.618 11.7773C101.618 12.918 101.1 13.668 100.065 14.0273C100.276 14.2656 100.538 14.707 100.85 15.3516L102.128 18H100.393L99.3912 15.7559C99.0123 14.9512 98.7779 14.4746 98.688 14.3262C98.6216 14.3223 98.4009 14.3203 98.0259 14.3203L96.6959 14.3086V18H95.1255ZM98.4478 13.1719C99.0572 13.1719 99.4947 13.0645 99.7603 12.8496C100.026 12.6309 100.159 12.2812 100.159 11.8008C100.159 11.3789 100.024 11.0684 99.7545 10.8691C99.4849 10.6699 99.0728 10.5703 98.5181 10.5703H96.6959V13.166C96.7545 13.166 97.0455 13.168 97.5689 13.1719C98.0923 13.1719 98.3853 13.1719 98.4478 13.1719ZM105.748 16.0137C106.174 16.5566 106.803 16.8281 107.635 16.8281C108.467 16.8281 109.094 16.5586 109.516 16.0195C109.941 15.4766 110.154 14.7109 110.154 13.7227C110.154 12.7227 109.941 11.9473 109.516 11.3965C109.094 10.8457 108.469 10.5703 107.641 10.5703C106.809 10.5703 106.178 10.8477 105.748 11.4023C105.322 11.9531 105.109 12.7266 105.109 13.7227C105.109 14.707 105.322 15.4707 105.748 16.0137ZM107.629 18.123C106.336 18.123 105.315 17.7324 104.565 16.9512C103.818 16.166 103.445 15.084 103.445 13.7051C103.445 12.3184 103.82 11.2363 104.57 10.459C105.32 9.68164 106.342 9.29297 107.635 9.29297C108.928 9.29297 109.947 9.68359 110.693 10.4648C111.44 11.2422 111.813 12.3242 111.813 13.7109C111.813 15.082 111.438 16.1602 110.688 16.9453C109.938 17.7305 108.918 18.123 107.629 18.123ZM115.392 16.7285H116.529C117.509 16.7285 118.255 16.4727 118.767 15.9609C119.279 15.4453 119.535 14.6953 119.535 13.7109C119.535 12.6562 119.271 11.8906 118.744 11.4141C118.216 10.9336 117.421 10.6934 116.359 10.6934H115.392V16.7285ZM113.804 18V9.41602H116.289C117.039 9.41602 117.711 9.50195 118.304 9.67383C118.898 9.8457 119.408 10.1055 119.834 10.4531C120.263 10.7969 120.591 11.2422 120.818 11.7891C121.048 12.332 121.164 12.9609 121.164 13.6758C121.164 15.0625 120.746 16.1309 119.91 16.8809C119.074 17.627 117.916 18 116.435 18H113.804ZM126.501 18.123C125.376 18.123 124.523 17.8438 123.941 17.2852C123.359 16.7227 123.068 15.9316 123.068 14.9121V9.41602H124.661V14.7773C124.661 15.4922 124.806 16.0137 125.095 16.3418C125.388 16.6699 125.866 16.834 126.53 16.834C127.183 16.834 127.655 16.6699 127.948 16.3418C128.241 16.0098 128.388 15.4863 128.388 14.7715V9.41602H129.976V14.9238C129.976 15.9355 129.679 16.7227 129.085 17.2852C128.491 17.8438 127.63 18.123 126.501 18.123ZM135.975 18.123C134.721 18.123 133.727 17.7285 132.993 16.9395C132.258 16.1504 131.891 15.0605 131.891 13.6699C131.891 12.3496 132.274 11.291 133.04 10.4941C133.809 9.69336 134.815 9.29297 136.057 9.29297C137.061 9.29297 137.911 9.52539 138.606 9.99023L138.108 11.1914C137.44 10.7812 136.768 10.5762 136.092 10.5762C135.303 10.5762 134.678 10.8613 134.217 11.4316C133.76 11.998 133.532 12.7598 133.532 13.7168C133.532 14.709 133.753 15.4766 134.194 16.0195C134.639 16.5625 135.272 16.834 136.092 16.834C136.811 16.834 137.524 16.6543 138.231 16.2949L138.442 17.5371C137.786 17.9277 136.964 18.123 135.975 18.123ZM140.34 18V9.41602H145.543L145.479 10.6758H141.928V12.8906H145.303V14.1504H141.928V16.7344H145.608L145.555 18H140.34ZM153.183 18V14.5957L150.212 9.41602H151.935L153.98 13.1309L156.036 9.41602H157.736L154.777 14.5664V18H153.183ZM160.964 16.0137C161.389 16.5566 162.018 16.8281 162.85 16.8281C163.682 16.8281 164.309 16.5586 164.731 16.0195C165.157 15.4766 165.37 14.7109 165.37 13.7227C165.37 12.7227 165.157 11.9473 164.731 11.3965C164.309 10.8457 163.684 10.5703 162.856 10.5703C162.024 10.5703 161.393 10.8477 160.964 11.4023C160.538 11.9531 160.325 12.7266 160.325 13.7227C160.325 14.707 160.538 15.4707 160.964 16.0137ZM162.844 18.123C161.551 18.123 160.53 17.7324 159.78 16.9512C159.034 16.166 158.661 15.084 158.661 13.7051C158.661 12.3184 159.036 11.2363 159.786 10.459C160.536 9.68164 161.557 9.29297 162.85 9.29297C164.143 9.29297 165.163 9.68359 165.909 10.4648C166.655 11.2422 167.028 12.3242 167.028 13.7109C167.028 15.082 166.653 16.1602 165.903 16.9453C165.153 17.7305 164.134 18.123 162.844 18.123ZM172.365 18.123C171.24 18.123 170.387 17.8438 169.805 17.2852C169.223 16.7227 168.932 15.9316 168.932 14.9121V9.41602H170.526V14.7773C170.526 15.4922 170.67 16.0137 170.959 16.3418C171.252 16.6699 171.731 16.834 172.395 16.834C173.047 16.834 173.52 16.6699 173.813 16.3418C174.106 16.0098 174.252 15.4863 174.252 14.7715V9.41602H175.84V14.9238C175.84 15.9355 175.543 16.7227 174.949 17.2852C174.356 17.8438 173.494 18.123 172.365 18.123ZM178.054 18V9.39258H181.236C181.67 9.39258 182.045 9.41211 182.361 9.45117C182.681 9.49023 182.984 9.5625 183.269 9.66797C183.558 9.76953 183.791 9.9082 183.967 10.084C184.146 10.2598 184.287 10.4902 184.388 10.7754C184.494 11.0566 184.547 11.3906 184.547 11.7773C184.547 12.918 184.029 13.668 182.994 14.0273C183.205 14.2656 183.467 14.707 183.779 15.3516L185.056 18H183.322L182.32 15.7559C181.941 14.9512 181.707 14.4746 181.617 14.3262C181.551 14.3223 181.33 14.3203 180.955 14.3203L179.625 14.3086V18H178.054ZM181.377 13.1719C181.986 13.1719 182.424 13.0645 182.689 12.8496C182.955 12.6309 183.088 12.2812 183.088 11.8008C183.088 11.3789 182.953 11.0684 182.683 10.8691C182.414 10.6699 182.002 10.5703 181.447 10.5703H179.625V13.166C179.683 13.166 179.974 13.168 180.498 13.1719C181.021 13.1719 181.314 13.1719 181.377 13.1719ZM189.152 18.1172C188.116 18.1172 187.189 17.8789 186.368 17.4023L186.755 16.1426C187.122 16.3457 187.521 16.5098 187.95 16.6348C188.384 16.7598 188.806 16.8223 189.216 16.8223C189.72 16.8223 190.101 16.7148 190.359 16.5C190.616 16.2812 190.745 15.9688 190.745 15.5625C190.745 15.0234 190.386 14.6504 189.667 14.4434C189.616 14.4277 189.474 14.3867 189.24 14.3203C189.005 14.25 188.784 14.1836 188.577 14.1211C188.374 14.0547 188.228 14.0039 188.138 13.9688C186.986 13.5625 186.409 12.8047 186.409 11.6953C186.409 10.918 186.685 10.3184 187.236 9.89648C187.79 9.47461 188.525 9.26367 189.439 9.26367C190.474 9.26367 191.366 9.47656 192.116 9.90234L191.636 11.0625C190.87 10.7188 190.159 10.5469 189.503 10.5469C189.031 10.5469 188.673 10.6309 188.431 10.7988C188.193 10.9629 188.066 11.2383 188.05 11.625C188.05 12.1016 188.286 12.4121 188.759 12.5566C188.853 12.5918 189.083 12.668 189.45 12.7852C189.818 12.9023 190.056 12.9785 190.165 13.0137C190.95 13.2715 191.511 13.5918 191.847 13.9746C192.187 14.3574 192.357 14.8906 192.357 15.5742C192.357 16.3906 192.068 17.0195 191.49 17.4609C190.911 17.8984 190.132 18.1172 189.152 18.1172ZM194.196 18V9.41602H199.399L199.335 10.6758H195.784V12.8906H199.159V14.1504H195.784V16.7344H199.464L199.411 18H194.196ZM201.426 18V9.41602H203.014V16.7344H206.606L206.559 18H201.426ZM208.187 18V9.41602H213.267L213.209 10.6758H209.764V13.1133H213.039V14.3613H209.764V18H208.187Z" fill="#00FFFF"/>
<path fill-rule="evenodd" clip-rule="evenodd" d="M231.149 1H224.5V0H231.149C235.063 0 238.895 1.12022 242.192 3.2283L262.84 16.4292C265.976 18.4344 269.621 19.5 273.343 19.5H280.5V20.5H273.343C269.43 20.5 265.598 19.3798 262.301 17.2717L241.653 4.07082C238.517 2.06557 234.872 1 231.149 1Z" fill="#828FA1"/>
<path fill-rule="evenodd" clip-rule="evenodd" d="M288 20.5H280.5V19.5H288V20.5Z" fill="#828FA1"/>
</svg>
